<?xml version="1.0" encoding="UTF-8" standalone="no"?>
<!-- Created with Inkscape (http://www.inkscape.org/) -->

<svg
   xmlns:dc="http://purl.org/dc/elements/1.1/"
   xmlns:cc="http://creativecommons.org/ns#"
   xmlns:rdf="http://www.w3.org/1999/02/22-rdf-syntax-ns#"
   xmlns:svg="http://www.w3.org/2000/svg"
   xmlns="http://www.w3.org/2000/svg"
   xmlns:sodipodi="http://sodipodi.sourceforge.net/DTD/sodipodi-0.dtd"
   xmlns:inkscape="http://www.inkscape.org/namespaces/inkscape"
   width="7.0mm"
   height="7.0mm"
   viewBox="0 0 7.0 7.0"
   version="1.1"
   id="svg7090"
   inkscape:version="0.92.4 5da689c313, 2019-01-14"
   sodipodi:docname="DCP_GUY.svg">
  <defs
     id="defs7084" />
  <sodipodi:namedview
     id="base"
     pagecolor="#ffffff"
     bordercolor="#666666"
     borderopacity="1.0"
     inkscape:pageopacity="0.0"
     inkscape:pageshadow="2"
     inkscape:zoom="12.993404"
     inkscape:cx="1.5213328"
     inkscape:cy="12.75397"
     inkscape:document-units="mm"
     inkscape:current-layer="g839"
     showgrid="false"
     inkscape:window-width="1920"
     inkscape:window-height="1019"
     inkscape:window-x="0"
     inkscape:window-y="0"
     inkscape:window-maximized="1"
     borderlayer="true">
    <inkscape:grid
       id="grid819"
       units="mm"
       type="xygrid"
       empspacing="1"
       spacingy="2.54"
       spacingx="2.54" />
  </sodipodi:namedview>
  <metadata
     id="metadata7087">
    <rdf:RDF>
      <cc:Work
         rdf:about="">
        <dc:format>image/svg+xml</dc:format>
        <dc:type
           rdf:resource="http://purl.org/dc/dcmitype/StillImage" />
        <dc:title />
      </cc:Work>
    </rdf:RDF>
  </metadata>
  <g
     id="g825"
     sodipodi:insensitive="true"
     inkscape:groupmode="layer"
     inkscape:label="[fixed] BG">
    <rect
       id="rect823"
       style="stroke:none;fill-opacity:1;fill:#FFFFFF"
       height="7.0"
       width="7.0"
       y="0"
       x="0" />
  </g>
  <g
     id="g827"
     inkscape:groupmode="layer"
     inkscape:label="Edge.Cuts" />
  <g
     id="g829"
     inkscape:groupmode="layer"
     inkscape:label="B.Cu-disabled" />
  <g
     id="g831"
     inkscape:groupmode="layer"
     inkscape:label="B.Mask-disabled" />
  <g
     id="g833"
     inkscape:groupmode="layer"
     inkscape:label="B.Silk-disabled" />
  <g
     id="g835"
     inkscape:groupmode="layer"
     inkscape:label="F.Cu" />
  <g
     id="g837"
     inkscape:groupmode="layer"
     inkscape:label="F.Mask-disabled" />
  <g
     id="g839"
     inkscape:groupmode="layer"
     inkscape:label="F.Silk">
    <g
       style="display:inline"
       id="layer1"
       inkscape:label="Layer 1"
       transform="matrix(0.07446594,0,0,0.08438211,-4.5439265,-7.0119194)">
      <g
         id="g4533-4-8"
         style="fill:#fa29af;fill-opacity:1"
         transform="matrix(0.75431782,-0.03045855,-0.00288754,0.6733756,48.817794,22.634233)">
        <g
           id="g4536-5-9"
           style="fill:#fa29af;fill-opacity:1">
          <path
             inkscape:connector-curvature="0"
             id="path4500-9-5"
             transform="matrix(0.170636,0.00771832,6.8045495e-4,0.17775688,8.6238452,65.694007)"
             d="m 415.78125,151.63477 c -2.95733,-0.008 -5.91834,0.0531 -8.87891,0.18164 -47.36901,2.05679 -94.80604,21.53197 -131.23632,57.94531 -28.48785,28.47461 -47.50359,65.28478 -53.03321,102.66016 -2.92931,19.79944 -1.89127,50.91563 2.12305,63.63867 0.50702,1.60701 -0.0149,2.60416 -1.39453,2.66406 -2.30381,0.10003 -57.22523,-27.61621 -61.71094,-31.14258 -2.39713,-1.88442 -2.37059,-2.46163 0.38672,-8.36133 4.37753,-9.36626 4.13438,-25.04328 -0.53711,-34.54882 -6.31728,-12.85436 -22.32743,-22.01845 -37.32617,-21.36719 -30.34856,1.31775 -51.078048,34.20965 -37.773439,59.9375 2.290548,4.42936 4.164232,8.49094 4.162109,9.02343 -0.0021,0.53228 -2.705161,1.08503 -6.009766,1.22852 -14.211496,0.61707 -28.664039,10.00829 -35.076172,22.79492 -8.868963,17.68604 -6.455236,33.24761 7.15625,46.10742 16.786915,15.85989 41.748661,15.08917 58.656248,-1.81054 4.17596,-4.17402 7.59619,-8.29066 7.59961,-9.14844 0.0122,-3.06461 4.76044,-1.65439 18.14844,5.39258 128.89291,64.7817 275.4543,142.12407 390.76562,201.51367 64.89394,33.39201 118.53013,61.17066 119.19141,61.73242 0.66133,0.5618 -0.21004,4.04727 -1.93555,7.74219 -3.87589,8.29945 -4.34488,24.50146 -0.93359,32.26172 9.09208,20.68351 33.55575,28.97803 55.69727,18.88281 21.53396,-9.81815 30.98274,-34.89557 20.66601,-54.8457 -2.27441,-4.39811 -4.13252,-8.33791 -4.13086,-8.75586 0.002,-0.41805 3.7536,-1.29428 8.33789,-1.94727 21.80808,-3.10633 37.38662,-20.31898 37.47071,-41.40429 0.0673,-16.87721 -8.6254,-29.2725 -25.11914,-35.81641 -6.97858,-2.76877 -9.97021,-3.11253 -18.60743,-2.14258 -13.0959,1.47071 -21.18478,5.765 -30.24414,16.05469 l -7.08203,8.04687 -20.59961,-10.76953 c -77.81757,-40.68098 -170.66771,-89.92557 -186.76172,-97.375 17.20246,-10.48613 35.88214,-21.82411 56.57813,-34.23437 69.23229,-41.51494 131.31669,-78.81113 137.9668,-82.87891 12.00189,-7.34146 16.66038,-9.03055 16.64843,-6.03515 -0.003,0.85778 3.38324,4.67747 7.52735,8.49023 16.77868,15.43703 41.74284,14.04218 58.66211,-3.28125 13.71878,-14.04652 16.2622,-29.82426 7.53125,-46.74609 -6.31236,-12.23413 -20.69477,-20.37294 -34.90625,-19.75586 -3.30463,0.14349 -6.00799,-0.17436 -6.00586,-0.70703 0.002,-0.53228 1.90773,-4.75883 4.23437,-9.38868 13.51449,-26.89235 -6.96003,-57.99353 -37.30859,-56.67578 -14.99878,0.65126 -31.08387,11.20773 -37.50586,24.61524 -4.74892,9.91458 -5.12073,25.61618 -0.81641,34.60546 2.71125,5.66225 2.73549,6.2407 0.32227,8.33399 -4.51544,3.9172 -59.67664,36.41168 -61.98047,36.51172 -1.37902,0.0599 -1.89501,-0.89332 -1.375,-2.54492 4.11717,-13.07611 5.40524,-44.29188 2.63281,-63.84375 -5.23338,-36.90804 -23.96182,-72.07973 -52.23242,-98.08985 -33.89291,-31.18289 -77.58345,-46.63328 -121.94336,-46.74804 z m 65.18555,98.03515 c 1.34151,0 2.43088,0.44141 3.26562,1.32227 0.86453,0.88085 1.68388,2.20118 2.45899,3.96289 0.53661,0.81479 0.99918,1.55225 1.38671,2.21289 0.38757,0.63862 0.74436,1.25503 1.07227,1.84961 0.32794,0.57255 0.67157,1.13501 1.0293,1.68554 0.38757,0.52852 0.81989,1.11139 1.29687,1.75 0.38754,0.46245 0.72922,0.93546 1.02735,1.41993 0.32793,0.48447 0.65646,0.98179 0.98437,1.48828 0.32794,0.48447 0.67157,0.97984 1.0293,1.48633 0.38757,0.50648 0.81989,1.02226 1.29687,1.55078 0.56641,-0.46245 1.2064,-0.969 1.92188,-1.51953 0.74529,-0.55054 1.41547,-1.0459 2.01172,-1.48633 l 5.81445,-4.25977 c 0.17883,-0.13212 0.46204,-0.3538 0.84961,-0.66211 0.41738,-0.33032 0.87992,-0.69346 1.38672,-1.08984 0.5068,-0.4184 1.04297,-0.84668 1.60937,-1.28711 0.56643,-0.46245 1.08747,-0.89268 1.56446,-1.28906 0.5068,-0.41841 0.93915,-0.78155 1.29687,-1.08985 0.38757,-0.3083 0.64054,-0.51684 0.75977,-0.62695 0.35775,-0.3083 0.88074,-0.74971 1.5664,-1.32227 0.68567,-0.57255 1.4597,-1.13306 2.32422,-1.68359 0.89437,-0.57255 1.83457,-1.06792 2.81836,-1.48633 1.01357,-0.4184 1.9972,-0.6289 2.95117,-0.6289 1.10305,0 1.99598,0.12104 2.68164,0.36328 0.71548,0.22021 1.26676,0.54058 1.6543,0.95898 0.41739,0.39638 0.70252,0.88057 0.85156,1.45313 0.14893,0.55053 0.22266,1.14458 0.22266,1.7832 0,0.37436 -0.14917,0.7375 -0.44727,1.08984 -0.29812,0.35235 -0.70023,0.66153 -1.20703,0.92579 -0.47698,0.26425 -1.04337,0.48398 -1.69922,0.66015 -0.65587,0.15415 -1.34116,0.23242 -2.05664,0.23242 -0.14893,0 -0.44724,0.13028 -0.89453,0.39453 -0.41735,0.26426 -0.87992,0.59581 -1.38672,0.99219 -0.5068,0.37436 -1.01468,0.78223 -1.52148,1.22266 -0.5068,0.4184 -0.92402,0.79272 -1.25195,1.12305 -1.10302,1.12308 -2.22069,2.09146 -3.35352,2.90625 -1.10305,0.79276 -2.20558,1.57495 -3.30859,2.3457 -0.17884,0.13212 -0.50736,0.36303 -0.98438,0.69336 -0.4472,0.3083 -0.98334,0.6938 -1.60937,1.15625 -0.62604,0.44042 -1.31135,0.92461 -2.05664,1.45312 l -2.14649,1.58594 c -0.71548,0.52851 -1.40076,1.04624 -2.05664,1.55274 -0.62603,0.48446 -1.16416,0.91274 -1.61133,1.2871 0.59622,0.55054 1.23817,1.13536 1.92383,1.75196 0.71551,0.61659 1.43101,1.24419 2.14648,1.88281 0.71548,0.6166 1.4159,1.22183 2.10157,1.81641 0.71548,0.57255 1.35742,1.11069 1.92383,1.61718 1.22227,1.03501 2.45884,2.03693 3.71093,3.00586 1.2521,0.94692 2.6378,1.94884 4.15821,3.00586 1.81849,1.29926 3.57808,2.39064 5.27734,3.27149 1.69926,0.88085 3.11521,1.45254 4.24805,1.71679 1.43095,0.33032 2.45987,0.69346 3.08593,1.08985 0.62604,0.37436 0.9375,0.97037 0.9375,1.78515 0,0.48447 -0.20764,1.00221 -0.625,1.55274 -0.41735,0.52851 -0.98374,1.02388 -1.69921,1.48633 -0.6857,0.46244 -1.47676,0.84599 -2.3711,1.15429 -0.86452,0.28628 -1.74235,0.42969 -2.63672,0.42969 -1.87812,0 -5.62001,-1.73938 -11.22461,-5.21875 -1.72905,-1.10106 -3.39796,-2.3339 -5.00781,-3.69922 -1.60982,-1.36532 -3.38451,-2.88497 -5.32226,-4.55859 -0.32794,-0.3083 -0.81877,-0.75894 -1.47461,-1.35352 -0.62604,-0.61659 -1.2982,-1.26656 -2.01368,-1.94922 -0.71547,-0.70468 -1.41589,-1.38819 -2.10156,-2.04882 -0.68569,-0.68267 -1.25205,-1.23199 -1.69922,-1.65039 -1.13283,0.70468 -2.33918,1.57437 -3.62109,2.60937 -1.28188,1.01298 -2.49018,1.99254 -3.62305,2.93945 -1.34151,1.12309 -2.66874,2.22369 -3.98047,3.30274 -1.31169,1.05702 -2.56339,2.16881 -3.75586,3.33594 -0.35775,0.33032 -0.82031,0.76055 -1.38671,1.28906 -0.56644,0.50649 -1.16105,1.05777 -1.78711,1.65234 -0.62604,0.59458 -1.26798,1.19981 -1.92383,1.81641 -0.62606,0.6166 -1.17731,1.18828 -1.6543,1.71679 -0.23864,0.3083 -0.50674,0.64908 -0.80469,1.02344 -0.26825,0.35234 -0.58164,0.68389 -0.93945,0.99219 -0.32791,0.3083 -0.6998,0.56157 -1.11719,0.75977 -0.38754,0.19819 -0.80478,0.29687 -1.25195,0.29687 -0.71549,0 -1.35741,-0.15459 -1.92383,-0.46289 -0.56642,-0.28628 -1.04409,-0.68297 -1.43164,-1.18945 -0.38755,-0.50649 -0.67074,-1.07818 -0.84961,-1.7168 -0.20868,-0.66064 -0.3125,-1.33297 -0.3125,-2.01563 0,-1.71766 1.20831,-3.73268 3.62305,-6.04492 1.07322,-1.01298 2.29469,-2.05767 3.66601,-3.13672 1.37133,-1.10106 2.93642,-2.26876 4.69532,-3.50195 1.43095,-0.99096 2.90733,-2.00406 4.42773,-3.03906 1.55019,-1.05702 2.95103,-2.0254 4.20313,-2.90625 1.28191,-0.88085 2.32593,-1.6295 3.13086,-2.2461 0.83471,-0.63861 1.25195,-1.04648 1.25195,-1.22265 0,-0.22021 -0.47767,-0.88136 -1.43164,-1.98242 -0.95397,-1.10107 -2.11696,-2.54245 -3.48828,-4.32618 -2.41475,-3.19308 -4.32152,-5.75939 -5.72266,-7.69726 -1.40117,-1.9599 -2.10156,-3.32496 -2.10156,-4.0957 0,-0.44043 0.10376,-0.98053 0.3125,-1.61915 0.23864,-0.63861 0.58029,-1.26621 1.02734,-1.88281 0.44717,-0.61659 1.0004,-1.13433 1.65625,-1.55273 0.65585,-0.44043 1.39964,-0.66016 2.23438,-0.66016 z m -167.26563,3.95313 c 3.62154,0.11059 4.66364,3.21469 5.72266,5.28515 1.90161,2.98907 3.52152,6.07537 5.81445,8.91992 1.46754,1.79496 2.87914,6.38945 5.50781,2.80079 5.82598,-4.22476 11.57415,-8.51031 16.84375,-13.12305 2.63664,-2.05462 6.40441,-4.54231 10.51563,-3.2207 2.97205,0.97485 3.91701,4.79059 1.07226,6.20898 -3.04055,0.87887 -6.10572,1.4965 -7.91992,3.80664 -4.22366,4.28057 -9.97234,7.52902 -14.88086,11.35352 -2.8406,1.43898 -3.66741,3.05661 -0.67578,4.66211 6.11504,5.27874 12.16309,10.79778 20.00391,14.73828 2.19786,1.44631 7.12726,1.1242 7.05078,3.98828 -0.48322,2.77698 -4.84163,5.18295 -8.58594,4.44141 -5.00361,-1.68529 -9.23464,-4.44049 -13.14453,-7.25586 -5.20225,-4.10681 -9.90538,-8.53121 -14.44531,-13.04102 -5.10494,3.47337 -9.52503,7.46392 -14.07617,11.32422 -3.2549,3.05296 -6.66072,6.03421 -9.40235,9.35351 -3.26927,2.97023 -7.35886,-1.22051 -6.86523,-3.8164 -0.13693,-4.13381 4.36701,-7.2385 7.79297,-10.10938 5.34639,-4.22886 11.56844,-7.80682 16.87109,-12.0625 0.14986,-2.26162 -3.19327,-4.23056 -4.35156,-6.41601 -2.63083,-3.65063 -5.7307,-7.14701 -7.78516,-11.00391 -0.90029,-2.597 1.06553,-6.36752 4.9375,-6.83398 z m 222.59571,77.34765 c 8.44137,0.0133 15.97987,1.94228 11.5996,4.72461 -1.19726,0.76048 -3.55699,1.4704 -5.24609,1.57422 -2.286,0.13871 -3.31007,1.53148 -4.00195,5.43945 -32.58987,62.01583 -81.40181,100.21354 -168.95117,92.61914 -8.08832,-2.33854 -21.54916,-13.34398 -28.19336,-23.05273 -5.29192,-7.73273 -8.68196,-8.78983 -12.99219,-4.05078 -4.10814,4.51688 -20.38762,11.6231 -29.35742,12.81445 -6.39094,0.84884 -9.13881,0.47073 -13.19336,-1.80859 -10.87556,-6.11452 -12.27009,-21.86407 -3.20508,-36.16797 l 4.79687,-7.57031 -4.52734,-4.41992 c -5.66251,-5.52601 -8.29606,-10.23087 -9.43359,-16.85547 -0.66097,-3.84924 -1.67331,-5.1498 -3.95899,-5.0918 -1.68883,0.0452 -4.04671,-0.46239 -5.23828,-1.11914 -4.79558,-2.64312 4.82813,-5.50729 14.19141,-5.90234 4.25602,-0.17885 8.45637,0.15286 11.22656,1.24609 4.46807,1.76333 4.39847,4.68167 -0.12305,5.10937 -6.20762,0.5874 -6.84421,0.98233 -6.85156,4.24024 -0.0175,7.50466 5.47018,12.39452 21.17188,18.875 21.49229,8.8704 29.4926,14.82197 41.41601,30.80859 11.44828,15.34961 42.50883,19.66731 50.63867,21.35547 72.44014,1.76642 127.29046,-46.97268 133.34375,-81.74609 0.0192,-3.25843 -0.61524,-3.59633 -6.82031,-3.64453 -4.51965,-0.035 -4.56558,-2.94955 -0.082,-5.10157 3.33581,-1.60105 8.72619,-2.28338 13.79102,-2.27539 z m -236.16016,49.45118 c -0.32563,-0.013 -0.65134,-6.8e-4 -0.97461,0.0332 -9.69837,1.01621 -18.02283,22.60963 -10.35742,29.66211 3.91036,3.59771 10.05862,3.33637 20.52539,-0.86914 4.53475,-1.823 10.67956,-5.37731 13.65625,-7.89453 l 5.41211,-4.57422 -3.74414,-3.70508 c -4.50176,-4.45155 -6.1658,-4.4825 -14.07227,-0.27539 -8.2062,4.36657 -8.56768,4.19606 -4.56445,-2.15625 3.8991,-6.18713 2.70605,-8.64765 -4.90235,-10.10742 -0.32722,-0.0628 -0.65288,-0.10028 -0.97851,-0.11328 z M 328.90625,521.5 c -2.43179,0.10559 -98.47434,56.89914 -183.33594,108.41602 l -20.68945,12.5625 -7.02148,-7.4336 c -8.98045,-9.50639 -17.0422,-13.10178 -30.130864,-13.43554 -8.6325,-0.2201 -11.627794,0.38393 -18.63086,3.75976 -16.551666,7.97876 -25.344807,21.13256 -25.412109,38.00977 -0.08408,21.08531 15.365365,36.95278 37.15625,38.16601 4.580641,0.2551 8.322934,1.00074 8.320312,1.6582 -0.0026,0.65742 -1.367481,3.4701 -3.037109,6.25 -4.939563,8.2243 -6.743816,18.61553 -4.802734,27.67383 5.388833,25.14777 33.057114,37.71747 57.994144,26.34766 15.60111,-7.11311 24.13764,-20.36403 24.15039,-37.49219 0.006,-7.27339 -0.93913,-12.48051 -3.07618,-16.94726 -1.6967,-3.54633 -2.54102,-6.95479 -1.875,-7.57422 0.66603,-0.61939 54.54184,-33.0674 119.72461,-72.10742 65.18278,-39.04002 118.5157,-71.77155 118.51954,-72.73438 0.009,-2.21379 -63.89944,-35.29083 -67.85352,-35.11914 z"
             style="fill:#fa29af;fill-opacity:1;stroke-width:1.51932788" />
        </g>
      </g>
      <text
         id="text4505"
         y="-25.035713"
         x="-350.76193"
         style="font-style:normal;font-variant:normal;font-weight:normal;font-stretch:normal;font-size:10.58333302px;line-height:1.25;font-family:Impact;-inkscape-font-specification:Impact;letter-spacing:0px;word-spacing:0px;writing-mode:lr-tb;text-orientation:upright;fill:#000000;fill-opacity:1;stroke:none;stroke-width:0.26458332"
         xml:space="preserve"><tspan
           style="stroke-width:0.26458332"
           y="-14.64288"
           x="-350.76193"
           id="tspan4503"
           sodipodi:role="line" /></text>
      <g
         transform="matrix(1.1635136,0,0,0.85946567,7.4562715,8.2930234)"
         id="text4509-1"
         style="font-style:normal;font-variant:normal;font-weight:normal;font-stretch:normal;font-size:20.82562637px;line-height:1.25;font-family:'Segoe Script';-inkscape-font-specification:'Segoe Script';letter-spacing:0px;word-spacing:0px;writing-mode:lr-tb;text-orientation:upright;display:inline;fill:#000000;fill-opacity:1;stroke:none;stroke-width:0.39048049"
         aria-label="X" />
    </g>
  </g>
  <g
     id="g841"
     inkscape:groupmode="layer"
     inkscape:label="Drill" />
</svg>
