<?xml version="1.0" encoding="UTF-8" standalone="no"?>
<!-- Created with Inkscape (http://www.inkscape.org/) -->

<svg
   xmlns:dc="http://purl.org/dc/elements/1.1/"
   xmlns:cc="http://creativecommons.org/ns#"
   xmlns:rdf="http://www.w3.org/1999/02/22-rdf-syntax-ns#"
   xmlns:svg="http://www.w3.org/2000/svg"
   xmlns="http://www.w3.org/2000/svg"
   xmlns:sodipodi="http://sodipodi.sourceforge.net/DTD/sodipodi-0.dtd"
   xmlns:inkscape="http://www.inkscape.org/namespaces/inkscape"
   version="1.1"
   id="svg2"
   width="50.0mm"
   height="50.0mm"
   viewBox="0 0 50.0 50.0"
   sodipodi:docname="Star.svg"
   inkscape:version="0.92.4 5da689c313, 2019-01-14">
  <metadata
     id="metadata8">
    <rdf:RDF>
      <cc:Work
         rdf:about="">
        <dc:format>image/svg+xml</dc:format>
        <dc:type
           rdf:resource="http://purl.org/dc/dcmitype/StillImage" />
        <dc:title></dc:title>
      </cc:Work>
    </rdf:RDF>
  </metadata>
  <defs
     id="defs6" />
  <sodipodi:namedview
     pagecolor="#ffffff"
     bordercolor="#666666"
     borderopacity="1"
     objecttolerance="10"
     gridtolerance="10"
     guidetolerance="10"
     inkscape:pageopacity="0"
     inkscape:pageshadow="2"
     inkscape:window-width="1920"
     inkscape:window-height="1019"
     id="namedview4"
     showgrid="false"
     inkscape:zoom="1.7800235"
     inkscape:cx="6.4913895"
     inkscape:cy="81.865132"
     inkscape:window-x="0"
     inkscape:window-y="0"
     inkscape:window-maximized="1"
     inkscape:current-layer="g838"
     borderlayer="true"
     inkscape:document-units="mm">
    <inkscape:grid
       id="grid830"
       units="mm"
       type="xygrid"
       empspacing="1"
       spacingy="2.54"
       spacingx="2.54" />
  </sodipodi:namedview>
  <path
     style="fill:#000000"
     d="m 205.20576,663.75 c -10.51507,-5.31205 -12.89725,-18.02262 -5.06339,-27.01658 L 202.95872,633.5 188.77356,609 174.5884,584.5 l -28.5135,-0.26507 -28.5135,-0.26507 -1.16237,3.87967 c -2.42846,8.10548 -8.23117,12.43618 -16.663227,12.43618 -5.7091,0 -10.37046,-2.03428 -13.35477,-5.82821 -6.88847,-8.75727 -4.37237,-21.75016 5.15301,-26.60965 3.27154,-1.66901 5.31779,-1.99195 10.159267,-1.60332 l 6.06258,0.48664 13.90662,-23.9992 c 7.64864,-13.19957 13.89319,-24.50158 13.87678,-25.11559 -0.024,-0.89771 -21.51792,-38.69235 -26.90959,-47.31749 -1.20913,-1.93427 -1.74453,-2.07262 -4.41644,-1.14119 -7.906597,2.75626 -18.822647,-3.15536 -21.041347,-11.39499 -3.91479,-14.53841 9.77725,-27.08759 23.361637,-21.41167 4.13678,1.72846 9.31598,7.61379 10.18594,11.57468 l 0.67522,3.07428 28.67055,-0.0132 28.67054,-0.0132 14.1155,-24.52499 14.1155,-24.525 -2.85135,-3.05239 c -3.50475,-3.75184 -5.23904,-9.78447 -4.341,-15.09991 0.78102,-4.62282 5.91991,-10.89012 10.4772,-12.77781 4.35644,-1.8045 13.00957,-0.82359 16.84842,1.90991 8.35685,5.9506 9.53806,18.84843 2.41047,26.32009 l -2.59803,2.72344 8.79857,15.27656 c 4.83921,8.40211 11.24223,19.44591 14.22894,24.54178 l 5.43037,9.26523 28.52608,-0.26523 28.52608,-0.26522 1.31154,-3.8162 c 1.70394,-4.95793 4.07602,-7.54119 9.00171,-9.80307 15.70963,-7.21389 30.795,9.70195 22.01413,24.68536 -3.93781,6.71938 -12.94972,10.11979 -19.85848,7.49309 -2.40334,-0.91375 -2.88108,-0.23483 -16.60257,23.59424 -8.64507,15.01322 -13.91666,25.17765 -13.5834,26.19082 0.29955,0.91067 6.52004,11.95539 13.82332,24.54382 l 13.27867,22.88805 7.64189,0.11195 c 8.20635,0.12021 11.05834,1.41674 15.13894,6.88226 2.46783,3.30539 3.37843,12.55084 1.64768,16.72923 -1.71203,4.13322 -7.17498,8.70116 -11.94071,9.98444 -8.49099,2.28638 -18.21777,-3.21925 -20.64933,-11.68813 l -1.08986,-3.79586 -28.49507,-0.26506 -28.49506,-0.26507 -14.16508,24.48964 c -7.79079,13.46924 -14.16507,24.90287 -14.16507,25.40801 0,0.50514 0.6173,1.15532 1.37178,1.44484 2.13448,0.81908 5.62822,8.91087 5.62822,13.03542 0,4.82905 -2.04092,9.48574 -5.62684,12.83854 -5.67635,5.30734 -12.25225,6.17617 -19.4032,2.56362 z m 12.19777,-0.77987 c 4.50419,-1.25103 9.50986,-6.73464 10.37957,-11.37057 0.96486,-5.14314 -0.35158,-9.37716 -4.26094,-13.70436 l -3.50537,-3.88001 14.85951,-25.7576 L 249.7358,582.5 h 30.459 30.45901 l 0.65957,3.22495 c 3.80277,18.59348 31.2512,14.95008 29.62864,-3.93279 -0.75963,-8.84036 -8.11259,-14.80261 -16.57281,-13.43829 -1.99838,0.32227 -4.45789,0.71198 -5.46559,0.86603 -1.43895,0.21999 -5.04374,-5.2648 -16.79603,-25.55562 L 287.14373,517.82855 301.77,492.42371 c 8.04445,-13.97267 15.02978,-25.65423 15.52296,-25.95904 0.49318,-0.3048 2.70708,-0.0667 4.91977,0.52912 5.62599,1.51492 11.04841,-0.11969 14.8824,-4.48636 10.75903,-12.25385 -2.37086,-30.24057 -17.26542,-23.652 -4.71406,2.08526 -8.58326,6.90232 -8.59017,10.69457 -0.008,4.30703 -1.01098,4.45075 -30.95374,4.43469 -15.7025,-0.008 -29.07709,-0.3506 -29.72132,-0.76039 -0.64422,-0.40979 -7.73516,-12.13984 -15.75765,-26.06679 l -14.58633,-25.32171 3.46609,-4.04934 C 232.68664,387.27192 226.19527,372 212.72598,372 c -5.99914,0 -12.34532,4.49165 -13.99102,9.90247 -1.9112,6.28369 0.84263,15.8635 5.02108,17.46692 0.81387,0.31231 1.47976,1.18333 1.47976,1.93559 0,1.12802 -23.61167,42.79663 -28.59325,50.45985 l -1.47229,2.26483 -29.67362,-0.26483 -29.67362,-0.26483 -1.28366,-4.43489 c -2.38731,-8.24793 -9.79361,-13.00181 -17.889837,-11.48294 -8.04012,1.50833 -13.56482,10.42925 -11.41141,18.4264 2.27109,8.43417 10.14383,12.99064 18.715957,10.83215 2.39709,-0.60359 4.55648,-0.89931 4.79865,-0.65714 1.03499,1.03499 29.48308,50.85644 29.48308,51.63404 0,1.1518 -27.81167,49.3187 -29.46483,51.03 -0.99002,1.02484 -1.79307,1.08472 -3.35276,0.25 -3.4334,-1.8375 -9.589647,-1.29975 -13.192567,1.15238 -5.32053,3.62111 -7.37445,7.12333 -7.37445,12.5744 0,8.75749 6.19629,15.1756 14.65113,15.1756 8.101827,0 13.693957,-4.64536 15.189627,-12.61795 L 115.32643,582 h 29.7997 c 27.13488,0 29.93564,0.15649 31.31988,1.75 1.94019,2.23351 28.78979,48.94324 28.78979,50.08505 0,0.47024 -0.94607,1.71116 -2.10238,2.7576 -4.98753,4.51366 -6.60128,13.21216 -3.54689,19.11869 1.93169,3.73548 3.71004,5.18943 8.38979,6.85935 4.62259,1.64951 4.88628,1.66069 9.42721,0.39944 z"
     id="path817"
     inkscape:connector-curvature="0"
     sodipodi:nodetypes="ssccccccsscccscccsscccccccsssscscccccsccscsccsccsccccscssscsccccccssccscsccsccccsccscssccccccscsssscssscssscscc" />
  <g
     id="g836"
     sodipodi:insensitive="true"
     inkscape:groupmode="layer"
     inkscape:label="[fixed] BG">
    <rect
       id="rect834"
       style="stroke:none;fill-opacity:1;fill:#FFFFFF"
       height="50.0"
       width="50.0"
       y="0"
       x="0" />
  </g>
  <g
     id="g838"
     inkscape:groupmode="layer"
     inkscape:label="Edge.Cuts">
    <path
       style="fill:#000000;stroke-width:0.15888377"
       d="M 23.688902,46.594392 C 21.937297,45.78939 21.540472,43.863196 22.84544,42.500227 l 0.469149,-0.490001 -2.362971,-3.712796 -2.36297,-3.712796 -4.749792,-0.04017 -4.7497911,-0.04017 -0.1936281,0.587936 c -0.404534,1.228326 -1.3711521,1.884612 -2.7757681,1.884612 -0.9510245,0 -1.7275159,-0.30828 -2.2246436,-0.883222 C 2.7475406,34.766523 3.1666737,32.797546 4.7534158,32.061126 5.2983904,31.808199 5.6392557,31.75926 6.4457512,31.818154 l 1.0099073,0.07375 2.3165713,-3.636903 C 11.046344,26.254699 12.086564,24.541962 12.08383,24.448913 12.079833,24.312868 8.4993651,18.585367 7.6012182,17.27829 7.3998008,16.985165 7.3106136,16.964199 6.8655256,17.10535 5.548441,17.523041 3.7300405,16.627179 3.3604484,15.378523 c -0.6521275,-2.20319 1.6286987,-4.104927 3.8915922,-3.244782 0.6891067,0.261935 1.5518602,1.153814 1.6967785,1.754058 l 0.1124785,0.465885 4.7759534,-0.002 4.775952,-0.002 2.351365,-3.716583 L 23.315935,6.9165164 22.840956,6.453949 C 22.257133,5.8853837 21.968234,4.9711829 22.11783,4.1656667 c 0.130103,-0.7005545 0.986142,-1.6503186 1.745297,-1.9363841 0.725698,-0.273459 2.16714,-0.1248089 2.806617,0.2894328 1.392088,0.9017702 1.588854,2.8563422 0.401538,3.9886176 L 26.6385,6.9200505 28.10417,9.235102 c 0.806118,1.273278 1.872736,2.946885 2.370264,3.719127 l 0.904593,1.404078 4.751887,-0.0402 4.751888,-0.04019 0.218477,-0.578317 c 0.283843,-0.751338 0.678985,-1.142812 1.499509,-1.485584 2.616917,-1.093212 5.129846,1.47026 3.667124,3.740886 -0.655962,1.018273 -2.15717,1.533581 -3.308035,1.135524 -0.400349,-0.138473 -0.479931,-0.03559 -2.765663,3.575534 -1.4401,2.275144 -2.318244,3.815489 -2.26273,3.969028 0.0499,0.138005 1.086112,1.811752 2.302695,3.719436 l 2.211967,3.468518 1.27299,0.01696 c 1.367017,0.01821 1.842103,0.214696 2.521851,1.042956 0.411093,0.500907 0.562781,1.901988 0.274472,2.535192 -0.285191,0.626359 -1.195211,1.318597 -1.989089,1.513069 -1.414433,0.346485 -3.034724,-0.487854 -3.439775,-1.771251 l -0.181549,-0.575234 -4.746722,-0.04017 -4.74672,-0.04017 -2.359626,3.711226 c -1.297793,2.041165 -2.359623,3.773848 -2.359623,3.850398 0,0.07655 0.102829,0.17508 0.228511,0.218956 0.355563,0.124125 0.937552,1.350376 0.937552,1.975422 0,0.731807 -0.339978,1.437494 -0.937322,1.945587 -0.945569,0.804289 -2.040985,0.935954 -3.232194,0.388497 z m 2.03191,-0.118183 c 0.75031,-0.189585 1.584157,-1.020586 1.729033,-1.723127 0.160727,-0.779406 -0.05857,-1.42104 -0.709789,-2.076796 l -0.583926,-0.587987 2.475304,-3.903376 2.475302,-3.903374 h 5.073875 5.073875 l 0.109872,0.488717 c 0.633467,2.817706 5.205839,2.265576 4.935553,-0.595986 -0.12654,-1.339692 -1.3514,-2.243227 -2.760707,-2.036475 -0.332891,0.04884 -0.742597,0.107896 -0.910461,0.131241 -0.2397,0.03334 -0.840188,-0.797842 -2.79789,-3.872768 l -2.492686,-3.915215 2.43645,-3.849919 c 1.340048,-2.117455 2.503668,-3.887711 2.585822,-3.933902 0.08215,-0.04619 0.450947,-0.01011 0.819538,0.08018 0.93718,0.229575 1.840449,-0.01814 2.479117,-0.679875 1.792244,-1.856982 -0.394939,-4.582738 -2.876082,-3.584288 -0.78527,0.316006 -1.429803,1.045996 -1.430955,1.620684 -0.0013,0.652698 -0.168409,0.674478 -5.156287,0.672045 -2.61573,-0.0012 -4.843676,-0.05313 -4.950992,-0.115232 -0.107314,-0.0621 -1.288526,-1.839704 -2.624916,-3.950232 l -2.429798,-3.8373159 0.577383,-0.613648 c 1.499232,-1.5934016 0.417897,-3.9077498 -1.825824,-3.9077498 -0.999339,0 -2.056489,0.6806769 -2.33063,1.5006473 -0.318368,0.952247 0.140365,2.4039974 0.836414,2.646984 0.135575,0.047328 0.246499,0.179325 0.246499,0.2933245 0,0.1709432 -3.933242,6.4855169 -4.763076,7.6468219 L 18.685575,14.812806 13.74253,14.772673 8.7994847,14.73254 8.5856521,14.060465 C 8.1879728,12.810551 6.954228,12.090135 5.6055548,12.320309 4.266228,12.548885 3.345921,13.900785 3.704637,15.112695 c 0.3783191,1.278137 1.6897637,1.968637 3.1177126,1.641533 0.3993083,-0.09147 0.7590205,-0.136283 0.7993613,-0.09958 0.1724091,0.156845 4.9113051,7.706922 4.9113051,7.824762 0,0.174546 -4.6328808,7.473888 -4.908265,7.733223 -0.164918,0.155307 -0.2986904,0.164382 -0.5585043,0.03789 -0.5719373,-0.27846 -1.5974478,-0.196967 -2.1976238,0.174635 -0.8862963,0.548753 -1.2284392,1.079489 -1.2284392,1.905558 0,1.327134 1.0321807,2.299752 2.4405918,2.299752 1.3496061,0 2.2811457,-0.703971 2.5302951,-1.912158 l 0.105692,-0.512525 H 13.68081 c 4.520141,0 4.986693,0.02371 5.21728,0.2652 0.323198,0.338471 4.795816,7.41699 4.795816,7.590023 0,0.07126 -0.157597,0.259314 -0.350215,0.417894 -0.830825,0.684012 -1.099645,2.002207 -0.590843,2.897298 0.321782,0.566085 0.61802,0.78642 1.397575,1.039484 0.770033,0.249971 0.813959,0.251665 1.570389,0.06053 z"
       id="path817-3"
       inkscape:connector-curvature="0"
       sodipodi:nodetypes="ssccccccsscccscccsscccccccsssscscccccsccscsccsccsccccscssscsccccccssccscsccsccccsccscssccccccscsssscssscssscscc" />
  </g>
  <g
     id="g840"
     inkscape:groupmode="layer"
     inkscape:label="B.Cu-disabled" />
  <g
     id="g842"
     inkscape:groupmode="layer"
     inkscape:label="B.Mask-disabled" />
  <g
     id="g844"
     inkscape:groupmode="layer"
     inkscape:label="B.Silk-disabled" />
  <g
     id="g846"
     inkscape:groupmode="layer"
     inkscape:label="F.Cu" />
  <g
     id="g848"
     inkscape:groupmode="layer"
     inkscape:label="F.Mask-disabled" />
  <g
     id="g850"
     inkscape:groupmode="layer"
     inkscape:label="F.Silk-disabled" />
  <g
     id="g852"
     inkscape:groupmode="layer"
     inkscape:label="Drill" />
</svg>
