G04 #@! TF.GenerationSoftware,KiCad,Pcbnew,5.1.2*
G04 #@! TF.CreationDate,2019-06-27T23:50:08-05:00*
G04 #@! TF.ProjectId,PartyStar,50617274-7953-4746-9172-2e6b69636164,rev?*
G04 #@! TF.SameCoordinates,Original*
G04 #@! TF.FileFunction,Profile,NP*
%FSLAX46Y46*%
G04 Gerber Fmt 4.6, Leading zero omitted, Abs format (unit mm)*
G04 Created by KiCad (PCBNEW 5.1.2) date 2019-06-27 23:50:08*
%MOMM*%
%LPD*%
G04 APERTURE LIST*
%ADD10C,0.100000*%
G04 APERTURE END LIST*
D10*
X145195324Y-70106193D02*
X144870278Y-70120144D01*
X144870278Y-70120144D02*
X144493040Y-70152701D01*
X144493040Y-70152701D02*
X144066712Y-70213679D01*
X144066712Y-70213679D02*
X143665702Y-70288093D01*
X143665702Y-70288093D02*
X143288980Y-70390412D01*
X143288980Y-70390412D02*
X143109148Y-70457075D01*
X143109148Y-70457075D02*
X142934481Y-70536657D01*
X142934481Y-70536657D02*
X142765499Y-70630708D01*
X142765499Y-70630708D02*
X142601166Y-70741295D01*
X142601166Y-70741295D02*
X142441488Y-70870486D01*
X142441488Y-70870486D02*
X142286458Y-71019831D01*
X142286458Y-71019831D02*
X142136079Y-71191914D01*
X142136079Y-71191914D02*
X141989836Y-71387767D01*
X141989836Y-71387767D02*
X141847726Y-71609459D01*
X141847726Y-71609459D02*
X141708716Y-71859573D01*
X141708716Y-71859573D02*
X141583142Y-72138109D01*
X141583142Y-72138109D02*
X141486506Y-72430598D01*
X141486506Y-72430598D02*
X141417259Y-72732388D01*
X141417259Y-72732388D02*
X141375918Y-73040897D01*
X141375918Y-73040897D02*
X141360943Y-73353022D01*
X141360943Y-73353022D02*
X141371288Y-73665665D01*
X141371288Y-73665665D02*
X141406943Y-73975723D01*
X141406943Y-73975723D02*
X141466887Y-74279580D01*
X141466887Y-74279580D02*
X141550088Y-74574653D01*
X141550088Y-74574653D02*
X141656024Y-74856806D01*
X141656024Y-74856806D02*
X141784181Y-75123974D01*
X141784181Y-75123974D02*
X141933527Y-75373054D01*
X141933527Y-75373054D02*
X142103025Y-75599913D01*
X142103025Y-75599913D02*
X142292678Y-75801451D01*
X142292678Y-75801451D02*
X142500934Y-75975601D01*
X142500934Y-75975601D02*
X142727793Y-76118228D01*
X142727793Y-76118228D02*
X142900910Y-76217963D01*
X142900910Y-76217963D02*
X143021314Y-76318216D01*
X143021314Y-76318216D02*
X143060589Y-76375060D01*
X143060589Y-76375060D02*
X143085909Y-76439139D01*
X143085909Y-76439139D02*
X143096757Y-76514069D01*
X143096757Y-76514069D02*
X143092630Y-76601403D01*
X143092630Y-76601403D02*
X143038369Y-76825678D01*
X143038369Y-76825678D02*
X142920545Y-77132119D01*
X142920545Y-77132119D02*
X142737093Y-77541397D01*
X142737093Y-77541397D02*
X142485430Y-78073664D01*
X142485430Y-78073664D02*
X141054510Y-81199571D01*
X141054510Y-81199571D02*
X138725970Y-86381167D01*
X138725970Y-86381167D02*
X137882611Y-88257540D01*
X137882611Y-88257540D02*
X137186529Y-89772692D01*
X137186529Y-89772692D02*
X136615506Y-90968484D01*
X136615506Y-90968484D02*
X136147317Y-91886776D01*
X136147317Y-91886776D02*
X135759227Y-92569420D01*
X135759227Y-92569420D02*
X135588695Y-92835038D01*
X135588695Y-92835038D02*
X135429529Y-93057764D01*
X135429529Y-93057764D02*
X135279151Y-93242247D01*
X135279151Y-93242247D02*
X135134974Y-93394176D01*
X135134974Y-93394176D02*
X134994414Y-93518200D01*
X134994414Y-93518200D02*
X134854373Y-93620004D01*
X134854373Y-93620004D02*
X134702960Y-93707337D01*
X134702960Y-93707337D02*
X134516926Y-93793636D01*
X134516926Y-93793636D02*
X134289548Y-93879420D01*
X134289548Y-93879420D02*
X134015146Y-93965719D01*
X134015146Y-93965719D02*
X133304079Y-94144519D01*
X133304079Y-94144519D02*
X132338246Y-94338305D01*
X132338246Y-94338305D02*
X131071141Y-94555864D01*
X131071141Y-94555864D02*
X129457286Y-94804943D01*
X129457286Y-94804943D02*
X127451207Y-95094849D01*
X127451207Y-95094849D02*
X125007944Y-95433328D01*
X125007944Y-95433328D02*
X118521519Y-96335599D01*
X118521519Y-96335599D02*
X116415704Y-96641008D01*
X116415704Y-96641008D02*
X115485012Y-96790352D01*
X115485012Y-96790352D02*
X115329983Y-96815673D01*
X115329983Y-96815673D02*
X115192523Y-96812048D01*
X115192523Y-96812048D02*
X115070050Y-96777940D01*
X115070050Y-96777940D02*
X114959462Y-96710244D01*
X114959462Y-96710244D02*
X114857660Y-96607409D01*
X114857660Y-96607409D02*
X114762058Y-96466333D01*
X114762058Y-96466333D02*
X114670074Y-96284948D01*
X114670074Y-96284948D02*
X114578090Y-96061190D01*
X114578090Y-96061190D02*
X114497992Y-95871536D01*
X114497992Y-95871536D02*
X114404974Y-95690670D01*
X114404974Y-95690670D02*
X114299554Y-95518587D01*
X114299554Y-95518587D02*
X114182766Y-95355805D01*
X114182766Y-95355805D02*
X114055125Y-95202328D01*
X114055125Y-95202328D02*
X113917149Y-95058149D01*
X113917149Y-95058149D02*
X113769871Y-94923791D01*
X113769871Y-94923791D02*
X113613808Y-94798217D01*
X113613808Y-94798217D02*
X113448960Y-94682980D01*
X113448960Y-94682980D02*
X113277395Y-94577560D01*
X113277395Y-94577560D02*
X112914109Y-94396691D01*
X112914109Y-94396691D02*
X112529120Y-94257165D01*
X112529120Y-94257165D02*
X112128111Y-94159497D01*
X112128111Y-94159497D02*
X111716766Y-94104720D01*
X111716766Y-94104720D02*
X111300254Y-94094375D01*
X111300254Y-94094375D02*
X110884259Y-94128998D01*
X110884259Y-94128998D02*
X110474465Y-94210130D01*
X110474465Y-94210130D02*
X110273444Y-94268524D01*
X110273444Y-94268524D02*
X110076040Y-94338286D01*
X110076040Y-94338286D02*
X109882770Y-94420453D01*
X109882770Y-94420453D02*
X109694151Y-94515020D01*
X109694151Y-94515020D02*
X109511733Y-94621473D01*
X109511733Y-94621473D02*
X109335517Y-94740847D01*
X109335517Y-94740847D02*
X109166535Y-94872620D01*
X109166535Y-94872620D02*
X109004787Y-95016797D01*
X109004787Y-95016797D02*
X108808934Y-95225053D01*
X108808934Y-95225053D02*
X108640468Y-95428142D01*
X108640468Y-95428142D02*
X108497325Y-95627098D01*
X108497325Y-95627098D02*
X108376919Y-95820366D01*
X108376919Y-95820366D02*
X108277700Y-96007437D01*
X108277700Y-96007437D02*
X108197601Y-96188819D01*
X108197601Y-96188819D02*
X108134556Y-96362968D01*
X108134556Y-96362968D02*
X108087014Y-96529367D01*
X108087014Y-96529367D02*
X108027586Y-96838908D01*
X108027586Y-96838908D02*
X108004332Y-97112279D01*
X108004332Y-97112279D02*
X108000715Y-97534990D01*
X108000715Y-97534990D02*
X108027586Y-97808876D01*
X108027586Y-97808876D02*
X108078746Y-98128236D01*
X108078746Y-98128236D02*
X108154194Y-98477052D01*
X108154194Y-98477052D02*
X108252896Y-98839304D01*
X108252896Y-98839304D02*
X108375369Y-99198973D01*
X108375369Y-99198973D02*
X108520579Y-99540037D01*
X108520579Y-99540037D02*
X108689045Y-99845961D01*
X108689045Y-99845961D02*
X108781546Y-99980320D01*
X108781546Y-99980320D02*
X108880247Y-100100208D01*
X108880247Y-100100208D02*
X109094705Y-100310533D01*
X109094705Y-100310533D02*
X109335000Y-100496567D01*
X109335000Y-100496567D02*
X109596483Y-100658830D01*
X109596483Y-100658830D02*
X109877086Y-100796808D01*
X109877086Y-100796808D02*
X110172158Y-100909978D01*
X110172158Y-100909978D02*
X110478600Y-100998346D01*
X110478600Y-100998346D02*
X110792276Y-101061391D01*
X110792276Y-101061391D02*
X111110602Y-101099631D01*
X111110602Y-101099631D02*
X111429446Y-101111511D01*
X111429446Y-101111511D02*
X111745189Y-101097568D01*
X111745189Y-101097568D02*
X112054214Y-101057258D01*
X112054214Y-101057258D02*
X112353937Y-100990597D01*
X112353937Y-100990597D02*
X112639708Y-100897061D01*
X112639708Y-100897061D02*
X112907909Y-100776139D01*
X112907909Y-100776139D02*
X113155956Y-100628345D01*
X113155956Y-100628345D02*
X113379715Y-100452646D01*
X113379715Y-100452646D02*
X113462914Y-100385465D01*
X113462914Y-100385465D02*
X113547146Y-100335856D01*
X113547146Y-100335856D02*
X113638097Y-100306400D01*
X113638097Y-100306400D02*
X113738349Y-100301241D01*
X113738349Y-100301241D02*
X113853587Y-100322434D01*
X113853587Y-100322434D02*
X113987429Y-100373078D01*
X113987429Y-100373078D02*
X114144009Y-100456276D01*
X114144009Y-100456276D02*
X114327977Y-100574613D01*
X114327977Y-100574613D02*
X114794615Y-100928597D01*
X114794615Y-100928597D02*
X115420417Y-101459314D01*
X115420417Y-101459314D02*
X116240005Y-102190019D01*
X116240005Y-102190019D02*
X117287486Y-103143450D01*
X117287486Y-103143450D02*
X120688311Y-106239385D01*
X120688311Y-106239385D02*
X124062265Y-109287776D01*
X124062265Y-109287776D02*
X124999676Y-110137853D01*
X124999676Y-110137853D02*
X125760353Y-110849440D01*
X125760353Y-110849440D02*
X126364968Y-111445268D01*
X126364968Y-111445268D02*
X126833672Y-111947048D01*
X126833672Y-111947048D02*
X127185589Y-112378028D01*
X127185589Y-112378028D02*
X127323567Y-112573883D01*
X127323567Y-112573883D02*
X127440354Y-112760433D01*
X127440354Y-112760433D02*
X127538022Y-112940786D01*
X127538022Y-112940786D02*
X127618638Y-113117001D01*
X127618638Y-113117001D02*
X127685300Y-113292700D01*
X127685300Y-113292700D02*
X127740076Y-113470468D01*
X127740076Y-113470468D02*
X127788654Y-113668390D01*
X127788654Y-113668390D02*
X127824828Y-113876128D01*
X127824828Y-113876128D02*
X127847555Y-114103505D01*
X127847555Y-114103505D02*
X127854276Y-114361371D01*
X127854276Y-114361371D02*
X127844460Y-114659543D01*
X127844460Y-114659543D02*
X127816036Y-115007324D01*
X127816036Y-115007324D02*
X127767461Y-115415053D01*
X127767461Y-115415053D02*
X127696664Y-115893060D01*
X127696664Y-115893060D02*
X127484275Y-117098670D01*
X127484275Y-117098670D02*
X127165430Y-118704773D01*
X127165430Y-118704773D02*
X126727730Y-120790952D01*
X126727730Y-120790952D02*
X126158773Y-123436785D01*
X126158773Y-123436785D02*
X124865828Y-129395593D01*
X124865828Y-129395593D02*
X124469988Y-131151043D01*
X124469988Y-131151043D02*
X124189903Y-132275522D01*
X124189903Y-132275522D02*
X124081897Y-132644492D01*
X124081897Y-132644492D02*
X123988880Y-132908040D01*
X123988880Y-132908040D02*
X123905682Y-133083224D01*
X123905682Y-133083224D02*
X123827651Y-133188128D01*
X123827651Y-133188128D02*
X123750136Y-133238770D01*
X123750136Y-133238770D02*
X123669004Y-133254274D01*
X123669004Y-133254274D02*
X123473665Y-133245490D01*
X123473665Y-133245490D02*
X123299000Y-133258931D01*
X123299000Y-133258931D02*
X123111932Y-133297690D01*
X123111932Y-133297690D02*
X122916595Y-133359700D01*
X122916595Y-133359700D02*
X122714022Y-133443417D01*
X122714022Y-133443417D02*
X122507833Y-133546252D01*
X122507833Y-133546252D02*
X122299576Y-133666659D01*
X122299576Y-133666659D02*
X122091839Y-133803083D01*
X122091839Y-133803083D02*
X121887199Y-133953462D01*
X121887199Y-133953462D02*
X121688246Y-134115726D01*
X121688246Y-134115726D02*
X121497042Y-134288327D01*
X121497042Y-134288327D02*
X121316176Y-134468677D01*
X121316176Y-134468677D02*
X121148226Y-134655746D01*
X121148226Y-134655746D02*
X120995781Y-134846949D01*
X120995781Y-134846949D02*
X120860904Y-135041251D01*
X120860904Y-135041251D02*
X120745668Y-135236072D01*
X120745668Y-135236072D02*
X120653167Y-135429342D01*
X120653167Y-135429342D02*
X120556015Y-135689274D01*
X120556015Y-135689274D02*
X120480050Y-135948690D01*
X120480050Y-135948690D02*
X120425274Y-136208106D01*
X120425274Y-136208106D02*
X120391167Y-136465972D01*
X120391167Y-136465972D02*
X120376181Y-136721768D01*
X120376181Y-136721768D02*
X120380317Y-136974985D01*
X120380317Y-136974985D02*
X120402537Y-137224580D01*
X120402537Y-137224580D02*
X120442844Y-137470044D01*
X120442844Y-137470044D02*
X120499687Y-137710339D01*
X120499687Y-137710339D02*
X120573067Y-137944950D01*
X120573067Y-137944950D02*
X120661951Y-138173360D01*
X120661951Y-138173360D02*
X120765821Y-138394020D01*
X120765821Y-138394020D02*
X120883643Y-138607443D01*
X120883643Y-138607443D02*
X121015934Y-138812080D01*
X121015934Y-138812080D02*
X121160630Y-139006900D01*
X121160630Y-139006900D02*
X121317726Y-139191902D01*
X121317726Y-139191902D02*
X121486192Y-139366054D01*
X121486192Y-139366054D02*
X121666024Y-139528833D01*
X121666024Y-139528833D02*
X121856193Y-139679212D01*
X121856193Y-139679212D02*
X122056181Y-139816671D01*
X122056181Y-139816671D02*
X122264953Y-139940178D01*
X122264953Y-139940178D02*
X122481996Y-140049216D01*
X122481996Y-140049216D02*
X122706789Y-140143267D01*
X122706789Y-140143267D02*
X122938299Y-140221298D01*
X122938299Y-140221298D02*
X123176527Y-140282277D01*
X123176527Y-140282277D02*
X123419923Y-140326200D01*
X123419923Y-140326200D02*
X123669004Y-140351521D01*
X123669004Y-140351521D02*
X123921700Y-140358241D01*
X123921700Y-140358241D02*
X124178533Y-140345832D01*
X124178533Y-140345832D02*
X124438465Y-140312243D01*
X124438465Y-140312243D02*
X124700464Y-140257983D01*
X124700464Y-140257983D02*
X124964531Y-140182018D01*
X124964531Y-140182018D02*
X125250818Y-140078148D01*
X125250818Y-140078148D02*
X125518502Y-139962393D01*
X125518502Y-139962393D02*
X125766549Y-139834237D01*
X125766549Y-139834237D02*
X125996509Y-139693158D01*
X125996509Y-139693158D02*
X126207350Y-139539163D01*
X126207350Y-139539163D02*
X126400102Y-139372248D01*
X126400102Y-139372248D02*
X126574251Y-139191381D01*
X126574251Y-139191381D02*
X126730831Y-138997595D01*
X126730831Y-138997595D02*
X126869325Y-138789339D01*
X126869325Y-138789339D02*
X126990247Y-138566613D01*
X126990247Y-138566613D02*
X127093599Y-138329935D01*
X127093599Y-138329935D02*
X127179382Y-138078271D01*
X127179382Y-138078271D02*
X127248629Y-137811621D01*
X127248629Y-137811621D02*
X127300823Y-137529983D01*
X127300823Y-137529983D02*
X127335962Y-137232845D01*
X127335962Y-137232845D02*
X127355092Y-136919685D01*
X127355092Y-136919685D02*
X127404183Y-135438121D01*
X127404183Y-135438121D02*
X135657944Y-130879745D01*
X135657944Y-130879745D02*
X137466617Y-129888589D01*
X137466617Y-129888589D02*
X139119231Y-128999237D01*
X139119231Y-128999237D02*
X140596143Y-128220476D01*
X140596143Y-128220476D02*
X141879785Y-127562116D01*
X141879785Y-127562116D02*
X142950522Y-127033984D01*
X142950522Y-127033984D02*
X143790262Y-126644861D01*
X143790262Y-126644861D02*
X144379375Y-126404564D01*
X144379375Y-126404564D02*
X144574712Y-126343069D01*
X144574712Y-126343069D02*
X144699767Y-126322405D01*
X144699767Y-126322405D02*
X144879086Y-126335317D01*
X144879086Y-126335317D02*
X145085792Y-126372007D01*
X145085792Y-126372007D02*
X145313167Y-126429366D01*
X145313167Y-126429366D02*
X145553464Y-126505849D01*
X145553464Y-126505849D02*
X145799442Y-126597831D01*
X145799442Y-126597831D02*
X146043872Y-126703252D01*
X146043872Y-126703252D02*
X146275382Y-126817972D01*
X146275382Y-126817972D02*
X148861787Y-125006714D01*
X148861787Y-125006714D02*
X148901396Y-124982055D01*
X148901396Y-124982055D02*
X148942665Y-124962158D01*
X148942665Y-124962158D02*
X148985268Y-124946971D01*
X148985268Y-124946971D02*
X149028888Y-124936441D01*
X149028888Y-124936441D02*
X149073197Y-124930461D01*
X149073197Y-124930461D02*
X149117875Y-124928874D01*
X149117875Y-124928874D02*
X149162600Y-124931837D01*
X149162600Y-124931837D02*
X149207047Y-124939140D01*
X149207047Y-124939140D02*
X149250897Y-124950728D01*
X149250897Y-124950728D02*
X149293823Y-124966551D01*
X149293823Y-124966551D02*
X149335505Y-124986527D01*
X149335505Y-124986527D02*
X149375619Y-125010577D01*
X149375619Y-125010577D02*
X149413843Y-125038628D01*
X149413843Y-125038628D02*
X149449853Y-125070619D01*
X149449853Y-125070619D02*
X149483328Y-125106475D01*
X149483328Y-125106475D02*
X149513946Y-125146131D01*
X149513946Y-125146131D02*
X149653987Y-125345603D01*
X149653987Y-125345603D02*
X149680773Y-125387942D01*
X149680773Y-125387942D02*
X149702998Y-125431675D01*
X149702998Y-125431675D02*
X149720725Y-125476474D01*
X149720725Y-125476474D02*
X149733981Y-125522012D01*
X149733981Y-125522012D02*
X149742818Y-125567959D01*
X149742818Y-125567959D02*
X149747290Y-125613989D01*
X149747290Y-125613989D02*
X149747422Y-125659772D01*
X149747422Y-125659772D02*
X149743268Y-125704979D01*
X149743268Y-125704979D02*
X149734881Y-125749283D01*
X149734881Y-125749283D02*
X149722313Y-125792357D01*
X149722313Y-125792357D02*
X149705591Y-125833871D01*
X149705591Y-125833871D02*
X149684769Y-125873495D01*
X149684769Y-125873495D02*
X149659898Y-125910904D01*
X149659898Y-125910904D02*
X149631034Y-125945768D01*
X149631034Y-125945768D02*
X149598213Y-125977756D01*
X149598213Y-125977756D02*
X149561481Y-126006546D01*
X149561481Y-126006546D02*
X147422078Y-127504646D01*
X147422078Y-127504646D02*
X154848499Y-132005144D01*
X154848499Y-132005144D02*
X162189651Y-136444152D01*
X162189651Y-136444152D02*
X162109554Y-137740195D01*
X162109554Y-137740195D02*
X162092488Y-138139655D01*
X162092488Y-138139655D02*
X162100241Y-138470900D01*
X162100241Y-138470900D02*
X162141582Y-138754604D01*
X162141582Y-138754604D02*
X162178272Y-138885346D01*
X162178272Y-138885346D02*
X162226331Y-139011951D01*
X162226331Y-139011951D02*
X162362758Y-139262583D01*
X162362758Y-139262583D02*
X162560161Y-139526651D01*
X162560161Y-139526651D02*
X162826810Y-139825339D01*
X162826810Y-139825339D02*
X163172526Y-140178806D01*
X163172526Y-140178806D02*
X163503773Y-140500233D01*
X163503773Y-140500233D02*
X163795744Y-140757066D01*
X163795744Y-140757066D02*
X164062393Y-140956536D01*
X164062393Y-140956536D02*
X164315610Y-141105364D01*
X164315610Y-141105364D02*
X164568824Y-141209750D01*
X164568824Y-141209750D02*
X164834958Y-141275896D01*
X164834958Y-141275896D02*
X165127963Y-141311038D01*
X165127963Y-141311038D02*
X165459724Y-141321383D01*
X165459724Y-141321383D02*
X165672632Y-141315192D01*
X165672632Y-141315192D02*
X165882438Y-141296591D01*
X165882438Y-141296591D02*
X166290682Y-141225278D01*
X166290682Y-141225278D02*
X166682390Y-141109523D01*
X166682390Y-141109523D02*
X167054460Y-140952427D01*
X167054460Y-140952427D02*
X167404827Y-140757606D01*
X167404827Y-140757606D02*
X167730905Y-140528162D01*
X167730905Y-140528162D02*
X168030627Y-140266680D01*
X168030627Y-140266680D02*
X168300378Y-139975741D01*
X168300378Y-139975741D02*
X168538090Y-139659482D01*
X168538090Y-139659482D02*
X168741695Y-139320485D01*
X168741695Y-139320485D02*
X168908094Y-138961334D01*
X168908094Y-138961334D02*
X169035219Y-138585647D01*
X169035219Y-138585647D02*
X169119451Y-138196521D01*
X169119451Y-138196521D02*
X169159758Y-137796545D01*
X169159758Y-137796545D02*
X169162404Y-137593459D01*
X169162404Y-137593459D02*
X169152588Y-137388820D01*
X169152588Y-137388820D02*
X169130363Y-137183149D01*
X169130363Y-137183149D02*
X169095739Y-136976959D01*
X169095739Y-136976959D02*
X169035795Y-136743898D01*
X169035795Y-136743898D02*
X168951047Y-136511353D01*
X168951047Y-136511353D02*
X168843041Y-136280877D01*
X168843041Y-136280877D02*
X168713334Y-136054018D01*
X168713334Y-136054018D02*
X168563990Y-135831808D01*
X168563990Y-135831808D02*
X168396557Y-135617353D01*
X168396557Y-135617353D02*
X168213105Y-135410647D01*
X168213105Y-135410647D02*
X168015702Y-135214792D01*
X168015702Y-135214792D02*
X167805896Y-135031340D01*
X167805896Y-135031340D02*
X167585238Y-134861324D01*
X167585238Y-134861324D02*
X167355794Y-134706297D01*
X167355794Y-134706297D02*
X167119633Y-134569354D01*
X167119633Y-134569354D02*
X166878822Y-134450498D01*
X166878822Y-134450498D02*
X166633873Y-134352829D01*
X166633873Y-134352829D02*
X166388412Y-134276865D01*
X166388412Y-134276865D02*
X166142431Y-134225189D01*
X166142431Y-134225189D02*
X165062394Y-134052588D01*
X165062394Y-134052588D02*
X163418051Y-124489867D01*
X163418051Y-124489867D02*
X162793282Y-120728854D01*
X162793282Y-120728854D02*
X162308042Y-117557990D01*
X162308042Y-117557990D02*
X162247579Y-117123391D01*
X162247579Y-117123391D02*
X160160369Y-118584801D01*
X160160369Y-118584801D02*
X160120761Y-118609486D01*
X160120761Y-118609486D02*
X160079491Y-118629383D01*
X160079491Y-118629383D02*
X160036888Y-118644596D01*
X160036888Y-118644596D02*
X159993268Y-118655180D01*
X159993268Y-118655180D02*
X159948959Y-118661186D01*
X159948959Y-118661186D02*
X159904279Y-118662773D01*
X159904279Y-118662773D02*
X159859556Y-118659863D01*
X159859556Y-118659863D02*
X159815109Y-118652587D01*
X159815109Y-118652587D02*
X159771259Y-118641025D01*
X159771259Y-118641025D02*
X159728333Y-118625255D01*
X159728333Y-118625255D02*
X159686653Y-118605332D01*
X159686653Y-118605332D02*
X159646537Y-118581335D01*
X159646537Y-118581335D02*
X159608316Y-118553315D01*
X159608316Y-118553315D02*
X159572303Y-118521354D01*
X159572303Y-118521354D02*
X159538828Y-118485513D01*
X159538828Y-118485513D02*
X159508210Y-118445863D01*
X159508210Y-118445863D02*
X159368169Y-118245875D01*
X159368169Y-118245875D02*
X159341383Y-118203541D01*
X159341383Y-118203541D02*
X159319158Y-118159824D01*
X159319158Y-118159824D02*
X159301431Y-118115051D01*
X159301431Y-118115051D02*
X159288175Y-118069546D01*
X159288175Y-118069546D02*
X159279338Y-118023635D01*
X159279338Y-118023635D02*
X159274867Y-117977651D01*
X159274867Y-117977651D02*
X159274734Y-117931912D01*
X159274734Y-117931912D02*
X159278888Y-117886753D01*
X159278888Y-117886753D02*
X159287275Y-117842496D01*
X159287275Y-117842496D02*
X159299843Y-117799470D01*
X159299843Y-117799470D02*
X159316565Y-117758002D01*
X159316565Y-117758002D02*
X159337388Y-117718415D01*
X159337388Y-117718415D02*
X159362258Y-117681040D01*
X159362258Y-117681040D02*
X159391122Y-117646202D01*
X159391122Y-117646202D02*
X159423943Y-117614230D01*
X159423943Y-117614230D02*
X159460675Y-117585448D01*
X159460675Y-117585448D02*
X162065684Y-115761271D01*
X162065684Y-115761271D02*
X162009872Y-115310135D01*
X162009872Y-115310135D02*
X161946311Y-114636791D01*
X161946311Y-114636791D02*
X161938056Y-114431120D01*
X161938056Y-114431120D02*
X161947343Y-114319498D01*
X161947343Y-114319498D02*
X161986102Y-114237850D01*
X161986102Y-114237850D02*
X162065684Y-114119510D01*
X162065684Y-114119510D02*
X162336985Y-113781031D01*
X162336985Y-113781031D02*
X162744713Y-113323177D01*
X162744713Y-113323177D02*
X163270779Y-112764039D01*
X163270779Y-112764039D02*
X163897095Y-112121183D01*
X163897095Y-112121183D02*
X164607647Y-111413733D01*
X164607647Y-111413733D02*
X165383828Y-110659257D01*
X165383828Y-110659257D02*
X166208582Y-109876358D01*
X166208582Y-109876358D02*
X169992849Y-106295699D01*
X169992849Y-106295699D02*
X173351300Y-103074190D01*
X173351300Y-103074190D02*
X176406410Y-100107962D01*
X176406410Y-100107962D02*
X177005339Y-100706892D01*
X177005339Y-100706892D02*
X177165536Y-100845901D01*
X177165536Y-100845901D02*
X177355705Y-100972510D01*
X177355705Y-100972510D02*
X177573780Y-101086198D01*
X177573780Y-101086198D02*
X177818726Y-101186968D01*
X177818726Y-101186968D02*
X178088996Y-101273267D01*
X178088996Y-101273267D02*
X178383032Y-101345096D01*
X178383032Y-101345096D02*
X178699810Y-101401942D01*
X178699810Y-101401942D02*
X179037773Y-101443283D01*
X179037773Y-101443283D02*
X179484257Y-101480488D01*
X179484257Y-101480488D02*
X179846509Y-101492368D01*
X179846509Y-101492368D02*
X180146750Y-101471175D01*
X180146750Y-101471175D02*
X180280592Y-101445855D01*
X180280592Y-101445855D02*
X180407198Y-101409681D01*
X180407198Y-101409681D02*
X180529155Y-101361622D01*
X180529155Y-101361622D02*
X180649046Y-101300127D01*
X180649046Y-101300127D02*
X180895026Y-101135279D01*
X180895026Y-101135279D02*
X181166843Y-100907904D01*
X181166843Y-100907904D02*
X181486203Y-100609732D01*
X181486203Y-100609732D02*
X181614878Y-100463486D01*
X181614878Y-100463486D02*
X181735285Y-100305358D01*
X181735285Y-100305358D02*
X181847939Y-100135857D01*
X181847939Y-100135857D02*
X181952841Y-99957057D01*
X181952841Y-99957057D02*
X182137327Y-99576719D01*
X182137327Y-99576719D02*
X182288737Y-99176227D01*
X182288737Y-99176227D02*
X182406043Y-98766432D01*
X182406043Y-98766432D02*
X182489760Y-98359223D01*
X182489760Y-98359223D02*
X182538335Y-97966996D01*
X182538335Y-97966996D02*
X182551775Y-97600096D01*
X182551775Y-97600096D02*
X182541430Y-97235260D01*
X182541430Y-97235260D02*
X182522301Y-96932952D01*
X182522301Y-96932952D02*
X182489228Y-96680254D01*
X182489228Y-96680254D02*
X182439100Y-96462179D01*
X182439100Y-96462179D02*
X182367271Y-96265810D01*
X182367271Y-96265810D02*
X182269603Y-96076673D01*
X182269603Y-96076673D02*
X182141444Y-95881336D01*
X182141444Y-95881336D02*
X181979180Y-95665846D01*
X181979180Y-95665846D02*
X181808132Y-95468959D01*
X181808132Y-95468959D02*
X181618995Y-95288090D01*
X181618995Y-95288090D02*
X181413840Y-95124276D01*
X181413840Y-95124276D02*
X181194733Y-94977517D01*
X181194733Y-94977517D02*
X180962188Y-94848842D01*
X180962188Y-94848842D02*
X180719308Y-94738254D01*
X180719308Y-94738254D02*
X180467129Y-94645753D01*
X180467129Y-94645753D02*
X180207197Y-94572890D01*
X180207197Y-94572890D02*
X179942095Y-94518629D01*
X179942095Y-94518629D02*
X179672860Y-94485040D01*
X179672860Y-94485040D02*
X179401043Y-94471097D01*
X179401043Y-94471097D02*
X179129742Y-94477817D01*
X179129742Y-94477817D02*
X178858957Y-94505723D01*
X178858957Y-94505723D02*
X178591791Y-94555332D01*
X178591791Y-94555332D02*
X178329790Y-94626645D01*
X178329790Y-94626645D02*
X178073994Y-94720697D01*
X178073994Y-94720697D02*
X177853850Y-94819915D01*
X177853850Y-94819915D02*
X177640945Y-94929471D01*
X177640945Y-94929471D02*
X177435790Y-95048843D01*
X177435790Y-95048843D02*
X177238903Y-95176484D01*
X177238903Y-95176484D02*
X176876651Y-95453987D01*
X176876651Y-95453987D02*
X176561424Y-95753709D01*
X176561424Y-95753709D02*
X176423965Y-95908739D01*
X176423965Y-95908739D02*
X176301492Y-96066352D01*
X176301492Y-96066352D02*
X176194521Y-96225514D01*
X176194521Y-96225514D02*
X176104086Y-96384161D01*
X176104086Y-96384161D02*
X176031741Y-96542808D01*
X176031741Y-96542808D02*
X175977996Y-96698872D01*
X175977996Y-96698872D02*
X175943889Y-96852349D01*
X175943889Y-96852349D02*
X175930977Y-97001696D01*
X175930977Y-97001696D02*
X175920632Y-97140187D01*
X175920632Y-97140187D02*
X175894279Y-97250259D01*
X175894279Y-97250259D02*
X175849321Y-97332941D01*
X175849321Y-97332941D02*
X175784210Y-97389268D01*
X175784210Y-97389268D02*
X175695842Y-97421307D01*
X175695842Y-97421307D02*
X175582672Y-97430091D01*
X175582672Y-97430091D02*
X175442112Y-97416650D01*
X175442112Y-97416650D02*
X175272096Y-97382027D01*
X175272096Y-97382027D02*
X174325901Y-97235781D01*
X174325901Y-97235781D02*
X172229388Y-96952595D01*
X172229388Y-96952595D02*
X169292616Y-96572772D01*
X169292616Y-96572772D02*
X165825127Y-96138175D01*
X165825127Y-96138175D02*
X157027215Y-95049867D01*
X157027215Y-95049867D02*
X155770960Y-94092822D01*
X155770960Y-94092822D02*
X155565289Y-93930558D01*
X155565289Y-93930558D02*
X155370984Y-93761058D01*
X155370984Y-93761058D02*
X155182884Y-93577091D01*
X155182884Y-93577091D02*
X154995816Y-93369350D01*
X154995816Y-93369350D02*
X154805647Y-93129572D01*
X154805647Y-93129572D02*
X154606691Y-92850003D01*
X154606691Y-92850003D02*
X154394817Y-92521858D01*
X154394817Y-92521858D02*
X154164858Y-92136352D01*
X154164858Y-92136352D02*
X153631039Y-91161733D01*
X153631039Y-91161733D02*
X152967515Y-89859489D01*
X152967515Y-89859489D02*
X152135525Y-88161917D01*
X152135525Y-88161917D02*
X151095794Y-86002875D01*
X151095794Y-86002875D02*
X148509389Y-80637311D01*
X148509389Y-80637311D02*
X147589549Y-78750088D01*
X147589549Y-78750088D02*
X147092939Y-77754283D01*
X147092939Y-77754283D02*
X146508993Y-76638588D01*
X146508993Y-76638588D02*
X147346669Y-75856207D01*
X147346669Y-75856207D02*
X147599884Y-75592141D01*
X147599884Y-75592141D02*
X147819509Y-75306370D01*
X147819509Y-75306370D02*
X148005543Y-75001479D01*
X148005543Y-75001479D02*
X148158506Y-74681085D01*
X148158506Y-74681085D02*
X148277878Y-74348806D01*
X148277878Y-74348806D02*
X148363662Y-74006708D01*
X148363662Y-74006708D02*
X148415856Y-73659442D01*
X148415856Y-73659442D02*
X148434985Y-73309593D01*
X148434985Y-73309593D02*
X148420010Y-72960260D01*
X148420010Y-72960260D02*
X148371951Y-72614545D01*
X148371951Y-72614545D02*
X148290303Y-72276064D01*
X148290303Y-72276064D02*
X148175064Y-71948435D01*
X148175064Y-71948435D02*
X148025720Y-71633726D01*
X148025720Y-71633726D02*
X147843300Y-71336586D01*
X147843300Y-71336586D02*
X147626776Y-71059084D01*
X147626776Y-71059084D02*
X147377179Y-70804836D01*
X147377179Y-70804836D02*
X147158588Y-70638438D01*
X147158588Y-70638438D02*
X146933795Y-70499428D01*
X146933795Y-70499428D02*
X146704354Y-70386257D01*
X146704354Y-70386257D02*
X146473875Y-70295823D01*
X146473875Y-70295823D02*
X146243915Y-70226060D01*
X146243915Y-70226060D02*
X146017056Y-70174900D01*
X146017056Y-70174900D02*
X145796396Y-70139760D01*
X145796396Y-70139760D02*
X145584523Y-70118057D01*
X145584523Y-70118057D02*
X145195401Y-70106172D01*
X145195401Y-70106172D02*
X145195401Y-70106172D01*
X156490317Y-119766705D02*
X156546190Y-119771044D01*
X156546190Y-119771044D02*
X156601485Y-119782157D01*
X156601485Y-119782157D02*
X156655576Y-119799910D01*
X156655576Y-119799910D02*
X156707842Y-119824199D01*
X156707842Y-119824199D02*
X156757658Y-119854859D01*
X156757658Y-119854859D02*
X156804399Y-119891758D01*
X156804399Y-119891758D02*
X156847441Y-119934763D01*
X156847441Y-119934763D02*
X156886161Y-119983740D01*
X156886161Y-119983740D02*
X157026202Y-120183728D01*
X157026202Y-120183728D02*
X157052994Y-120226061D01*
X157052994Y-120226061D02*
X157075245Y-120269776D01*
X157075245Y-120269776D02*
X157092999Y-120314551D01*
X157092999Y-120314551D02*
X157106281Y-120360054D01*
X157106281Y-120360054D02*
X157115144Y-120405965D01*
X157115144Y-120405965D02*
X157119642Y-120451949D01*
X157119642Y-120451949D02*
X157119819Y-120497685D01*
X157119819Y-120497685D02*
X157115718Y-120542844D01*
X157115718Y-120542844D02*
X157107384Y-120587101D01*
X157107384Y-120587101D02*
X157094869Y-120630128D01*
X157094869Y-120630128D02*
X157078200Y-120671596D01*
X157078200Y-120671596D02*
X157057431Y-120711183D01*
X157057431Y-120711183D02*
X157032613Y-120748558D01*
X157032613Y-120748558D02*
X157003776Y-120783396D01*
X157003776Y-120783396D02*
X156970970Y-120815370D01*
X156970970Y-120815370D02*
X156934246Y-120844152D01*
X156934246Y-120844152D02*
X152788246Y-123747332D01*
X152788246Y-123747332D02*
X152748638Y-123771991D01*
X152748638Y-123771991D02*
X152707369Y-123791888D01*
X152707369Y-123791888D02*
X152664763Y-123807101D01*
X152664763Y-123807101D02*
X152621146Y-123817685D01*
X152621146Y-123817685D02*
X152576834Y-123823691D01*
X152576834Y-123823691D02*
X152532156Y-123825278D01*
X152532156Y-123825278D02*
X152487431Y-123822368D01*
X152487431Y-123822368D02*
X152442984Y-123815092D01*
X152442984Y-123815092D02*
X152399137Y-123803530D01*
X152399137Y-123803530D02*
X152356211Y-123787760D01*
X152356211Y-123787760D02*
X152314528Y-123767837D01*
X152314528Y-123767837D02*
X152274415Y-123743840D01*
X152274415Y-123743840D02*
X152236191Y-123715820D01*
X152236191Y-123715820D02*
X152200181Y-123683856D01*
X152200181Y-123683856D02*
X152166706Y-123648013D01*
X152166706Y-123648013D02*
X152136088Y-123608362D01*
X152136088Y-123608362D02*
X151996047Y-123408377D01*
X151996047Y-123408377D02*
X151969255Y-123366044D01*
X151969255Y-123366044D02*
X151947004Y-123322327D01*
X151947004Y-123322327D02*
X151929250Y-123277554D01*
X151929250Y-123277554D02*
X151915968Y-123232048D01*
X151915968Y-123232048D02*
X151907104Y-123186140D01*
X151907104Y-123186140D02*
X151902607Y-123140153D01*
X151902607Y-123140153D02*
X151902429Y-123094417D01*
X151902429Y-123094417D02*
X151906530Y-123049258D01*
X151906530Y-123049258D02*
X151914865Y-123005001D01*
X151914865Y-123005001D02*
X151927379Y-122961975D01*
X151927379Y-122961975D02*
X151944048Y-122920507D01*
X151944048Y-122920507D02*
X151964818Y-122880920D01*
X151964818Y-122880920D02*
X151989636Y-122843545D01*
X151989636Y-122843545D02*
X152018473Y-122808707D01*
X152018473Y-122808707D02*
X152051279Y-122776732D01*
X152051279Y-122776732D02*
X152088003Y-122747951D01*
X152088003Y-122747951D02*
X156234002Y-119844768D01*
X156234002Y-119844768D02*
X156294092Y-119809528D01*
X156294092Y-119809528D02*
X156357592Y-119784895D01*
X156357592Y-119784895D02*
X156423375Y-119770687D01*
X156423375Y-119770687D02*
X156490317Y-119766718D01*
X156490317Y-119766718D02*
X156490317Y-119766718D01*
M02*
