G04 #@! TF.GenerationSoftware,KiCad,Pcbnew,5.1.2*
G04 #@! TF.CreationDate,2019-07-10T14:17:52-05:00*
G04 #@! TF.ProjectId,PartyStar,50617274-7953-4746-9172-2e6b69636164,rev?*
G04 #@! TF.SameCoordinates,Original*
G04 #@! TF.FileFunction,Soldermask,Bot*
G04 #@! TF.FilePolarity,Negative*
%FSLAX46Y46*%
G04 Gerber Fmt 4.6, Leading zero omitted, Abs format (unit mm)*
G04 Created by KiCad (PCBNEW 5.1.2) date 2019-07-10 14:17:52*
%MOMM*%
%LPD*%
G04 APERTURE LIST*
%ADD10C,3.400000*%
%ADD11R,8.400000X5.960000*%
%ADD12R,3.000000X5.960000*%
%ADD13R,1.400000X3.550000*%
%ADD14C,0.500000*%
%ADD15C,0.100000*%
%ADD16R,1.300000X1.200000*%
%ADD17R,1.200000X1.300000*%
%ADD18C,1.375000*%
%ADD19C,1.200000*%
%ADD20C,1.300000*%
%ADD21R,3.000000X1.600000*%
%ADD22C,3.500000*%
%ADD23R,1.600000X3.000000*%
G04 APERTURE END LIST*
D10*
X144900000Y-80800000D03*
D11*
X145000000Y-112500000D03*
D12*
X156905000Y-112500000D03*
X133095000Y-112500000D03*
D13*
X142360000Y-91575000D03*
X142360000Y-96625000D03*
X144900000Y-91575000D03*
X144900000Y-96625000D03*
X147440000Y-91575000D03*
X147440000Y-96625000D03*
D14*
X155967551Y-125372825D03*
D15*
G36*
X155866395Y-124288611D02*
G01*
X155903657Y-124276413D01*
X155942582Y-124271720D01*
X155981674Y-124274712D01*
X156019432Y-124285271D01*
X156054405Y-124302994D01*
X156085247Y-124327200D01*
X156110775Y-124356957D01*
X156971140Y-125585686D01*
X156990372Y-125619851D01*
X157002569Y-125657113D01*
X157007262Y-125696038D01*
X157004270Y-125735130D01*
X156993711Y-125772889D01*
X156975988Y-125807861D01*
X156951782Y-125838703D01*
X156922025Y-125864231D01*
X156512449Y-126151019D01*
X156507097Y-126154032D01*
X156492006Y-126164598D01*
X156475394Y-126175055D01*
X156432635Y-126199123D01*
X156415084Y-126207898D01*
X156370172Y-126227660D01*
X156351837Y-126234675D01*
X156305204Y-126249940D01*
X156286277Y-126255122D01*
X156238372Y-126265743D01*
X156219019Y-126269046D01*
X156170304Y-126274918D01*
X156150734Y-126276309D01*
X156101678Y-126277380D01*
X156082053Y-126276845D01*
X156033129Y-126273101D01*
X156013658Y-126270645D01*
X155965334Y-126262124D01*
X155946198Y-126257773D01*
X155898944Y-126244558D01*
X155880319Y-126238348D01*
X155834588Y-126220563D01*
X155816674Y-126212564D01*
X155772905Y-126190384D01*
X155755849Y-126180661D01*
X155714466Y-126154296D01*
X155698452Y-126142953D01*
X155659852Y-126112660D01*
X155645022Y-126099796D01*
X155609578Y-126065865D01*
X155596087Y-126051617D01*
X155564138Y-126014376D01*
X155552104Y-125998868D01*
X155541538Y-125983778D01*
X155537539Y-125979117D01*
X155250750Y-125569540D01*
X155247738Y-125564189D01*
X155237171Y-125549098D01*
X155226715Y-125532485D01*
X155202647Y-125489727D01*
X155193872Y-125472176D01*
X155174110Y-125427264D01*
X155167095Y-125408929D01*
X155151830Y-125362296D01*
X155146648Y-125343369D01*
X155136027Y-125295464D01*
X155132724Y-125276110D01*
X155126851Y-125227396D01*
X155125461Y-125207826D01*
X155124390Y-125158770D01*
X155124925Y-125139145D01*
X155128669Y-125090221D01*
X155131125Y-125070750D01*
X155139645Y-125022426D01*
X155143997Y-125003289D01*
X155157212Y-124956036D01*
X155163422Y-124937411D01*
X155181206Y-124891680D01*
X155189206Y-124873765D01*
X155211386Y-124829997D01*
X155221109Y-124812941D01*
X155247474Y-124771557D01*
X155258817Y-124755544D01*
X155289110Y-124716944D01*
X155301974Y-124702114D01*
X155335905Y-124666670D01*
X155350153Y-124653179D01*
X155387394Y-124621230D01*
X155402902Y-124609196D01*
X155417992Y-124598629D01*
X155422653Y-124594631D01*
X155832229Y-124307842D01*
X155866395Y-124288611D01*
X155866395Y-124288611D01*
G37*
D14*
X157032449Y-124627175D03*
D15*
G36*
X156492903Y-123845968D02*
G01*
X156507994Y-123835402D01*
X156524606Y-123824945D01*
X156567365Y-123800877D01*
X156584916Y-123792102D01*
X156629828Y-123772340D01*
X156648163Y-123765325D01*
X156694796Y-123750060D01*
X156713723Y-123744878D01*
X156761628Y-123734257D01*
X156780981Y-123730954D01*
X156829696Y-123725082D01*
X156849266Y-123723691D01*
X156898322Y-123722620D01*
X156917947Y-123723155D01*
X156966871Y-123726899D01*
X156986342Y-123729355D01*
X157034666Y-123737876D01*
X157053802Y-123742227D01*
X157101056Y-123755442D01*
X157119681Y-123761652D01*
X157165412Y-123779437D01*
X157183326Y-123787436D01*
X157227095Y-123809616D01*
X157244151Y-123819339D01*
X157285534Y-123845704D01*
X157301548Y-123857047D01*
X157340148Y-123887340D01*
X157354978Y-123900204D01*
X157390422Y-123934135D01*
X157403913Y-123948383D01*
X157435862Y-123985624D01*
X157447896Y-124001132D01*
X157458462Y-124016222D01*
X157462461Y-124020883D01*
X157749250Y-124430460D01*
X157752262Y-124435811D01*
X157762829Y-124450902D01*
X157773285Y-124467515D01*
X157797353Y-124510273D01*
X157806128Y-124527824D01*
X157825890Y-124572736D01*
X157832905Y-124591071D01*
X157848170Y-124637704D01*
X157853352Y-124656631D01*
X157863973Y-124704536D01*
X157867276Y-124723890D01*
X157873149Y-124772604D01*
X157874539Y-124792174D01*
X157875610Y-124841230D01*
X157875075Y-124860855D01*
X157871331Y-124909779D01*
X157868875Y-124929250D01*
X157860355Y-124977574D01*
X157856003Y-124996711D01*
X157842788Y-125043964D01*
X157836578Y-125062589D01*
X157818794Y-125108320D01*
X157810794Y-125126235D01*
X157788614Y-125170003D01*
X157778891Y-125187059D01*
X157752526Y-125228443D01*
X157741183Y-125244456D01*
X157710890Y-125283056D01*
X157698026Y-125297886D01*
X157664095Y-125333330D01*
X157649847Y-125346821D01*
X157612606Y-125378770D01*
X157597098Y-125390804D01*
X157582008Y-125401371D01*
X157577347Y-125405369D01*
X157167771Y-125692158D01*
X157133605Y-125711389D01*
X157096343Y-125723587D01*
X157057418Y-125728280D01*
X157018326Y-125725288D01*
X156980568Y-125714729D01*
X156945595Y-125697006D01*
X156914753Y-125672800D01*
X156889225Y-125643043D01*
X156028860Y-124414314D01*
X156009628Y-124380149D01*
X155997431Y-124342887D01*
X155992738Y-124303962D01*
X155995730Y-124264870D01*
X156006289Y-124227111D01*
X156024012Y-124192139D01*
X156048218Y-124161297D01*
X156077975Y-124135769D01*
X156487551Y-123848981D01*
X156492903Y-123845968D01*
X156492903Y-123845968D01*
G37*
D14*
X119900000Y-101000000D03*
D15*
G36*
X119906112Y-100050602D02*
G01*
X119924534Y-100050602D01*
X119944140Y-100051565D01*
X119992971Y-100056375D01*
X120012380Y-100059254D01*
X120060505Y-100068826D01*
X120079548Y-100073596D01*
X120126503Y-100087840D01*
X120144980Y-100094451D01*
X120190313Y-100113228D01*
X120208061Y-100121623D01*
X120251334Y-100144754D01*
X120268162Y-100154840D01*
X120308961Y-100182100D01*
X120324730Y-100193795D01*
X120362659Y-100224923D01*
X120377200Y-100238103D01*
X120411897Y-100272800D01*
X120425077Y-100287341D01*
X120456205Y-100325270D01*
X120467900Y-100341039D01*
X120495160Y-100381838D01*
X120505246Y-100398666D01*
X120528377Y-100441939D01*
X120536772Y-100459687D01*
X120555549Y-100505020D01*
X120562160Y-100523497D01*
X120576404Y-100570452D01*
X120581174Y-100589495D01*
X120590746Y-100637620D01*
X120593625Y-100657029D01*
X120598435Y-100705860D01*
X120599398Y-100725466D01*
X120599398Y-100743888D01*
X120600000Y-100750000D01*
X120600000Y-101250000D01*
X120599398Y-101256112D01*
X120599398Y-101274534D01*
X120598435Y-101294140D01*
X120593625Y-101342971D01*
X120590746Y-101362380D01*
X120581174Y-101410505D01*
X120576404Y-101429548D01*
X120562160Y-101476503D01*
X120555549Y-101494980D01*
X120536772Y-101540313D01*
X120528377Y-101558061D01*
X120505246Y-101601334D01*
X120495160Y-101618162D01*
X120467900Y-101658961D01*
X120456205Y-101674730D01*
X120425077Y-101712659D01*
X120411897Y-101727200D01*
X120377200Y-101761897D01*
X120362659Y-101775077D01*
X120324730Y-101806205D01*
X120308961Y-101817900D01*
X120268162Y-101845160D01*
X120251334Y-101855246D01*
X120208061Y-101878377D01*
X120190313Y-101886772D01*
X120144980Y-101905549D01*
X120126503Y-101912160D01*
X120079548Y-101926404D01*
X120060505Y-101931174D01*
X120012380Y-101940746D01*
X119992971Y-101943625D01*
X119944140Y-101948435D01*
X119924534Y-101949398D01*
X119906112Y-101949398D01*
X119900000Y-101950000D01*
X119400000Y-101950000D01*
X119360982Y-101946157D01*
X119323463Y-101934776D01*
X119288886Y-101916294D01*
X119258579Y-101891421D01*
X119233706Y-101861114D01*
X119215224Y-101826537D01*
X119203843Y-101789018D01*
X119200000Y-101750000D01*
X119200000Y-100250000D01*
X119203843Y-100210982D01*
X119215224Y-100173463D01*
X119233706Y-100138886D01*
X119258579Y-100108579D01*
X119288886Y-100083706D01*
X119323463Y-100065224D01*
X119360982Y-100053843D01*
X119400000Y-100050000D01*
X119900000Y-100050000D01*
X119906112Y-100050602D01*
X119906112Y-100050602D01*
G37*
D14*
X118600000Y-101000000D03*
D15*
G36*
X119139018Y-100053843D02*
G01*
X119176537Y-100065224D01*
X119211114Y-100083706D01*
X119241421Y-100108579D01*
X119266294Y-100138886D01*
X119284776Y-100173463D01*
X119296157Y-100210982D01*
X119300000Y-100250000D01*
X119300000Y-101750000D01*
X119296157Y-101789018D01*
X119284776Y-101826537D01*
X119266294Y-101861114D01*
X119241421Y-101891421D01*
X119211114Y-101916294D01*
X119176537Y-101934776D01*
X119139018Y-101946157D01*
X119100000Y-101950000D01*
X118600000Y-101950000D01*
X118593888Y-101949398D01*
X118575466Y-101949398D01*
X118555860Y-101948435D01*
X118507029Y-101943625D01*
X118487620Y-101940746D01*
X118439495Y-101931174D01*
X118420452Y-101926404D01*
X118373497Y-101912160D01*
X118355020Y-101905549D01*
X118309687Y-101886772D01*
X118291939Y-101878377D01*
X118248666Y-101855246D01*
X118231838Y-101845160D01*
X118191039Y-101817900D01*
X118175270Y-101806205D01*
X118137341Y-101775077D01*
X118122800Y-101761897D01*
X118088103Y-101727200D01*
X118074923Y-101712659D01*
X118043795Y-101674730D01*
X118032100Y-101658961D01*
X118004840Y-101618162D01*
X117994754Y-101601334D01*
X117971623Y-101558061D01*
X117963228Y-101540313D01*
X117944451Y-101494980D01*
X117937840Y-101476503D01*
X117923596Y-101429548D01*
X117918826Y-101410505D01*
X117909254Y-101362380D01*
X117906375Y-101342971D01*
X117901565Y-101294140D01*
X117900602Y-101274534D01*
X117900602Y-101256112D01*
X117900000Y-101250000D01*
X117900000Y-100750000D01*
X117900602Y-100743888D01*
X117900602Y-100725466D01*
X117901565Y-100705860D01*
X117906375Y-100657029D01*
X117909254Y-100637620D01*
X117918826Y-100589495D01*
X117923596Y-100570452D01*
X117937840Y-100523497D01*
X117944451Y-100505020D01*
X117963228Y-100459687D01*
X117971623Y-100441939D01*
X117994754Y-100398666D01*
X118004840Y-100381838D01*
X118032100Y-100341039D01*
X118043795Y-100325270D01*
X118074923Y-100287341D01*
X118088103Y-100272800D01*
X118122800Y-100238103D01*
X118137341Y-100224923D01*
X118175270Y-100193795D01*
X118191039Y-100182100D01*
X118231838Y-100154840D01*
X118248666Y-100144754D01*
X118291939Y-100121623D01*
X118309687Y-100113228D01*
X118355020Y-100094451D01*
X118373497Y-100087840D01*
X118420452Y-100073596D01*
X118439495Y-100068826D01*
X118487620Y-100059254D01*
X118507029Y-100056375D01*
X118555860Y-100051565D01*
X118575466Y-100050602D01*
X118593888Y-100050602D01*
X118600000Y-100050000D01*
X119100000Y-100050000D01*
X119139018Y-100053843D01*
X119139018Y-100053843D01*
G37*
D16*
X158000000Y-102200000D03*
X158000000Y-100300000D03*
X160000000Y-101250000D03*
X168250000Y-101300000D03*
X166250000Y-100350000D03*
X166250000Y-102250000D03*
D17*
X127800000Y-108500000D03*
X129700000Y-108500000D03*
X128750000Y-110500000D03*
D15*
G36*
X127177443Y-99901655D02*
G01*
X127210812Y-99906605D01*
X127243535Y-99914802D01*
X127275297Y-99926166D01*
X127305793Y-99940590D01*
X127334727Y-99957932D01*
X127361823Y-99978028D01*
X127386818Y-100000682D01*
X127409472Y-100025677D01*
X127429568Y-100052773D01*
X127446910Y-100081707D01*
X127461334Y-100112203D01*
X127472698Y-100143965D01*
X127480895Y-100176688D01*
X127485845Y-100210057D01*
X127487500Y-100243750D01*
X127487500Y-101356250D01*
X127485845Y-101389943D01*
X127480895Y-101423312D01*
X127472698Y-101456035D01*
X127461334Y-101487797D01*
X127446910Y-101518293D01*
X127429568Y-101547227D01*
X127409472Y-101574323D01*
X127386818Y-101599318D01*
X127361823Y-101621972D01*
X127334727Y-101642068D01*
X127305793Y-101659410D01*
X127275297Y-101673834D01*
X127243535Y-101685198D01*
X127210812Y-101693395D01*
X127177443Y-101698345D01*
X127143750Y-101700000D01*
X126456250Y-101700000D01*
X126422557Y-101698345D01*
X126389188Y-101693395D01*
X126356465Y-101685198D01*
X126324703Y-101673834D01*
X126294207Y-101659410D01*
X126265273Y-101642068D01*
X126238177Y-101621972D01*
X126213182Y-101599318D01*
X126190528Y-101574323D01*
X126170432Y-101547227D01*
X126153090Y-101518293D01*
X126138666Y-101487797D01*
X126127302Y-101456035D01*
X126119105Y-101423312D01*
X126114155Y-101389943D01*
X126112500Y-101356250D01*
X126112500Y-100243750D01*
X126114155Y-100210057D01*
X126119105Y-100176688D01*
X126127302Y-100143965D01*
X126138666Y-100112203D01*
X126153090Y-100081707D01*
X126170432Y-100052773D01*
X126190528Y-100025677D01*
X126213182Y-100000682D01*
X126238177Y-99978028D01*
X126265273Y-99957932D01*
X126294207Y-99940590D01*
X126324703Y-99926166D01*
X126356465Y-99914802D01*
X126389188Y-99906605D01*
X126422557Y-99901655D01*
X126456250Y-99900000D01*
X127143750Y-99900000D01*
X127177443Y-99901655D01*
X127177443Y-99901655D01*
G37*
D18*
X126800000Y-100800000D03*
D15*
G36*
X125302443Y-99901655D02*
G01*
X125335812Y-99906605D01*
X125368535Y-99914802D01*
X125400297Y-99926166D01*
X125430793Y-99940590D01*
X125459727Y-99957932D01*
X125486823Y-99978028D01*
X125511818Y-100000682D01*
X125534472Y-100025677D01*
X125554568Y-100052773D01*
X125571910Y-100081707D01*
X125586334Y-100112203D01*
X125597698Y-100143965D01*
X125605895Y-100176688D01*
X125610845Y-100210057D01*
X125612500Y-100243750D01*
X125612500Y-101356250D01*
X125610845Y-101389943D01*
X125605895Y-101423312D01*
X125597698Y-101456035D01*
X125586334Y-101487797D01*
X125571910Y-101518293D01*
X125554568Y-101547227D01*
X125534472Y-101574323D01*
X125511818Y-101599318D01*
X125486823Y-101621972D01*
X125459727Y-101642068D01*
X125430793Y-101659410D01*
X125400297Y-101673834D01*
X125368535Y-101685198D01*
X125335812Y-101693395D01*
X125302443Y-101698345D01*
X125268750Y-101700000D01*
X124581250Y-101700000D01*
X124547557Y-101698345D01*
X124514188Y-101693395D01*
X124481465Y-101685198D01*
X124449703Y-101673834D01*
X124419207Y-101659410D01*
X124390273Y-101642068D01*
X124363177Y-101621972D01*
X124338182Y-101599318D01*
X124315528Y-101574323D01*
X124295432Y-101547227D01*
X124278090Y-101518293D01*
X124263666Y-101487797D01*
X124252302Y-101456035D01*
X124244105Y-101423312D01*
X124239155Y-101389943D01*
X124237500Y-101356250D01*
X124237500Y-100243750D01*
X124239155Y-100210057D01*
X124244105Y-100176688D01*
X124252302Y-100143965D01*
X124263666Y-100112203D01*
X124278090Y-100081707D01*
X124295432Y-100052773D01*
X124315528Y-100025677D01*
X124338182Y-100000682D01*
X124363177Y-99978028D01*
X124390273Y-99957932D01*
X124419207Y-99940590D01*
X124449703Y-99926166D01*
X124481465Y-99914802D01*
X124514188Y-99906605D01*
X124547557Y-99901655D01*
X124581250Y-99900000D01*
X125268750Y-99900000D01*
X125302443Y-99901655D01*
X125302443Y-99901655D01*
G37*
D18*
X124925000Y-100800000D03*
D15*
G36*
X153002443Y-95851655D02*
G01*
X153035812Y-95856605D01*
X153068535Y-95864802D01*
X153100297Y-95876166D01*
X153130793Y-95890590D01*
X153159727Y-95907932D01*
X153186823Y-95928028D01*
X153211818Y-95950682D01*
X153234472Y-95975677D01*
X153254568Y-96002773D01*
X153271910Y-96031707D01*
X153286334Y-96062203D01*
X153297698Y-96093965D01*
X153305895Y-96126688D01*
X153310845Y-96160057D01*
X153312500Y-96193750D01*
X153312500Y-97306250D01*
X153310845Y-97339943D01*
X153305895Y-97373312D01*
X153297698Y-97406035D01*
X153286334Y-97437797D01*
X153271910Y-97468293D01*
X153254568Y-97497227D01*
X153234472Y-97524323D01*
X153211818Y-97549318D01*
X153186823Y-97571972D01*
X153159727Y-97592068D01*
X153130793Y-97609410D01*
X153100297Y-97623834D01*
X153068535Y-97635198D01*
X153035812Y-97643395D01*
X153002443Y-97648345D01*
X152968750Y-97650000D01*
X152281250Y-97650000D01*
X152247557Y-97648345D01*
X152214188Y-97643395D01*
X152181465Y-97635198D01*
X152149703Y-97623834D01*
X152119207Y-97609410D01*
X152090273Y-97592068D01*
X152063177Y-97571972D01*
X152038182Y-97549318D01*
X152015528Y-97524323D01*
X151995432Y-97497227D01*
X151978090Y-97468293D01*
X151963666Y-97437797D01*
X151952302Y-97406035D01*
X151944105Y-97373312D01*
X151939155Y-97339943D01*
X151937500Y-97306250D01*
X151937500Y-96193750D01*
X151939155Y-96160057D01*
X151944105Y-96126688D01*
X151952302Y-96093965D01*
X151963666Y-96062203D01*
X151978090Y-96031707D01*
X151995432Y-96002773D01*
X152015528Y-95975677D01*
X152038182Y-95950682D01*
X152063177Y-95928028D01*
X152090273Y-95907932D01*
X152119207Y-95890590D01*
X152149703Y-95876166D01*
X152181465Y-95864802D01*
X152214188Y-95856605D01*
X152247557Y-95851655D01*
X152281250Y-95850000D01*
X152968750Y-95850000D01*
X153002443Y-95851655D01*
X153002443Y-95851655D01*
G37*
D18*
X152625000Y-96750000D03*
D15*
G36*
X154877443Y-95851655D02*
G01*
X154910812Y-95856605D01*
X154943535Y-95864802D01*
X154975297Y-95876166D01*
X155005793Y-95890590D01*
X155034727Y-95907932D01*
X155061823Y-95928028D01*
X155086818Y-95950682D01*
X155109472Y-95975677D01*
X155129568Y-96002773D01*
X155146910Y-96031707D01*
X155161334Y-96062203D01*
X155172698Y-96093965D01*
X155180895Y-96126688D01*
X155185845Y-96160057D01*
X155187500Y-96193750D01*
X155187500Y-97306250D01*
X155185845Y-97339943D01*
X155180895Y-97373312D01*
X155172698Y-97406035D01*
X155161334Y-97437797D01*
X155146910Y-97468293D01*
X155129568Y-97497227D01*
X155109472Y-97524323D01*
X155086818Y-97549318D01*
X155061823Y-97571972D01*
X155034727Y-97592068D01*
X155005793Y-97609410D01*
X154975297Y-97623834D01*
X154943535Y-97635198D01*
X154910812Y-97643395D01*
X154877443Y-97648345D01*
X154843750Y-97650000D01*
X154156250Y-97650000D01*
X154122557Y-97648345D01*
X154089188Y-97643395D01*
X154056465Y-97635198D01*
X154024703Y-97623834D01*
X153994207Y-97609410D01*
X153965273Y-97592068D01*
X153938177Y-97571972D01*
X153913182Y-97549318D01*
X153890528Y-97524323D01*
X153870432Y-97497227D01*
X153853090Y-97468293D01*
X153838666Y-97437797D01*
X153827302Y-97406035D01*
X153819105Y-97373312D01*
X153814155Y-97339943D01*
X153812500Y-97306250D01*
X153812500Y-96193750D01*
X153814155Y-96160057D01*
X153819105Y-96126688D01*
X153827302Y-96093965D01*
X153838666Y-96062203D01*
X153853090Y-96031707D01*
X153870432Y-96002773D01*
X153890528Y-95975677D01*
X153913182Y-95950682D01*
X153938177Y-95928028D01*
X153965273Y-95907932D01*
X153994207Y-95890590D01*
X154024703Y-95876166D01*
X154056465Y-95864802D01*
X154089188Y-95856605D01*
X154122557Y-95851655D01*
X154156250Y-95850000D01*
X154843750Y-95850000D01*
X154877443Y-95851655D01*
X154877443Y-95851655D01*
G37*
D18*
X154500000Y-96750000D03*
D15*
G36*
X155002443Y-102351655D02*
G01*
X155035812Y-102356605D01*
X155068535Y-102364802D01*
X155100297Y-102376166D01*
X155130793Y-102390590D01*
X155159727Y-102407932D01*
X155186823Y-102428028D01*
X155211818Y-102450682D01*
X155234472Y-102475677D01*
X155254568Y-102502773D01*
X155271910Y-102531707D01*
X155286334Y-102562203D01*
X155297698Y-102593965D01*
X155305895Y-102626688D01*
X155310845Y-102660057D01*
X155312500Y-102693750D01*
X155312500Y-103806250D01*
X155310845Y-103839943D01*
X155305895Y-103873312D01*
X155297698Y-103906035D01*
X155286334Y-103937797D01*
X155271910Y-103968293D01*
X155254568Y-103997227D01*
X155234472Y-104024323D01*
X155211818Y-104049318D01*
X155186823Y-104071972D01*
X155159727Y-104092068D01*
X155130793Y-104109410D01*
X155100297Y-104123834D01*
X155068535Y-104135198D01*
X155035812Y-104143395D01*
X155002443Y-104148345D01*
X154968750Y-104150000D01*
X154281250Y-104150000D01*
X154247557Y-104148345D01*
X154214188Y-104143395D01*
X154181465Y-104135198D01*
X154149703Y-104123834D01*
X154119207Y-104109410D01*
X154090273Y-104092068D01*
X154063177Y-104071972D01*
X154038182Y-104049318D01*
X154015528Y-104024323D01*
X153995432Y-103997227D01*
X153978090Y-103968293D01*
X153963666Y-103937797D01*
X153952302Y-103906035D01*
X153944105Y-103873312D01*
X153939155Y-103839943D01*
X153937500Y-103806250D01*
X153937500Y-102693750D01*
X153939155Y-102660057D01*
X153944105Y-102626688D01*
X153952302Y-102593965D01*
X153963666Y-102562203D01*
X153978090Y-102531707D01*
X153995432Y-102502773D01*
X154015528Y-102475677D01*
X154038182Y-102450682D01*
X154063177Y-102428028D01*
X154090273Y-102407932D01*
X154119207Y-102390590D01*
X154149703Y-102376166D01*
X154181465Y-102364802D01*
X154214188Y-102356605D01*
X154247557Y-102351655D01*
X154281250Y-102350000D01*
X154968750Y-102350000D01*
X155002443Y-102351655D01*
X155002443Y-102351655D01*
G37*
D18*
X154625000Y-103250000D03*
D15*
G36*
X153127443Y-102351655D02*
G01*
X153160812Y-102356605D01*
X153193535Y-102364802D01*
X153225297Y-102376166D01*
X153255793Y-102390590D01*
X153284727Y-102407932D01*
X153311823Y-102428028D01*
X153336818Y-102450682D01*
X153359472Y-102475677D01*
X153379568Y-102502773D01*
X153396910Y-102531707D01*
X153411334Y-102562203D01*
X153422698Y-102593965D01*
X153430895Y-102626688D01*
X153435845Y-102660057D01*
X153437500Y-102693750D01*
X153437500Y-103806250D01*
X153435845Y-103839943D01*
X153430895Y-103873312D01*
X153422698Y-103906035D01*
X153411334Y-103937797D01*
X153396910Y-103968293D01*
X153379568Y-103997227D01*
X153359472Y-104024323D01*
X153336818Y-104049318D01*
X153311823Y-104071972D01*
X153284727Y-104092068D01*
X153255793Y-104109410D01*
X153225297Y-104123834D01*
X153193535Y-104135198D01*
X153160812Y-104143395D01*
X153127443Y-104148345D01*
X153093750Y-104150000D01*
X152406250Y-104150000D01*
X152372557Y-104148345D01*
X152339188Y-104143395D01*
X152306465Y-104135198D01*
X152274703Y-104123834D01*
X152244207Y-104109410D01*
X152215273Y-104092068D01*
X152188177Y-104071972D01*
X152163182Y-104049318D01*
X152140528Y-104024323D01*
X152120432Y-103997227D01*
X152103090Y-103968293D01*
X152088666Y-103937797D01*
X152077302Y-103906035D01*
X152069105Y-103873312D01*
X152064155Y-103839943D01*
X152062500Y-103806250D01*
X152062500Y-102693750D01*
X152064155Y-102660057D01*
X152069105Y-102626688D01*
X152077302Y-102593965D01*
X152088666Y-102562203D01*
X152103090Y-102531707D01*
X152120432Y-102502773D01*
X152140528Y-102475677D01*
X152163182Y-102450682D01*
X152188177Y-102428028D01*
X152215273Y-102407932D01*
X152244207Y-102390590D01*
X152274703Y-102376166D01*
X152306465Y-102364802D01*
X152339188Y-102356605D01*
X152372557Y-102351655D01*
X152406250Y-102350000D01*
X153093750Y-102350000D01*
X153127443Y-102351655D01*
X153127443Y-102351655D01*
G37*
D18*
X152750000Y-103250000D03*
D15*
G36*
X153127443Y-99101655D02*
G01*
X153160812Y-99106605D01*
X153193535Y-99114802D01*
X153225297Y-99126166D01*
X153255793Y-99140590D01*
X153284727Y-99157932D01*
X153311823Y-99178028D01*
X153336818Y-99200682D01*
X153359472Y-99225677D01*
X153379568Y-99252773D01*
X153396910Y-99281707D01*
X153411334Y-99312203D01*
X153422698Y-99343965D01*
X153430895Y-99376688D01*
X153435845Y-99410057D01*
X153437500Y-99443750D01*
X153437500Y-100556250D01*
X153435845Y-100589943D01*
X153430895Y-100623312D01*
X153422698Y-100656035D01*
X153411334Y-100687797D01*
X153396910Y-100718293D01*
X153379568Y-100747227D01*
X153359472Y-100774323D01*
X153336818Y-100799318D01*
X153311823Y-100821972D01*
X153284727Y-100842068D01*
X153255793Y-100859410D01*
X153225297Y-100873834D01*
X153193535Y-100885198D01*
X153160812Y-100893395D01*
X153127443Y-100898345D01*
X153093750Y-100900000D01*
X152406250Y-100900000D01*
X152372557Y-100898345D01*
X152339188Y-100893395D01*
X152306465Y-100885198D01*
X152274703Y-100873834D01*
X152244207Y-100859410D01*
X152215273Y-100842068D01*
X152188177Y-100821972D01*
X152163182Y-100799318D01*
X152140528Y-100774323D01*
X152120432Y-100747227D01*
X152103090Y-100718293D01*
X152088666Y-100687797D01*
X152077302Y-100656035D01*
X152069105Y-100623312D01*
X152064155Y-100589943D01*
X152062500Y-100556250D01*
X152062500Y-99443750D01*
X152064155Y-99410057D01*
X152069105Y-99376688D01*
X152077302Y-99343965D01*
X152088666Y-99312203D01*
X152103090Y-99281707D01*
X152120432Y-99252773D01*
X152140528Y-99225677D01*
X152163182Y-99200682D01*
X152188177Y-99178028D01*
X152215273Y-99157932D01*
X152244207Y-99140590D01*
X152274703Y-99126166D01*
X152306465Y-99114802D01*
X152339188Y-99106605D01*
X152372557Y-99101655D01*
X152406250Y-99100000D01*
X153093750Y-99100000D01*
X153127443Y-99101655D01*
X153127443Y-99101655D01*
G37*
D18*
X152750000Y-100000000D03*
D15*
G36*
X155002443Y-99101655D02*
G01*
X155035812Y-99106605D01*
X155068535Y-99114802D01*
X155100297Y-99126166D01*
X155130793Y-99140590D01*
X155159727Y-99157932D01*
X155186823Y-99178028D01*
X155211818Y-99200682D01*
X155234472Y-99225677D01*
X155254568Y-99252773D01*
X155271910Y-99281707D01*
X155286334Y-99312203D01*
X155297698Y-99343965D01*
X155305895Y-99376688D01*
X155310845Y-99410057D01*
X155312500Y-99443750D01*
X155312500Y-100556250D01*
X155310845Y-100589943D01*
X155305895Y-100623312D01*
X155297698Y-100656035D01*
X155286334Y-100687797D01*
X155271910Y-100718293D01*
X155254568Y-100747227D01*
X155234472Y-100774323D01*
X155211818Y-100799318D01*
X155186823Y-100821972D01*
X155159727Y-100842068D01*
X155130793Y-100859410D01*
X155100297Y-100873834D01*
X155068535Y-100885198D01*
X155035812Y-100893395D01*
X155002443Y-100898345D01*
X154968750Y-100900000D01*
X154281250Y-100900000D01*
X154247557Y-100898345D01*
X154214188Y-100893395D01*
X154181465Y-100885198D01*
X154149703Y-100873834D01*
X154119207Y-100859410D01*
X154090273Y-100842068D01*
X154063177Y-100821972D01*
X154038182Y-100799318D01*
X154015528Y-100774323D01*
X153995432Y-100747227D01*
X153978090Y-100718293D01*
X153963666Y-100687797D01*
X153952302Y-100656035D01*
X153944105Y-100623312D01*
X153939155Y-100589943D01*
X153937500Y-100556250D01*
X153937500Y-99443750D01*
X153939155Y-99410057D01*
X153944105Y-99376688D01*
X153952302Y-99343965D01*
X153963666Y-99312203D01*
X153978090Y-99281707D01*
X153995432Y-99252773D01*
X154015528Y-99225677D01*
X154038182Y-99200682D01*
X154063177Y-99178028D01*
X154090273Y-99157932D01*
X154119207Y-99140590D01*
X154149703Y-99126166D01*
X154181465Y-99114802D01*
X154214188Y-99106605D01*
X154247557Y-99101655D01*
X154281250Y-99100000D01*
X154968750Y-99100000D01*
X155002443Y-99101655D01*
X155002443Y-99101655D01*
G37*
D18*
X154625000Y-100000000D03*
D15*
G36*
X127177443Y-103601655D02*
G01*
X127210812Y-103606605D01*
X127243535Y-103614802D01*
X127275297Y-103626166D01*
X127305793Y-103640590D01*
X127334727Y-103657932D01*
X127361823Y-103678028D01*
X127386818Y-103700682D01*
X127409472Y-103725677D01*
X127429568Y-103752773D01*
X127446910Y-103781707D01*
X127461334Y-103812203D01*
X127472698Y-103843965D01*
X127480895Y-103876688D01*
X127485845Y-103910057D01*
X127487500Y-103943750D01*
X127487500Y-105056250D01*
X127485845Y-105089943D01*
X127480895Y-105123312D01*
X127472698Y-105156035D01*
X127461334Y-105187797D01*
X127446910Y-105218293D01*
X127429568Y-105247227D01*
X127409472Y-105274323D01*
X127386818Y-105299318D01*
X127361823Y-105321972D01*
X127334727Y-105342068D01*
X127305793Y-105359410D01*
X127275297Y-105373834D01*
X127243535Y-105385198D01*
X127210812Y-105393395D01*
X127177443Y-105398345D01*
X127143750Y-105400000D01*
X126456250Y-105400000D01*
X126422557Y-105398345D01*
X126389188Y-105393395D01*
X126356465Y-105385198D01*
X126324703Y-105373834D01*
X126294207Y-105359410D01*
X126265273Y-105342068D01*
X126238177Y-105321972D01*
X126213182Y-105299318D01*
X126190528Y-105274323D01*
X126170432Y-105247227D01*
X126153090Y-105218293D01*
X126138666Y-105187797D01*
X126127302Y-105156035D01*
X126119105Y-105123312D01*
X126114155Y-105089943D01*
X126112500Y-105056250D01*
X126112500Y-103943750D01*
X126114155Y-103910057D01*
X126119105Y-103876688D01*
X126127302Y-103843965D01*
X126138666Y-103812203D01*
X126153090Y-103781707D01*
X126170432Y-103752773D01*
X126190528Y-103725677D01*
X126213182Y-103700682D01*
X126238177Y-103678028D01*
X126265273Y-103657932D01*
X126294207Y-103640590D01*
X126324703Y-103626166D01*
X126356465Y-103614802D01*
X126389188Y-103606605D01*
X126422557Y-103601655D01*
X126456250Y-103600000D01*
X127143750Y-103600000D01*
X127177443Y-103601655D01*
X127177443Y-103601655D01*
G37*
D18*
X126800000Y-104500000D03*
D15*
G36*
X125302443Y-103601655D02*
G01*
X125335812Y-103606605D01*
X125368535Y-103614802D01*
X125400297Y-103626166D01*
X125430793Y-103640590D01*
X125459727Y-103657932D01*
X125486823Y-103678028D01*
X125511818Y-103700682D01*
X125534472Y-103725677D01*
X125554568Y-103752773D01*
X125571910Y-103781707D01*
X125586334Y-103812203D01*
X125597698Y-103843965D01*
X125605895Y-103876688D01*
X125610845Y-103910057D01*
X125612500Y-103943750D01*
X125612500Y-105056250D01*
X125610845Y-105089943D01*
X125605895Y-105123312D01*
X125597698Y-105156035D01*
X125586334Y-105187797D01*
X125571910Y-105218293D01*
X125554568Y-105247227D01*
X125534472Y-105274323D01*
X125511818Y-105299318D01*
X125486823Y-105321972D01*
X125459727Y-105342068D01*
X125430793Y-105359410D01*
X125400297Y-105373834D01*
X125368535Y-105385198D01*
X125335812Y-105393395D01*
X125302443Y-105398345D01*
X125268750Y-105400000D01*
X124581250Y-105400000D01*
X124547557Y-105398345D01*
X124514188Y-105393395D01*
X124481465Y-105385198D01*
X124449703Y-105373834D01*
X124419207Y-105359410D01*
X124390273Y-105342068D01*
X124363177Y-105321972D01*
X124338182Y-105299318D01*
X124315528Y-105274323D01*
X124295432Y-105247227D01*
X124278090Y-105218293D01*
X124263666Y-105187797D01*
X124252302Y-105156035D01*
X124244105Y-105123312D01*
X124239155Y-105089943D01*
X124237500Y-105056250D01*
X124237500Y-103943750D01*
X124239155Y-103910057D01*
X124244105Y-103876688D01*
X124252302Y-103843965D01*
X124263666Y-103812203D01*
X124278090Y-103781707D01*
X124295432Y-103752773D01*
X124315528Y-103725677D01*
X124338182Y-103700682D01*
X124363177Y-103678028D01*
X124390273Y-103657932D01*
X124419207Y-103640590D01*
X124449703Y-103626166D01*
X124481465Y-103614802D01*
X124514188Y-103606605D01*
X124547557Y-103601655D01*
X124581250Y-103600000D01*
X125268750Y-103600000D01*
X125302443Y-103601655D01*
X125302443Y-103601655D01*
G37*
D18*
X124925000Y-104500000D03*
D19*
X128096203Y-117050386D03*
D15*
G36*
X127572631Y-116337384D02*
G01*
X128848746Y-116585436D01*
X128619775Y-117763388D01*
X127343660Y-117515336D01*
X127572631Y-116337384D01*
X127572631Y-116337384D01*
G37*
D19*
X126646055Y-124510753D03*
D15*
G36*
X126122483Y-123797751D02*
G01*
X127398598Y-124045803D01*
X127169627Y-125223755D01*
X125893512Y-124975703D01*
X126122483Y-123797751D01*
X126122483Y-123797751D01*
G37*
D19*
X128901889Y-124959430D03*
D15*
G36*
X128378317Y-124246428D02*
G01*
X129654432Y-124494480D01*
X129425461Y-125672432D01*
X128149346Y-125424380D01*
X128378317Y-124246428D01*
X128378317Y-124246428D01*
G37*
D19*
X130353945Y-117489247D03*
D15*
G36*
X129830373Y-116776245D02*
G01*
X131106488Y-117024297D01*
X130877517Y-118202249D01*
X129601402Y-117954197D01*
X129830373Y-116776245D01*
X129830373Y-116776245D01*
G37*
D20*
X131015278Y-119196808D03*
D15*
G36*
X130329461Y-118401333D02*
G01*
X131949146Y-118716168D01*
X131701095Y-119992283D01*
X130081410Y-119677448D01*
X130329461Y-118401333D01*
X130329461Y-118401333D01*
G37*
D20*
X130729065Y-120669249D03*
D15*
G36*
X130043248Y-119873774D02*
G01*
X131662933Y-120188609D01*
X131414882Y-121464724D01*
X129795197Y-121149889D01*
X130043248Y-119873774D01*
X130043248Y-119873774D01*
G37*
D20*
X130156638Y-123614130D03*
D15*
G36*
X129470821Y-122818655D02*
G01*
X131090506Y-123133490D01*
X130842455Y-124409605D01*
X129222770Y-124094770D01*
X129470821Y-122818655D01*
X129470821Y-122818655D01*
G37*
D20*
X128213787Y-122472441D03*
X128786213Y-119527559D03*
D15*
G36*
X159212443Y-105761655D02*
G01*
X159245812Y-105766605D01*
X159278535Y-105774802D01*
X159310297Y-105786166D01*
X159340793Y-105800590D01*
X159369727Y-105817932D01*
X159396823Y-105838028D01*
X159421818Y-105860682D01*
X159444472Y-105885677D01*
X159464568Y-105912773D01*
X159481910Y-105941707D01*
X159496334Y-105972203D01*
X159507698Y-106003965D01*
X159515895Y-106036688D01*
X159520845Y-106070057D01*
X159522500Y-106103750D01*
X159522500Y-107216250D01*
X159520845Y-107249943D01*
X159515895Y-107283312D01*
X159507698Y-107316035D01*
X159496334Y-107347797D01*
X159481910Y-107378293D01*
X159464568Y-107407227D01*
X159444472Y-107434323D01*
X159421818Y-107459318D01*
X159396823Y-107481972D01*
X159369727Y-107502068D01*
X159340793Y-107519410D01*
X159310297Y-107533834D01*
X159278535Y-107545198D01*
X159245812Y-107553395D01*
X159212443Y-107558345D01*
X159178750Y-107560000D01*
X158491250Y-107560000D01*
X158457557Y-107558345D01*
X158424188Y-107553395D01*
X158391465Y-107545198D01*
X158359703Y-107533834D01*
X158329207Y-107519410D01*
X158300273Y-107502068D01*
X158273177Y-107481972D01*
X158248182Y-107459318D01*
X158225528Y-107434323D01*
X158205432Y-107407227D01*
X158188090Y-107378293D01*
X158173666Y-107347797D01*
X158162302Y-107316035D01*
X158154105Y-107283312D01*
X158149155Y-107249943D01*
X158147500Y-107216250D01*
X158147500Y-106103750D01*
X158149155Y-106070057D01*
X158154105Y-106036688D01*
X158162302Y-106003965D01*
X158173666Y-105972203D01*
X158188090Y-105941707D01*
X158205432Y-105912773D01*
X158225528Y-105885677D01*
X158248182Y-105860682D01*
X158273177Y-105838028D01*
X158300273Y-105817932D01*
X158329207Y-105800590D01*
X158359703Y-105786166D01*
X158391465Y-105774802D01*
X158424188Y-105766605D01*
X158457557Y-105761655D01*
X158491250Y-105760000D01*
X159178750Y-105760000D01*
X159212443Y-105761655D01*
X159212443Y-105761655D01*
G37*
D18*
X158835000Y-106660000D03*
D15*
G36*
X161087443Y-105761655D02*
G01*
X161120812Y-105766605D01*
X161153535Y-105774802D01*
X161185297Y-105786166D01*
X161215793Y-105800590D01*
X161244727Y-105817932D01*
X161271823Y-105838028D01*
X161296818Y-105860682D01*
X161319472Y-105885677D01*
X161339568Y-105912773D01*
X161356910Y-105941707D01*
X161371334Y-105972203D01*
X161382698Y-106003965D01*
X161390895Y-106036688D01*
X161395845Y-106070057D01*
X161397500Y-106103750D01*
X161397500Y-107216250D01*
X161395845Y-107249943D01*
X161390895Y-107283312D01*
X161382698Y-107316035D01*
X161371334Y-107347797D01*
X161356910Y-107378293D01*
X161339568Y-107407227D01*
X161319472Y-107434323D01*
X161296818Y-107459318D01*
X161271823Y-107481972D01*
X161244727Y-107502068D01*
X161215793Y-107519410D01*
X161185297Y-107533834D01*
X161153535Y-107545198D01*
X161120812Y-107553395D01*
X161087443Y-107558345D01*
X161053750Y-107560000D01*
X160366250Y-107560000D01*
X160332557Y-107558345D01*
X160299188Y-107553395D01*
X160266465Y-107545198D01*
X160234703Y-107533834D01*
X160204207Y-107519410D01*
X160175273Y-107502068D01*
X160148177Y-107481972D01*
X160123182Y-107459318D01*
X160100528Y-107434323D01*
X160080432Y-107407227D01*
X160063090Y-107378293D01*
X160048666Y-107347797D01*
X160037302Y-107316035D01*
X160029105Y-107283312D01*
X160024155Y-107249943D01*
X160022500Y-107216250D01*
X160022500Y-106103750D01*
X160024155Y-106070057D01*
X160029105Y-106036688D01*
X160037302Y-106003965D01*
X160048666Y-105972203D01*
X160063090Y-105941707D01*
X160080432Y-105912773D01*
X160100528Y-105885677D01*
X160123182Y-105860682D01*
X160148177Y-105838028D01*
X160175273Y-105817932D01*
X160204207Y-105800590D01*
X160234703Y-105786166D01*
X160266465Y-105774802D01*
X160299188Y-105766605D01*
X160332557Y-105761655D01*
X160366250Y-105760000D01*
X161053750Y-105760000D01*
X161087443Y-105761655D01*
X161087443Y-105761655D01*
G37*
D18*
X160710000Y-106660000D03*
D21*
X111490000Y-95200000D03*
X111490000Y-100000000D03*
D22*
X111490000Y-97600000D03*
D23*
X126290000Y-136820000D03*
X121490000Y-136820000D03*
D22*
X123890000Y-136820000D03*
X144890000Y-73460000D03*
D23*
X147290000Y-73460000D03*
X142490000Y-73460000D03*
D22*
X179420000Y-97930000D03*
D21*
X179420000Y-95530000D03*
X179420000Y-100330000D03*
D15*
G36*
X165352443Y-105781655D02*
G01*
X165385812Y-105786605D01*
X165418535Y-105794802D01*
X165450297Y-105806166D01*
X165480793Y-105820590D01*
X165509727Y-105837932D01*
X165536823Y-105858028D01*
X165561818Y-105880682D01*
X165584472Y-105905677D01*
X165604568Y-105932773D01*
X165621910Y-105961707D01*
X165636334Y-105992203D01*
X165647698Y-106023965D01*
X165655895Y-106056688D01*
X165660845Y-106090057D01*
X165662500Y-106123750D01*
X165662500Y-107236250D01*
X165660845Y-107269943D01*
X165655895Y-107303312D01*
X165647698Y-107336035D01*
X165636334Y-107367797D01*
X165621910Y-107398293D01*
X165604568Y-107427227D01*
X165584472Y-107454323D01*
X165561818Y-107479318D01*
X165536823Y-107501972D01*
X165509727Y-107522068D01*
X165480793Y-107539410D01*
X165450297Y-107553834D01*
X165418535Y-107565198D01*
X165385812Y-107573395D01*
X165352443Y-107578345D01*
X165318750Y-107580000D01*
X164631250Y-107580000D01*
X164597557Y-107578345D01*
X164564188Y-107573395D01*
X164531465Y-107565198D01*
X164499703Y-107553834D01*
X164469207Y-107539410D01*
X164440273Y-107522068D01*
X164413177Y-107501972D01*
X164388182Y-107479318D01*
X164365528Y-107454323D01*
X164345432Y-107427227D01*
X164328090Y-107398293D01*
X164313666Y-107367797D01*
X164302302Y-107336035D01*
X164294105Y-107303312D01*
X164289155Y-107269943D01*
X164287500Y-107236250D01*
X164287500Y-106123750D01*
X164289155Y-106090057D01*
X164294105Y-106056688D01*
X164302302Y-106023965D01*
X164313666Y-105992203D01*
X164328090Y-105961707D01*
X164345432Y-105932773D01*
X164365528Y-105905677D01*
X164388182Y-105880682D01*
X164413177Y-105858028D01*
X164440273Y-105837932D01*
X164469207Y-105820590D01*
X164499703Y-105806166D01*
X164531465Y-105794802D01*
X164564188Y-105786605D01*
X164597557Y-105781655D01*
X164631250Y-105780000D01*
X165318750Y-105780000D01*
X165352443Y-105781655D01*
X165352443Y-105781655D01*
G37*
D18*
X164975000Y-106680000D03*
D15*
G36*
X163477443Y-105781655D02*
G01*
X163510812Y-105786605D01*
X163543535Y-105794802D01*
X163575297Y-105806166D01*
X163605793Y-105820590D01*
X163634727Y-105837932D01*
X163661823Y-105858028D01*
X163686818Y-105880682D01*
X163709472Y-105905677D01*
X163729568Y-105932773D01*
X163746910Y-105961707D01*
X163761334Y-105992203D01*
X163772698Y-106023965D01*
X163780895Y-106056688D01*
X163785845Y-106090057D01*
X163787500Y-106123750D01*
X163787500Y-107236250D01*
X163785845Y-107269943D01*
X163780895Y-107303312D01*
X163772698Y-107336035D01*
X163761334Y-107367797D01*
X163746910Y-107398293D01*
X163729568Y-107427227D01*
X163709472Y-107454323D01*
X163686818Y-107479318D01*
X163661823Y-107501972D01*
X163634727Y-107522068D01*
X163605793Y-107539410D01*
X163575297Y-107553834D01*
X163543535Y-107565198D01*
X163510812Y-107573395D01*
X163477443Y-107578345D01*
X163443750Y-107580000D01*
X162756250Y-107580000D01*
X162722557Y-107578345D01*
X162689188Y-107573395D01*
X162656465Y-107565198D01*
X162624703Y-107553834D01*
X162594207Y-107539410D01*
X162565273Y-107522068D01*
X162538177Y-107501972D01*
X162513182Y-107479318D01*
X162490528Y-107454323D01*
X162470432Y-107427227D01*
X162453090Y-107398293D01*
X162438666Y-107367797D01*
X162427302Y-107336035D01*
X162419105Y-107303312D01*
X162414155Y-107269943D01*
X162412500Y-107236250D01*
X162412500Y-106123750D01*
X162414155Y-106090057D01*
X162419105Y-106056688D01*
X162427302Y-106023965D01*
X162438666Y-105992203D01*
X162453090Y-105961707D01*
X162470432Y-105932773D01*
X162490528Y-105905677D01*
X162513182Y-105880682D01*
X162538177Y-105858028D01*
X162565273Y-105837932D01*
X162594207Y-105820590D01*
X162624703Y-105806166D01*
X162656465Y-105794802D01*
X162689188Y-105786605D01*
X162722557Y-105781655D01*
X162756250Y-105780000D01*
X163443750Y-105780000D01*
X163477443Y-105781655D01*
X163477443Y-105781655D01*
G37*
D18*
X163100000Y-106680000D03*
M02*
