G04 #@! TF.GenerationSoftware,KiCad,Pcbnew,5.1.2*
G04 #@! TF.CreationDate,2019-06-28T11:51:57-05:00*
G04 #@! TF.ProjectId,PartyStar,50617274-7953-4746-9172-2e6b69636164,rev?*
G04 #@! TF.SameCoordinates,Original*
G04 #@! TF.FileFunction,Soldermask,Bot*
G04 #@! TF.FilePolarity,Negative*
%FSLAX46Y46*%
G04 Gerber Fmt 4.6, Leading zero omitted, Abs format (unit mm)*
G04 Created by KiCad (PCBNEW 5.1.2) date 2019-06-28 11:51:57*
%MOMM*%
%LPD*%
G04 APERTURE LIST*
%ADD10C,0.010000*%
%ADD11C,0.100000*%
%ADD12C,3.900000*%
%ADD13R,8.400000X5.960000*%
%ADD14R,3.000000X5.960000*%
%ADD15C,1.650000*%
%ADD16C,1.375000*%
%ADD17R,3.550000X1.400000*%
%ADD18C,0.500000*%
%ADD19R,1.300000X1.200000*%
%ADD20R,1.200000X1.300000*%
%ADD21C,1.200000*%
%ADD22C,1.300000*%
G04 APERTURE END LIST*
D10*
G36*
X165680157Y-135328792D02*
G01*
X165799363Y-135337780D01*
X165844000Y-135343441D01*
X166092760Y-135392251D01*
X166331449Y-135464157D01*
X166559123Y-135558555D01*
X166774841Y-135674840D01*
X166977661Y-135812405D01*
X167166641Y-135970645D01*
X167340840Y-136148956D01*
X167499316Y-136346732D01*
X167574175Y-136455500D01*
X167700639Y-136671831D01*
X167804158Y-136897049D01*
X167884837Y-137129373D01*
X167942783Y-137367020D01*
X167978099Y-137608209D01*
X167990893Y-137851159D01*
X167981269Y-138094088D01*
X167949333Y-138335215D01*
X167895191Y-138572757D01*
X167818948Y-138804934D01*
X167720711Y-139029963D01*
X167600584Y-139246064D01*
X167458673Y-139451455D01*
X167391637Y-139535250D01*
X167221633Y-139719273D01*
X167035604Y-139884009D01*
X166834969Y-140028633D01*
X166621149Y-140152317D01*
X166395562Y-140254237D01*
X166159629Y-140333567D01*
X165926550Y-140387372D01*
X165857001Y-140396894D01*
X165768504Y-140404348D01*
X165667223Y-140409639D01*
X165559323Y-140412672D01*
X165450969Y-140413354D01*
X165348326Y-140411589D01*
X165257558Y-140407283D01*
X165184830Y-140400342D01*
X165174724Y-140398896D01*
X164928982Y-140348838D01*
X164691778Y-140275340D01*
X164464544Y-140179344D01*
X164248710Y-140061795D01*
X164045704Y-139923637D01*
X163856958Y-139765813D01*
X163683901Y-139589267D01*
X163527962Y-139394943D01*
X163427956Y-139245948D01*
X163305766Y-139025687D01*
X163206529Y-138796665D01*
X163130220Y-138560724D01*
X163076812Y-138319707D01*
X163046283Y-138075455D01*
X163038606Y-137829811D01*
X163053758Y-137584617D01*
X163091713Y-137341717D01*
X163152445Y-137102952D01*
X163235932Y-136870165D01*
X163342147Y-136645197D01*
X163465838Y-136437746D01*
X163617204Y-136231627D01*
X163784955Y-136044748D01*
X163968307Y-135877644D01*
X164166473Y-135730849D01*
X164378667Y-135604899D01*
X164604104Y-135500328D01*
X164841998Y-135417671D01*
X165037550Y-135368361D01*
X165146778Y-135349967D01*
X165273304Y-135336577D01*
X165409477Y-135328427D01*
X165547645Y-135325753D01*
X165680157Y-135328792D01*
X165680157Y-135328792D01*
G37*
X165680157Y-135328792D02*
X165799363Y-135337780D01*
X165844000Y-135343441D01*
X166092760Y-135392251D01*
X166331449Y-135464157D01*
X166559123Y-135558555D01*
X166774841Y-135674840D01*
X166977661Y-135812405D01*
X167166641Y-135970645D01*
X167340840Y-136148956D01*
X167499316Y-136346732D01*
X167574175Y-136455500D01*
X167700639Y-136671831D01*
X167804158Y-136897049D01*
X167884837Y-137129373D01*
X167942783Y-137367020D01*
X167978099Y-137608209D01*
X167990893Y-137851159D01*
X167981269Y-138094088D01*
X167949333Y-138335215D01*
X167895191Y-138572757D01*
X167818948Y-138804934D01*
X167720711Y-139029963D01*
X167600584Y-139246064D01*
X167458673Y-139451455D01*
X167391637Y-139535250D01*
X167221633Y-139719273D01*
X167035604Y-139884009D01*
X166834969Y-140028633D01*
X166621149Y-140152317D01*
X166395562Y-140254237D01*
X166159629Y-140333567D01*
X165926550Y-140387372D01*
X165857001Y-140396894D01*
X165768504Y-140404348D01*
X165667223Y-140409639D01*
X165559323Y-140412672D01*
X165450969Y-140413354D01*
X165348326Y-140411589D01*
X165257558Y-140407283D01*
X165184830Y-140400342D01*
X165174724Y-140398896D01*
X164928982Y-140348838D01*
X164691778Y-140275340D01*
X164464544Y-140179344D01*
X164248710Y-140061795D01*
X164045704Y-139923637D01*
X163856958Y-139765813D01*
X163683901Y-139589267D01*
X163527962Y-139394943D01*
X163427956Y-139245948D01*
X163305766Y-139025687D01*
X163206529Y-138796665D01*
X163130220Y-138560724D01*
X163076812Y-138319707D01*
X163046283Y-138075455D01*
X163038606Y-137829811D01*
X163053758Y-137584617D01*
X163091713Y-137341717D01*
X163152445Y-137102952D01*
X163235932Y-136870165D01*
X163342147Y-136645197D01*
X163465838Y-136437746D01*
X163617204Y-136231627D01*
X163784955Y-136044748D01*
X163968307Y-135877644D01*
X164166473Y-135730849D01*
X164378667Y-135604899D01*
X164604104Y-135500328D01*
X164841998Y-135417671D01*
X165037550Y-135368361D01*
X165146778Y-135349967D01*
X165273304Y-135336577D01*
X165409477Y-135328427D01*
X165547645Y-135325753D01*
X165680157Y-135328792D01*
G36*
X124065405Y-134345354D02*
G01*
X124193642Y-134353891D01*
X124308623Y-134367657D01*
X124332541Y-134371582D01*
X124579290Y-134426641D01*
X124813542Y-134503786D01*
X125035685Y-134603214D01*
X125246108Y-134725123D01*
X125445201Y-134869709D01*
X125621830Y-135025959D01*
X125798944Y-135213723D01*
X125953469Y-135412650D01*
X126085750Y-135623389D01*
X126196131Y-135846590D01*
X126284956Y-136082901D01*
X126352568Y-136332973D01*
X126375981Y-136449150D01*
X126389039Y-136542801D01*
X126398347Y-136654849D01*
X126403862Y-136778562D01*
X126405543Y-136907208D01*
X126403345Y-137034056D01*
X126397228Y-137152374D01*
X126387147Y-137255432D01*
X126381343Y-137294817D01*
X126326320Y-137550210D01*
X126249120Y-137794749D01*
X126150423Y-138027371D01*
X126030911Y-138247013D01*
X125891263Y-138452609D01*
X125732158Y-138643096D01*
X125554278Y-138817410D01*
X125358303Y-138974488D01*
X125267500Y-139037219D01*
X125055647Y-139161901D01*
X124833109Y-139264065D01*
X124601802Y-139343245D01*
X124363644Y-139398976D01*
X124120552Y-139430793D01*
X123874442Y-139438230D01*
X123667986Y-139425423D01*
X123608946Y-139417616D01*
X123536188Y-139405595D01*
X123460649Y-139391257D01*
X123415469Y-139381644D01*
X123175979Y-139315274D01*
X122947431Y-139226659D01*
X122730903Y-139116956D01*
X122527470Y-138987326D01*
X122338209Y-138838927D01*
X122164195Y-138672919D01*
X122006506Y-138490460D01*
X121866217Y-138292710D01*
X121744404Y-138080829D01*
X121642144Y-137855974D01*
X121560513Y-137619306D01*
X121500587Y-137371983D01*
X121488748Y-137306400D01*
X121475633Y-137205670D01*
X121466448Y-137087723D01*
X121461334Y-136960455D01*
X121460433Y-136831766D01*
X121463886Y-136709553D01*
X121471833Y-136601715D01*
X121475575Y-136569800D01*
X121521568Y-136310047D01*
X121589688Y-136062753D01*
X121679972Y-135827840D01*
X121792458Y-135605230D01*
X121927182Y-135394845D01*
X122084182Y-135196607D01*
X122174698Y-135098236D01*
X122359832Y-134923375D01*
X122554981Y-134771675D01*
X122761013Y-134642683D01*
X122978794Y-134535944D01*
X123209191Y-134451001D01*
X123453072Y-134387400D01*
X123572050Y-134364843D01*
X123677234Y-134351790D01*
X123799593Y-134344236D01*
X123931520Y-134342113D01*
X124065405Y-134345354D01*
X124065405Y-134345354D01*
G37*
X124065405Y-134345354D02*
X124193642Y-134353891D01*
X124308623Y-134367657D01*
X124332541Y-134371582D01*
X124579290Y-134426641D01*
X124813542Y-134503786D01*
X125035685Y-134603214D01*
X125246108Y-134725123D01*
X125445201Y-134869709D01*
X125621830Y-135025959D01*
X125798944Y-135213723D01*
X125953469Y-135412650D01*
X126085750Y-135623389D01*
X126196131Y-135846590D01*
X126284956Y-136082901D01*
X126352568Y-136332973D01*
X126375981Y-136449150D01*
X126389039Y-136542801D01*
X126398347Y-136654849D01*
X126403862Y-136778562D01*
X126405543Y-136907208D01*
X126403345Y-137034056D01*
X126397228Y-137152374D01*
X126387147Y-137255432D01*
X126381343Y-137294817D01*
X126326320Y-137550210D01*
X126249120Y-137794749D01*
X126150423Y-138027371D01*
X126030911Y-138247013D01*
X125891263Y-138452609D01*
X125732158Y-138643096D01*
X125554278Y-138817410D01*
X125358303Y-138974488D01*
X125267500Y-139037219D01*
X125055647Y-139161901D01*
X124833109Y-139264065D01*
X124601802Y-139343245D01*
X124363644Y-139398976D01*
X124120552Y-139430793D01*
X123874442Y-139438230D01*
X123667986Y-139425423D01*
X123608946Y-139417616D01*
X123536188Y-139405595D01*
X123460649Y-139391257D01*
X123415469Y-139381644D01*
X123175979Y-139315274D01*
X122947431Y-139226659D01*
X122730903Y-139116956D01*
X122527470Y-138987326D01*
X122338209Y-138838927D01*
X122164195Y-138672919D01*
X122006506Y-138490460D01*
X121866217Y-138292710D01*
X121744404Y-138080829D01*
X121642144Y-137855974D01*
X121560513Y-137619306D01*
X121500587Y-137371983D01*
X121488748Y-137306400D01*
X121475633Y-137205670D01*
X121466448Y-137087723D01*
X121461334Y-136960455D01*
X121460433Y-136831766D01*
X121463886Y-136709553D01*
X121471833Y-136601715D01*
X121475575Y-136569800D01*
X121521568Y-136310047D01*
X121589688Y-136062753D01*
X121679972Y-135827840D01*
X121792458Y-135605230D01*
X121927182Y-135394845D01*
X122084182Y-135196607D01*
X122174698Y-135098236D01*
X122359832Y-134923375D01*
X122554981Y-134771675D01*
X122761013Y-134642683D01*
X122978794Y-134535944D01*
X123209191Y-134451001D01*
X123453072Y-134387400D01*
X123572050Y-134364843D01*
X123677234Y-134351790D01*
X123799593Y-134344236D01*
X123931520Y-134342113D01*
X124065405Y-134345354D01*
G36*
X127008892Y-127216806D02*
G01*
X127167074Y-127448421D01*
X127325719Y-127660936D01*
X127489639Y-127860277D01*
X127663646Y-128052368D01*
X127802599Y-128194188D01*
X128007945Y-128397426D01*
X128016929Y-128498988D01*
X128038850Y-128626563D01*
X128080149Y-128745349D01*
X128138881Y-128852300D01*
X128213100Y-128944370D01*
X128300864Y-129018513D01*
X128375791Y-129061166D01*
X128465333Y-129089690D01*
X128561211Y-129097761D01*
X128657019Y-129086019D01*
X128746353Y-129055106D01*
X128807639Y-129017932D01*
X128848928Y-128986585D01*
X128957444Y-129045737D01*
X129007070Y-129073189D01*
X129037690Y-129092016D01*
X129052738Y-129105488D01*
X129055649Y-129116877D01*
X129049857Y-129129454D01*
X129048142Y-129132119D01*
X128993913Y-129218603D01*
X128951032Y-129296911D01*
X128918240Y-129371893D01*
X128894281Y-129448398D01*
X128877895Y-129531276D01*
X128867828Y-129625378D01*
X128862820Y-129735552D01*
X128861600Y-129851622D01*
X128861483Y-129937917D01*
X128860886Y-130002545D01*
X128859432Y-130049235D01*
X128856748Y-130081721D01*
X128852461Y-130103732D01*
X128846194Y-130119001D01*
X128837575Y-130131258D01*
X128833025Y-130136564D01*
X128812518Y-130153848D01*
X128775979Y-130179147D01*
X128728454Y-130209494D01*
X128674989Y-130241921D01*
X128620630Y-130273460D01*
X128570422Y-130301144D01*
X128529411Y-130322006D01*
X128502643Y-130333076D01*
X128497164Y-130334100D01*
X128490509Y-130328523D01*
X128485788Y-130309766D01*
X128482738Y-130274788D01*
X128481097Y-130220550D01*
X128480600Y-130144009D01*
X128480600Y-130142765D01*
X128479751Y-130072317D01*
X128477406Y-130010487D01*
X128473864Y-129962228D01*
X128469425Y-129932490D01*
X128467523Y-129926996D01*
X128439659Y-129897048D01*
X128398650Y-129875850D01*
X128356071Y-129868646D01*
X128342707Y-129870457D01*
X128308102Y-129885611D01*
X128280575Y-129905455D01*
X128270810Y-129915500D01*
X128263568Y-129927260D01*
X128258471Y-129944394D01*
X128255144Y-129970562D01*
X128253210Y-130009424D01*
X128252293Y-130064641D01*
X128252016Y-130139872D01*
X128252000Y-130183316D01*
X128252000Y-130434506D01*
X128204375Y-130447825D01*
X128164546Y-130457400D01*
X128107314Y-130469193D01*
X128040411Y-130481762D01*
X127971568Y-130493664D01*
X127908517Y-130503454D01*
X127899575Y-130504716D01*
X127845600Y-130512200D01*
X127845600Y-130327065D01*
X127844318Y-130236475D01*
X127839571Y-130168173D01*
X127830007Y-130119133D01*
X127814272Y-130086331D01*
X127791015Y-130066741D01*
X127758883Y-130057340D01*
X127723988Y-130055103D01*
X127679315Y-130060800D01*
X127647423Y-130081179D01*
X127644959Y-130083725D01*
X127634482Y-130096690D01*
X127626952Y-130112604D01*
X127621776Y-130135787D01*
X127618366Y-130170557D01*
X127616131Y-130221233D01*
X127614480Y-130292132D01*
X127614170Y-130308990D01*
X127612768Y-130385257D01*
X127610782Y-130439613D01*
X127606787Y-130475533D01*
X127599357Y-130496493D01*
X127587066Y-130505968D01*
X127568489Y-130507433D01*
X127542200Y-130504363D01*
X127534450Y-130503319D01*
X127492515Y-130496617D01*
X127435255Y-130485980D01*
X127372062Y-130473306D01*
X127312332Y-130460492D01*
X127265460Y-130449435D01*
X127258225Y-130447539D01*
X127210600Y-130434720D01*
X127210600Y-130208505D01*
X127209904Y-130112306D01*
X127207381Y-130038157D01*
X127202375Y-129982735D01*
X127194230Y-129942719D01*
X127182290Y-129914785D01*
X127165901Y-129895611D01*
X127146353Y-129882864D01*
X127101051Y-129866452D01*
X127062142Y-129870870D01*
X127021675Y-129897249D01*
X127017125Y-129901238D01*
X126975650Y-129938277D01*
X126971335Y-130136188D01*
X126969352Y-130203821D01*
X126966694Y-130261484D01*
X126963634Y-130304875D01*
X126960451Y-130329695D01*
X126958635Y-130333887D01*
X126942670Y-130327769D01*
X126909933Y-130311581D01*
X126865545Y-130288132D01*
X126814629Y-130260229D01*
X126762307Y-130230679D01*
X126713701Y-130202290D01*
X126673932Y-130177869D01*
X126673623Y-130177672D01*
X126601000Y-130131215D01*
X126600546Y-129956432D01*
X126599483Y-129878356D01*
X126596927Y-129796183D01*
X126593266Y-129719855D01*
X126589043Y-129661000D01*
X126571995Y-129548010D01*
X126541049Y-129439183D01*
X126494613Y-129331539D01*
X126453449Y-129260614D01*
X127540800Y-129260614D01*
X127549782Y-129294241D01*
X127573075Y-129336265D01*
X127605194Y-129379163D01*
X127640653Y-129415416D01*
X127667601Y-129434506D01*
X127708742Y-129452746D01*
X127740809Y-129455383D01*
X127774895Y-129442261D01*
X127791240Y-129432772D01*
X127833787Y-129398366D01*
X127871194Y-129353232D01*
X127898080Y-129305252D01*
X127909064Y-129262307D01*
X127909100Y-129260144D01*
X127904608Y-129235055D01*
X127892477Y-129192081D01*
X127874725Y-129136833D01*
X127853369Y-129074918D01*
X127830426Y-129011946D01*
X127807913Y-128953525D01*
X127787847Y-128905265D01*
X127772247Y-128872774D01*
X127766652Y-128864075D01*
X127741473Y-128850092D01*
X127710147Y-128850928D01*
X127685399Y-128865626D01*
X127682207Y-128870425D01*
X127668648Y-128899653D01*
X127650115Y-128944795D01*
X127628526Y-129000561D01*
X127605798Y-129061662D01*
X127583846Y-129122811D01*
X127564587Y-129178718D01*
X127549939Y-129224094D01*
X127541817Y-129253652D01*
X127540800Y-129260614D01*
X126453449Y-129260614D01*
X126431095Y-129222100D01*
X126348902Y-129107888D01*
X126246442Y-128985925D01*
X126202022Y-128937100D01*
X126109269Y-128834115D01*
X126034817Y-128743692D01*
X125977306Y-128662313D01*
X125935375Y-128586459D01*
X125914587Y-128531063D01*
X126423200Y-128531063D01*
X126433025Y-128651818D01*
X126461129Y-128761566D01*
X126505454Y-128858696D01*
X126563941Y-128941596D01*
X126634534Y-129008652D01*
X126715173Y-129058255D01*
X126803801Y-129088791D01*
X126898360Y-129098649D01*
X126996791Y-129086217D01*
X127089925Y-129053275D01*
X127184484Y-128996512D01*
X127264274Y-128923594D01*
X127329135Y-128837537D01*
X127378905Y-128741359D01*
X127413424Y-128638077D01*
X127432529Y-128530708D01*
X127436061Y-128422268D01*
X127423858Y-128315776D01*
X127395758Y-128214248D01*
X127351601Y-128120701D01*
X127291225Y-128038153D01*
X127214469Y-127969620D01*
X127149873Y-127931091D01*
X127103874Y-127909858D01*
X127065938Y-127897311D01*
X127025794Y-127891232D01*
X126973170Y-127889403D01*
X126956600Y-127889350D01*
X126899040Y-127890469D01*
X126856623Y-127895283D01*
X126819138Y-127905974D01*
X126776373Y-127924724D01*
X126764871Y-127930331D01*
X126673259Y-127988833D01*
X126591096Y-128067733D01*
X126521650Y-128162793D01*
X126468185Y-128269774D01*
X126442111Y-128349130D01*
X126432986Y-128397822D01*
X126426277Y-128459652D01*
X126423256Y-128522387D01*
X126423200Y-128531063D01*
X125914587Y-128531063D01*
X125907662Y-128512612D01*
X125892806Y-128437256D01*
X125889447Y-128356871D01*
X125896223Y-128267940D01*
X125909348Y-128180627D01*
X125953262Y-128001694D01*
X126020780Y-127829025D01*
X126110497Y-127664443D01*
X126221010Y-127509770D01*
X126350915Y-127366827D01*
X126498805Y-127237435D01*
X126663278Y-127123418D01*
X126771730Y-127061891D01*
X126872611Y-127009133D01*
X127008892Y-127216806D01*
X127008892Y-127216806D01*
G37*
X127008892Y-127216806D02*
X127167074Y-127448421D01*
X127325719Y-127660936D01*
X127489639Y-127860277D01*
X127663646Y-128052368D01*
X127802599Y-128194188D01*
X128007945Y-128397426D01*
X128016929Y-128498988D01*
X128038850Y-128626563D01*
X128080149Y-128745349D01*
X128138881Y-128852300D01*
X128213100Y-128944370D01*
X128300864Y-129018513D01*
X128375791Y-129061166D01*
X128465333Y-129089690D01*
X128561211Y-129097761D01*
X128657019Y-129086019D01*
X128746353Y-129055106D01*
X128807639Y-129017932D01*
X128848928Y-128986585D01*
X128957444Y-129045737D01*
X129007070Y-129073189D01*
X129037690Y-129092016D01*
X129052738Y-129105488D01*
X129055649Y-129116877D01*
X129049857Y-129129454D01*
X129048142Y-129132119D01*
X128993913Y-129218603D01*
X128951032Y-129296911D01*
X128918240Y-129371893D01*
X128894281Y-129448398D01*
X128877895Y-129531276D01*
X128867828Y-129625378D01*
X128862820Y-129735552D01*
X128861600Y-129851622D01*
X128861483Y-129937917D01*
X128860886Y-130002545D01*
X128859432Y-130049235D01*
X128856748Y-130081721D01*
X128852461Y-130103732D01*
X128846194Y-130119001D01*
X128837575Y-130131258D01*
X128833025Y-130136564D01*
X128812518Y-130153848D01*
X128775979Y-130179147D01*
X128728454Y-130209494D01*
X128674989Y-130241921D01*
X128620630Y-130273460D01*
X128570422Y-130301144D01*
X128529411Y-130322006D01*
X128502643Y-130333076D01*
X128497164Y-130334100D01*
X128490509Y-130328523D01*
X128485788Y-130309766D01*
X128482738Y-130274788D01*
X128481097Y-130220550D01*
X128480600Y-130144009D01*
X128480600Y-130142765D01*
X128479751Y-130072317D01*
X128477406Y-130010487D01*
X128473864Y-129962228D01*
X128469425Y-129932490D01*
X128467523Y-129926996D01*
X128439659Y-129897048D01*
X128398650Y-129875850D01*
X128356071Y-129868646D01*
X128342707Y-129870457D01*
X128308102Y-129885611D01*
X128280575Y-129905455D01*
X128270810Y-129915500D01*
X128263568Y-129927260D01*
X128258471Y-129944394D01*
X128255144Y-129970562D01*
X128253210Y-130009424D01*
X128252293Y-130064641D01*
X128252016Y-130139872D01*
X128252000Y-130183316D01*
X128252000Y-130434506D01*
X128204375Y-130447825D01*
X128164546Y-130457400D01*
X128107314Y-130469193D01*
X128040411Y-130481762D01*
X127971568Y-130493664D01*
X127908517Y-130503454D01*
X127899575Y-130504716D01*
X127845600Y-130512200D01*
X127845600Y-130327065D01*
X127844318Y-130236475D01*
X127839571Y-130168173D01*
X127830007Y-130119133D01*
X127814272Y-130086331D01*
X127791015Y-130066741D01*
X127758883Y-130057340D01*
X127723988Y-130055103D01*
X127679315Y-130060800D01*
X127647423Y-130081179D01*
X127644959Y-130083725D01*
X127634482Y-130096690D01*
X127626952Y-130112604D01*
X127621776Y-130135787D01*
X127618366Y-130170557D01*
X127616131Y-130221233D01*
X127614480Y-130292132D01*
X127614170Y-130308990D01*
X127612768Y-130385257D01*
X127610782Y-130439613D01*
X127606787Y-130475533D01*
X127599357Y-130496493D01*
X127587066Y-130505968D01*
X127568489Y-130507433D01*
X127542200Y-130504363D01*
X127534450Y-130503319D01*
X127492515Y-130496617D01*
X127435255Y-130485980D01*
X127372062Y-130473306D01*
X127312332Y-130460492D01*
X127265460Y-130449435D01*
X127258225Y-130447539D01*
X127210600Y-130434720D01*
X127210600Y-130208505D01*
X127209904Y-130112306D01*
X127207381Y-130038157D01*
X127202375Y-129982735D01*
X127194230Y-129942719D01*
X127182290Y-129914785D01*
X127165901Y-129895611D01*
X127146353Y-129882864D01*
X127101051Y-129866452D01*
X127062142Y-129870870D01*
X127021675Y-129897249D01*
X127017125Y-129901238D01*
X126975650Y-129938277D01*
X126971335Y-130136188D01*
X126969352Y-130203821D01*
X126966694Y-130261484D01*
X126963634Y-130304875D01*
X126960451Y-130329695D01*
X126958635Y-130333887D01*
X126942670Y-130327769D01*
X126909933Y-130311581D01*
X126865545Y-130288132D01*
X126814629Y-130260229D01*
X126762307Y-130230679D01*
X126713701Y-130202290D01*
X126673932Y-130177869D01*
X126673623Y-130177672D01*
X126601000Y-130131215D01*
X126600546Y-129956432D01*
X126599483Y-129878356D01*
X126596927Y-129796183D01*
X126593266Y-129719855D01*
X126589043Y-129661000D01*
X126571995Y-129548010D01*
X126541049Y-129439183D01*
X126494613Y-129331539D01*
X126453449Y-129260614D01*
X127540800Y-129260614D01*
X127549782Y-129294241D01*
X127573075Y-129336265D01*
X127605194Y-129379163D01*
X127640653Y-129415416D01*
X127667601Y-129434506D01*
X127708742Y-129452746D01*
X127740809Y-129455383D01*
X127774895Y-129442261D01*
X127791240Y-129432772D01*
X127833787Y-129398366D01*
X127871194Y-129353232D01*
X127898080Y-129305252D01*
X127909064Y-129262307D01*
X127909100Y-129260144D01*
X127904608Y-129235055D01*
X127892477Y-129192081D01*
X127874725Y-129136833D01*
X127853369Y-129074918D01*
X127830426Y-129011946D01*
X127807913Y-128953525D01*
X127787847Y-128905265D01*
X127772247Y-128872774D01*
X127766652Y-128864075D01*
X127741473Y-128850092D01*
X127710147Y-128850928D01*
X127685399Y-128865626D01*
X127682207Y-128870425D01*
X127668648Y-128899653D01*
X127650115Y-128944795D01*
X127628526Y-129000561D01*
X127605798Y-129061662D01*
X127583846Y-129122811D01*
X127564587Y-129178718D01*
X127549939Y-129224094D01*
X127541817Y-129253652D01*
X127540800Y-129260614D01*
X126453449Y-129260614D01*
X126431095Y-129222100D01*
X126348902Y-129107888D01*
X126246442Y-128985925D01*
X126202022Y-128937100D01*
X126109269Y-128834115D01*
X126034817Y-128743692D01*
X125977306Y-128662313D01*
X125935375Y-128586459D01*
X125914587Y-128531063D01*
X126423200Y-128531063D01*
X126433025Y-128651818D01*
X126461129Y-128761566D01*
X126505454Y-128858696D01*
X126563941Y-128941596D01*
X126634534Y-129008652D01*
X126715173Y-129058255D01*
X126803801Y-129088791D01*
X126898360Y-129098649D01*
X126996791Y-129086217D01*
X127089925Y-129053275D01*
X127184484Y-128996512D01*
X127264274Y-128923594D01*
X127329135Y-128837537D01*
X127378905Y-128741359D01*
X127413424Y-128638077D01*
X127432529Y-128530708D01*
X127436061Y-128422268D01*
X127423858Y-128315776D01*
X127395758Y-128214248D01*
X127351601Y-128120701D01*
X127291225Y-128038153D01*
X127214469Y-127969620D01*
X127149873Y-127931091D01*
X127103874Y-127909858D01*
X127065938Y-127897311D01*
X127025794Y-127891232D01*
X126973170Y-127889403D01*
X126956600Y-127889350D01*
X126899040Y-127890469D01*
X126856623Y-127895283D01*
X126819138Y-127905974D01*
X126776373Y-127924724D01*
X126764871Y-127930331D01*
X126673259Y-127988833D01*
X126591096Y-128067733D01*
X126521650Y-128162793D01*
X126468185Y-128269774D01*
X126442111Y-128349130D01*
X126432986Y-128397822D01*
X126426277Y-128459652D01*
X126423256Y-128522387D01*
X126423200Y-128531063D01*
X125914587Y-128531063D01*
X125907662Y-128512612D01*
X125892806Y-128437256D01*
X125889447Y-128356871D01*
X125896223Y-128267940D01*
X125909348Y-128180627D01*
X125953262Y-128001694D01*
X126020780Y-127829025D01*
X126110497Y-127664443D01*
X126221010Y-127509770D01*
X126350915Y-127366827D01*
X126498805Y-127237435D01*
X126663278Y-127123418D01*
X126771730Y-127061891D01*
X126872611Y-127009133D01*
X127008892Y-127216806D01*
G36*
X127852797Y-126834298D02*
G01*
X128064230Y-126857075D01*
X128268666Y-126900326D01*
X128464427Y-126963032D01*
X128649831Y-127044175D01*
X128823198Y-127142738D01*
X128982847Y-127257701D01*
X129127100Y-127388046D01*
X129254274Y-127532756D01*
X129362690Y-127690812D01*
X129450667Y-127861197D01*
X129488106Y-127955237D01*
X129520931Y-128062108D01*
X129544441Y-128171385D01*
X129558191Y-128277990D01*
X129561740Y-128376847D01*
X129554645Y-128462879D01*
X129537996Y-128527209D01*
X129500153Y-128602811D01*
X129443949Y-128686247D01*
X129372987Y-128772595D01*
X129310350Y-128838172D01*
X129223550Y-128923395D01*
X129109250Y-128862724D01*
X129057379Y-128833381D01*
X129019417Y-128808215D01*
X128999025Y-128789788D01*
X128996567Y-128783851D01*
X128999842Y-128763282D01*
X129007043Y-128725362D01*
X129016738Y-128677570D01*
X129018792Y-128667760D01*
X129032545Y-128592609D01*
X129037925Y-128530500D01*
X129034989Y-128470515D01*
X129023794Y-128401737D01*
X129020294Y-128384650D01*
X128984348Y-128265267D01*
X128930039Y-128156485D01*
X128859837Y-128061676D01*
X128776211Y-127984215D01*
X128687801Y-127930344D01*
X128640068Y-127909250D01*
X128600435Y-127896884D01*
X128558259Y-127891004D01*
X128502899Y-127889368D01*
X128493300Y-127889350D01*
X128434478Y-127890642D01*
X128391166Y-127895805D01*
X128353546Y-127906771D01*
X128313244Y-127924759D01*
X128277748Y-127946403D01*
X128235976Y-127978121D01*
X128192749Y-128015392D01*
X128152891Y-128053697D01*
X128121223Y-128088515D01*
X128102567Y-128115325D01*
X128099600Y-128125023D01*
X128094852Y-128136498D01*
X128079752Y-128133514D01*
X128053015Y-128115065D01*
X128013354Y-128080141D01*
X127959485Y-128027734D01*
X127905518Y-127972772D01*
X127736618Y-127791670D01*
X127581442Y-127610369D01*
X127434472Y-127421944D01*
X127290189Y-127219468D01*
X127211274Y-127101584D01*
X127095577Y-126925291D01*
X127149913Y-126908963D01*
X127239985Y-126885994D01*
X127346577Y-126865406D01*
X127460830Y-126848582D01*
X127573882Y-126836907D01*
X127636050Y-126833012D01*
X127852797Y-126834298D01*
X127852797Y-126834298D01*
G37*
X127852797Y-126834298D02*
X128064230Y-126857075D01*
X128268666Y-126900326D01*
X128464427Y-126963032D01*
X128649831Y-127044175D01*
X128823198Y-127142738D01*
X128982847Y-127257701D01*
X129127100Y-127388046D01*
X129254274Y-127532756D01*
X129362690Y-127690812D01*
X129450667Y-127861197D01*
X129488106Y-127955237D01*
X129520931Y-128062108D01*
X129544441Y-128171385D01*
X129558191Y-128277990D01*
X129561740Y-128376847D01*
X129554645Y-128462879D01*
X129537996Y-128527209D01*
X129500153Y-128602811D01*
X129443949Y-128686247D01*
X129372987Y-128772595D01*
X129310350Y-128838172D01*
X129223550Y-128923395D01*
X129109250Y-128862724D01*
X129057379Y-128833381D01*
X129019417Y-128808215D01*
X128999025Y-128789788D01*
X128996567Y-128783851D01*
X128999842Y-128763282D01*
X129007043Y-128725362D01*
X129016738Y-128677570D01*
X129018792Y-128667760D01*
X129032545Y-128592609D01*
X129037925Y-128530500D01*
X129034989Y-128470515D01*
X129023794Y-128401737D01*
X129020294Y-128384650D01*
X128984348Y-128265267D01*
X128930039Y-128156485D01*
X128859837Y-128061676D01*
X128776211Y-127984215D01*
X128687801Y-127930344D01*
X128640068Y-127909250D01*
X128600435Y-127896884D01*
X128558259Y-127891004D01*
X128502899Y-127889368D01*
X128493300Y-127889350D01*
X128434478Y-127890642D01*
X128391166Y-127895805D01*
X128353546Y-127906771D01*
X128313244Y-127924759D01*
X128277748Y-127946403D01*
X128235976Y-127978121D01*
X128192749Y-128015392D01*
X128152891Y-128053697D01*
X128121223Y-128088515D01*
X128102567Y-128115325D01*
X128099600Y-128125023D01*
X128094852Y-128136498D01*
X128079752Y-128133514D01*
X128053015Y-128115065D01*
X128013354Y-128080141D01*
X127959485Y-128027734D01*
X127905518Y-127972772D01*
X127736618Y-127791670D01*
X127581442Y-127610369D01*
X127434472Y-127421944D01*
X127290189Y-127219468D01*
X127211274Y-127101584D01*
X127095577Y-126925291D01*
X127149913Y-126908963D01*
X127239985Y-126885994D01*
X127346577Y-126865406D01*
X127460830Y-126848582D01*
X127573882Y-126836907D01*
X127636050Y-126833012D01*
X127852797Y-126834298D01*
G36*
X131897793Y-95259711D02*
G01*
X131930244Y-95262970D01*
X131961295Y-95268861D01*
X131995196Y-95278980D01*
X132036198Y-95294920D01*
X132088554Y-95318274D01*
X132156515Y-95350637D01*
X132210309Y-95376886D01*
X132309950Y-95424581D01*
X132392608Y-95460938D01*
X132463250Y-95487400D01*
X132526840Y-95505411D01*
X132588347Y-95516414D01*
X132652735Y-95521853D01*
X132713617Y-95523179D01*
X132798153Y-95520946D01*
X132882742Y-95513281D01*
X132973908Y-95499251D01*
X133078173Y-95477921D01*
X133155089Y-95459934D01*
X133256712Y-95436747D01*
X133339149Y-95421621D01*
X133407166Y-95414160D01*
X133465530Y-95413971D01*
X133519007Y-95420660D01*
X133549023Y-95427372D01*
X133629246Y-95452797D01*
X133699300Y-95484545D01*
X133755696Y-95520287D01*
X133794945Y-95557696D01*
X133813559Y-95594443D01*
X133814600Y-95604631D01*
X133825759Y-95647461D01*
X133859448Y-95679293D01*
X133915979Y-95700417D01*
X133919355Y-95701185D01*
X133949249Y-95705385D01*
X134000603Y-95709908D01*
X134069480Y-95714521D01*
X134151944Y-95718992D01*
X134244061Y-95723089D01*
X134341895Y-95726580D01*
X134358192Y-95727078D01*
X134460640Y-95730495D01*
X134561673Y-95734530D01*
X134656541Y-95738944D01*
X134740489Y-95743498D01*
X134808765Y-95747953D01*
X134856617Y-95752070D01*
X134858228Y-95752245D01*
X134957094Y-95766163D01*
X135056135Y-95785574D01*
X135148767Y-95808846D01*
X135228404Y-95834348D01*
X135282579Y-95857376D01*
X135378251Y-95919621D01*
X135456311Y-96000025D01*
X135516387Y-96098090D01*
X135558105Y-96213318D01*
X135562167Y-96229558D01*
X135575908Y-96311334D01*
X135582551Y-96405206D01*
X135582085Y-96501662D01*
X135574496Y-96591190D01*
X135562707Y-96653700D01*
X135527275Y-96758978D01*
X135473167Y-96876355D01*
X135402125Y-97002819D01*
X135315890Y-97135361D01*
X135216206Y-97270969D01*
X135176966Y-97320450D01*
X135143868Y-97360426D01*
X135110208Y-97398749D01*
X135074540Y-97436521D01*
X135035414Y-97474843D01*
X134991382Y-97514816D01*
X134940997Y-97557542D01*
X134882811Y-97604121D01*
X134815375Y-97655655D01*
X134737241Y-97713246D01*
X134646961Y-97777995D01*
X134543088Y-97851003D01*
X134424172Y-97933372D01*
X134288767Y-98026202D01*
X134135423Y-98130596D01*
X133962694Y-98247654D01*
X133918915Y-98277267D01*
X133768780Y-98379218D01*
X133638542Y-98468681D01*
X133526696Y-98546841D01*
X133431734Y-98614886D01*
X133352152Y-98674001D01*
X133286442Y-98725373D01*
X133233099Y-98770190D01*
X133190615Y-98809637D01*
X133157486Y-98844902D01*
X133132204Y-98877172D01*
X133113263Y-98907632D01*
X133109366Y-98915056D01*
X133071060Y-98974765D01*
X133025533Y-99012948D01*
X132967827Y-99033381D01*
X132950152Y-99036261D01*
X132913253Y-99042193D01*
X132894238Y-99051509D01*
X132885782Y-99070698D01*
X132881784Y-99096839D01*
X132880776Y-99123731D01*
X132881513Y-99171865D01*
X132883827Y-99237156D01*
X132887551Y-99315519D01*
X132892519Y-99402868D01*
X132897280Y-99476512D01*
X132919579Y-99803774D01*
X132814399Y-99925112D01*
X132756411Y-99992889D01*
X132693877Y-100067777D01*
X132625097Y-100151895D01*
X132548372Y-100247363D01*
X132462001Y-100356299D01*
X132364284Y-100480824D01*
X132253521Y-100623056D01*
X132223061Y-100662315D01*
X132122039Y-100791311D01*
X132034016Y-100900776D01*
X131957665Y-100992153D01*
X131891660Y-101066885D01*
X131834674Y-101126416D01*
X131785380Y-101172189D01*
X131742451Y-101205647D01*
X131704560Y-101228233D01*
X131701411Y-101229754D01*
X131639509Y-101270019D01*
X131573530Y-101333285D01*
X131504698Y-101417709D01*
X131434233Y-101521451D01*
X131363358Y-101642668D01*
X131293295Y-101779520D01*
X131225265Y-101930165D01*
X131205957Y-101976495D01*
X131170094Y-102049365D01*
X131131466Y-102101368D01*
X131091628Y-102131621D01*
X131052132Y-102139240D01*
X131014531Y-102123342D01*
X130990970Y-102098825D01*
X130968586Y-102064807D01*
X130953058Y-102033877D01*
X130951473Y-102029306D01*
X130935400Y-102001202D01*
X130910615Y-101975668D01*
X130885588Y-101959172D01*
X130864758Y-101958839D01*
X130842332Y-101968891D01*
X130816796Y-101988151D01*
X130783574Y-102021255D01*
X130749587Y-102061268D01*
X130747550Y-102063900D01*
X130695030Y-102123890D01*
X130646577Y-102161078D01*
X130599708Y-102177204D01*
X130584439Y-102178200D01*
X130564912Y-102180834D01*
X130551701Y-102191427D01*
X130543609Y-102214010D01*
X130539438Y-102252618D01*
X130537988Y-102311284D01*
X130537903Y-102334813D01*
X130535605Y-102440942D01*
X130529133Y-102531675D01*
X130518836Y-102604614D01*
X130505064Y-102657362D01*
X130488168Y-102687522D01*
X130486114Y-102689375D01*
X130450668Y-102708408D01*
X130411649Y-102707927D01*
X130365484Y-102687214D01*
X130322100Y-102656460D01*
X130269648Y-102611265D01*
X130207606Y-102551834D01*
X130141767Y-102484142D01*
X130077924Y-102414164D01*
X130021870Y-102347876D01*
X130016971Y-102341749D01*
X129943798Y-102231816D01*
X129892474Y-102112702D01*
X129862230Y-101982056D01*
X129852295Y-101838475D01*
X129850846Y-101786435D01*
X129845133Y-101757222D01*
X129832909Y-101748344D01*
X129811925Y-101757306D01*
X129792165Y-101771800D01*
X129769214Y-101788346D01*
X129749880Y-101797474D01*
X129733578Y-101797296D01*
X129719725Y-101785927D01*
X129707738Y-101761482D01*
X129697034Y-101722075D01*
X129687028Y-101665820D01*
X129677139Y-101590831D01*
X129666782Y-101495224D01*
X129655374Y-101377113D01*
X129649134Y-101309479D01*
X129635423Y-101168470D01*
X129621800Y-101048295D01*
X129607594Y-100944404D01*
X129592129Y-100852241D01*
X129574733Y-100767253D01*
X129559355Y-100702884D01*
X129541050Y-100594968D01*
X129535239Y-100465534D01*
X129541921Y-100315177D01*
X129559548Y-100155626D01*
X129570299Y-100075501D01*
X129581349Y-99989972D01*
X129591420Y-99909122D01*
X129599232Y-99843035D01*
X129599416Y-99841400D01*
X129605254Y-99779366D01*
X129609928Y-99709850D01*
X129613338Y-99637621D01*
X129615385Y-99567449D01*
X129615970Y-99504105D01*
X129614991Y-99452358D01*
X129612351Y-99416978D01*
X129608575Y-99403173D01*
X129593984Y-99400336D01*
X129563399Y-99406768D01*
X129515088Y-99423042D01*
X129447317Y-99449733D01*
X129373487Y-99480877D01*
X129302813Y-99510109D01*
X129251974Y-99527990D01*
X129218328Y-99534998D01*
X129199233Y-99531612D01*
X129192046Y-99518310D01*
X129191800Y-99513777D01*
X129200514Y-99490947D01*
X129227320Y-99458828D01*
X129273213Y-99416488D01*
X129339188Y-99362994D01*
X129410078Y-99309333D01*
X129508968Y-99230285D01*
X129547973Y-99193194D01*
X129763300Y-99193194D01*
X129771922Y-99205713D01*
X129794371Y-99202790D01*
X129825517Y-99185892D01*
X129846540Y-99169397D01*
X129876601Y-99147364D01*
X129910657Y-99133800D01*
X129958078Y-99125356D01*
X129975217Y-99123434D01*
X130056353Y-99111070D01*
X130112738Y-99093314D01*
X130144451Y-99070110D01*
X130151575Y-99041404D01*
X130139082Y-99013663D01*
X130122468Y-98969117D01*
X130121306Y-98906276D01*
X130135486Y-98826915D01*
X130154943Y-98761107D01*
X130180555Y-98681710D01*
X130196095Y-98624699D01*
X130201373Y-98589063D01*
X130196198Y-98573788D01*
X130180380Y-98577862D01*
X130153728Y-98600273D01*
X130129407Y-98625375D01*
X130099062Y-98661407D01*
X130061138Y-98711501D01*
X130017974Y-98772029D01*
X129971908Y-98839362D01*
X129925282Y-98909873D01*
X129880432Y-98979933D01*
X129839700Y-99045915D01*
X129805424Y-99104189D01*
X129779944Y-99151128D01*
X129765598Y-99183104D01*
X129763300Y-99193194D01*
X129547973Y-99193194D01*
X129597625Y-99145980D01*
X129680972Y-99051030D01*
X129763932Y-98940046D01*
X129810657Y-98871015D01*
X129860307Y-98796312D01*
X129916955Y-98712370D01*
X129973796Y-98629206D01*
X130024024Y-98556837D01*
X130026358Y-98553515D01*
X130097018Y-98449651D01*
X130150705Y-98362898D01*
X130187919Y-98291929D01*
X130209159Y-98235421D01*
X130214924Y-98192047D01*
X130205714Y-98160483D01*
X130182361Y-98139579D01*
X130162452Y-98134305D01*
X130122116Y-98127572D01*
X130066236Y-98120061D01*
X129999693Y-98112453D01*
X129957295Y-98108184D01*
X129834882Y-98094062D01*
X129721722Y-98075291D01*
X129614804Y-98050516D01*
X129511115Y-98018386D01*
X129407643Y-97977549D01*
X129301377Y-97926651D01*
X129189306Y-97864341D01*
X129068416Y-97789266D01*
X128935697Y-97700073D01*
X128788136Y-97595410D01*
X128744043Y-97563362D01*
X128649642Y-97492767D01*
X128571074Y-97429528D01*
X128502342Y-97368013D01*
X128437453Y-97302587D01*
X128370411Y-97227616D01*
X128309858Y-97155350D01*
X128193267Y-97007892D01*
X128090978Y-96867106D01*
X128004457Y-96735223D01*
X127935168Y-96614470D01*
X127886008Y-96510567D01*
X127862933Y-96430411D01*
X127851965Y-96337288D01*
X127853220Y-96240621D01*
X127858673Y-96204208D01*
X127988800Y-96204208D01*
X127993674Y-96291424D01*
X128011778Y-96389069D01*
X128042093Y-96492206D01*
X128083600Y-96595900D01*
X128101494Y-96633227D01*
X128189138Y-96784929D01*
X128297806Y-96935374D01*
X128424852Y-97082795D01*
X128567630Y-97225424D01*
X128723492Y-97361495D01*
X128889793Y-97489240D01*
X129063886Y-97606893D01*
X129243125Y-97712686D01*
X129424863Y-97804852D01*
X129606454Y-97881625D01*
X129785251Y-97941236D01*
X129958608Y-97981921D01*
X130123879Y-98001910D01*
X130153233Y-98003194D01*
X130252250Y-98006250D01*
X130248353Y-97968150D01*
X130237807Y-97910483D01*
X130220416Y-97864707D01*
X130198675Y-97837051D01*
X130194917Y-97834702D01*
X130168032Y-97826956D01*
X130128565Y-97822513D01*
X130112977Y-97822100D01*
X130062761Y-97817295D01*
X130014659Y-97804726D01*
X129977064Y-97787156D01*
X129960504Y-97771874D01*
X129956284Y-97748985D01*
X129959053Y-97726697D01*
X129973786Y-97703101D01*
X130005816Y-97686232D01*
X130057332Y-97675513D01*
X130130520Y-97670371D01*
X130176050Y-97669711D01*
X130244936Y-97668513D01*
X130333037Y-97665283D01*
X130434278Y-97660370D01*
X130542584Y-97654125D01*
X130651881Y-97646898D01*
X130756097Y-97639039D01*
X130848859Y-97630927D01*
X130922027Y-97622500D01*
X130973389Y-97612275D01*
X131006537Y-97598406D01*
X131025063Y-97579047D01*
X131032562Y-97552356D01*
X131033300Y-97536223D01*
X131029340Y-97510060D01*
X131014836Y-97483752D01*
X130985851Y-97451212D01*
X130965575Y-97431533D01*
X130922696Y-97395233D01*
X130873697Y-97360246D01*
X130824850Y-97330397D01*
X130782427Y-97309509D01*
X130752698Y-97301405D01*
X130752147Y-97301400D01*
X130731780Y-97309272D01*
X130712261Y-97323625D01*
X130695225Y-97334486D01*
X130669644Y-97341260D01*
X130630062Y-97344772D01*
X130571025Y-97345844D01*
X130565211Y-97345850D01*
X130507398Y-97346345D01*
X130467501Y-97348950D01*
X130438041Y-97355342D01*
X130411539Y-97367198D01*
X130380515Y-97386197D01*
X130377967Y-97387846D01*
X130342138Y-97408838D01*
X130306208Y-97423637D01*
X130262395Y-97434611D01*
X130202915Y-97444126D01*
X130185080Y-97446503D01*
X130092756Y-97462945D01*
X130020036Y-97486741D01*
X129961643Y-97520122D01*
X129917394Y-97559760D01*
X129897280Y-97587504D01*
X129892542Y-97617605D01*
X129895169Y-97640344D01*
X129905850Y-97709033D01*
X129911903Y-97757423D01*
X129913356Y-97790184D01*
X129910236Y-97811986D01*
X129902572Y-97827499D01*
X129896331Y-97835152D01*
X129861441Y-97857950D01*
X129823458Y-97858139D01*
X129789070Y-97836551D01*
X129776756Y-97820290D01*
X129750888Y-97755423D01*
X129742005Y-97678818D01*
X129749631Y-97597184D01*
X129773291Y-97517230D01*
X129802204Y-97460926D01*
X129844373Y-97410716D01*
X129900595Y-97373238D01*
X129973989Y-97347055D01*
X130067675Y-97330733D01*
X130090177Y-97328427D01*
X130150040Y-97321638D01*
X130190246Y-97313475D01*
X130216540Y-97302418D01*
X130230577Y-97291322D01*
X130247292Y-97277449D01*
X130268688Y-97267115D01*
X130299901Y-97258992D01*
X130346066Y-97251753D01*
X130412319Y-97244070D01*
X130414048Y-97243885D01*
X130466447Y-97234546D01*
X130507196Y-97216222D01*
X130539074Y-97192551D01*
X130575142Y-97165707D01*
X130607381Y-97152809D01*
X130649006Y-97149070D01*
X130659273Y-97149000D01*
X130744559Y-97159335D01*
X130836700Y-97188350D01*
X130929297Y-97233062D01*
X131015947Y-97290486D01*
X131076686Y-97343577D01*
X131108155Y-97372654D01*
X131132260Y-97390456D01*
X131144259Y-97393544D01*
X131144637Y-97392836D01*
X131175934Y-97336261D01*
X131228773Y-97283510D01*
X131299352Y-97236713D01*
X131383868Y-97197999D01*
X131478521Y-97169499D01*
X131570636Y-97154197D01*
X131658826Y-97150358D01*
X131731406Y-97159890D01*
X131795154Y-97184161D01*
X131833361Y-97207314D01*
X131872777Y-97233396D01*
X131907113Y-97252533D01*
X131943272Y-97267397D01*
X131988162Y-97280660D01*
X132048687Y-97294994D01*
X132074919Y-97300775D01*
X132168627Y-97325171D01*
X132237832Y-97352351D01*
X132283332Y-97382853D01*
X132305924Y-97417215D01*
X132306405Y-97455976D01*
X132306168Y-97456903D01*
X132288709Y-97485051D01*
X132259991Y-97495233D01*
X132226262Y-97487892D01*
X132193766Y-97463468D01*
X132181929Y-97448133D01*
X132171086Y-97433504D01*
X132158072Y-97424100D01*
X132137516Y-97418769D01*
X132104046Y-97416359D01*
X132052291Y-97415719D01*
X132030684Y-97415700D01*
X131932304Y-97411511D01*
X131856798Y-97399026D01*
X131804512Y-97378366D01*
X131775794Y-97349651D01*
X131769900Y-97324831D01*
X131762229Y-97306876D01*
X131735939Y-97301405D01*
X131734625Y-97301400D01*
X131696739Y-97293904D01*
X131670001Y-97280842D01*
X131628476Y-97266264D01*
X131571242Y-97267690D01*
X131501916Y-97284645D01*
X131434345Y-97311769D01*
X131363390Y-97347977D01*
X131312037Y-97381892D01*
X131275201Y-97417202D01*
X131259086Y-97438856D01*
X131240558Y-97485533D01*
X131238485Y-97537243D01*
X131252753Y-97583384D01*
X131260773Y-97595268D01*
X131270062Y-97605634D01*
X131281226Y-97613408D01*
X131297939Y-97619086D01*
X131323875Y-97623165D01*
X131362707Y-97626144D01*
X131418110Y-97628517D01*
X131493758Y-97630783D01*
X131530648Y-97631774D01*
X131622033Y-97634639D01*
X131691609Y-97637966D01*
X131742967Y-97642101D01*
X131779696Y-97647389D01*
X131805389Y-97654175D01*
X131817525Y-97659376D01*
X131844764Y-97672386D01*
X131856237Y-97672113D01*
X131858765Y-97656885D01*
X131858800Y-97649278D01*
X131866582Y-97620948D01*
X131890820Y-97609486D01*
X131932846Y-97614533D01*
X131958772Y-97622386D01*
X132003975Y-97632861D01*
X132069815Y-97641147D01*
X132151582Y-97646701D01*
X132178682Y-97647759D01*
X132252524Y-97651008D01*
X132305457Y-97655549D01*
X132341964Y-97662006D01*
X132366528Y-97671005D01*
X132373146Y-97674879D01*
X132396558Y-97695288D01*
X132398429Y-97715038D01*
X132378096Y-97738671D01*
X132361934Y-97751477D01*
X132340781Y-97764087D01*
X132313701Y-97772510D01*
X132274788Y-97777833D01*
X132218136Y-97781149D01*
X132197082Y-97781905D01*
X132101542Y-97781537D01*
X132024944Y-97773809D01*
X131997946Y-97768073D01*
X131928650Y-97749985D01*
X131928650Y-98114224D01*
X131967735Y-98067659D01*
X131998493Y-98037790D01*
X132020496Y-98031476D01*
X132033278Y-98048634D01*
X132036552Y-98080024D01*
X132024328Y-98137925D01*
X131988318Y-98188368D01*
X131929300Y-98230358D01*
X131912441Y-98238768D01*
X131875691Y-98254570D01*
X131842125Y-98264602D01*
X131804045Y-98270139D01*
X131753752Y-98272453D01*
X131706400Y-98272837D01*
X131642693Y-98272140D01*
X131596786Y-98269106D01*
X131561102Y-98262511D01*
X131528065Y-98251131D01*
X131503200Y-98240013D01*
X131425441Y-98193223D01*
X131369681Y-98135779D01*
X131334018Y-98065622D01*
X131329815Y-98052274D01*
X131320895Y-98017573D01*
X131316439Y-97985566D01*
X131316528Y-97949609D01*
X131318014Y-97934934D01*
X131404011Y-97934934D01*
X131410056Y-97939604D01*
X131432210Y-97926424D01*
X131451052Y-97912067D01*
X131485239Y-97888957D01*
X131515702Y-97874891D01*
X131526330Y-97872900D01*
X131555749Y-97884238D01*
X131582247Y-97913087D01*
X131600241Y-97951698D01*
X131604800Y-97981842D01*
X131594459Y-98023094D01*
X131562853Y-98052260D01*
X131509106Y-98070091D01*
X131500025Y-98071684D01*
X131469463Y-98079051D01*
X131453209Y-98087745D01*
X131452400Y-98089792D01*
X131463998Y-98106711D01*
X131495270Y-98118583D01*
X131540929Y-98125073D01*
X131595688Y-98125844D01*
X131654261Y-98120560D01*
X131711362Y-98108885D01*
X131718884Y-98106737D01*
X131785267Y-98078653D01*
X131831446Y-98040679D01*
X131855577Y-97994637D01*
X131858800Y-97968496D01*
X131846852Y-97902892D01*
X131812482Y-97846274D01*
X131757895Y-97801421D01*
X131707616Y-97778079D01*
X131630488Y-97760300D01*
X131563483Y-97765624D01*
X131505159Y-97794541D01*
X131454075Y-97847539D01*
X131439437Y-97869009D01*
X131413873Y-97911655D01*
X131404011Y-97934934D01*
X131318014Y-97934934D01*
X131321245Y-97903054D01*
X131330671Y-97839256D01*
X131332600Y-97827140D01*
X131340943Y-97775031D01*
X131279610Y-97759587D01*
X131224659Y-97737765D01*
X131176783Y-97699025D01*
X131170238Y-97692108D01*
X131141516Y-97664008D01*
X131125353Y-97655167D01*
X131122200Y-97660315D01*
X131112898Y-97681517D01*
X131090303Y-97705609D01*
X131088265Y-97707249D01*
X131072989Y-97720945D01*
X131062567Y-97737045D01*
X131055532Y-97760999D01*
X131050417Y-97798258D01*
X131045755Y-97854269D01*
X131044679Y-97869162D01*
X131032353Y-97970407D01*
X131010421Y-98051151D01*
X130977323Y-98114987D01*
X130931501Y-98165507D01*
X130908174Y-98183557D01*
X130879273Y-98202470D01*
X130853554Y-98213916D01*
X130823140Y-98219723D01*
X130780159Y-98221720D01*
X130743233Y-98221845D01*
X130684545Y-98220506D01*
X130642164Y-98215692D01*
X130607052Y-98205633D01*
X130570174Y-98188558D01*
X130568229Y-98187545D01*
X130499802Y-98142221D01*
X130451685Y-98086327D01*
X130419293Y-98014315D01*
X130415994Y-98003466D01*
X130405404Y-97961249D01*
X130401714Y-97924651D01*
X130404621Y-97882817D01*
X130408084Y-97860327D01*
X130512600Y-97860327D01*
X130522662Y-97865868D01*
X130543874Y-97860380D01*
X130587529Y-97856035D01*
X130632190Y-97870744D01*
X130667504Y-97900848D01*
X130670512Y-97905153D01*
X130687294Y-97947589D01*
X130688762Y-97993259D01*
X130675290Y-98032177D01*
X130665299Y-98044078D01*
X130649803Y-98068003D01*
X130657483Y-98088394D01*
X130686188Y-98103657D01*
X130733770Y-98112198D01*
X130758746Y-98113394D01*
X130790661Y-98110843D01*
X130817732Y-98098960D01*
X130848724Y-98073233D01*
X130862059Y-98060183D01*
X130910246Y-98000567D01*
X130933536Y-97943176D01*
X130931810Y-97888407D01*
X130921522Y-97862117D01*
X130909330Y-97841901D01*
X130893800Y-97826723D01*
X130869637Y-97813753D01*
X130831546Y-97800159D01*
X130774231Y-97783110D01*
X130773188Y-97782811D01*
X130717256Y-97768237D01*
X130667797Y-97758016D01*
X130631509Y-97753395D01*
X130618167Y-97753982D01*
X130594308Y-97766886D01*
X130564828Y-97791457D01*
X130536811Y-97820559D01*
X130517345Y-97847053D01*
X130512600Y-97860327D01*
X130408084Y-97860327D01*
X130411378Y-97838937D01*
X130418291Y-97793100D01*
X130421872Y-97757834D01*
X130421478Y-97739808D01*
X130421011Y-97738977D01*
X130403417Y-97735835D01*
X130382862Y-97751402D01*
X130365016Y-97780500D01*
X130359901Y-97794788D01*
X130354968Y-97824064D01*
X130350384Y-97873802D01*
X130346281Y-97939066D01*
X130342792Y-98014919D01*
X130340049Y-98096424D01*
X130338182Y-98178644D01*
X130337325Y-98256642D01*
X130337609Y-98325483D01*
X130339166Y-98380229D01*
X130342127Y-98415943D01*
X130343154Y-98421549D01*
X130353850Y-98468548D01*
X130459612Y-98406888D01*
X130545973Y-98361955D01*
X130641015Y-98321652D01*
X130738000Y-98288202D01*
X130830192Y-98263825D01*
X130910852Y-98250741D01*
X130938050Y-98249173D01*
X130984791Y-98248954D01*
X131011910Y-98251509D01*
X131025156Y-98258454D01*
X131030281Y-98271406D01*
X131030895Y-98275265D01*
X131029415Y-98295349D01*
X131015744Y-98310835D01*
X130985926Y-98324017D01*
X130936005Y-98337191D01*
X130916873Y-98341409D01*
X130852631Y-98361163D01*
X130774725Y-98394463D01*
X130688621Y-98438144D01*
X130599787Y-98489040D01*
X130513687Y-98543987D01*
X130435787Y-98599821D01*
X130371554Y-98653376D01*
X130361295Y-98663082D01*
X130311798Y-98716798D01*
X130271688Y-98771443D01*
X130244379Y-98821635D01*
X130233286Y-98861991D01*
X130233200Y-98865064D01*
X130245149Y-98904307D01*
X130279636Y-98936242D01*
X130334621Y-98959968D01*
X130408062Y-98974584D01*
X130491669Y-98979211D01*
X130559451Y-98976557D01*
X130610935Y-98966662D01*
X130654848Y-98946626D01*
X130699920Y-98913549D01*
X130706805Y-98907724D01*
X130740193Y-98882612D01*
X130769279Y-98866589D01*
X130781220Y-98863500D01*
X130800276Y-98856620D01*
X130834965Y-98837926D01*
X130880228Y-98810333D01*
X130927311Y-98779287D01*
X130981796Y-98743107D01*
X131034161Y-98710118D01*
X131077789Y-98684391D01*
X131102302Y-98671616D01*
X131167754Y-98652956D01*
X131243066Y-98648540D01*
X131317115Y-98658296D01*
X131361711Y-98673278D01*
X131421306Y-98693906D01*
X131471174Y-98695116D01*
X131518156Y-98676748D01*
X131529896Y-98669319D01*
X131563189Y-98642160D01*
X131572132Y-98621402D01*
X131556506Y-98606351D01*
X131516088Y-98596314D01*
X131506237Y-98594995D01*
X131440715Y-98581119D01*
X131398285Y-98558024D01*
X131378176Y-98525192D01*
X131376200Y-98507933D01*
X131382399Y-98477349D01*
X131405379Y-98455762D01*
X131415667Y-98450042D01*
X131461172Y-98436571D01*
X131507538Y-98444922D01*
X131556270Y-98473486D01*
X131598118Y-98492962D01*
X131651945Y-98502711D01*
X131708955Y-98502753D01*
X131760354Y-98493107D01*
X131797347Y-98473790D01*
X131798235Y-98472975D01*
X131838102Y-98448237D01*
X131878446Y-98448816D01*
X131903599Y-98461555D01*
X131958427Y-98485366D01*
X132016748Y-98487299D01*
X132031443Y-98483978D01*
X132078364Y-98479031D01*
X132111082Y-98495101D01*
X132129459Y-98532114D01*
X132130720Y-98538098D01*
X132145906Y-98577369D01*
X132170422Y-98607602D01*
X132196177Y-98633776D01*
X132197676Y-98654194D01*
X132174802Y-98671006D01*
X132166775Y-98674324D01*
X132117274Y-98682164D01*
X132061119Y-98674606D01*
X132010208Y-98653595D01*
X132000591Y-98647137D01*
X131965939Y-98631467D01*
X131915170Y-98619977D01*
X131856971Y-98613385D01*
X131800027Y-98612406D01*
X131753024Y-98617759D01*
X131731940Y-98624960D01*
X131708224Y-98645651D01*
X131681777Y-98680316D01*
X131667143Y-98705054D01*
X131619562Y-98771348D01*
X131556672Y-98817455D01*
X131500657Y-98838784D01*
X131475450Y-98844856D01*
X131453266Y-98846993D01*
X131428081Y-98844284D01*
X131393873Y-98835818D01*
X131344619Y-98820682D01*
X131312304Y-98810276D01*
X131248554Y-98793813D01*
X131195030Y-98791644D01*
X131143498Y-98805071D01*
X131085723Y-98835399D01*
X131063394Y-98849659D01*
X131032064Y-98871712D01*
X130996881Y-98898665D01*
X130961223Y-98927562D01*
X130928462Y-98955451D01*
X130901975Y-98979378D01*
X130885136Y-98996390D01*
X130881320Y-99003532D01*
X130893902Y-98997852D01*
X130894419Y-98997542D01*
X130922180Y-98985054D01*
X130966098Y-98969768D01*
X131017586Y-98954621D01*
X131027769Y-98951936D01*
X131057629Y-98944993D01*
X131091142Y-98938987D01*
X131131103Y-98933709D01*
X131180306Y-98928949D01*
X131241546Y-98924498D01*
X131317617Y-98920148D01*
X131411314Y-98915688D01*
X131525431Y-98910910D01*
X131630200Y-98906836D01*
X131744125Y-98902779D01*
X131853045Y-98899422D01*
X131953660Y-98896826D01*
X132042674Y-98895056D01*
X132116788Y-98894175D01*
X132172704Y-98894248D01*
X132207125Y-98895337D01*
X132210729Y-98895640D01*
X132277818Y-98908339D01*
X132324224Y-98930464D01*
X132348576Y-98961113D01*
X132351626Y-98988479D01*
X132348059Y-99006311D01*
X132338620Y-99016264D01*
X132317283Y-99020671D01*
X132278025Y-99021864D01*
X132265200Y-99021931D01*
X132232252Y-99023115D01*
X132200163Y-99027306D01*
X132164289Y-99035865D01*
X132119989Y-99050154D01*
X132062619Y-99071536D01*
X131987537Y-99101371D01*
X131969509Y-99108666D01*
X131868495Y-99148639D01*
X131783389Y-99179312D01*
X131707878Y-99201917D01*
X131635651Y-99217686D01*
X131560397Y-99227852D01*
X131475805Y-99233645D01*
X131375563Y-99236297D01*
X131312700Y-99236857D01*
X131183659Y-99235890D01*
X131077852Y-99231211D01*
X130993321Y-99222368D01*
X130928110Y-99208908D01*
X130880262Y-99190377D01*
X130847820Y-99166323D01*
X130828827Y-99136293D01*
X130824907Y-99123941D01*
X130825221Y-99100418D01*
X130969800Y-99100418D01*
X130980353Y-99112546D01*
X131005687Y-99117350D01*
X131036313Y-99114999D01*
X131062742Y-99105662D01*
X131071265Y-99098611D01*
X131081340Y-99071736D01*
X131070345Y-99049774D01*
X131044223Y-99041300D01*
X131012787Y-99049910D01*
X130984896Y-99070591D01*
X130970275Y-99095618D01*
X130969800Y-99100418D01*
X130825221Y-99100418D01*
X130825421Y-99085496D01*
X130836545Y-99053814D01*
X130845049Y-99037367D01*
X131360540Y-99037367D01*
X131370066Y-99067908D01*
X131384882Y-99113185D01*
X131397421Y-99139308D01*
X131412751Y-99151437D01*
X131435943Y-99154732D01*
X131455260Y-99154623D01*
X131504393Y-99150097D01*
X131553516Y-99140288D01*
X131559332Y-99138627D01*
X131591842Y-99125778D01*
X131611903Y-99112145D01*
X131614117Y-99108598D01*
X131607791Y-99091385D01*
X131580703Y-99074454D01*
X131537447Y-99059589D01*
X131482615Y-99048572D01*
X131449967Y-99044865D01*
X131360540Y-99037367D01*
X130845049Y-99037367D01*
X130856230Y-99015747D01*
X130788430Y-99059119D01*
X130766960Y-99071860D01*
X130742914Y-99083556D01*
X130713314Y-99095054D01*
X130675180Y-99107200D01*
X130625533Y-99120841D01*
X130561394Y-99136823D01*
X130479785Y-99155993D01*
X130377725Y-99179197D01*
X130321213Y-99191879D01*
X130219643Y-99214286D01*
X130122096Y-99235200D01*
X130032381Y-99253848D01*
X129954309Y-99269460D01*
X129891690Y-99281265D01*
X129848333Y-99288492D01*
X129836307Y-99290026D01*
X129790798Y-99296851D01*
X129754874Y-99306189D01*
X129736847Y-99315618D01*
X129727051Y-99339738D01*
X129719431Y-99380956D01*
X129714725Y-99431007D01*
X129713672Y-99481631D01*
X129717010Y-99524565D01*
X129717775Y-99528990D01*
X129728567Y-99562304D01*
X129745816Y-99574454D01*
X129749620Y-99574700D01*
X129778262Y-99585530D01*
X129795017Y-99616481D01*
X129799912Y-99665243D01*
X129792976Y-99729503D01*
X129774238Y-99806951D01*
X129745768Y-99890022D01*
X129686812Y-100077448D01*
X129651419Y-100273658D01*
X129640714Y-100412900D01*
X129638716Y-100483678D01*
X129639112Y-100533912D01*
X129642243Y-100568375D01*
X129648448Y-100591840D01*
X129654256Y-100603400D01*
X129678046Y-100644511D01*
X129695080Y-100681712D01*
X129706703Y-100720939D01*
X129714256Y-100768129D01*
X129719082Y-100829219D01*
X129722323Y-100904339D01*
X129728655Y-101084628D01*
X129756008Y-101044039D01*
X129783430Y-101010762D01*
X129804606Y-101001675D01*
X129819571Y-101016871D01*
X129828359Y-101056440D01*
X129831006Y-101120473D01*
X129827546Y-101209063D01*
X129826166Y-101229158D01*
X129821589Y-101297985D01*
X129817830Y-101365610D01*
X129815319Y-101423560D01*
X129814488Y-101458790D01*
X129814100Y-101533131D01*
X129859809Y-101492997D01*
X129894821Y-101467961D01*
X129924670Y-101456752D01*
X129931537Y-101456756D01*
X129954781Y-101464140D01*
X129969242Y-101480515D01*
X129975709Y-101509738D01*
X129974967Y-101555665D01*
X129967805Y-101622155D01*
X129966823Y-101629652D01*
X129956147Y-101754828D01*
X129960088Y-101868049D01*
X129980049Y-101972940D01*
X130017430Y-102073127D01*
X130073632Y-102172238D01*
X130150057Y-102273898D01*
X130248104Y-102381734D01*
X130263383Y-102397275D01*
X130319219Y-102452673D01*
X130359982Y-102490686D01*
X130387599Y-102512798D01*
X130403999Y-102520495D01*
X130411110Y-102515262D01*
X130411706Y-102511575D01*
X130412516Y-102496290D01*
X130414305Y-102460056D01*
X130416861Y-102407294D01*
X130419967Y-102342427D01*
X130422394Y-102291347D01*
X130429685Y-102181433D01*
X130440322Y-102095898D01*
X130454841Y-102033874D01*
X130473781Y-101994496D01*
X130497680Y-101976897D01*
X130527076Y-101980212D01*
X130562505Y-102003574D01*
X130586706Y-102026670D01*
X130637759Y-102079800D01*
X130652207Y-102026142D01*
X130659436Y-101990219D01*
X130667082Y-101937410D01*
X130674009Y-101876183D01*
X130677300Y-101839503D01*
X130682325Y-101783973D01*
X130687541Y-101738398D01*
X130692240Y-101708387D01*
X130694974Y-101699492D01*
X130712446Y-101694662D01*
X130729271Y-101711254D01*
X130742569Y-101745391D01*
X130747290Y-101769914D01*
X130755483Y-101811466D01*
X130766363Y-101844843D01*
X130771796Y-101854920D01*
X130783214Y-101866510D01*
X130796568Y-101865205D01*
X130818646Y-101849051D01*
X130831858Y-101837628D01*
X130855705Y-101812786D01*
X130889749Y-101772210D01*
X130929807Y-101721109D01*
X130971700Y-101664690D01*
X130980307Y-101652698D01*
X131037311Y-101575161D01*
X131083311Y-101518157D01*
X131119795Y-101480103D01*
X131148251Y-101459415D01*
X131166807Y-101454300D01*
X131191962Y-101466025D01*
X131208961Y-101499104D01*
X131216346Y-101550389D01*
X131216542Y-101561731D01*
X131208881Y-101626251D01*
X131184117Y-101674093D01*
X131139577Y-101709481D01*
X131115771Y-101721033D01*
X131068475Y-101751865D01*
X131042674Y-101795096D01*
X131038051Y-101851598D01*
X131049151Y-101906139D01*
X131067714Y-101968650D01*
X131108448Y-101879750D01*
X131181528Y-101724748D01*
X131248010Y-101593243D01*
X131308380Y-101484341D01*
X131363125Y-101397145D01*
X131395142Y-101352700D01*
X131463198Y-101262821D01*
X131515572Y-101190414D01*
X131553352Y-101133871D01*
X131577624Y-101091585D01*
X131587751Y-101067857D01*
X131608378Y-101028304D01*
X131637983Y-101012067D01*
X131678992Y-101017921D01*
X131683466Y-101019543D01*
X131706257Y-101026838D01*
X131724201Y-101026032D01*
X131744068Y-101014188D01*
X131772625Y-100988375D01*
X131786617Y-100974824D01*
X131830266Y-100929740D01*
X131884137Y-100869972D01*
X131945685Y-100798719D01*
X132012363Y-100719179D01*
X132081625Y-100634551D01*
X132150924Y-100548033D01*
X132217716Y-100462823D01*
X132279453Y-100382119D01*
X132333589Y-100309119D01*
X132377579Y-100247022D01*
X132408876Y-100199026D01*
X132420127Y-100179070D01*
X132474473Y-100086957D01*
X132531605Y-100019532D01*
X132569183Y-99989497D01*
X132600484Y-99966881D01*
X132615195Y-99947330D01*
X132618680Y-99921132D01*
X132617820Y-99901415D01*
X132616932Y-99867583D01*
X132623252Y-99851423D01*
X132641735Y-99845305D01*
X132655242Y-99843806D01*
X132696347Y-99828164D01*
X132736511Y-99792107D01*
X132771018Y-99740338D01*
X132781474Y-99717982D01*
X132790500Y-99680533D01*
X132796094Y-99622414D01*
X132798231Y-99548127D01*
X132796885Y-99462173D01*
X132792031Y-99369054D01*
X132783959Y-99276250D01*
X132777706Y-99219609D01*
X132771996Y-99173056D01*
X132767521Y-99141924D01*
X132765208Y-99131575D01*
X132755435Y-99136661D01*
X132737370Y-99155796D01*
X132736404Y-99156975D01*
X132711673Y-99187350D01*
X132697986Y-99151598D01*
X132686513Y-99099112D01*
X132683440Y-99027904D01*
X132688188Y-98943013D01*
X132700177Y-98849476D01*
X132704580Y-98826541D01*
X132808179Y-98826541D01*
X132810868Y-98856540D01*
X132822739Y-98876267D01*
X132843451Y-98888257D01*
X132850576Y-98890514D01*
X132881131Y-98898336D01*
X132900706Y-98899015D01*
X132922741Y-98892381D01*
X132930317Y-98889520D01*
X132952423Y-98873271D01*
X132982647Y-98840635D01*
X133016111Y-98797047D01*
X133025541Y-98783408D01*
X133083749Y-98706747D01*
X133154734Y-98631588D01*
X133241939Y-98554679D01*
X133348808Y-98472767D01*
X133372641Y-98455643D01*
X133423072Y-98418585D01*
X133467141Y-98384065D01*
X133499838Y-98356143D01*
X133515516Y-98339851D01*
X133529702Y-98302200D01*
X133534633Y-98247422D01*
X133530458Y-98181986D01*
X133517326Y-98112361D01*
X133509657Y-98084978D01*
X133480126Y-98015368D01*
X133441197Y-97963586D01*
X133395419Y-97932270D01*
X133353783Y-97923710D01*
X133305565Y-97932477D01*
X133246720Y-97956075D01*
X133183634Y-97990476D01*
X133122698Y-98031654D01*
X133070299Y-98075582D01*
X133032826Y-98118233D01*
X133025044Y-98130927D01*
X133016560Y-98154263D01*
X133005362Y-98195135D01*
X132993423Y-98246116D01*
X132989253Y-98265852D01*
X132975805Y-98319470D01*
X132954967Y-98388287D01*
X132929377Y-98464162D01*
X132901675Y-98538960D01*
X132896091Y-98553129D01*
X132858629Y-98649564D01*
X132831718Y-98725588D01*
X132815015Y-98783735D01*
X132808179Y-98826541D01*
X132704580Y-98826541D01*
X132718830Y-98752333D01*
X132743566Y-98656620D01*
X132761211Y-98601616D01*
X132796054Y-98498597D01*
X132822260Y-98413796D01*
X132841220Y-98342094D01*
X132854324Y-98278374D01*
X132860878Y-98234850D01*
X132867811Y-98187161D01*
X132875005Y-98147576D01*
X132880903Y-98124659D01*
X132880906Y-98124651D01*
X132882907Y-98109623D01*
X132867054Y-98109302D01*
X132862128Y-98110512D01*
X132833820Y-98130681D01*
X132816757Y-98172913D01*
X132811300Y-98233371D01*
X132806760Y-98287510D01*
X132794715Y-98341953D01*
X132777529Y-98389469D01*
X132757564Y-98422830D01*
X132746189Y-98432561D01*
X132713230Y-98440631D01*
X132689206Y-98438822D01*
X132654505Y-98437249D01*
X132624385Y-98453619D01*
X132594915Y-98490731D01*
X132579954Y-98516531D01*
X132550281Y-98588715D01*
X132529445Y-98675455D01*
X132519660Y-98766784D01*
X132519200Y-98790040D01*
X132514432Y-98845327D01*
X132501623Y-98892365D01*
X132483012Y-98925625D01*
X132460839Y-98939579D01*
X132458561Y-98939700D01*
X132431568Y-98928825D01*
X132401317Y-98900754D01*
X132372798Y-98862313D01*
X132350997Y-98820331D01*
X132340902Y-98781635D01*
X132340733Y-98778405D01*
X132338327Y-98764876D01*
X132329575Y-98771219D01*
X132320134Y-98784125D01*
X132292264Y-98808314D01*
X132261671Y-98809857D01*
X132242339Y-98797460D01*
X132234050Y-98776702D01*
X132228820Y-98740005D01*
X132227068Y-98696691D01*
X132229213Y-98656084D01*
X132234808Y-98629588D01*
X132251845Y-98612048D01*
X132262565Y-98609500D01*
X132290895Y-98620020D01*
X132318806Y-98645495D01*
X132337807Y-98676796D01*
X132341400Y-98694263D01*
X132345880Y-98717052D01*
X132353653Y-98723800D01*
X132370787Y-98712860D01*
X132384880Y-98679381D01*
X132396229Y-98622378D01*
X132403542Y-98559098D01*
X132412047Y-98489528D01*
X132424041Y-98440741D01*
X132441801Y-98408149D01*
X132467602Y-98387164D01*
X132494363Y-98376034D01*
X132526323Y-98360817D01*
X132540259Y-98338176D01*
X132542295Y-98326647D01*
X132557368Y-98287914D01*
X132588987Y-98266040D01*
X132632721Y-98263566D01*
X132646799Y-98266771D01*
X132679818Y-98275787D01*
X132701280Y-98277692D01*
X132713289Y-98268758D01*
X132717946Y-98245256D01*
X132717354Y-98203455D01*
X132714087Y-98147402D01*
X132710789Y-98087839D01*
X132710691Y-98082450D01*
X132887500Y-98082450D01*
X132893850Y-98088800D01*
X132900200Y-98082450D01*
X132893850Y-98076100D01*
X132887500Y-98082450D01*
X132710691Y-98082450D01*
X132710065Y-98048213D01*
X132712583Y-98023129D01*
X132719007Y-98007196D01*
X132730005Y-97995021D01*
X132733258Y-97992179D01*
X132756043Y-97957582D01*
X132759845Y-97914869D01*
X132751907Y-97892498D01*
X132886523Y-97892498D01*
X132887374Y-97925277D01*
X132891920Y-97969483D01*
X132892507Y-97973813D01*
X132904942Y-98063785D01*
X132947021Y-98023001D01*
X132980176Y-97980477D01*
X132989100Y-97945960D01*
X132984275Y-97919114D01*
X132965297Y-97901050D01*
X132944090Y-97890897D01*
X132912819Y-97880166D01*
X132891943Y-97877227D01*
X132889576Y-97877966D01*
X132886523Y-97892498D01*
X132751907Y-97892498D01*
X132744843Y-97872594D01*
X132730337Y-97854283D01*
X132702904Y-97835418D01*
X132660088Y-97815053D01*
X132611623Y-97797749D01*
X132529882Y-97768325D01*
X132471883Y-97735432D01*
X132436084Y-97698038D01*
X132424498Y-97672602D01*
X132410138Y-97642225D01*
X132388480Y-97631781D01*
X132383943Y-97631600D01*
X132352244Y-97620005D01*
X132328748Y-97588713D01*
X132316822Y-97542962D01*
X132316000Y-97525904D01*
X132320728Y-97488207D01*
X132338477Y-97456248D01*
X132359180Y-97433480D01*
X132396093Y-97402129D01*
X132425718Y-97392076D01*
X132453219Y-97402480D01*
X132468400Y-97415700D01*
X132487729Y-97448355D01*
X132493799Y-97497339D01*
X132493800Y-97497851D01*
X132495730Y-97533413D01*
X132502514Y-97548012D01*
X132511485Y-97547816D01*
X132529485Y-97552295D01*
X132559490Y-97570900D01*
X132594599Y-97599139D01*
X132680383Y-97662382D01*
X132787363Y-97719529D01*
X132911670Y-97768594D01*
X132947338Y-97780087D01*
X132994197Y-97793714D01*
X133035791Y-97803309D01*
X133078561Y-97809626D01*
X133128948Y-97813422D01*
X133193390Y-97815451D01*
X133255800Y-97816278D01*
X133337986Y-97817004D01*
X133398732Y-97817869D01*
X133441992Y-97819542D01*
X133471718Y-97822686D01*
X133491866Y-97827969D01*
X133506389Y-97836056D01*
X133519241Y-97847614D01*
X133534255Y-97863186D01*
X133554546Y-97888517D01*
X133573908Y-97923674D01*
X133594380Y-97973174D01*
X133618002Y-98041531D01*
X133626006Y-98066386D01*
X133645365Y-98125924D01*
X133662318Y-98175628D01*
X133675288Y-98211057D01*
X133682701Y-98227767D01*
X133683496Y-98228500D01*
X133695699Y-98221809D01*
X133724602Y-98203581D01*
X133765912Y-98176582D01*
X133815339Y-98143576D01*
X133816527Y-98142775D01*
X133872072Y-98105804D01*
X133925505Y-98071089D01*
X133970230Y-98042868D01*
X133996600Y-98027080D01*
X134174174Y-97924730D01*
X134330908Y-97830177D01*
X134469414Y-97741467D01*
X134592307Y-97656644D01*
X134702198Y-97573756D01*
X134801701Y-97490848D01*
X134893429Y-97405965D01*
X134979996Y-97317153D01*
X135048758Y-97240263D01*
X135169999Y-97090836D01*
X135268454Y-96949388D01*
X135344888Y-96814385D01*
X135400066Y-96684293D01*
X135434753Y-96557577D01*
X135449526Y-96436824D01*
X135451008Y-96341253D01*
X135444145Y-96264931D01*
X135427388Y-96202634D01*
X135399187Y-96149140D01*
X135357996Y-96099223D01*
X135345831Y-96087026D01*
X135301214Y-96049164D01*
X135249439Y-96016526D01*
X135188578Y-95988786D01*
X135116702Y-95965616D01*
X135031883Y-95946690D01*
X134932192Y-95931681D01*
X134815702Y-95920262D01*
X134680484Y-95912106D01*
X134524610Y-95906886D01*
X134346150Y-95904276D01*
X134265450Y-95903883D01*
X133871750Y-95902900D01*
X133862387Y-96040175D01*
X133854622Y-96149121D01*
X133845837Y-96264024D01*
X133836369Y-96381131D01*
X133826555Y-96496690D01*
X133816732Y-96606950D01*
X133807237Y-96708158D01*
X133798408Y-96796564D01*
X133790580Y-96868415D01*
X133784092Y-96919960D01*
X133782247Y-96932219D01*
X133768336Y-97002021D01*
X133750536Y-97050213D01*
X133725146Y-97080587D01*
X133688464Y-97096932D01*
X133636788Y-97103038D01*
X133615004Y-97103456D01*
X133565754Y-97101097D01*
X133518823Y-97092490D01*
X133471410Y-97075951D01*
X133420712Y-97049796D01*
X133363926Y-97012340D01*
X133298251Y-96961900D01*
X133220884Y-96896790D01*
X133129022Y-96815326D01*
X133115901Y-96803475D01*
X132906420Y-96617731D01*
X132709248Y-96451104D01*
X132521926Y-96302050D01*
X132341991Y-96169022D01*
X132166983Y-96050475D01*
X131994441Y-95944863D01*
X131821903Y-95850641D01*
X131646908Y-95766263D01*
X131466997Y-95690183D01*
X131279706Y-95620856D01*
X131179350Y-95587210D01*
X131140509Y-95574791D01*
X131604800Y-95574791D01*
X131615510Y-95584693D01*
X131644740Y-95603088D01*
X131688132Y-95627425D01*
X131741332Y-95655154D01*
X131746161Y-95657583D01*
X131944878Y-95761513D01*
X132131843Y-95868639D01*
X132310970Y-95981750D01*
X132486172Y-96103636D01*
X132661365Y-96237086D01*
X132840461Y-96384888D01*
X133027375Y-96549833D01*
X133127602Y-96642041D01*
X133227711Y-96734773D01*
X133311567Y-96811130D01*
X133381035Y-96872540D01*
X133437983Y-96920428D01*
X133484277Y-96956222D01*
X133521783Y-96981346D01*
X133552368Y-96997228D01*
X133577898Y-97005293D01*
X133600239Y-97006967D01*
X133604730Y-97006638D01*
X133629747Y-97000487D01*
X133646758Y-96983611D01*
X133662317Y-96949235D01*
X133663595Y-96945800D01*
X133677457Y-96898004D01*
X133689269Y-96834455D01*
X133699181Y-96753444D01*
X133707342Y-96653264D01*
X133713903Y-96532207D01*
X133719013Y-96388566D01*
X133721561Y-96285400D01*
X133723730Y-96152708D01*
X133723905Y-96042392D01*
X133721837Y-95951486D01*
X133717276Y-95877024D01*
X133709972Y-95816042D01*
X133699675Y-95765575D01*
X133686137Y-95722657D01*
X133671310Y-95688713D01*
X133644939Y-95646517D01*
X133611374Y-95615144D01*
X133568168Y-95594324D01*
X133512872Y-95583787D01*
X133443037Y-95583262D01*
X133356215Y-95592480D01*
X133249957Y-95611170D01*
X133154200Y-95631656D01*
X132995089Y-95663451D01*
X132854013Y-95682194D01*
X132727058Y-95687616D01*
X132610311Y-95679446D01*
X132499858Y-95657416D01*
X132391785Y-95621256D01*
X132284250Y-95571768D01*
X132193829Y-95525197D01*
X132122710Y-95488972D01*
X132067653Y-95461733D01*
X132025416Y-95442121D01*
X131992759Y-95428775D01*
X131966442Y-95420338D01*
X131943222Y-95415450D01*
X131919861Y-95412751D01*
X131902060Y-95411461D01*
X131838121Y-95411883D01*
X131792253Y-95423358D01*
X131786677Y-95426041D01*
X131756706Y-95444391D01*
X131719345Y-95471171D01*
X131680048Y-95501921D01*
X131644268Y-95532180D01*
X131617460Y-95557488D01*
X131605078Y-95573384D01*
X131604800Y-95574791D01*
X131140509Y-95574791D01*
X131096825Y-95560824D01*
X131025483Y-95539335D01*
X130961122Y-95522114D01*
X130899541Y-95508531D01*
X130836539Y-95497956D01*
X130767912Y-95489760D01*
X130689461Y-95483315D01*
X130596983Y-95477989D01*
X130486276Y-95473154D01*
X130394958Y-95469698D01*
X130232579Y-95465015D01*
X130068453Y-95462643D01*
X129905697Y-95462485D01*
X129747428Y-95464442D01*
X129596762Y-95468416D01*
X129456815Y-95474308D01*
X129330704Y-95482019D01*
X129221544Y-95491452D01*
X129132452Y-95502508D01*
X129083850Y-95511128D01*
X128973142Y-95538156D01*
X128850750Y-95574282D01*
X128725454Y-95616510D01*
X128606034Y-95661847D01*
X128501268Y-95707298D01*
X128483140Y-95715995D01*
X128385861Y-95768368D01*
X128292608Y-95827573D01*
X128206585Y-95890860D01*
X128130998Y-95955478D01*
X128069050Y-96018676D01*
X128023946Y-96077702D01*
X127998890Y-96129805D01*
X127998173Y-96132356D01*
X127988800Y-96204208D01*
X127858673Y-96204208D01*
X127866816Y-96149835D01*
X127880944Y-96102111D01*
X127930155Y-95993866D01*
X127995640Y-95894804D01*
X128078384Y-95801609D01*
X128185988Y-95706213D01*
X128308830Y-95621299D01*
X128447829Y-95546637D01*
X128603899Y-95481997D01*
X128777959Y-95427151D01*
X128970924Y-95381868D01*
X129183711Y-95345918D01*
X129417238Y-95319072D01*
X129672420Y-95301100D01*
X129950174Y-95291772D01*
X130118900Y-95290235D01*
X130233498Y-95290340D01*
X130327055Y-95291071D01*
X130403930Y-95292643D01*
X130468478Y-95295274D01*
X130525055Y-95299180D01*
X130578019Y-95304576D01*
X130631727Y-95311680D01*
X130671350Y-95317667D01*
X130813204Y-95343535D01*
X130969400Y-95378476D01*
X131131455Y-95420422D01*
X131290885Y-95467307D01*
X131309676Y-95473244D01*
X131380091Y-95494684D01*
X131431430Y-95506838D01*
X131468406Y-95509329D01*
X131495728Y-95501781D01*
X131518108Y-95483819D01*
X131540256Y-95455066D01*
X131540417Y-95454833D01*
X131606584Y-95379494D01*
X131694536Y-95314724D01*
X131744434Y-95287290D01*
X131785800Y-95268568D01*
X131821270Y-95259435D01*
X131862550Y-95257786D01*
X131897793Y-95259711D01*
X131897793Y-95259711D01*
G37*
X131897793Y-95259711D02*
X131930244Y-95262970D01*
X131961295Y-95268861D01*
X131995196Y-95278980D01*
X132036198Y-95294920D01*
X132088554Y-95318274D01*
X132156515Y-95350637D01*
X132210309Y-95376886D01*
X132309950Y-95424581D01*
X132392608Y-95460938D01*
X132463250Y-95487400D01*
X132526840Y-95505411D01*
X132588347Y-95516414D01*
X132652735Y-95521853D01*
X132713617Y-95523179D01*
X132798153Y-95520946D01*
X132882742Y-95513281D01*
X132973908Y-95499251D01*
X133078173Y-95477921D01*
X133155089Y-95459934D01*
X133256712Y-95436747D01*
X133339149Y-95421621D01*
X133407166Y-95414160D01*
X133465530Y-95413971D01*
X133519007Y-95420660D01*
X133549023Y-95427372D01*
X133629246Y-95452797D01*
X133699300Y-95484545D01*
X133755696Y-95520287D01*
X133794945Y-95557696D01*
X133813559Y-95594443D01*
X133814600Y-95604631D01*
X133825759Y-95647461D01*
X133859448Y-95679293D01*
X133915979Y-95700417D01*
X133919355Y-95701185D01*
X133949249Y-95705385D01*
X134000603Y-95709908D01*
X134069480Y-95714521D01*
X134151944Y-95718992D01*
X134244061Y-95723089D01*
X134341895Y-95726580D01*
X134358192Y-95727078D01*
X134460640Y-95730495D01*
X134561673Y-95734530D01*
X134656541Y-95738944D01*
X134740489Y-95743498D01*
X134808765Y-95747953D01*
X134856617Y-95752070D01*
X134858228Y-95752245D01*
X134957094Y-95766163D01*
X135056135Y-95785574D01*
X135148767Y-95808846D01*
X135228404Y-95834348D01*
X135282579Y-95857376D01*
X135378251Y-95919621D01*
X135456311Y-96000025D01*
X135516387Y-96098090D01*
X135558105Y-96213318D01*
X135562167Y-96229558D01*
X135575908Y-96311334D01*
X135582551Y-96405206D01*
X135582085Y-96501662D01*
X135574496Y-96591190D01*
X135562707Y-96653700D01*
X135527275Y-96758978D01*
X135473167Y-96876355D01*
X135402125Y-97002819D01*
X135315890Y-97135361D01*
X135216206Y-97270969D01*
X135176966Y-97320450D01*
X135143868Y-97360426D01*
X135110208Y-97398749D01*
X135074540Y-97436521D01*
X135035414Y-97474843D01*
X134991382Y-97514816D01*
X134940997Y-97557542D01*
X134882811Y-97604121D01*
X134815375Y-97655655D01*
X134737241Y-97713246D01*
X134646961Y-97777995D01*
X134543088Y-97851003D01*
X134424172Y-97933372D01*
X134288767Y-98026202D01*
X134135423Y-98130596D01*
X133962694Y-98247654D01*
X133918915Y-98277267D01*
X133768780Y-98379218D01*
X133638542Y-98468681D01*
X133526696Y-98546841D01*
X133431734Y-98614886D01*
X133352152Y-98674001D01*
X133286442Y-98725373D01*
X133233099Y-98770190D01*
X133190615Y-98809637D01*
X133157486Y-98844902D01*
X133132204Y-98877172D01*
X133113263Y-98907632D01*
X133109366Y-98915056D01*
X133071060Y-98974765D01*
X133025533Y-99012948D01*
X132967827Y-99033381D01*
X132950152Y-99036261D01*
X132913253Y-99042193D01*
X132894238Y-99051509D01*
X132885782Y-99070698D01*
X132881784Y-99096839D01*
X132880776Y-99123731D01*
X132881513Y-99171865D01*
X132883827Y-99237156D01*
X132887551Y-99315519D01*
X132892519Y-99402868D01*
X132897280Y-99476512D01*
X132919579Y-99803774D01*
X132814399Y-99925112D01*
X132756411Y-99992889D01*
X132693877Y-100067777D01*
X132625097Y-100151895D01*
X132548372Y-100247363D01*
X132462001Y-100356299D01*
X132364284Y-100480824D01*
X132253521Y-100623056D01*
X132223061Y-100662315D01*
X132122039Y-100791311D01*
X132034016Y-100900776D01*
X131957665Y-100992153D01*
X131891660Y-101066885D01*
X131834674Y-101126416D01*
X131785380Y-101172189D01*
X131742451Y-101205647D01*
X131704560Y-101228233D01*
X131701411Y-101229754D01*
X131639509Y-101270019D01*
X131573530Y-101333285D01*
X131504698Y-101417709D01*
X131434233Y-101521451D01*
X131363358Y-101642668D01*
X131293295Y-101779520D01*
X131225265Y-101930165D01*
X131205957Y-101976495D01*
X131170094Y-102049365D01*
X131131466Y-102101368D01*
X131091628Y-102131621D01*
X131052132Y-102139240D01*
X131014531Y-102123342D01*
X130990970Y-102098825D01*
X130968586Y-102064807D01*
X130953058Y-102033877D01*
X130951473Y-102029306D01*
X130935400Y-102001202D01*
X130910615Y-101975668D01*
X130885588Y-101959172D01*
X130864758Y-101958839D01*
X130842332Y-101968891D01*
X130816796Y-101988151D01*
X130783574Y-102021255D01*
X130749587Y-102061268D01*
X130747550Y-102063900D01*
X130695030Y-102123890D01*
X130646577Y-102161078D01*
X130599708Y-102177204D01*
X130584439Y-102178200D01*
X130564912Y-102180834D01*
X130551701Y-102191427D01*
X130543609Y-102214010D01*
X130539438Y-102252618D01*
X130537988Y-102311284D01*
X130537903Y-102334813D01*
X130535605Y-102440942D01*
X130529133Y-102531675D01*
X130518836Y-102604614D01*
X130505064Y-102657362D01*
X130488168Y-102687522D01*
X130486114Y-102689375D01*
X130450668Y-102708408D01*
X130411649Y-102707927D01*
X130365484Y-102687214D01*
X130322100Y-102656460D01*
X130269648Y-102611265D01*
X130207606Y-102551834D01*
X130141767Y-102484142D01*
X130077924Y-102414164D01*
X130021870Y-102347876D01*
X130016971Y-102341749D01*
X129943798Y-102231816D01*
X129892474Y-102112702D01*
X129862230Y-101982056D01*
X129852295Y-101838475D01*
X129850846Y-101786435D01*
X129845133Y-101757222D01*
X129832909Y-101748344D01*
X129811925Y-101757306D01*
X129792165Y-101771800D01*
X129769214Y-101788346D01*
X129749880Y-101797474D01*
X129733578Y-101797296D01*
X129719725Y-101785927D01*
X129707738Y-101761482D01*
X129697034Y-101722075D01*
X129687028Y-101665820D01*
X129677139Y-101590831D01*
X129666782Y-101495224D01*
X129655374Y-101377113D01*
X129649134Y-101309479D01*
X129635423Y-101168470D01*
X129621800Y-101048295D01*
X129607594Y-100944404D01*
X129592129Y-100852241D01*
X129574733Y-100767253D01*
X129559355Y-100702884D01*
X129541050Y-100594968D01*
X129535239Y-100465534D01*
X129541921Y-100315177D01*
X129559548Y-100155626D01*
X129570299Y-100075501D01*
X129581349Y-99989972D01*
X129591420Y-99909122D01*
X129599232Y-99843035D01*
X129599416Y-99841400D01*
X129605254Y-99779366D01*
X129609928Y-99709850D01*
X129613338Y-99637621D01*
X129615385Y-99567449D01*
X129615970Y-99504105D01*
X129614991Y-99452358D01*
X129612351Y-99416978D01*
X129608575Y-99403173D01*
X129593984Y-99400336D01*
X129563399Y-99406768D01*
X129515088Y-99423042D01*
X129447317Y-99449733D01*
X129373487Y-99480877D01*
X129302813Y-99510109D01*
X129251974Y-99527990D01*
X129218328Y-99534998D01*
X129199233Y-99531612D01*
X129192046Y-99518310D01*
X129191800Y-99513777D01*
X129200514Y-99490947D01*
X129227320Y-99458828D01*
X129273213Y-99416488D01*
X129339188Y-99362994D01*
X129410078Y-99309333D01*
X129508968Y-99230285D01*
X129547973Y-99193194D01*
X129763300Y-99193194D01*
X129771922Y-99205713D01*
X129794371Y-99202790D01*
X129825517Y-99185892D01*
X129846540Y-99169397D01*
X129876601Y-99147364D01*
X129910657Y-99133800D01*
X129958078Y-99125356D01*
X129975217Y-99123434D01*
X130056353Y-99111070D01*
X130112738Y-99093314D01*
X130144451Y-99070110D01*
X130151575Y-99041404D01*
X130139082Y-99013663D01*
X130122468Y-98969117D01*
X130121306Y-98906276D01*
X130135486Y-98826915D01*
X130154943Y-98761107D01*
X130180555Y-98681710D01*
X130196095Y-98624699D01*
X130201373Y-98589063D01*
X130196198Y-98573788D01*
X130180380Y-98577862D01*
X130153728Y-98600273D01*
X130129407Y-98625375D01*
X130099062Y-98661407D01*
X130061138Y-98711501D01*
X130017974Y-98772029D01*
X129971908Y-98839362D01*
X129925282Y-98909873D01*
X129880432Y-98979933D01*
X129839700Y-99045915D01*
X129805424Y-99104189D01*
X129779944Y-99151128D01*
X129765598Y-99183104D01*
X129763300Y-99193194D01*
X129547973Y-99193194D01*
X129597625Y-99145980D01*
X129680972Y-99051030D01*
X129763932Y-98940046D01*
X129810657Y-98871015D01*
X129860307Y-98796312D01*
X129916955Y-98712370D01*
X129973796Y-98629206D01*
X130024024Y-98556837D01*
X130026358Y-98553515D01*
X130097018Y-98449651D01*
X130150705Y-98362898D01*
X130187919Y-98291929D01*
X130209159Y-98235421D01*
X130214924Y-98192047D01*
X130205714Y-98160483D01*
X130182361Y-98139579D01*
X130162452Y-98134305D01*
X130122116Y-98127572D01*
X130066236Y-98120061D01*
X129999693Y-98112453D01*
X129957295Y-98108184D01*
X129834882Y-98094062D01*
X129721722Y-98075291D01*
X129614804Y-98050516D01*
X129511115Y-98018386D01*
X129407643Y-97977549D01*
X129301377Y-97926651D01*
X129189306Y-97864341D01*
X129068416Y-97789266D01*
X128935697Y-97700073D01*
X128788136Y-97595410D01*
X128744043Y-97563362D01*
X128649642Y-97492767D01*
X128571074Y-97429528D01*
X128502342Y-97368013D01*
X128437453Y-97302587D01*
X128370411Y-97227616D01*
X128309858Y-97155350D01*
X128193267Y-97007892D01*
X128090978Y-96867106D01*
X128004457Y-96735223D01*
X127935168Y-96614470D01*
X127886008Y-96510567D01*
X127862933Y-96430411D01*
X127851965Y-96337288D01*
X127853220Y-96240621D01*
X127858673Y-96204208D01*
X127988800Y-96204208D01*
X127993674Y-96291424D01*
X128011778Y-96389069D01*
X128042093Y-96492206D01*
X128083600Y-96595900D01*
X128101494Y-96633227D01*
X128189138Y-96784929D01*
X128297806Y-96935374D01*
X128424852Y-97082795D01*
X128567630Y-97225424D01*
X128723492Y-97361495D01*
X128889793Y-97489240D01*
X129063886Y-97606893D01*
X129243125Y-97712686D01*
X129424863Y-97804852D01*
X129606454Y-97881625D01*
X129785251Y-97941236D01*
X129958608Y-97981921D01*
X130123879Y-98001910D01*
X130153233Y-98003194D01*
X130252250Y-98006250D01*
X130248353Y-97968150D01*
X130237807Y-97910483D01*
X130220416Y-97864707D01*
X130198675Y-97837051D01*
X130194917Y-97834702D01*
X130168032Y-97826956D01*
X130128565Y-97822513D01*
X130112977Y-97822100D01*
X130062761Y-97817295D01*
X130014659Y-97804726D01*
X129977064Y-97787156D01*
X129960504Y-97771874D01*
X129956284Y-97748985D01*
X129959053Y-97726697D01*
X129973786Y-97703101D01*
X130005816Y-97686232D01*
X130057332Y-97675513D01*
X130130520Y-97670371D01*
X130176050Y-97669711D01*
X130244936Y-97668513D01*
X130333037Y-97665283D01*
X130434278Y-97660370D01*
X130542584Y-97654125D01*
X130651881Y-97646898D01*
X130756097Y-97639039D01*
X130848859Y-97630927D01*
X130922027Y-97622500D01*
X130973389Y-97612275D01*
X131006537Y-97598406D01*
X131025063Y-97579047D01*
X131032562Y-97552356D01*
X131033300Y-97536223D01*
X131029340Y-97510060D01*
X131014836Y-97483752D01*
X130985851Y-97451212D01*
X130965575Y-97431533D01*
X130922696Y-97395233D01*
X130873697Y-97360246D01*
X130824850Y-97330397D01*
X130782427Y-97309509D01*
X130752698Y-97301405D01*
X130752147Y-97301400D01*
X130731780Y-97309272D01*
X130712261Y-97323625D01*
X130695225Y-97334486D01*
X130669644Y-97341260D01*
X130630062Y-97344772D01*
X130571025Y-97345844D01*
X130565211Y-97345850D01*
X130507398Y-97346345D01*
X130467501Y-97348950D01*
X130438041Y-97355342D01*
X130411539Y-97367198D01*
X130380515Y-97386197D01*
X130377967Y-97387846D01*
X130342138Y-97408838D01*
X130306208Y-97423637D01*
X130262395Y-97434611D01*
X130202915Y-97444126D01*
X130185080Y-97446503D01*
X130092756Y-97462945D01*
X130020036Y-97486741D01*
X129961643Y-97520122D01*
X129917394Y-97559760D01*
X129897280Y-97587504D01*
X129892542Y-97617605D01*
X129895169Y-97640344D01*
X129905850Y-97709033D01*
X129911903Y-97757423D01*
X129913356Y-97790184D01*
X129910236Y-97811986D01*
X129902572Y-97827499D01*
X129896331Y-97835152D01*
X129861441Y-97857950D01*
X129823458Y-97858139D01*
X129789070Y-97836551D01*
X129776756Y-97820290D01*
X129750888Y-97755423D01*
X129742005Y-97678818D01*
X129749631Y-97597184D01*
X129773291Y-97517230D01*
X129802204Y-97460926D01*
X129844373Y-97410716D01*
X129900595Y-97373238D01*
X129973989Y-97347055D01*
X130067675Y-97330733D01*
X130090177Y-97328427D01*
X130150040Y-97321638D01*
X130190246Y-97313475D01*
X130216540Y-97302418D01*
X130230577Y-97291322D01*
X130247292Y-97277449D01*
X130268688Y-97267115D01*
X130299901Y-97258992D01*
X130346066Y-97251753D01*
X130412319Y-97244070D01*
X130414048Y-97243885D01*
X130466447Y-97234546D01*
X130507196Y-97216222D01*
X130539074Y-97192551D01*
X130575142Y-97165707D01*
X130607381Y-97152809D01*
X130649006Y-97149070D01*
X130659273Y-97149000D01*
X130744559Y-97159335D01*
X130836700Y-97188350D01*
X130929297Y-97233062D01*
X131015947Y-97290486D01*
X131076686Y-97343577D01*
X131108155Y-97372654D01*
X131132260Y-97390456D01*
X131144259Y-97393544D01*
X131144637Y-97392836D01*
X131175934Y-97336261D01*
X131228773Y-97283510D01*
X131299352Y-97236713D01*
X131383868Y-97197999D01*
X131478521Y-97169499D01*
X131570636Y-97154197D01*
X131658826Y-97150358D01*
X131731406Y-97159890D01*
X131795154Y-97184161D01*
X131833361Y-97207314D01*
X131872777Y-97233396D01*
X131907113Y-97252533D01*
X131943272Y-97267397D01*
X131988162Y-97280660D01*
X132048687Y-97294994D01*
X132074919Y-97300775D01*
X132168627Y-97325171D01*
X132237832Y-97352351D01*
X132283332Y-97382853D01*
X132305924Y-97417215D01*
X132306405Y-97455976D01*
X132306168Y-97456903D01*
X132288709Y-97485051D01*
X132259991Y-97495233D01*
X132226262Y-97487892D01*
X132193766Y-97463468D01*
X132181929Y-97448133D01*
X132171086Y-97433504D01*
X132158072Y-97424100D01*
X132137516Y-97418769D01*
X132104046Y-97416359D01*
X132052291Y-97415719D01*
X132030684Y-97415700D01*
X131932304Y-97411511D01*
X131856798Y-97399026D01*
X131804512Y-97378366D01*
X131775794Y-97349651D01*
X131769900Y-97324831D01*
X131762229Y-97306876D01*
X131735939Y-97301405D01*
X131734625Y-97301400D01*
X131696739Y-97293904D01*
X131670001Y-97280842D01*
X131628476Y-97266264D01*
X131571242Y-97267690D01*
X131501916Y-97284645D01*
X131434345Y-97311769D01*
X131363390Y-97347977D01*
X131312037Y-97381892D01*
X131275201Y-97417202D01*
X131259086Y-97438856D01*
X131240558Y-97485533D01*
X131238485Y-97537243D01*
X131252753Y-97583384D01*
X131260773Y-97595268D01*
X131270062Y-97605634D01*
X131281226Y-97613408D01*
X131297939Y-97619086D01*
X131323875Y-97623165D01*
X131362707Y-97626144D01*
X131418110Y-97628517D01*
X131493758Y-97630783D01*
X131530648Y-97631774D01*
X131622033Y-97634639D01*
X131691609Y-97637966D01*
X131742967Y-97642101D01*
X131779696Y-97647389D01*
X131805389Y-97654175D01*
X131817525Y-97659376D01*
X131844764Y-97672386D01*
X131856237Y-97672113D01*
X131858765Y-97656885D01*
X131858800Y-97649278D01*
X131866582Y-97620948D01*
X131890820Y-97609486D01*
X131932846Y-97614533D01*
X131958772Y-97622386D01*
X132003975Y-97632861D01*
X132069815Y-97641147D01*
X132151582Y-97646701D01*
X132178682Y-97647759D01*
X132252524Y-97651008D01*
X132305457Y-97655549D01*
X132341964Y-97662006D01*
X132366528Y-97671005D01*
X132373146Y-97674879D01*
X132396558Y-97695288D01*
X132398429Y-97715038D01*
X132378096Y-97738671D01*
X132361934Y-97751477D01*
X132340781Y-97764087D01*
X132313701Y-97772510D01*
X132274788Y-97777833D01*
X132218136Y-97781149D01*
X132197082Y-97781905D01*
X132101542Y-97781537D01*
X132024944Y-97773809D01*
X131997946Y-97768073D01*
X131928650Y-97749985D01*
X131928650Y-98114224D01*
X131967735Y-98067659D01*
X131998493Y-98037790D01*
X132020496Y-98031476D01*
X132033278Y-98048634D01*
X132036552Y-98080024D01*
X132024328Y-98137925D01*
X131988318Y-98188368D01*
X131929300Y-98230358D01*
X131912441Y-98238768D01*
X131875691Y-98254570D01*
X131842125Y-98264602D01*
X131804045Y-98270139D01*
X131753752Y-98272453D01*
X131706400Y-98272837D01*
X131642693Y-98272140D01*
X131596786Y-98269106D01*
X131561102Y-98262511D01*
X131528065Y-98251131D01*
X131503200Y-98240013D01*
X131425441Y-98193223D01*
X131369681Y-98135779D01*
X131334018Y-98065622D01*
X131329815Y-98052274D01*
X131320895Y-98017573D01*
X131316439Y-97985566D01*
X131316528Y-97949609D01*
X131318014Y-97934934D01*
X131404011Y-97934934D01*
X131410056Y-97939604D01*
X131432210Y-97926424D01*
X131451052Y-97912067D01*
X131485239Y-97888957D01*
X131515702Y-97874891D01*
X131526330Y-97872900D01*
X131555749Y-97884238D01*
X131582247Y-97913087D01*
X131600241Y-97951698D01*
X131604800Y-97981842D01*
X131594459Y-98023094D01*
X131562853Y-98052260D01*
X131509106Y-98070091D01*
X131500025Y-98071684D01*
X131469463Y-98079051D01*
X131453209Y-98087745D01*
X131452400Y-98089792D01*
X131463998Y-98106711D01*
X131495270Y-98118583D01*
X131540929Y-98125073D01*
X131595688Y-98125844D01*
X131654261Y-98120560D01*
X131711362Y-98108885D01*
X131718884Y-98106737D01*
X131785267Y-98078653D01*
X131831446Y-98040679D01*
X131855577Y-97994637D01*
X131858800Y-97968496D01*
X131846852Y-97902892D01*
X131812482Y-97846274D01*
X131757895Y-97801421D01*
X131707616Y-97778079D01*
X131630488Y-97760300D01*
X131563483Y-97765624D01*
X131505159Y-97794541D01*
X131454075Y-97847539D01*
X131439437Y-97869009D01*
X131413873Y-97911655D01*
X131404011Y-97934934D01*
X131318014Y-97934934D01*
X131321245Y-97903054D01*
X131330671Y-97839256D01*
X131332600Y-97827140D01*
X131340943Y-97775031D01*
X131279610Y-97759587D01*
X131224659Y-97737765D01*
X131176783Y-97699025D01*
X131170238Y-97692108D01*
X131141516Y-97664008D01*
X131125353Y-97655167D01*
X131122200Y-97660315D01*
X131112898Y-97681517D01*
X131090303Y-97705609D01*
X131088265Y-97707249D01*
X131072989Y-97720945D01*
X131062567Y-97737045D01*
X131055532Y-97760999D01*
X131050417Y-97798258D01*
X131045755Y-97854269D01*
X131044679Y-97869162D01*
X131032353Y-97970407D01*
X131010421Y-98051151D01*
X130977323Y-98114987D01*
X130931501Y-98165507D01*
X130908174Y-98183557D01*
X130879273Y-98202470D01*
X130853554Y-98213916D01*
X130823140Y-98219723D01*
X130780159Y-98221720D01*
X130743233Y-98221845D01*
X130684545Y-98220506D01*
X130642164Y-98215692D01*
X130607052Y-98205633D01*
X130570174Y-98188558D01*
X130568229Y-98187545D01*
X130499802Y-98142221D01*
X130451685Y-98086327D01*
X130419293Y-98014315D01*
X130415994Y-98003466D01*
X130405404Y-97961249D01*
X130401714Y-97924651D01*
X130404621Y-97882817D01*
X130408084Y-97860327D01*
X130512600Y-97860327D01*
X130522662Y-97865868D01*
X130543874Y-97860380D01*
X130587529Y-97856035D01*
X130632190Y-97870744D01*
X130667504Y-97900848D01*
X130670512Y-97905153D01*
X130687294Y-97947589D01*
X130688762Y-97993259D01*
X130675290Y-98032177D01*
X130665299Y-98044078D01*
X130649803Y-98068003D01*
X130657483Y-98088394D01*
X130686188Y-98103657D01*
X130733770Y-98112198D01*
X130758746Y-98113394D01*
X130790661Y-98110843D01*
X130817732Y-98098960D01*
X130848724Y-98073233D01*
X130862059Y-98060183D01*
X130910246Y-98000567D01*
X130933536Y-97943176D01*
X130931810Y-97888407D01*
X130921522Y-97862117D01*
X130909330Y-97841901D01*
X130893800Y-97826723D01*
X130869637Y-97813753D01*
X130831546Y-97800159D01*
X130774231Y-97783110D01*
X130773188Y-97782811D01*
X130717256Y-97768237D01*
X130667797Y-97758016D01*
X130631509Y-97753395D01*
X130618167Y-97753982D01*
X130594308Y-97766886D01*
X130564828Y-97791457D01*
X130536811Y-97820559D01*
X130517345Y-97847053D01*
X130512600Y-97860327D01*
X130408084Y-97860327D01*
X130411378Y-97838937D01*
X130418291Y-97793100D01*
X130421872Y-97757834D01*
X130421478Y-97739808D01*
X130421011Y-97738977D01*
X130403417Y-97735835D01*
X130382862Y-97751402D01*
X130365016Y-97780500D01*
X130359901Y-97794788D01*
X130354968Y-97824064D01*
X130350384Y-97873802D01*
X130346281Y-97939066D01*
X130342792Y-98014919D01*
X130340049Y-98096424D01*
X130338182Y-98178644D01*
X130337325Y-98256642D01*
X130337609Y-98325483D01*
X130339166Y-98380229D01*
X130342127Y-98415943D01*
X130343154Y-98421549D01*
X130353850Y-98468548D01*
X130459612Y-98406888D01*
X130545973Y-98361955D01*
X130641015Y-98321652D01*
X130738000Y-98288202D01*
X130830192Y-98263825D01*
X130910852Y-98250741D01*
X130938050Y-98249173D01*
X130984791Y-98248954D01*
X131011910Y-98251509D01*
X131025156Y-98258454D01*
X131030281Y-98271406D01*
X131030895Y-98275265D01*
X131029415Y-98295349D01*
X131015744Y-98310835D01*
X130985926Y-98324017D01*
X130936005Y-98337191D01*
X130916873Y-98341409D01*
X130852631Y-98361163D01*
X130774725Y-98394463D01*
X130688621Y-98438144D01*
X130599787Y-98489040D01*
X130513687Y-98543987D01*
X130435787Y-98599821D01*
X130371554Y-98653376D01*
X130361295Y-98663082D01*
X130311798Y-98716798D01*
X130271688Y-98771443D01*
X130244379Y-98821635D01*
X130233286Y-98861991D01*
X130233200Y-98865064D01*
X130245149Y-98904307D01*
X130279636Y-98936242D01*
X130334621Y-98959968D01*
X130408062Y-98974584D01*
X130491669Y-98979211D01*
X130559451Y-98976557D01*
X130610935Y-98966662D01*
X130654848Y-98946626D01*
X130699920Y-98913549D01*
X130706805Y-98907724D01*
X130740193Y-98882612D01*
X130769279Y-98866589D01*
X130781220Y-98863500D01*
X130800276Y-98856620D01*
X130834965Y-98837926D01*
X130880228Y-98810333D01*
X130927311Y-98779287D01*
X130981796Y-98743107D01*
X131034161Y-98710118D01*
X131077789Y-98684391D01*
X131102302Y-98671616D01*
X131167754Y-98652956D01*
X131243066Y-98648540D01*
X131317115Y-98658296D01*
X131361711Y-98673278D01*
X131421306Y-98693906D01*
X131471174Y-98695116D01*
X131518156Y-98676748D01*
X131529896Y-98669319D01*
X131563189Y-98642160D01*
X131572132Y-98621402D01*
X131556506Y-98606351D01*
X131516088Y-98596314D01*
X131506237Y-98594995D01*
X131440715Y-98581119D01*
X131398285Y-98558024D01*
X131378176Y-98525192D01*
X131376200Y-98507933D01*
X131382399Y-98477349D01*
X131405379Y-98455762D01*
X131415667Y-98450042D01*
X131461172Y-98436571D01*
X131507538Y-98444922D01*
X131556270Y-98473486D01*
X131598118Y-98492962D01*
X131651945Y-98502711D01*
X131708955Y-98502753D01*
X131760354Y-98493107D01*
X131797347Y-98473790D01*
X131798235Y-98472975D01*
X131838102Y-98448237D01*
X131878446Y-98448816D01*
X131903599Y-98461555D01*
X131958427Y-98485366D01*
X132016748Y-98487299D01*
X132031443Y-98483978D01*
X132078364Y-98479031D01*
X132111082Y-98495101D01*
X132129459Y-98532114D01*
X132130720Y-98538098D01*
X132145906Y-98577369D01*
X132170422Y-98607602D01*
X132196177Y-98633776D01*
X132197676Y-98654194D01*
X132174802Y-98671006D01*
X132166775Y-98674324D01*
X132117274Y-98682164D01*
X132061119Y-98674606D01*
X132010208Y-98653595D01*
X132000591Y-98647137D01*
X131965939Y-98631467D01*
X131915170Y-98619977D01*
X131856971Y-98613385D01*
X131800027Y-98612406D01*
X131753024Y-98617759D01*
X131731940Y-98624960D01*
X131708224Y-98645651D01*
X131681777Y-98680316D01*
X131667143Y-98705054D01*
X131619562Y-98771348D01*
X131556672Y-98817455D01*
X131500657Y-98838784D01*
X131475450Y-98844856D01*
X131453266Y-98846993D01*
X131428081Y-98844284D01*
X131393873Y-98835818D01*
X131344619Y-98820682D01*
X131312304Y-98810276D01*
X131248554Y-98793813D01*
X131195030Y-98791644D01*
X131143498Y-98805071D01*
X131085723Y-98835399D01*
X131063394Y-98849659D01*
X131032064Y-98871712D01*
X130996881Y-98898665D01*
X130961223Y-98927562D01*
X130928462Y-98955451D01*
X130901975Y-98979378D01*
X130885136Y-98996390D01*
X130881320Y-99003532D01*
X130893902Y-98997852D01*
X130894419Y-98997542D01*
X130922180Y-98985054D01*
X130966098Y-98969768D01*
X131017586Y-98954621D01*
X131027769Y-98951936D01*
X131057629Y-98944993D01*
X131091142Y-98938987D01*
X131131103Y-98933709D01*
X131180306Y-98928949D01*
X131241546Y-98924498D01*
X131317617Y-98920148D01*
X131411314Y-98915688D01*
X131525431Y-98910910D01*
X131630200Y-98906836D01*
X131744125Y-98902779D01*
X131853045Y-98899422D01*
X131953660Y-98896826D01*
X132042674Y-98895056D01*
X132116788Y-98894175D01*
X132172704Y-98894248D01*
X132207125Y-98895337D01*
X132210729Y-98895640D01*
X132277818Y-98908339D01*
X132324224Y-98930464D01*
X132348576Y-98961113D01*
X132351626Y-98988479D01*
X132348059Y-99006311D01*
X132338620Y-99016264D01*
X132317283Y-99020671D01*
X132278025Y-99021864D01*
X132265200Y-99021931D01*
X132232252Y-99023115D01*
X132200163Y-99027306D01*
X132164289Y-99035865D01*
X132119989Y-99050154D01*
X132062619Y-99071536D01*
X131987537Y-99101371D01*
X131969509Y-99108666D01*
X131868495Y-99148639D01*
X131783389Y-99179312D01*
X131707878Y-99201917D01*
X131635651Y-99217686D01*
X131560397Y-99227852D01*
X131475805Y-99233645D01*
X131375563Y-99236297D01*
X131312700Y-99236857D01*
X131183659Y-99235890D01*
X131077852Y-99231211D01*
X130993321Y-99222368D01*
X130928110Y-99208908D01*
X130880262Y-99190377D01*
X130847820Y-99166323D01*
X130828827Y-99136293D01*
X130824907Y-99123941D01*
X130825221Y-99100418D01*
X130969800Y-99100418D01*
X130980353Y-99112546D01*
X131005687Y-99117350D01*
X131036313Y-99114999D01*
X131062742Y-99105662D01*
X131071265Y-99098611D01*
X131081340Y-99071736D01*
X131070345Y-99049774D01*
X131044223Y-99041300D01*
X131012787Y-99049910D01*
X130984896Y-99070591D01*
X130970275Y-99095618D01*
X130969800Y-99100418D01*
X130825221Y-99100418D01*
X130825421Y-99085496D01*
X130836545Y-99053814D01*
X130845049Y-99037367D01*
X131360540Y-99037367D01*
X131370066Y-99067908D01*
X131384882Y-99113185D01*
X131397421Y-99139308D01*
X131412751Y-99151437D01*
X131435943Y-99154732D01*
X131455260Y-99154623D01*
X131504393Y-99150097D01*
X131553516Y-99140288D01*
X131559332Y-99138627D01*
X131591842Y-99125778D01*
X131611903Y-99112145D01*
X131614117Y-99108598D01*
X131607791Y-99091385D01*
X131580703Y-99074454D01*
X131537447Y-99059589D01*
X131482615Y-99048572D01*
X131449967Y-99044865D01*
X131360540Y-99037367D01*
X130845049Y-99037367D01*
X130856230Y-99015747D01*
X130788430Y-99059119D01*
X130766960Y-99071860D01*
X130742914Y-99083556D01*
X130713314Y-99095054D01*
X130675180Y-99107200D01*
X130625533Y-99120841D01*
X130561394Y-99136823D01*
X130479785Y-99155993D01*
X130377725Y-99179197D01*
X130321213Y-99191879D01*
X130219643Y-99214286D01*
X130122096Y-99235200D01*
X130032381Y-99253848D01*
X129954309Y-99269460D01*
X129891690Y-99281265D01*
X129848333Y-99288492D01*
X129836307Y-99290026D01*
X129790798Y-99296851D01*
X129754874Y-99306189D01*
X129736847Y-99315618D01*
X129727051Y-99339738D01*
X129719431Y-99380956D01*
X129714725Y-99431007D01*
X129713672Y-99481631D01*
X129717010Y-99524565D01*
X129717775Y-99528990D01*
X129728567Y-99562304D01*
X129745816Y-99574454D01*
X129749620Y-99574700D01*
X129778262Y-99585530D01*
X129795017Y-99616481D01*
X129799912Y-99665243D01*
X129792976Y-99729503D01*
X129774238Y-99806951D01*
X129745768Y-99890022D01*
X129686812Y-100077448D01*
X129651419Y-100273658D01*
X129640714Y-100412900D01*
X129638716Y-100483678D01*
X129639112Y-100533912D01*
X129642243Y-100568375D01*
X129648448Y-100591840D01*
X129654256Y-100603400D01*
X129678046Y-100644511D01*
X129695080Y-100681712D01*
X129706703Y-100720939D01*
X129714256Y-100768129D01*
X129719082Y-100829219D01*
X129722323Y-100904339D01*
X129728655Y-101084628D01*
X129756008Y-101044039D01*
X129783430Y-101010762D01*
X129804606Y-101001675D01*
X129819571Y-101016871D01*
X129828359Y-101056440D01*
X129831006Y-101120473D01*
X129827546Y-101209063D01*
X129826166Y-101229158D01*
X129821589Y-101297985D01*
X129817830Y-101365610D01*
X129815319Y-101423560D01*
X129814488Y-101458790D01*
X129814100Y-101533131D01*
X129859809Y-101492997D01*
X129894821Y-101467961D01*
X129924670Y-101456752D01*
X129931537Y-101456756D01*
X129954781Y-101464140D01*
X129969242Y-101480515D01*
X129975709Y-101509738D01*
X129974967Y-101555665D01*
X129967805Y-101622155D01*
X129966823Y-101629652D01*
X129956147Y-101754828D01*
X129960088Y-101868049D01*
X129980049Y-101972940D01*
X130017430Y-102073127D01*
X130073632Y-102172238D01*
X130150057Y-102273898D01*
X130248104Y-102381734D01*
X130263383Y-102397275D01*
X130319219Y-102452673D01*
X130359982Y-102490686D01*
X130387599Y-102512798D01*
X130403999Y-102520495D01*
X130411110Y-102515262D01*
X130411706Y-102511575D01*
X130412516Y-102496290D01*
X130414305Y-102460056D01*
X130416861Y-102407294D01*
X130419967Y-102342427D01*
X130422394Y-102291347D01*
X130429685Y-102181433D01*
X130440322Y-102095898D01*
X130454841Y-102033874D01*
X130473781Y-101994496D01*
X130497680Y-101976897D01*
X130527076Y-101980212D01*
X130562505Y-102003574D01*
X130586706Y-102026670D01*
X130637759Y-102079800D01*
X130652207Y-102026142D01*
X130659436Y-101990219D01*
X130667082Y-101937410D01*
X130674009Y-101876183D01*
X130677300Y-101839503D01*
X130682325Y-101783973D01*
X130687541Y-101738398D01*
X130692240Y-101708387D01*
X130694974Y-101699492D01*
X130712446Y-101694662D01*
X130729271Y-101711254D01*
X130742569Y-101745391D01*
X130747290Y-101769914D01*
X130755483Y-101811466D01*
X130766363Y-101844843D01*
X130771796Y-101854920D01*
X130783214Y-101866510D01*
X130796568Y-101865205D01*
X130818646Y-101849051D01*
X130831858Y-101837628D01*
X130855705Y-101812786D01*
X130889749Y-101772210D01*
X130929807Y-101721109D01*
X130971700Y-101664690D01*
X130980307Y-101652698D01*
X131037311Y-101575161D01*
X131083311Y-101518157D01*
X131119795Y-101480103D01*
X131148251Y-101459415D01*
X131166807Y-101454300D01*
X131191962Y-101466025D01*
X131208961Y-101499104D01*
X131216346Y-101550389D01*
X131216542Y-101561731D01*
X131208881Y-101626251D01*
X131184117Y-101674093D01*
X131139577Y-101709481D01*
X131115771Y-101721033D01*
X131068475Y-101751865D01*
X131042674Y-101795096D01*
X131038051Y-101851598D01*
X131049151Y-101906139D01*
X131067714Y-101968650D01*
X131108448Y-101879750D01*
X131181528Y-101724748D01*
X131248010Y-101593243D01*
X131308380Y-101484341D01*
X131363125Y-101397145D01*
X131395142Y-101352700D01*
X131463198Y-101262821D01*
X131515572Y-101190414D01*
X131553352Y-101133871D01*
X131577624Y-101091585D01*
X131587751Y-101067857D01*
X131608378Y-101028304D01*
X131637983Y-101012067D01*
X131678992Y-101017921D01*
X131683466Y-101019543D01*
X131706257Y-101026838D01*
X131724201Y-101026032D01*
X131744068Y-101014188D01*
X131772625Y-100988375D01*
X131786617Y-100974824D01*
X131830266Y-100929740D01*
X131884137Y-100869972D01*
X131945685Y-100798719D01*
X132012363Y-100719179D01*
X132081625Y-100634551D01*
X132150924Y-100548033D01*
X132217716Y-100462823D01*
X132279453Y-100382119D01*
X132333589Y-100309119D01*
X132377579Y-100247022D01*
X132408876Y-100199026D01*
X132420127Y-100179070D01*
X132474473Y-100086957D01*
X132531605Y-100019532D01*
X132569183Y-99989497D01*
X132600484Y-99966881D01*
X132615195Y-99947330D01*
X132618680Y-99921132D01*
X132617820Y-99901415D01*
X132616932Y-99867583D01*
X132623252Y-99851423D01*
X132641735Y-99845305D01*
X132655242Y-99843806D01*
X132696347Y-99828164D01*
X132736511Y-99792107D01*
X132771018Y-99740338D01*
X132781474Y-99717982D01*
X132790500Y-99680533D01*
X132796094Y-99622414D01*
X132798231Y-99548127D01*
X132796885Y-99462173D01*
X132792031Y-99369054D01*
X132783959Y-99276250D01*
X132777706Y-99219609D01*
X132771996Y-99173056D01*
X132767521Y-99141924D01*
X132765208Y-99131575D01*
X132755435Y-99136661D01*
X132737370Y-99155796D01*
X132736404Y-99156975D01*
X132711673Y-99187350D01*
X132697986Y-99151598D01*
X132686513Y-99099112D01*
X132683440Y-99027904D01*
X132688188Y-98943013D01*
X132700177Y-98849476D01*
X132704580Y-98826541D01*
X132808179Y-98826541D01*
X132810868Y-98856540D01*
X132822739Y-98876267D01*
X132843451Y-98888257D01*
X132850576Y-98890514D01*
X132881131Y-98898336D01*
X132900706Y-98899015D01*
X132922741Y-98892381D01*
X132930317Y-98889520D01*
X132952423Y-98873271D01*
X132982647Y-98840635D01*
X133016111Y-98797047D01*
X133025541Y-98783408D01*
X133083749Y-98706747D01*
X133154734Y-98631588D01*
X133241939Y-98554679D01*
X133348808Y-98472767D01*
X133372641Y-98455643D01*
X133423072Y-98418585D01*
X133467141Y-98384065D01*
X133499838Y-98356143D01*
X133515516Y-98339851D01*
X133529702Y-98302200D01*
X133534633Y-98247422D01*
X133530458Y-98181986D01*
X133517326Y-98112361D01*
X133509657Y-98084978D01*
X133480126Y-98015368D01*
X133441197Y-97963586D01*
X133395419Y-97932270D01*
X133353783Y-97923710D01*
X133305565Y-97932477D01*
X133246720Y-97956075D01*
X133183634Y-97990476D01*
X133122698Y-98031654D01*
X133070299Y-98075582D01*
X133032826Y-98118233D01*
X133025044Y-98130927D01*
X133016560Y-98154263D01*
X133005362Y-98195135D01*
X132993423Y-98246116D01*
X132989253Y-98265852D01*
X132975805Y-98319470D01*
X132954967Y-98388287D01*
X132929377Y-98464162D01*
X132901675Y-98538960D01*
X132896091Y-98553129D01*
X132858629Y-98649564D01*
X132831718Y-98725588D01*
X132815015Y-98783735D01*
X132808179Y-98826541D01*
X132704580Y-98826541D01*
X132718830Y-98752333D01*
X132743566Y-98656620D01*
X132761211Y-98601616D01*
X132796054Y-98498597D01*
X132822260Y-98413796D01*
X132841220Y-98342094D01*
X132854324Y-98278374D01*
X132860878Y-98234850D01*
X132867811Y-98187161D01*
X132875005Y-98147576D01*
X132880903Y-98124659D01*
X132880906Y-98124651D01*
X132882907Y-98109623D01*
X132867054Y-98109302D01*
X132862128Y-98110512D01*
X132833820Y-98130681D01*
X132816757Y-98172913D01*
X132811300Y-98233371D01*
X132806760Y-98287510D01*
X132794715Y-98341953D01*
X132777529Y-98389469D01*
X132757564Y-98422830D01*
X132746189Y-98432561D01*
X132713230Y-98440631D01*
X132689206Y-98438822D01*
X132654505Y-98437249D01*
X132624385Y-98453619D01*
X132594915Y-98490731D01*
X132579954Y-98516531D01*
X132550281Y-98588715D01*
X132529445Y-98675455D01*
X132519660Y-98766784D01*
X132519200Y-98790040D01*
X132514432Y-98845327D01*
X132501623Y-98892365D01*
X132483012Y-98925625D01*
X132460839Y-98939579D01*
X132458561Y-98939700D01*
X132431568Y-98928825D01*
X132401317Y-98900754D01*
X132372798Y-98862313D01*
X132350997Y-98820331D01*
X132340902Y-98781635D01*
X132340733Y-98778405D01*
X132338327Y-98764876D01*
X132329575Y-98771219D01*
X132320134Y-98784125D01*
X132292264Y-98808314D01*
X132261671Y-98809857D01*
X132242339Y-98797460D01*
X132234050Y-98776702D01*
X132228820Y-98740005D01*
X132227068Y-98696691D01*
X132229213Y-98656084D01*
X132234808Y-98629588D01*
X132251845Y-98612048D01*
X132262565Y-98609500D01*
X132290895Y-98620020D01*
X132318806Y-98645495D01*
X132337807Y-98676796D01*
X132341400Y-98694263D01*
X132345880Y-98717052D01*
X132353653Y-98723800D01*
X132370787Y-98712860D01*
X132384880Y-98679381D01*
X132396229Y-98622378D01*
X132403542Y-98559098D01*
X132412047Y-98489528D01*
X132424041Y-98440741D01*
X132441801Y-98408149D01*
X132467602Y-98387164D01*
X132494363Y-98376034D01*
X132526323Y-98360817D01*
X132540259Y-98338176D01*
X132542295Y-98326647D01*
X132557368Y-98287914D01*
X132588987Y-98266040D01*
X132632721Y-98263566D01*
X132646799Y-98266771D01*
X132679818Y-98275787D01*
X132701280Y-98277692D01*
X132713289Y-98268758D01*
X132717946Y-98245256D01*
X132717354Y-98203455D01*
X132714087Y-98147402D01*
X132710789Y-98087839D01*
X132710691Y-98082450D01*
X132887500Y-98082450D01*
X132893850Y-98088800D01*
X132900200Y-98082450D01*
X132893850Y-98076100D01*
X132887500Y-98082450D01*
X132710691Y-98082450D01*
X132710065Y-98048213D01*
X132712583Y-98023129D01*
X132719007Y-98007196D01*
X132730005Y-97995021D01*
X132733258Y-97992179D01*
X132756043Y-97957582D01*
X132759845Y-97914869D01*
X132751907Y-97892498D01*
X132886523Y-97892498D01*
X132887374Y-97925277D01*
X132891920Y-97969483D01*
X132892507Y-97973813D01*
X132904942Y-98063785D01*
X132947021Y-98023001D01*
X132980176Y-97980477D01*
X132989100Y-97945960D01*
X132984275Y-97919114D01*
X132965297Y-97901050D01*
X132944090Y-97890897D01*
X132912819Y-97880166D01*
X132891943Y-97877227D01*
X132889576Y-97877966D01*
X132886523Y-97892498D01*
X132751907Y-97892498D01*
X132744843Y-97872594D01*
X132730337Y-97854283D01*
X132702904Y-97835418D01*
X132660088Y-97815053D01*
X132611623Y-97797749D01*
X132529882Y-97768325D01*
X132471883Y-97735432D01*
X132436084Y-97698038D01*
X132424498Y-97672602D01*
X132410138Y-97642225D01*
X132388480Y-97631781D01*
X132383943Y-97631600D01*
X132352244Y-97620005D01*
X132328748Y-97588713D01*
X132316822Y-97542962D01*
X132316000Y-97525904D01*
X132320728Y-97488207D01*
X132338477Y-97456248D01*
X132359180Y-97433480D01*
X132396093Y-97402129D01*
X132425718Y-97392076D01*
X132453219Y-97402480D01*
X132468400Y-97415700D01*
X132487729Y-97448355D01*
X132493799Y-97497339D01*
X132493800Y-97497851D01*
X132495730Y-97533413D01*
X132502514Y-97548012D01*
X132511485Y-97547816D01*
X132529485Y-97552295D01*
X132559490Y-97570900D01*
X132594599Y-97599139D01*
X132680383Y-97662382D01*
X132787363Y-97719529D01*
X132911670Y-97768594D01*
X132947338Y-97780087D01*
X132994197Y-97793714D01*
X133035791Y-97803309D01*
X133078561Y-97809626D01*
X133128948Y-97813422D01*
X133193390Y-97815451D01*
X133255800Y-97816278D01*
X133337986Y-97817004D01*
X133398732Y-97817869D01*
X133441992Y-97819542D01*
X133471718Y-97822686D01*
X133491866Y-97827969D01*
X133506389Y-97836056D01*
X133519241Y-97847614D01*
X133534255Y-97863186D01*
X133554546Y-97888517D01*
X133573908Y-97923674D01*
X133594380Y-97973174D01*
X133618002Y-98041531D01*
X133626006Y-98066386D01*
X133645365Y-98125924D01*
X133662318Y-98175628D01*
X133675288Y-98211057D01*
X133682701Y-98227767D01*
X133683496Y-98228500D01*
X133695699Y-98221809D01*
X133724602Y-98203581D01*
X133765912Y-98176582D01*
X133815339Y-98143576D01*
X133816527Y-98142775D01*
X133872072Y-98105804D01*
X133925505Y-98071089D01*
X133970230Y-98042868D01*
X133996600Y-98027080D01*
X134174174Y-97924730D01*
X134330908Y-97830177D01*
X134469414Y-97741467D01*
X134592307Y-97656644D01*
X134702198Y-97573756D01*
X134801701Y-97490848D01*
X134893429Y-97405965D01*
X134979996Y-97317153D01*
X135048758Y-97240263D01*
X135169999Y-97090836D01*
X135268454Y-96949388D01*
X135344888Y-96814385D01*
X135400066Y-96684293D01*
X135434753Y-96557577D01*
X135449526Y-96436824D01*
X135451008Y-96341253D01*
X135444145Y-96264931D01*
X135427388Y-96202634D01*
X135399187Y-96149140D01*
X135357996Y-96099223D01*
X135345831Y-96087026D01*
X135301214Y-96049164D01*
X135249439Y-96016526D01*
X135188578Y-95988786D01*
X135116702Y-95965616D01*
X135031883Y-95946690D01*
X134932192Y-95931681D01*
X134815702Y-95920262D01*
X134680484Y-95912106D01*
X134524610Y-95906886D01*
X134346150Y-95904276D01*
X134265450Y-95903883D01*
X133871750Y-95902900D01*
X133862387Y-96040175D01*
X133854622Y-96149121D01*
X133845837Y-96264024D01*
X133836369Y-96381131D01*
X133826555Y-96496690D01*
X133816732Y-96606950D01*
X133807237Y-96708158D01*
X133798408Y-96796564D01*
X133790580Y-96868415D01*
X133784092Y-96919960D01*
X133782247Y-96932219D01*
X133768336Y-97002021D01*
X133750536Y-97050213D01*
X133725146Y-97080587D01*
X133688464Y-97096932D01*
X133636788Y-97103038D01*
X133615004Y-97103456D01*
X133565754Y-97101097D01*
X133518823Y-97092490D01*
X133471410Y-97075951D01*
X133420712Y-97049796D01*
X133363926Y-97012340D01*
X133298251Y-96961900D01*
X133220884Y-96896790D01*
X133129022Y-96815326D01*
X133115901Y-96803475D01*
X132906420Y-96617731D01*
X132709248Y-96451104D01*
X132521926Y-96302050D01*
X132341991Y-96169022D01*
X132166983Y-96050475D01*
X131994441Y-95944863D01*
X131821903Y-95850641D01*
X131646908Y-95766263D01*
X131466997Y-95690183D01*
X131279706Y-95620856D01*
X131179350Y-95587210D01*
X131140509Y-95574791D01*
X131604800Y-95574791D01*
X131615510Y-95584693D01*
X131644740Y-95603088D01*
X131688132Y-95627425D01*
X131741332Y-95655154D01*
X131746161Y-95657583D01*
X131944878Y-95761513D01*
X132131843Y-95868639D01*
X132310970Y-95981750D01*
X132486172Y-96103636D01*
X132661365Y-96237086D01*
X132840461Y-96384888D01*
X133027375Y-96549833D01*
X133127602Y-96642041D01*
X133227711Y-96734773D01*
X133311567Y-96811130D01*
X133381035Y-96872540D01*
X133437983Y-96920428D01*
X133484277Y-96956222D01*
X133521783Y-96981346D01*
X133552368Y-96997228D01*
X133577898Y-97005293D01*
X133600239Y-97006967D01*
X133604730Y-97006638D01*
X133629747Y-97000487D01*
X133646758Y-96983611D01*
X133662317Y-96949235D01*
X133663595Y-96945800D01*
X133677457Y-96898004D01*
X133689269Y-96834455D01*
X133699181Y-96753444D01*
X133707342Y-96653264D01*
X133713903Y-96532207D01*
X133719013Y-96388566D01*
X133721561Y-96285400D01*
X133723730Y-96152708D01*
X133723905Y-96042392D01*
X133721837Y-95951486D01*
X133717276Y-95877024D01*
X133709972Y-95816042D01*
X133699675Y-95765575D01*
X133686137Y-95722657D01*
X133671310Y-95688713D01*
X133644939Y-95646517D01*
X133611374Y-95615144D01*
X133568168Y-95594324D01*
X133512872Y-95583787D01*
X133443037Y-95583262D01*
X133356215Y-95592480D01*
X133249957Y-95611170D01*
X133154200Y-95631656D01*
X132995089Y-95663451D01*
X132854013Y-95682194D01*
X132727058Y-95687616D01*
X132610311Y-95679446D01*
X132499858Y-95657416D01*
X132391785Y-95621256D01*
X132284250Y-95571768D01*
X132193829Y-95525197D01*
X132122710Y-95488972D01*
X132067653Y-95461733D01*
X132025416Y-95442121D01*
X131992759Y-95428775D01*
X131966442Y-95420338D01*
X131943222Y-95415450D01*
X131919861Y-95412751D01*
X131902060Y-95411461D01*
X131838121Y-95411883D01*
X131792253Y-95423358D01*
X131786677Y-95426041D01*
X131756706Y-95444391D01*
X131719345Y-95471171D01*
X131680048Y-95501921D01*
X131644268Y-95532180D01*
X131617460Y-95557488D01*
X131605078Y-95573384D01*
X131604800Y-95574791D01*
X131140509Y-95574791D01*
X131096825Y-95560824D01*
X131025483Y-95539335D01*
X130961122Y-95522114D01*
X130899541Y-95508531D01*
X130836539Y-95497956D01*
X130767912Y-95489760D01*
X130689461Y-95483315D01*
X130596983Y-95477989D01*
X130486276Y-95473154D01*
X130394958Y-95469698D01*
X130232579Y-95465015D01*
X130068453Y-95462643D01*
X129905697Y-95462485D01*
X129747428Y-95464442D01*
X129596762Y-95468416D01*
X129456815Y-95474308D01*
X129330704Y-95482019D01*
X129221544Y-95491452D01*
X129132452Y-95502508D01*
X129083850Y-95511128D01*
X128973142Y-95538156D01*
X128850750Y-95574282D01*
X128725454Y-95616510D01*
X128606034Y-95661847D01*
X128501268Y-95707298D01*
X128483140Y-95715995D01*
X128385861Y-95768368D01*
X128292608Y-95827573D01*
X128206585Y-95890860D01*
X128130998Y-95955478D01*
X128069050Y-96018676D01*
X128023946Y-96077702D01*
X127998890Y-96129805D01*
X127998173Y-96132356D01*
X127988800Y-96204208D01*
X127858673Y-96204208D01*
X127866816Y-96149835D01*
X127880944Y-96102111D01*
X127930155Y-95993866D01*
X127995640Y-95894804D01*
X128078384Y-95801609D01*
X128185988Y-95706213D01*
X128308830Y-95621299D01*
X128447829Y-95546637D01*
X128603899Y-95481997D01*
X128777959Y-95427151D01*
X128970924Y-95381868D01*
X129183711Y-95345918D01*
X129417238Y-95319072D01*
X129672420Y-95301100D01*
X129950174Y-95291772D01*
X130118900Y-95290235D01*
X130233498Y-95290340D01*
X130327055Y-95291071D01*
X130403930Y-95292643D01*
X130468478Y-95295274D01*
X130525055Y-95299180D01*
X130578019Y-95304576D01*
X130631727Y-95311680D01*
X130671350Y-95317667D01*
X130813204Y-95343535D01*
X130969400Y-95378476D01*
X131131455Y-95420422D01*
X131290885Y-95467307D01*
X131309676Y-95473244D01*
X131380091Y-95494684D01*
X131431430Y-95506838D01*
X131468406Y-95509329D01*
X131495728Y-95501781D01*
X131518108Y-95483819D01*
X131540256Y-95455066D01*
X131540417Y-95454833D01*
X131606584Y-95379494D01*
X131694536Y-95314724D01*
X131744434Y-95287290D01*
X131785800Y-95268568D01*
X131821270Y-95259435D01*
X131862550Y-95257786D01*
X131897793Y-95259711D01*
G36*
X179592440Y-95394509D02*
G01*
X179651127Y-95401912D01*
X179889221Y-95447333D01*
X180118853Y-95515874D01*
X180338830Y-95606313D01*
X180547962Y-95717434D01*
X180745055Y-95848017D01*
X180928917Y-95996843D01*
X181098358Y-96162693D01*
X181252185Y-96344349D01*
X181389206Y-96540592D01*
X181508229Y-96750203D01*
X181608062Y-96971963D01*
X181687514Y-97204654D01*
X181745392Y-97447057D01*
X181764674Y-97563097D01*
X181774560Y-97652489D01*
X181781444Y-97757446D01*
X181785264Y-97870917D01*
X181785954Y-97985851D01*
X181783451Y-98095197D01*
X181777693Y-98191905D01*
X181770917Y-98253900D01*
X181721703Y-98515855D01*
X181650069Y-98766573D01*
X181556249Y-99005500D01*
X181440481Y-99232082D01*
X181303000Y-99445764D01*
X181213692Y-99563215D01*
X181155743Y-99630296D01*
X181083807Y-99706249D01*
X181003447Y-99785783D01*
X180920226Y-99863608D01*
X180839706Y-99934432D01*
X180767449Y-99992965D01*
X180742189Y-100011692D01*
X180529633Y-100148643D01*
X180306443Y-100262961D01*
X180074088Y-100354016D01*
X179834039Y-100421177D01*
X179744150Y-100439736D01*
X179671710Y-100450353D01*
X179581152Y-100459151D01*
X179478925Y-100465910D01*
X179371479Y-100470412D01*
X179265264Y-100472440D01*
X179166729Y-100471775D01*
X179082326Y-100468200D01*
X179034273Y-100463744D01*
X178787238Y-100420170D01*
X178548558Y-100353002D01*
X178319487Y-100263033D01*
X178101281Y-100151055D01*
X177895196Y-100017863D01*
X177702485Y-99864248D01*
X177524405Y-99691005D01*
X177362211Y-99498927D01*
X177245492Y-99333400D01*
X177124806Y-99124876D01*
X177023240Y-98901224D01*
X176941785Y-98665103D01*
X176881430Y-98419173D01*
X176860235Y-98298350D01*
X176849054Y-98201119D01*
X176841871Y-98086622D01*
X176838684Y-97962394D01*
X176839489Y-97835973D01*
X176844284Y-97714897D01*
X176853067Y-97606704D01*
X176860500Y-97549483D01*
X176912288Y-97295422D01*
X176986887Y-97050566D01*
X177083595Y-96816316D01*
X177201713Y-96594073D01*
X177340538Y-96385237D01*
X177499370Y-96191210D01*
X177585048Y-96101209D01*
X177770323Y-95933430D01*
X177968641Y-95786746D01*
X178178458Y-95661681D01*
X178398232Y-95558755D01*
X178626419Y-95478492D01*
X178861476Y-95421414D01*
X179101861Y-95388042D01*
X179346030Y-95378900D01*
X179592440Y-95394509D01*
X179592440Y-95394509D01*
G37*
X179592440Y-95394509D02*
X179651127Y-95401912D01*
X179889221Y-95447333D01*
X180118853Y-95515874D01*
X180338830Y-95606313D01*
X180547962Y-95717434D01*
X180745055Y-95848017D01*
X180928917Y-95996843D01*
X181098358Y-96162693D01*
X181252185Y-96344349D01*
X181389206Y-96540592D01*
X181508229Y-96750203D01*
X181608062Y-96971963D01*
X181687514Y-97204654D01*
X181745392Y-97447057D01*
X181764674Y-97563097D01*
X181774560Y-97652489D01*
X181781444Y-97757446D01*
X181785264Y-97870917D01*
X181785954Y-97985851D01*
X181783451Y-98095197D01*
X181777693Y-98191905D01*
X181770917Y-98253900D01*
X181721703Y-98515855D01*
X181650069Y-98766573D01*
X181556249Y-99005500D01*
X181440481Y-99232082D01*
X181303000Y-99445764D01*
X181213692Y-99563215D01*
X181155743Y-99630296D01*
X181083807Y-99706249D01*
X181003447Y-99785783D01*
X180920226Y-99863608D01*
X180839706Y-99934432D01*
X180767449Y-99992965D01*
X180742189Y-100011692D01*
X180529633Y-100148643D01*
X180306443Y-100262961D01*
X180074088Y-100354016D01*
X179834039Y-100421177D01*
X179744150Y-100439736D01*
X179671710Y-100450353D01*
X179581152Y-100459151D01*
X179478925Y-100465910D01*
X179371479Y-100470412D01*
X179265264Y-100472440D01*
X179166729Y-100471775D01*
X179082326Y-100468200D01*
X179034273Y-100463744D01*
X178787238Y-100420170D01*
X178548558Y-100353002D01*
X178319487Y-100263033D01*
X178101281Y-100151055D01*
X177895196Y-100017863D01*
X177702485Y-99864248D01*
X177524405Y-99691005D01*
X177362211Y-99498927D01*
X177245492Y-99333400D01*
X177124806Y-99124876D01*
X177023240Y-98901224D01*
X176941785Y-98665103D01*
X176881430Y-98419173D01*
X176860235Y-98298350D01*
X176849054Y-98201119D01*
X176841871Y-98086622D01*
X176838684Y-97962394D01*
X176839489Y-97835973D01*
X176844284Y-97714897D01*
X176853067Y-97606704D01*
X176860500Y-97549483D01*
X176912288Y-97295422D01*
X176986887Y-97050566D01*
X177083595Y-96816316D01*
X177201713Y-96594073D01*
X177340538Y-96385237D01*
X177499370Y-96191210D01*
X177585048Y-96101209D01*
X177770323Y-95933430D01*
X177968641Y-95786746D01*
X178178458Y-95661681D01*
X178398232Y-95558755D01*
X178626419Y-95478492D01*
X178861476Y-95421414D01*
X179101861Y-95388042D01*
X179346030Y-95378900D01*
X179592440Y-95394509D01*
G36*
X111505652Y-95106321D02*
G01*
X111732091Y-95135704D01*
X111955372Y-95186412D01*
X112173920Y-95258373D01*
X112386159Y-95351514D01*
X112590511Y-95465762D01*
X112785403Y-95601044D01*
X112969257Y-95757287D01*
X113140498Y-95934419D01*
X113179123Y-95979527D01*
X113331953Y-96181455D01*
X113462624Y-96394206D01*
X113571088Y-96616104D01*
X113657293Y-96845466D01*
X113721190Y-97080615D01*
X113762729Y-97319871D01*
X113781861Y-97561554D01*
X113778536Y-97803984D01*
X113752704Y-98045483D01*
X113704316Y-98284370D01*
X113633321Y-98518967D01*
X113539671Y-98747593D01*
X113423314Y-98968569D01*
X113284202Y-99180217D01*
X113274305Y-99193700D01*
X113206563Y-99279253D01*
X113125026Y-99372528D01*
X113036062Y-99466858D01*
X112946035Y-99555577D01*
X112861313Y-99632020D01*
X112834200Y-99654553D01*
X112638366Y-99796945D01*
X112429184Y-99918862D01*
X112208983Y-100019622D01*
X111980093Y-100098542D01*
X111744845Y-100154940D01*
X111505568Y-100188133D01*
X111264592Y-100197438D01*
X111030800Y-100182924D01*
X110792214Y-100143461D01*
X110561391Y-100080681D01*
X110339563Y-99995812D01*
X110127963Y-99890083D01*
X109927824Y-99764724D01*
X109740378Y-99620962D01*
X109566857Y-99460028D01*
X109408496Y-99283149D01*
X109266525Y-99091555D01*
X109142178Y-98886474D01*
X109036688Y-98669136D01*
X108951287Y-98440768D01*
X108887207Y-98202601D01*
X108852949Y-98011743D01*
X108843429Y-97922656D01*
X108836906Y-97816351D01*
X108833450Y-97700530D01*
X108833134Y-97582898D01*
X108836030Y-97471159D01*
X108842211Y-97373017D01*
X108846580Y-97331255D01*
X108890455Y-97077210D01*
X108957843Y-96831619D01*
X109048139Y-96595725D01*
X109160738Y-96370771D01*
X109295034Y-96158002D01*
X109450422Y-95958659D01*
X109585640Y-95813529D01*
X109769579Y-95647707D01*
X109964545Y-95503866D01*
X110168961Y-95381933D01*
X110381251Y-95281835D01*
X110599839Y-95203499D01*
X110823149Y-95146852D01*
X111049605Y-95111822D01*
X111277631Y-95098336D01*
X111505652Y-95106321D01*
X111505652Y-95106321D01*
G37*
X111505652Y-95106321D02*
X111732091Y-95135704D01*
X111955372Y-95186412D01*
X112173920Y-95258373D01*
X112386159Y-95351514D01*
X112590511Y-95465762D01*
X112785403Y-95601044D01*
X112969257Y-95757287D01*
X113140498Y-95934419D01*
X113179123Y-95979527D01*
X113331953Y-96181455D01*
X113462624Y-96394206D01*
X113571088Y-96616104D01*
X113657293Y-96845466D01*
X113721190Y-97080615D01*
X113762729Y-97319871D01*
X113781861Y-97561554D01*
X113778536Y-97803984D01*
X113752704Y-98045483D01*
X113704316Y-98284370D01*
X113633321Y-98518967D01*
X113539671Y-98747593D01*
X113423314Y-98968569D01*
X113284202Y-99180217D01*
X113274305Y-99193700D01*
X113206563Y-99279253D01*
X113125026Y-99372528D01*
X113036062Y-99466858D01*
X112946035Y-99555577D01*
X112861313Y-99632020D01*
X112834200Y-99654553D01*
X112638366Y-99796945D01*
X112429184Y-99918862D01*
X112208983Y-100019622D01*
X111980093Y-100098542D01*
X111744845Y-100154940D01*
X111505568Y-100188133D01*
X111264592Y-100197438D01*
X111030800Y-100182924D01*
X110792214Y-100143461D01*
X110561391Y-100080681D01*
X110339563Y-99995812D01*
X110127963Y-99890083D01*
X109927824Y-99764724D01*
X109740378Y-99620962D01*
X109566857Y-99460028D01*
X109408496Y-99283149D01*
X109266525Y-99091555D01*
X109142178Y-98886474D01*
X109036688Y-98669136D01*
X108951287Y-98440768D01*
X108887207Y-98202601D01*
X108852949Y-98011743D01*
X108843429Y-97922656D01*
X108836906Y-97816351D01*
X108833450Y-97700530D01*
X108833134Y-97582898D01*
X108836030Y-97471159D01*
X108842211Y-97373017D01*
X108846580Y-97331255D01*
X108890455Y-97077210D01*
X108957843Y-96831619D01*
X109048139Y-96595725D01*
X109160738Y-96370771D01*
X109295034Y-96158002D01*
X109450422Y-95958659D01*
X109585640Y-95813529D01*
X109769579Y-95647707D01*
X109964545Y-95503866D01*
X110168961Y-95381933D01*
X110381251Y-95281835D01*
X110599839Y-95203499D01*
X110823149Y-95146852D01*
X111049605Y-95111822D01*
X111277631Y-95098336D01*
X111505652Y-95106321D01*
G36*
X129147323Y-99540391D02*
G01*
X129143931Y-99565765D01*
X129126846Y-99592712D01*
X129106564Y-99614098D01*
X129072445Y-99645527D01*
X129028585Y-99683666D01*
X128979081Y-99725182D01*
X128928028Y-99766744D01*
X128879522Y-99805017D01*
X128837661Y-99836671D01*
X128806538Y-99858371D01*
X128790252Y-99866786D01*
X128789970Y-99866800D01*
X128769237Y-99857611D01*
X128766115Y-99853720D01*
X128766386Y-99831794D01*
X128782822Y-99797593D01*
X128811971Y-99754972D01*
X128850381Y-99707791D01*
X128894599Y-99659906D01*
X128941172Y-99615176D01*
X128986649Y-99577458D01*
X129027576Y-99550610D01*
X129044359Y-99542806D01*
X129095778Y-99527848D01*
X129130686Y-99527398D01*
X129147323Y-99540391D01*
X129147323Y-99540391D01*
G37*
X129147323Y-99540391D02*
X129143931Y-99565765D01*
X129126846Y-99592712D01*
X129106564Y-99614098D01*
X129072445Y-99645527D01*
X129028585Y-99683666D01*
X128979081Y-99725182D01*
X128928028Y-99766744D01*
X128879522Y-99805017D01*
X128837661Y-99836671D01*
X128806538Y-99858371D01*
X128790252Y-99866786D01*
X128789970Y-99866800D01*
X128769237Y-99857611D01*
X128766115Y-99853720D01*
X128766386Y-99831794D01*
X128782822Y-99797593D01*
X128811971Y-99754972D01*
X128850381Y-99707791D01*
X128894599Y-99659906D01*
X128941172Y-99615176D01*
X128986649Y-99577458D01*
X129027576Y-99550610D01*
X129044359Y-99542806D01*
X129095778Y-99527848D01*
X129130686Y-99527398D01*
X129147323Y-99540391D01*
G36*
X144953476Y-70780425D02*
G01*
X145056444Y-70783409D01*
X145147553Y-70789038D01*
X145206500Y-70795387D01*
X145449198Y-70841603D01*
X145682969Y-70910855D01*
X145906621Y-71001985D01*
X146118958Y-71113836D01*
X146318790Y-71245250D01*
X146504921Y-71395068D01*
X146676159Y-71562134D01*
X146831311Y-71745288D01*
X146969183Y-71943374D01*
X147088583Y-72155233D01*
X147188317Y-72379708D01*
X147267191Y-72615641D01*
X147321382Y-72847550D01*
X147355657Y-73096409D01*
X147365975Y-73343048D01*
X147353217Y-73586101D01*
X147318260Y-73824205D01*
X147261984Y-74055994D01*
X147185268Y-74280105D01*
X147088989Y-74495173D01*
X146974028Y-74699833D01*
X146841263Y-74892723D01*
X146691572Y-75072476D01*
X146525835Y-75237729D01*
X146344931Y-75387117D01*
X146149737Y-75519276D01*
X145941134Y-75632842D01*
X145720000Y-75726451D01*
X145487214Y-75798737D01*
X145408216Y-75817629D01*
X145243428Y-75847734D01*
X145071862Y-75867323D01*
X144902048Y-75875798D01*
X144742519Y-75872565D01*
X144685800Y-75868087D01*
X144433806Y-75831459D01*
X144191760Y-75771959D01*
X143960535Y-75689839D01*
X143777750Y-75604832D01*
X143561828Y-75478810D01*
X143361464Y-75333399D01*
X143177580Y-75169971D01*
X143011096Y-74989896D01*
X142862936Y-74794544D01*
X142734021Y-74585288D01*
X142625273Y-74363496D01*
X142537613Y-74130541D01*
X142471964Y-73887793D01*
X142429247Y-73636623D01*
X142424219Y-73592097D01*
X142417856Y-73504124D01*
X142414927Y-73400637D01*
X142415235Y-73288542D01*
X142418587Y-73174748D01*
X142424786Y-73066161D01*
X142433638Y-72969689D01*
X142443817Y-72898350D01*
X142501262Y-72642675D01*
X142579006Y-72401475D01*
X142677782Y-72173026D01*
X142798325Y-71955604D01*
X142923782Y-71770955D01*
X142978104Y-71702730D01*
X143046590Y-71624373D01*
X143123639Y-71541699D01*
X143203648Y-71460528D01*
X143281014Y-71386676D01*
X143350134Y-71325961D01*
X143360483Y-71317509D01*
X143556041Y-71175870D01*
X143766635Y-71053314D01*
X143989101Y-70951207D01*
X144220273Y-70870913D01*
X144456988Y-70813797D01*
X144571500Y-70795037D01*
X144647663Y-70787394D01*
X144741663Y-70782414D01*
X144846075Y-70780092D01*
X144953476Y-70780425D01*
X144953476Y-70780425D01*
G37*
X144953476Y-70780425D02*
X145056444Y-70783409D01*
X145147553Y-70789038D01*
X145206500Y-70795387D01*
X145449198Y-70841603D01*
X145682969Y-70910855D01*
X145906621Y-71001985D01*
X146118958Y-71113836D01*
X146318790Y-71245250D01*
X146504921Y-71395068D01*
X146676159Y-71562134D01*
X146831311Y-71745288D01*
X146969183Y-71943374D01*
X147088583Y-72155233D01*
X147188317Y-72379708D01*
X147267191Y-72615641D01*
X147321382Y-72847550D01*
X147355657Y-73096409D01*
X147365975Y-73343048D01*
X147353217Y-73586101D01*
X147318260Y-73824205D01*
X147261984Y-74055994D01*
X147185268Y-74280105D01*
X147088989Y-74495173D01*
X146974028Y-74699833D01*
X146841263Y-74892723D01*
X146691572Y-75072476D01*
X146525835Y-75237729D01*
X146344931Y-75387117D01*
X146149737Y-75519276D01*
X145941134Y-75632842D01*
X145720000Y-75726451D01*
X145487214Y-75798737D01*
X145408216Y-75817629D01*
X145243428Y-75847734D01*
X145071862Y-75867323D01*
X144902048Y-75875798D01*
X144742519Y-75872565D01*
X144685800Y-75868087D01*
X144433806Y-75831459D01*
X144191760Y-75771959D01*
X143960535Y-75689839D01*
X143777750Y-75604832D01*
X143561828Y-75478810D01*
X143361464Y-75333399D01*
X143177580Y-75169971D01*
X143011096Y-74989896D01*
X142862936Y-74794544D01*
X142734021Y-74585288D01*
X142625273Y-74363496D01*
X142537613Y-74130541D01*
X142471964Y-73887793D01*
X142429247Y-73636623D01*
X142424219Y-73592097D01*
X142417856Y-73504124D01*
X142414927Y-73400637D01*
X142415235Y-73288542D01*
X142418587Y-73174748D01*
X142424786Y-73066161D01*
X142433638Y-72969689D01*
X142443817Y-72898350D01*
X142501262Y-72642675D01*
X142579006Y-72401475D01*
X142677782Y-72173026D01*
X142798325Y-71955604D01*
X142923782Y-71770955D01*
X142978104Y-71702730D01*
X143046590Y-71624373D01*
X143123639Y-71541699D01*
X143203648Y-71460528D01*
X143281014Y-71386676D01*
X143350134Y-71325961D01*
X143360483Y-71317509D01*
X143556041Y-71175870D01*
X143766635Y-71053314D01*
X143989101Y-70951207D01*
X144220273Y-70870913D01*
X144456988Y-70813797D01*
X144571500Y-70795037D01*
X144647663Y-70787394D01*
X144741663Y-70782414D01*
X144846075Y-70780092D01*
X144953476Y-70780425D01*
G36*
X130643680Y-101369121D02*
G01*
X130657189Y-101381422D01*
X130663704Y-101408681D01*
X130665000Y-101442902D01*
X130657303Y-101526381D01*
X130634708Y-101592633D01*
X130598289Y-101639202D01*
X130567469Y-101662436D01*
X130545852Y-101667981D01*
X130524833Y-101656261D01*
X130511277Y-101643477D01*
X130491816Y-101613446D01*
X130492112Y-101578963D01*
X130506980Y-101530306D01*
X130530634Y-101480570D01*
X130559540Y-101434647D01*
X130590162Y-101397432D01*
X130618967Y-101373816D01*
X130642419Y-101368695D01*
X130643680Y-101369121D01*
X130643680Y-101369121D01*
G37*
X130643680Y-101369121D02*
X130657189Y-101381422D01*
X130663704Y-101408681D01*
X130665000Y-101442902D01*
X130657303Y-101526381D01*
X130634708Y-101592633D01*
X130598289Y-101639202D01*
X130567469Y-101662436D01*
X130545852Y-101667981D01*
X130524833Y-101656261D01*
X130511277Y-101643477D01*
X130491816Y-101613446D01*
X130492112Y-101578963D01*
X130506980Y-101530306D01*
X130530634Y-101480570D01*
X130559540Y-101434647D01*
X130590162Y-101397432D01*
X130618967Y-101373816D01*
X130642419Y-101368695D01*
X130643680Y-101369121D01*
G36*
X130193207Y-100507164D02*
G01*
X130203247Y-100522537D01*
X130206436Y-100545993D01*
X130203249Y-100584408D01*
X130200086Y-100606911D01*
X130194008Y-100650366D01*
X130192971Y-100674051D01*
X130198058Y-100683284D01*
X130210350Y-100683385D01*
X130215467Y-100682456D01*
X130237807Y-100682013D01*
X130250103Y-100693738D01*
X130253378Y-100721321D01*
X130248658Y-100768455D01*
X130245335Y-100790074D01*
X130239279Y-100835888D01*
X130232737Y-100899173D01*
X130226444Y-100972031D01*
X130221135Y-101046564D01*
X130220523Y-101056511D01*
X130215623Y-101123614D01*
X130209680Y-101183291D01*
X130203349Y-101230113D01*
X130197286Y-101258648D01*
X130195588Y-101262886D01*
X130172714Y-101285190D01*
X130144164Y-101285608D01*
X130116460Y-101264534D01*
X130111614Y-101257805D01*
X130102065Y-101237795D01*
X130096433Y-101209852D01*
X130094197Y-101168615D01*
X130094834Y-101108725D01*
X130095357Y-101090951D01*
X130097044Y-101030946D01*
X130096949Y-100991458D01*
X130094209Y-100967621D01*
X130087960Y-100954568D01*
X130077341Y-100947432D01*
X130069336Y-100944271D01*
X130055185Y-100937962D01*
X130046696Y-100928307D01*
X130042926Y-100910024D01*
X130042935Y-100877830D01*
X130045781Y-100826443D01*
X130046451Y-100815850D01*
X130056450Y-100726522D01*
X130073748Y-100646319D01*
X130096916Y-100579788D01*
X130124523Y-100531470D01*
X130141391Y-100514062D01*
X130165565Y-100497634D01*
X130181159Y-100497409D01*
X130193207Y-100507164D01*
X130193207Y-100507164D01*
G37*
X130193207Y-100507164D02*
X130203247Y-100522537D01*
X130206436Y-100545993D01*
X130203249Y-100584408D01*
X130200086Y-100606911D01*
X130194008Y-100650366D01*
X130192971Y-100674051D01*
X130198058Y-100683284D01*
X130210350Y-100683385D01*
X130215467Y-100682456D01*
X130237807Y-100682013D01*
X130250103Y-100693738D01*
X130253378Y-100721321D01*
X130248658Y-100768455D01*
X130245335Y-100790074D01*
X130239279Y-100835888D01*
X130232737Y-100899173D01*
X130226444Y-100972031D01*
X130221135Y-101046564D01*
X130220523Y-101056511D01*
X130215623Y-101123614D01*
X130209680Y-101183291D01*
X130203349Y-101230113D01*
X130197286Y-101258648D01*
X130195588Y-101262886D01*
X130172714Y-101285190D01*
X130144164Y-101285608D01*
X130116460Y-101264534D01*
X130111614Y-101257805D01*
X130102065Y-101237795D01*
X130096433Y-101209852D01*
X130094197Y-101168615D01*
X130094834Y-101108725D01*
X130095357Y-101090951D01*
X130097044Y-101030946D01*
X130096949Y-100991458D01*
X130094209Y-100967621D01*
X130087960Y-100954568D01*
X130077341Y-100947432D01*
X130069336Y-100944271D01*
X130055185Y-100937962D01*
X130046696Y-100928307D01*
X130042926Y-100910024D01*
X130042935Y-100877830D01*
X130045781Y-100826443D01*
X130046451Y-100815850D01*
X130056450Y-100726522D01*
X130073748Y-100646319D01*
X130096916Y-100579788D01*
X130124523Y-100531470D01*
X130141391Y-100514062D01*
X130165565Y-100497634D01*
X130181159Y-100497409D01*
X130193207Y-100507164D01*
G36*
X131421474Y-100608308D02*
G01*
X131433081Y-100616340D01*
X131438419Y-100632923D01*
X131438416Y-100664113D01*
X131435544Y-100699937D01*
X131425524Y-100769330D01*
X131408697Y-100847110D01*
X131387501Y-100924087D01*
X131364375Y-100991075D01*
X131349076Y-101025675D01*
X131326067Y-101059289D01*
X131303452Y-101072527D01*
X131284787Y-101064036D01*
X131278539Y-101052547D01*
X131275761Y-101024219D01*
X131279772Y-100977531D01*
X131289235Y-100918191D01*
X131302813Y-100851903D01*
X131319169Y-100784373D01*
X131336967Y-100721307D01*
X131354868Y-100668412D01*
X131371537Y-100631392D01*
X131379992Y-100619565D01*
X131405996Y-100606693D01*
X131421474Y-100608308D01*
X131421474Y-100608308D01*
G37*
X131421474Y-100608308D02*
X131433081Y-100616340D01*
X131438419Y-100632923D01*
X131438416Y-100664113D01*
X131435544Y-100699937D01*
X131425524Y-100769330D01*
X131408697Y-100847110D01*
X131387501Y-100924087D01*
X131364375Y-100991075D01*
X131349076Y-101025675D01*
X131326067Y-101059289D01*
X131303452Y-101072527D01*
X131284787Y-101064036D01*
X131278539Y-101052547D01*
X131275761Y-101024219D01*
X131279772Y-100977531D01*
X131289235Y-100918191D01*
X131302813Y-100851903D01*
X131319169Y-100784373D01*
X131336967Y-100721307D01*
X131354868Y-100668412D01*
X131371537Y-100631392D01*
X131379992Y-100619565D01*
X131405996Y-100606693D01*
X131421474Y-100608308D01*
G36*
X132380221Y-99387589D02*
G01*
X132387354Y-99400972D01*
X132391691Y-99429173D01*
X132394418Y-99477014D01*
X132394861Y-99488975D01*
X132395360Y-99610567D01*
X132388330Y-99720672D01*
X132374349Y-99817062D01*
X132353996Y-99897511D01*
X132327849Y-99959791D01*
X132296489Y-100001676D01*
X132260492Y-100020938D01*
X132256459Y-100021558D01*
X132239652Y-100026723D01*
X132222946Y-100040519D01*
X132203352Y-100066770D01*
X132177878Y-100109298D01*
X132153998Y-100152550D01*
X132105775Y-100236258D01*
X132064302Y-100297313D01*
X132029893Y-100335397D01*
X132002863Y-100350192D01*
X131983527Y-100341382D01*
X131977655Y-100330254D01*
X131973855Y-100304395D01*
X131979664Y-100268163D01*
X131996012Y-100218728D01*
X132023832Y-100153266D01*
X132063193Y-100070697D01*
X132105686Y-99988734D01*
X132143360Y-99925959D01*
X132179368Y-99877442D01*
X132203961Y-99850628D01*
X132237251Y-99814668D01*
X132262647Y-99779162D01*
X132282110Y-99739005D01*
X132297602Y-99689090D01*
X132311083Y-99624308D01*
X132324516Y-99539555D01*
X132325183Y-99534964D01*
X132335151Y-99469919D01*
X132343482Y-99426222D01*
X132351312Y-99399973D01*
X132359777Y-99387272D01*
X132369106Y-99384200D01*
X132380221Y-99387589D01*
X132380221Y-99387589D01*
G37*
X132380221Y-99387589D02*
X132387354Y-99400972D01*
X132391691Y-99429173D01*
X132394418Y-99477014D01*
X132394861Y-99488975D01*
X132395360Y-99610567D01*
X132388330Y-99720672D01*
X132374349Y-99817062D01*
X132353996Y-99897511D01*
X132327849Y-99959791D01*
X132296489Y-100001676D01*
X132260492Y-100020938D01*
X132256459Y-100021558D01*
X132239652Y-100026723D01*
X132222946Y-100040519D01*
X132203352Y-100066770D01*
X132177878Y-100109298D01*
X132153998Y-100152550D01*
X132105775Y-100236258D01*
X132064302Y-100297313D01*
X132029893Y-100335397D01*
X132002863Y-100350192D01*
X131983527Y-100341382D01*
X131977655Y-100330254D01*
X131973855Y-100304395D01*
X131979664Y-100268163D01*
X131996012Y-100218728D01*
X132023832Y-100153266D01*
X132063193Y-100070697D01*
X132105686Y-99988734D01*
X132143360Y-99925959D01*
X132179368Y-99877442D01*
X132203961Y-99850628D01*
X132237251Y-99814668D01*
X132262647Y-99779162D01*
X132282110Y-99739005D01*
X132297602Y-99689090D01*
X132311083Y-99624308D01*
X132324516Y-99539555D01*
X132325183Y-99534964D01*
X132335151Y-99469919D01*
X132343482Y-99426222D01*
X132351312Y-99399973D01*
X132359777Y-99387272D01*
X132369106Y-99384200D01*
X132380221Y-99387589D01*
G36*
X130015790Y-99450962D02*
G01*
X130024234Y-99484984D01*
X130022381Y-99541653D01*
X130022251Y-99542929D01*
X130019343Y-99596151D01*
X130024012Y-99625479D01*
X130028422Y-99630875D01*
X130044008Y-99653911D01*
X130040587Y-99692268D01*
X130018051Y-99746266D01*
X129976288Y-99816228D01*
X129953426Y-99849824D01*
X129925886Y-99894565D01*
X129904551Y-99939168D01*
X129894823Y-99970610D01*
X129883371Y-100013174D01*
X129867038Y-100034468D01*
X129847605Y-100032812D01*
X129838221Y-100024009D01*
X129824807Y-99991326D01*
X129821091Y-99942278D01*
X129826594Y-99883771D01*
X129840838Y-99822715D01*
X129854848Y-99784250D01*
X129874805Y-99726973D01*
X129890741Y-99662393D01*
X129896640Y-99625500D01*
X129910128Y-99544917D01*
X129930271Y-99487922D01*
X129957475Y-99453487D01*
X129966236Y-99447840D01*
X129996606Y-99438832D01*
X130015790Y-99450962D01*
X130015790Y-99450962D01*
G37*
X130015790Y-99450962D02*
X130024234Y-99484984D01*
X130022381Y-99541653D01*
X130022251Y-99542929D01*
X130019343Y-99596151D01*
X130024012Y-99625479D01*
X130028422Y-99630875D01*
X130044008Y-99653911D01*
X130040587Y-99692268D01*
X130018051Y-99746266D01*
X129976288Y-99816228D01*
X129953426Y-99849824D01*
X129925886Y-99894565D01*
X129904551Y-99939168D01*
X129894823Y-99970610D01*
X129883371Y-100013174D01*
X129867038Y-100034468D01*
X129847605Y-100032812D01*
X129838221Y-100024009D01*
X129824807Y-99991326D01*
X129821091Y-99942278D01*
X129826594Y-99883771D01*
X129840838Y-99822715D01*
X129854848Y-99784250D01*
X129874805Y-99726973D01*
X129890741Y-99662393D01*
X129896640Y-99625500D01*
X129910128Y-99544917D01*
X129930271Y-99487922D01*
X129957475Y-99453487D01*
X129966236Y-99447840D01*
X129996606Y-99438832D01*
X130015790Y-99450962D01*
G36*
X132558607Y-99317183D02*
G01*
X132564499Y-99321405D01*
X132575150Y-99343257D01*
X132581149Y-99381759D01*
X132582422Y-99428578D01*
X132578893Y-99475381D01*
X132570489Y-99513833D01*
X132566319Y-99523900D01*
X132541350Y-99551683D01*
X132509367Y-99559077D01*
X132478138Y-99544456D01*
X132476332Y-99542718D01*
X132459634Y-99509524D01*
X132458005Y-99464050D01*
X132470015Y-99413324D01*
X132494231Y-99364376D01*
X132518936Y-99333663D01*
X132541480Y-99315894D01*
X132558607Y-99317183D01*
X132558607Y-99317183D01*
G37*
X132558607Y-99317183D02*
X132564499Y-99321405D01*
X132575150Y-99343257D01*
X132581149Y-99381759D01*
X132582422Y-99428578D01*
X132578893Y-99475381D01*
X132570489Y-99513833D01*
X132566319Y-99523900D01*
X132541350Y-99551683D01*
X132509367Y-99559077D01*
X132478138Y-99544456D01*
X132476332Y-99542718D01*
X132459634Y-99509524D01*
X132458005Y-99464050D01*
X132470015Y-99413324D01*
X132494231Y-99364376D01*
X132518936Y-99333663D01*
X132541480Y-99315894D01*
X132558607Y-99317183D01*
G36*
X130833485Y-99246233D02*
G01*
X130851013Y-99269038D01*
X130874903Y-99299137D01*
X130901120Y-99322318D01*
X130933225Y-99339452D01*
X130974778Y-99351414D01*
X131029337Y-99359075D01*
X131100464Y-99363311D01*
X131191717Y-99364993D01*
X131242850Y-99365150D01*
X131327305Y-99365004D01*
X131390513Y-99364282D01*
X131436626Y-99362556D01*
X131469797Y-99359397D01*
X131494178Y-99354377D01*
X131513921Y-99347069D01*
X131533179Y-99337044D01*
X131537088Y-99334818D01*
X131582875Y-99314843D01*
X131613644Y-99315026D01*
X131628521Y-99334426D01*
X131626631Y-99372103D01*
X131612150Y-99415514D01*
X131588733Y-99452174D01*
X131550825Y-99479589D01*
X131494091Y-99500395D01*
X131458648Y-99508862D01*
X131399056Y-99518214D01*
X131325118Y-99525081D01*
X131245356Y-99529130D01*
X131168295Y-99530031D01*
X131102458Y-99527454D01*
X131070772Y-99523925D01*
X130980050Y-99503158D01*
X130900485Y-99472421D01*
X130837786Y-99434149D01*
X130817047Y-99415586D01*
X130791560Y-99386414D01*
X130778505Y-99359823D01*
X130773781Y-99324844D01*
X130773251Y-99298404D01*
X130776847Y-99249040D01*
X130788117Y-99223878D01*
X130807012Y-99222936D01*
X130833485Y-99246233D01*
X130833485Y-99246233D01*
G37*
X130833485Y-99246233D02*
X130851013Y-99269038D01*
X130874903Y-99299137D01*
X130901120Y-99322318D01*
X130933225Y-99339452D01*
X130974778Y-99351414D01*
X131029337Y-99359075D01*
X131100464Y-99363311D01*
X131191717Y-99364993D01*
X131242850Y-99365150D01*
X131327305Y-99365004D01*
X131390513Y-99364282D01*
X131436626Y-99362556D01*
X131469797Y-99359397D01*
X131494178Y-99354377D01*
X131513921Y-99347069D01*
X131533179Y-99337044D01*
X131537088Y-99334818D01*
X131582875Y-99314843D01*
X131613644Y-99315026D01*
X131628521Y-99334426D01*
X131626631Y-99372103D01*
X131612150Y-99415514D01*
X131588733Y-99452174D01*
X131550825Y-99479589D01*
X131494091Y-99500395D01*
X131458648Y-99508862D01*
X131399056Y-99518214D01*
X131325118Y-99525081D01*
X131245356Y-99529130D01*
X131168295Y-99530031D01*
X131102458Y-99527454D01*
X131070772Y-99523925D01*
X130980050Y-99503158D01*
X130900485Y-99472421D01*
X130837786Y-99434149D01*
X130817047Y-99415586D01*
X130791560Y-99386414D01*
X130778505Y-99359823D01*
X130773781Y-99324844D01*
X130773251Y-99298404D01*
X130776847Y-99249040D01*
X130788117Y-99223878D01*
X130807012Y-99222936D01*
X130833485Y-99246233D01*
G36*
X132139062Y-98221377D02*
G01*
X132166880Y-98238187D01*
X132172117Y-98266352D01*
X132165438Y-98286686D01*
X132139714Y-98316319D01*
X132096746Y-98340157D01*
X132044462Y-98355820D01*
X131990789Y-98360932D01*
X131943806Y-98353170D01*
X131916014Y-98335222D01*
X131909186Y-98311893D01*
X131920273Y-98286079D01*
X131946223Y-98260675D01*
X131983988Y-98238575D01*
X132030517Y-98222675D01*
X132082759Y-98215869D01*
X132088535Y-98215800D01*
X132139062Y-98221377D01*
X132139062Y-98221377D01*
G37*
X132139062Y-98221377D02*
X132166880Y-98238187D01*
X132172117Y-98266352D01*
X132165438Y-98286686D01*
X132139714Y-98316319D01*
X132096746Y-98340157D01*
X132044462Y-98355820D01*
X131990789Y-98360932D01*
X131943806Y-98353170D01*
X131916014Y-98335222D01*
X131909186Y-98311893D01*
X131920273Y-98286079D01*
X131946223Y-98260675D01*
X131983988Y-98238575D01*
X132030517Y-98222675D01*
X132082759Y-98215869D01*
X132088535Y-98215800D01*
X132139062Y-98221377D01*
G36*
X131148677Y-98109741D02*
G01*
X131169411Y-98140088D01*
X131173000Y-98163324D01*
X131162848Y-98203502D01*
X131136895Y-98229855D01*
X131101897Y-98240240D01*
X131064606Y-98232511D01*
X131033998Y-98207453D01*
X131017017Y-98181946D01*
X131016239Y-98163098D01*
X131024847Y-98147128D01*
X131049432Y-98121557D01*
X131076547Y-98103657D01*
X131115433Y-98096182D01*
X131148677Y-98109741D01*
X131148677Y-98109741D01*
G37*
X131148677Y-98109741D02*
X131169411Y-98140088D01*
X131173000Y-98163324D01*
X131162848Y-98203502D01*
X131136895Y-98229855D01*
X131101897Y-98240240D01*
X131064606Y-98232511D01*
X131033998Y-98207453D01*
X131017017Y-98181946D01*
X131016239Y-98163098D01*
X131024847Y-98147128D01*
X131049432Y-98121557D01*
X131076547Y-98103657D01*
X131115433Y-98096182D01*
X131148677Y-98109741D01*
G36*
X129528199Y-96411301D02*
G01*
X129553284Y-96424548D01*
X129560100Y-96442860D01*
X129550625Y-96457568D01*
X129524868Y-96483781D01*
X129486830Y-96517713D01*
X129443278Y-96553400D01*
X129383446Y-96602047D01*
X129318615Y-96657084D01*
X129258633Y-96710060D01*
X129230553Y-96735939D01*
X129161339Y-96800359D01*
X129107192Y-96848616D01*
X129065444Y-96882729D01*
X129033424Y-96904716D01*
X129008464Y-96916595D01*
X128987893Y-96920385D01*
X128986555Y-96920400D01*
X128957802Y-96914358D01*
X128943953Y-96892182D01*
X128943113Y-96889042D01*
X128943077Y-96858560D01*
X128958261Y-96822292D01*
X128990245Y-96777896D01*
X129040608Y-96723035D01*
X129083683Y-96680909D01*
X129138835Y-96630910D01*
X129200867Y-96578534D01*
X129264214Y-96528137D01*
X129323311Y-96484071D01*
X129372592Y-96450693D01*
X129393595Y-96438416D01*
X129443031Y-96418093D01*
X129489673Y-96409101D01*
X129528199Y-96411301D01*
X129528199Y-96411301D01*
G37*
X129528199Y-96411301D02*
X129553284Y-96424548D01*
X129560100Y-96442860D01*
X129550625Y-96457568D01*
X129524868Y-96483781D01*
X129486830Y-96517713D01*
X129443278Y-96553400D01*
X129383446Y-96602047D01*
X129318615Y-96657084D01*
X129258633Y-96710060D01*
X129230553Y-96735939D01*
X129161339Y-96800359D01*
X129107192Y-96848616D01*
X129065444Y-96882729D01*
X129033424Y-96904716D01*
X129008464Y-96916595D01*
X128987893Y-96920385D01*
X128986555Y-96920400D01*
X128957802Y-96914358D01*
X128943953Y-96892182D01*
X128943113Y-96889042D01*
X128943077Y-96858560D01*
X128958261Y-96822292D01*
X128990245Y-96777896D01*
X129040608Y-96723035D01*
X129083683Y-96680909D01*
X129138835Y-96630910D01*
X129200867Y-96578534D01*
X129264214Y-96528137D01*
X129323311Y-96484071D01*
X129372592Y-96450693D01*
X129393595Y-96438416D01*
X129443031Y-96418093D01*
X129489673Y-96409101D01*
X129528199Y-96411301D01*
G36*
X129142478Y-96463726D02*
G01*
X129162290Y-96483796D01*
X129161312Y-96516219D01*
X129139735Y-96560154D01*
X129097750Y-96614761D01*
X129055652Y-96659554D01*
X128976033Y-96732958D01*
X128906276Y-96784184D01*
X128846705Y-96813082D01*
X128797640Y-96819504D01*
X128759405Y-96803301D01*
X128754576Y-96798861D01*
X128730784Y-96759069D01*
X128722630Y-96708183D01*
X128724022Y-96689916D01*
X128728483Y-96673535D01*
X128740077Y-96664350D01*
X128764927Y-96660070D01*
X128808194Y-96658422D01*
X128861476Y-96655807D01*
X128889901Y-96650499D01*
X128893888Y-96642278D01*
X128873860Y-96630925D01*
X128866536Y-96628083D01*
X128825777Y-96605759D01*
X128807336Y-96578465D01*
X128811738Y-96550345D01*
X128821987Y-96538206D01*
X128840476Y-96531015D01*
X128872917Y-96527578D01*
X128924853Y-96526700D01*
X128975265Y-96526234D01*
X129006405Y-96523622D01*
X129024399Y-96517037D01*
X129035372Y-96504655D01*
X129042053Y-96491775D01*
X129060206Y-96466423D01*
X129087809Y-96457360D01*
X129101686Y-96456850D01*
X129142478Y-96463726D01*
X129142478Y-96463726D01*
G37*
X129142478Y-96463726D02*
X129162290Y-96483796D01*
X129161312Y-96516219D01*
X129139735Y-96560154D01*
X129097750Y-96614761D01*
X129055652Y-96659554D01*
X128976033Y-96732958D01*
X128906276Y-96784184D01*
X128846705Y-96813082D01*
X128797640Y-96819504D01*
X128759405Y-96803301D01*
X128754576Y-96798861D01*
X128730784Y-96759069D01*
X128722630Y-96708183D01*
X128724022Y-96689916D01*
X128728483Y-96673535D01*
X128740077Y-96664350D01*
X128764927Y-96660070D01*
X128808194Y-96658422D01*
X128861476Y-96655807D01*
X128889901Y-96650499D01*
X128893888Y-96642278D01*
X128873860Y-96630925D01*
X128866536Y-96628083D01*
X128825777Y-96605759D01*
X128807336Y-96578465D01*
X128811738Y-96550345D01*
X128821987Y-96538206D01*
X128840476Y-96531015D01*
X128872917Y-96527578D01*
X128924853Y-96526700D01*
X128975265Y-96526234D01*
X129006405Y-96523622D01*
X129024399Y-96517037D01*
X129035372Y-96504655D01*
X129042053Y-96491775D01*
X129060206Y-96466423D01*
X129087809Y-96457360D01*
X129101686Y-96456850D01*
X129142478Y-96463726D01*
G36*
X133446126Y-98084331D02*
G01*
X133462802Y-98094416D01*
X133481135Y-98118344D01*
X133479579Y-98139575D01*
X133457509Y-98166490D01*
X133457435Y-98166564D01*
X133437555Y-98182322D01*
X133414015Y-98188581D01*
X133377588Y-98187199D01*
X133362921Y-98185590D01*
X133320643Y-98182321D01*
X133292934Y-98186456D01*
X133269499Y-98200224D01*
X133260326Y-98207796D01*
X133244426Y-98223062D01*
X133233782Y-98239914D01*
X133226899Y-98264035D01*
X133222278Y-98301109D01*
X133218424Y-98356818D01*
X133217668Y-98369746D01*
X133211949Y-98442479D01*
X133203299Y-98496028D01*
X133189857Y-98536585D01*
X133169763Y-98570344D01*
X133150399Y-98593625D01*
X133120958Y-98614773D01*
X133089518Y-98621460D01*
X133064520Y-98612956D01*
X133056639Y-98601708D01*
X133057144Y-98579329D01*
X133066804Y-98543539D01*
X133077574Y-98515983D01*
X133097033Y-98468773D01*
X133114157Y-98422019D01*
X133120394Y-98402434D01*
X133126388Y-98363169D01*
X133114494Y-98340446D01*
X133082221Y-98331043D01*
X133064664Y-98330294D01*
X133026619Y-98320883D01*
X133005024Y-98295744D01*
X133001800Y-98277201D01*
X133012721Y-98246272D01*
X133042376Y-98209841D01*
X133086100Y-98172290D01*
X133139226Y-98138000D01*
X133163185Y-98125642D01*
X133222960Y-98102354D01*
X133287137Y-98085954D01*
X133349720Y-98077067D01*
X133404714Y-98076317D01*
X133446126Y-98084331D01*
X133446126Y-98084331D01*
G37*
X133446126Y-98084331D02*
X133462802Y-98094416D01*
X133481135Y-98118344D01*
X133479579Y-98139575D01*
X133457509Y-98166490D01*
X133457435Y-98166564D01*
X133437555Y-98182322D01*
X133414015Y-98188581D01*
X133377588Y-98187199D01*
X133362921Y-98185590D01*
X133320643Y-98182321D01*
X133292934Y-98186456D01*
X133269499Y-98200224D01*
X133260326Y-98207796D01*
X133244426Y-98223062D01*
X133233782Y-98239914D01*
X133226899Y-98264035D01*
X133222278Y-98301109D01*
X133218424Y-98356818D01*
X133217668Y-98369746D01*
X133211949Y-98442479D01*
X133203299Y-98496028D01*
X133189857Y-98536585D01*
X133169763Y-98570344D01*
X133150399Y-98593625D01*
X133120958Y-98614773D01*
X133089518Y-98621460D01*
X133064520Y-98612956D01*
X133056639Y-98601708D01*
X133057144Y-98579329D01*
X133066804Y-98543539D01*
X133077574Y-98515983D01*
X133097033Y-98468773D01*
X133114157Y-98422019D01*
X133120394Y-98402434D01*
X133126388Y-98363169D01*
X133114494Y-98340446D01*
X133082221Y-98331043D01*
X133064664Y-98330294D01*
X133026619Y-98320883D01*
X133005024Y-98295744D01*
X133001800Y-98277201D01*
X133012721Y-98246272D01*
X133042376Y-98209841D01*
X133086100Y-98172290D01*
X133139226Y-98138000D01*
X133163185Y-98125642D01*
X133222960Y-98102354D01*
X133287137Y-98085954D01*
X133349720Y-98077067D01*
X133404714Y-98076317D01*
X133446126Y-98084331D01*
D11*
G36*
X125800000Y-135950000D02*
G01*
X122100000Y-135950000D01*
X122100000Y-138050000D01*
X125800000Y-138050000D01*
X125800000Y-135950000D01*
G37*
X125800000Y-135950000D02*
X122100000Y-135950000D01*
X122100000Y-138050000D01*
X125800000Y-138050000D01*
X125800000Y-135950000D01*
G36*
X109350000Y-98800000D02*
G01*
X113050000Y-98800000D01*
X113050000Y-96700000D01*
X109350000Y-96700000D01*
X109350000Y-98800000D01*
G37*
X109350000Y-98800000D02*
X113050000Y-98800000D01*
X113050000Y-96700000D01*
X109350000Y-96700000D01*
X109350000Y-98800000D01*
G36*
X143100000Y-74550000D02*
G01*
X146800000Y-74550000D01*
X146800000Y-72450000D01*
X143100000Y-72450000D01*
X143100000Y-74550000D01*
G37*
X143100000Y-74550000D02*
X146800000Y-74550000D01*
X146800000Y-72450000D01*
X143100000Y-72450000D01*
X143100000Y-74550000D01*
G36*
X177600000Y-99050000D02*
G01*
X181300000Y-99050000D01*
X181300000Y-96950000D01*
X177600000Y-96950000D01*
X177600000Y-99050000D01*
G37*
X177600000Y-99050000D02*
X181300000Y-99050000D01*
X181300000Y-96950000D01*
X177600000Y-96950000D01*
X177600000Y-99050000D01*
D12*
X144750000Y-81500000D03*
D13*
X145000000Y-112500000D03*
D14*
X156905000Y-112500000D03*
X133095000Y-112500000D03*
D11*
G36*
X162027346Y-105676589D02*
G01*
X162059380Y-105681341D01*
X162090794Y-105689210D01*
X162121286Y-105700120D01*
X162150561Y-105713966D01*
X162178338Y-105730615D01*
X162204350Y-105749907D01*
X162228345Y-105771655D01*
X162250093Y-105795650D01*
X162269385Y-105821662D01*
X162286034Y-105849439D01*
X162299880Y-105878714D01*
X162310790Y-105909206D01*
X162318659Y-105940620D01*
X162323411Y-105972654D01*
X162325000Y-106005000D01*
X162325000Y-107495000D01*
X162323411Y-107527346D01*
X162318659Y-107559380D01*
X162310790Y-107590794D01*
X162299880Y-107621286D01*
X162286034Y-107650561D01*
X162269385Y-107678338D01*
X162250093Y-107704350D01*
X162228345Y-107728345D01*
X162204350Y-107750093D01*
X162178338Y-107769385D01*
X162150561Y-107786034D01*
X162121286Y-107799880D01*
X162090794Y-107810790D01*
X162059380Y-107818659D01*
X162027346Y-107823411D01*
X161995000Y-107825000D01*
X161005000Y-107825000D01*
X160972654Y-107823411D01*
X160940620Y-107818659D01*
X160909206Y-107810790D01*
X160878714Y-107799880D01*
X160849439Y-107786034D01*
X160821662Y-107769385D01*
X160795650Y-107750093D01*
X160771655Y-107728345D01*
X160749907Y-107704350D01*
X160730615Y-107678338D01*
X160713966Y-107650561D01*
X160700120Y-107621286D01*
X160689210Y-107590794D01*
X160681341Y-107559380D01*
X160676589Y-107527346D01*
X160675000Y-107495000D01*
X160675000Y-106005000D01*
X160676589Y-105972654D01*
X160681341Y-105940620D01*
X160689210Y-105909206D01*
X160700120Y-105878714D01*
X160713966Y-105849439D01*
X160730615Y-105821662D01*
X160749907Y-105795650D01*
X160771655Y-105771655D01*
X160795650Y-105749907D01*
X160821662Y-105730615D01*
X160849439Y-105713966D01*
X160878714Y-105700120D01*
X160909206Y-105689210D01*
X160940620Y-105681341D01*
X160972654Y-105676589D01*
X161005000Y-105675000D01*
X161995000Y-105675000D01*
X162027346Y-105676589D01*
X162027346Y-105676589D01*
G37*
D15*
X161500000Y-106750000D03*
D11*
G36*
X159227346Y-105676589D02*
G01*
X159259380Y-105681341D01*
X159290794Y-105689210D01*
X159321286Y-105700120D01*
X159350561Y-105713966D01*
X159378338Y-105730615D01*
X159404350Y-105749907D01*
X159428345Y-105771655D01*
X159450093Y-105795650D01*
X159469385Y-105821662D01*
X159486034Y-105849439D01*
X159499880Y-105878714D01*
X159510790Y-105909206D01*
X159518659Y-105940620D01*
X159523411Y-105972654D01*
X159525000Y-106005000D01*
X159525000Y-107495000D01*
X159523411Y-107527346D01*
X159518659Y-107559380D01*
X159510790Y-107590794D01*
X159499880Y-107621286D01*
X159486034Y-107650561D01*
X159469385Y-107678338D01*
X159450093Y-107704350D01*
X159428345Y-107728345D01*
X159404350Y-107750093D01*
X159378338Y-107769385D01*
X159350561Y-107786034D01*
X159321286Y-107799880D01*
X159290794Y-107810790D01*
X159259380Y-107818659D01*
X159227346Y-107823411D01*
X159195000Y-107825000D01*
X158205000Y-107825000D01*
X158172654Y-107823411D01*
X158140620Y-107818659D01*
X158109206Y-107810790D01*
X158078714Y-107799880D01*
X158049439Y-107786034D01*
X158021662Y-107769385D01*
X157995650Y-107750093D01*
X157971655Y-107728345D01*
X157949907Y-107704350D01*
X157930615Y-107678338D01*
X157913966Y-107650561D01*
X157900120Y-107621286D01*
X157889210Y-107590794D01*
X157881341Y-107559380D01*
X157876589Y-107527346D01*
X157875000Y-107495000D01*
X157875000Y-106005000D01*
X157876589Y-105972654D01*
X157881341Y-105940620D01*
X157889210Y-105909206D01*
X157900120Y-105878714D01*
X157913966Y-105849439D01*
X157930615Y-105821662D01*
X157949907Y-105795650D01*
X157971655Y-105771655D01*
X157995650Y-105749907D01*
X158021662Y-105730615D01*
X158049439Y-105713966D01*
X158078714Y-105700120D01*
X158109206Y-105689210D01*
X158140620Y-105681341D01*
X158172654Y-105676589D01*
X158205000Y-105675000D01*
X159195000Y-105675000D01*
X159227346Y-105676589D01*
X159227346Y-105676589D01*
G37*
D15*
X158700000Y-106750000D03*
D11*
G36*
X167277346Y-105676589D02*
G01*
X167309380Y-105681341D01*
X167340794Y-105689210D01*
X167371286Y-105700120D01*
X167400561Y-105713966D01*
X167428338Y-105730615D01*
X167454350Y-105749907D01*
X167478345Y-105771655D01*
X167500093Y-105795650D01*
X167519385Y-105821662D01*
X167536034Y-105849439D01*
X167549880Y-105878714D01*
X167560790Y-105909206D01*
X167568659Y-105940620D01*
X167573411Y-105972654D01*
X167575000Y-106005000D01*
X167575000Y-107495000D01*
X167573411Y-107527346D01*
X167568659Y-107559380D01*
X167560790Y-107590794D01*
X167549880Y-107621286D01*
X167536034Y-107650561D01*
X167519385Y-107678338D01*
X167500093Y-107704350D01*
X167478345Y-107728345D01*
X167454350Y-107750093D01*
X167428338Y-107769385D01*
X167400561Y-107786034D01*
X167371286Y-107799880D01*
X167340794Y-107810790D01*
X167309380Y-107818659D01*
X167277346Y-107823411D01*
X167245000Y-107825000D01*
X166255000Y-107825000D01*
X166222654Y-107823411D01*
X166190620Y-107818659D01*
X166159206Y-107810790D01*
X166128714Y-107799880D01*
X166099439Y-107786034D01*
X166071662Y-107769385D01*
X166045650Y-107750093D01*
X166021655Y-107728345D01*
X165999907Y-107704350D01*
X165980615Y-107678338D01*
X165963966Y-107650561D01*
X165950120Y-107621286D01*
X165939210Y-107590794D01*
X165931341Y-107559380D01*
X165926589Y-107527346D01*
X165925000Y-107495000D01*
X165925000Y-106005000D01*
X165926589Y-105972654D01*
X165931341Y-105940620D01*
X165939210Y-105909206D01*
X165950120Y-105878714D01*
X165963966Y-105849439D01*
X165980615Y-105821662D01*
X165999907Y-105795650D01*
X166021655Y-105771655D01*
X166045650Y-105749907D01*
X166071662Y-105730615D01*
X166099439Y-105713966D01*
X166128714Y-105700120D01*
X166159206Y-105689210D01*
X166190620Y-105681341D01*
X166222654Y-105676589D01*
X166255000Y-105675000D01*
X167245000Y-105675000D01*
X167277346Y-105676589D01*
X167277346Y-105676589D01*
G37*
D15*
X166750000Y-106750000D03*
D11*
G36*
X164477346Y-105676589D02*
G01*
X164509380Y-105681341D01*
X164540794Y-105689210D01*
X164571286Y-105700120D01*
X164600561Y-105713966D01*
X164628338Y-105730615D01*
X164654350Y-105749907D01*
X164678345Y-105771655D01*
X164700093Y-105795650D01*
X164719385Y-105821662D01*
X164736034Y-105849439D01*
X164749880Y-105878714D01*
X164760790Y-105909206D01*
X164768659Y-105940620D01*
X164773411Y-105972654D01*
X164775000Y-106005000D01*
X164775000Y-107495000D01*
X164773411Y-107527346D01*
X164768659Y-107559380D01*
X164760790Y-107590794D01*
X164749880Y-107621286D01*
X164736034Y-107650561D01*
X164719385Y-107678338D01*
X164700093Y-107704350D01*
X164678345Y-107728345D01*
X164654350Y-107750093D01*
X164628338Y-107769385D01*
X164600561Y-107786034D01*
X164571286Y-107799880D01*
X164540794Y-107810790D01*
X164509380Y-107818659D01*
X164477346Y-107823411D01*
X164445000Y-107825000D01*
X163455000Y-107825000D01*
X163422654Y-107823411D01*
X163390620Y-107818659D01*
X163359206Y-107810790D01*
X163328714Y-107799880D01*
X163299439Y-107786034D01*
X163271662Y-107769385D01*
X163245650Y-107750093D01*
X163221655Y-107728345D01*
X163199907Y-107704350D01*
X163180615Y-107678338D01*
X163163966Y-107650561D01*
X163150120Y-107621286D01*
X163139210Y-107590794D01*
X163131341Y-107559380D01*
X163126589Y-107527346D01*
X163125000Y-107495000D01*
X163125000Y-106005000D01*
X163126589Y-105972654D01*
X163131341Y-105940620D01*
X163139210Y-105909206D01*
X163150120Y-105878714D01*
X163163966Y-105849439D01*
X163180615Y-105821662D01*
X163199907Y-105795650D01*
X163221655Y-105771655D01*
X163245650Y-105749907D01*
X163271662Y-105730615D01*
X163299439Y-105713966D01*
X163328714Y-105700120D01*
X163359206Y-105689210D01*
X163390620Y-105681341D01*
X163422654Y-105676589D01*
X163455000Y-105675000D01*
X164445000Y-105675000D01*
X164477346Y-105676589D01*
X164477346Y-105676589D01*
G37*
D15*
X163950000Y-106750000D03*
D11*
G36*
X125377443Y-136101655D02*
G01*
X125410812Y-136106605D01*
X125443535Y-136114802D01*
X125475297Y-136126166D01*
X125505793Y-136140590D01*
X125534727Y-136157932D01*
X125561823Y-136178028D01*
X125586818Y-136200682D01*
X125609472Y-136225677D01*
X125629568Y-136252773D01*
X125646910Y-136281707D01*
X125661334Y-136312203D01*
X125672698Y-136343965D01*
X125680895Y-136376688D01*
X125685845Y-136410057D01*
X125687500Y-136443750D01*
X125687500Y-137556250D01*
X125685845Y-137589943D01*
X125680895Y-137623312D01*
X125672698Y-137656035D01*
X125661334Y-137687797D01*
X125646910Y-137718293D01*
X125629568Y-137747227D01*
X125609472Y-137774323D01*
X125586818Y-137799318D01*
X125561823Y-137821972D01*
X125534727Y-137842068D01*
X125505793Y-137859410D01*
X125475297Y-137873834D01*
X125443535Y-137885198D01*
X125410812Y-137893395D01*
X125377443Y-137898345D01*
X125343750Y-137900000D01*
X124656250Y-137900000D01*
X124622557Y-137898345D01*
X124589188Y-137893395D01*
X124556465Y-137885198D01*
X124524703Y-137873834D01*
X124494207Y-137859410D01*
X124465273Y-137842068D01*
X124438177Y-137821972D01*
X124413182Y-137799318D01*
X124390528Y-137774323D01*
X124370432Y-137747227D01*
X124353090Y-137718293D01*
X124338666Y-137687797D01*
X124327302Y-137656035D01*
X124319105Y-137623312D01*
X124314155Y-137589943D01*
X124312500Y-137556250D01*
X124312500Y-136443750D01*
X124314155Y-136410057D01*
X124319105Y-136376688D01*
X124327302Y-136343965D01*
X124338666Y-136312203D01*
X124353090Y-136281707D01*
X124370432Y-136252773D01*
X124390528Y-136225677D01*
X124413182Y-136200682D01*
X124438177Y-136178028D01*
X124465273Y-136157932D01*
X124494207Y-136140590D01*
X124524703Y-136126166D01*
X124556465Y-136114802D01*
X124589188Y-136106605D01*
X124622557Y-136101655D01*
X124656250Y-136100000D01*
X125343750Y-136100000D01*
X125377443Y-136101655D01*
X125377443Y-136101655D01*
G37*
D16*
X125000000Y-137000000D03*
D11*
G36*
X123277443Y-136101655D02*
G01*
X123310812Y-136106605D01*
X123343535Y-136114802D01*
X123375297Y-136126166D01*
X123405793Y-136140590D01*
X123434727Y-136157932D01*
X123461823Y-136178028D01*
X123486818Y-136200682D01*
X123509472Y-136225677D01*
X123529568Y-136252773D01*
X123546910Y-136281707D01*
X123561334Y-136312203D01*
X123572698Y-136343965D01*
X123580895Y-136376688D01*
X123585845Y-136410057D01*
X123587500Y-136443750D01*
X123587500Y-137556250D01*
X123585845Y-137589943D01*
X123580895Y-137623312D01*
X123572698Y-137656035D01*
X123561334Y-137687797D01*
X123546910Y-137718293D01*
X123529568Y-137747227D01*
X123509472Y-137774323D01*
X123486818Y-137799318D01*
X123461823Y-137821972D01*
X123434727Y-137842068D01*
X123405793Y-137859410D01*
X123375297Y-137873834D01*
X123343535Y-137885198D01*
X123310812Y-137893395D01*
X123277443Y-137898345D01*
X123243750Y-137900000D01*
X122556250Y-137900000D01*
X122522557Y-137898345D01*
X122489188Y-137893395D01*
X122456465Y-137885198D01*
X122424703Y-137873834D01*
X122394207Y-137859410D01*
X122365273Y-137842068D01*
X122338177Y-137821972D01*
X122313182Y-137799318D01*
X122290528Y-137774323D01*
X122270432Y-137747227D01*
X122253090Y-137718293D01*
X122238666Y-137687797D01*
X122227302Y-137656035D01*
X122219105Y-137623312D01*
X122214155Y-137589943D01*
X122212500Y-137556250D01*
X122212500Y-136443750D01*
X122214155Y-136410057D01*
X122219105Y-136376688D01*
X122227302Y-136343965D01*
X122238666Y-136312203D01*
X122253090Y-136281707D01*
X122270432Y-136252773D01*
X122290528Y-136225677D01*
X122313182Y-136200682D01*
X122338177Y-136178028D01*
X122365273Y-136157932D01*
X122394207Y-136140590D01*
X122424703Y-136126166D01*
X122456465Y-136114802D01*
X122489188Y-136106605D01*
X122522557Y-136101655D01*
X122556250Y-136100000D01*
X123243750Y-136100000D01*
X123277443Y-136101655D01*
X123277443Y-136101655D01*
G37*
D16*
X122900000Y-137000000D03*
D11*
G36*
X110527443Y-96851655D02*
G01*
X110560812Y-96856605D01*
X110593535Y-96864802D01*
X110625297Y-96876166D01*
X110655793Y-96890590D01*
X110684727Y-96907932D01*
X110711823Y-96928028D01*
X110736818Y-96950682D01*
X110759472Y-96975677D01*
X110779568Y-97002773D01*
X110796910Y-97031707D01*
X110811334Y-97062203D01*
X110822698Y-97093965D01*
X110830895Y-97126688D01*
X110835845Y-97160057D01*
X110837500Y-97193750D01*
X110837500Y-98306250D01*
X110835845Y-98339943D01*
X110830895Y-98373312D01*
X110822698Y-98406035D01*
X110811334Y-98437797D01*
X110796910Y-98468293D01*
X110779568Y-98497227D01*
X110759472Y-98524323D01*
X110736818Y-98549318D01*
X110711823Y-98571972D01*
X110684727Y-98592068D01*
X110655793Y-98609410D01*
X110625297Y-98623834D01*
X110593535Y-98635198D01*
X110560812Y-98643395D01*
X110527443Y-98648345D01*
X110493750Y-98650000D01*
X109806250Y-98650000D01*
X109772557Y-98648345D01*
X109739188Y-98643395D01*
X109706465Y-98635198D01*
X109674703Y-98623834D01*
X109644207Y-98609410D01*
X109615273Y-98592068D01*
X109588177Y-98571972D01*
X109563182Y-98549318D01*
X109540528Y-98524323D01*
X109520432Y-98497227D01*
X109503090Y-98468293D01*
X109488666Y-98437797D01*
X109477302Y-98406035D01*
X109469105Y-98373312D01*
X109464155Y-98339943D01*
X109462500Y-98306250D01*
X109462500Y-97193750D01*
X109464155Y-97160057D01*
X109469105Y-97126688D01*
X109477302Y-97093965D01*
X109488666Y-97062203D01*
X109503090Y-97031707D01*
X109520432Y-97002773D01*
X109540528Y-96975677D01*
X109563182Y-96950682D01*
X109588177Y-96928028D01*
X109615273Y-96907932D01*
X109644207Y-96890590D01*
X109674703Y-96876166D01*
X109706465Y-96864802D01*
X109739188Y-96856605D01*
X109772557Y-96851655D01*
X109806250Y-96850000D01*
X110493750Y-96850000D01*
X110527443Y-96851655D01*
X110527443Y-96851655D01*
G37*
D16*
X110150000Y-97750000D03*
D11*
G36*
X112627443Y-96851655D02*
G01*
X112660812Y-96856605D01*
X112693535Y-96864802D01*
X112725297Y-96876166D01*
X112755793Y-96890590D01*
X112784727Y-96907932D01*
X112811823Y-96928028D01*
X112836818Y-96950682D01*
X112859472Y-96975677D01*
X112879568Y-97002773D01*
X112896910Y-97031707D01*
X112911334Y-97062203D01*
X112922698Y-97093965D01*
X112930895Y-97126688D01*
X112935845Y-97160057D01*
X112937500Y-97193750D01*
X112937500Y-98306250D01*
X112935845Y-98339943D01*
X112930895Y-98373312D01*
X112922698Y-98406035D01*
X112911334Y-98437797D01*
X112896910Y-98468293D01*
X112879568Y-98497227D01*
X112859472Y-98524323D01*
X112836818Y-98549318D01*
X112811823Y-98571972D01*
X112784727Y-98592068D01*
X112755793Y-98609410D01*
X112725297Y-98623834D01*
X112693535Y-98635198D01*
X112660812Y-98643395D01*
X112627443Y-98648345D01*
X112593750Y-98650000D01*
X111906250Y-98650000D01*
X111872557Y-98648345D01*
X111839188Y-98643395D01*
X111806465Y-98635198D01*
X111774703Y-98623834D01*
X111744207Y-98609410D01*
X111715273Y-98592068D01*
X111688177Y-98571972D01*
X111663182Y-98549318D01*
X111640528Y-98524323D01*
X111620432Y-98497227D01*
X111603090Y-98468293D01*
X111588666Y-98437797D01*
X111577302Y-98406035D01*
X111569105Y-98373312D01*
X111564155Y-98339943D01*
X111562500Y-98306250D01*
X111562500Y-97193750D01*
X111564155Y-97160057D01*
X111569105Y-97126688D01*
X111577302Y-97093965D01*
X111588666Y-97062203D01*
X111603090Y-97031707D01*
X111620432Y-97002773D01*
X111640528Y-96975677D01*
X111663182Y-96950682D01*
X111688177Y-96928028D01*
X111715273Y-96907932D01*
X111744207Y-96890590D01*
X111774703Y-96876166D01*
X111806465Y-96864802D01*
X111839188Y-96856605D01*
X111872557Y-96851655D01*
X111906250Y-96850000D01*
X112593750Y-96850000D01*
X112627443Y-96851655D01*
X112627443Y-96851655D01*
G37*
D16*
X112250000Y-97750000D03*
D11*
G36*
X146377443Y-72601655D02*
G01*
X146410812Y-72606605D01*
X146443535Y-72614802D01*
X146475297Y-72626166D01*
X146505793Y-72640590D01*
X146534727Y-72657932D01*
X146561823Y-72678028D01*
X146586818Y-72700682D01*
X146609472Y-72725677D01*
X146629568Y-72752773D01*
X146646910Y-72781707D01*
X146661334Y-72812203D01*
X146672698Y-72843965D01*
X146680895Y-72876688D01*
X146685845Y-72910057D01*
X146687500Y-72943750D01*
X146687500Y-74056250D01*
X146685845Y-74089943D01*
X146680895Y-74123312D01*
X146672698Y-74156035D01*
X146661334Y-74187797D01*
X146646910Y-74218293D01*
X146629568Y-74247227D01*
X146609472Y-74274323D01*
X146586818Y-74299318D01*
X146561823Y-74321972D01*
X146534727Y-74342068D01*
X146505793Y-74359410D01*
X146475297Y-74373834D01*
X146443535Y-74385198D01*
X146410812Y-74393395D01*
X146377443Y-74398345D01*
X146343750Y-74400000D01*
X145656250Y-74400000D01*
X145622557Y-74398345D01*
X145589188Y-74393395D01*
X145556465Y-74385198D01*
X145524703Y-74373834D01*
X145494207Y-74359410D01*
X145465273Y-74342068D01*
X145438177Y-74321972D01*
X145413182Y-74299318D01*
X145390528Y-74274323D01*
X145370432Y-74247227D01*
X145353090Y-74218293D01*
X145338666Y-74187797D01*
X145327302Y-74156035D01*
X145319105Y-74123312D01*
X145314155Y-74089943D01*
X145312500Y-74056250D01*
X145312500Y-72943750D01*
X145314155Y-72910057D01*
X145319105Y-72876688D01*
X145327302Y-72843965D01*
X145338666Y-72812203D01*
X145353090Y-72781707D01*
X145370432Y-72752773D01*
X145390528Y-72725677D01*
X145413182Y-72700682D01*
X145438177Y-72678028D01*
X145465273Y-72657932D01*
X145494207Y-72640590D01*
X145524703Y-72626166D01*
X145556465Y-72614802D01*
X145589188Y-72606605D01*
X145622557Y-72601655D01*
X145656250Y-72600000D01*
X146343750Y-72600000D01*
X146377443Y-72601655D01*
X146377443Y-72601655D01*
G37*
D16*
X146000000Y-73500000D03*
D11*
G36*
X144277443Y-72601655D02*
G01*
X144310812Y-72606605D01*
X144343535Y-72614802D01*
X144375297Y-72626166D01*
X144405793Y-72640590D01*
X144434727Y-72657932D01*
X144461823Y-72678028D01*
X144486818Y-72700682D01*
X144509472Y-72725677D01*
X144529568Y-72752773D01*
X144546910Y-72781707D01*
X144561334Y-72812203D01*
X144572698Y-72843965D01*
X144580895Y-72876688D01*
X144585845Y-72910057D01*
X144587500Y-72943750D01*
X144587500Y-74056250D01*
X144585845Y-74089943D01*
X144580895Y-74123312D01*
X144572698Y-74156035D01*
X144561334Y-74187797D01*
X144546910Y-74218293D01*
X144529568Y-74247227D01*
X144509472Y-74274323D01*
X144486818Y-74299318D01*
X144461823Y-74321972D01*
X144434727Y-74342068D01*
X144405793Y-74359410D01*
X144375297Y-74373834D01*
X144343535Y-74385198D01*
X144310812Y-74393395D01*
X144277443Y-74398345D01*
X144243750Y-74400000D01*
X143556250Y-74400000D01*
X143522557Y-74398345D01*
X143489188Y-74393395D01*
X143456465Y-74385198D01*
X143424703Y-74373834D01*
X143394207Y-74359410D01*
X143365273Y-74342068D01*
X143338177Y-74321972D01*
X143313182Y-74299318D01*
X143290528Y-74274323D01*
X143270432Y-74247227D01*
X143253090Y-74218293D01*
X143238666Y-74187797D01*
X143227302Y-74156035D01*
X143219105Y-74123312D01*
X143214155Y-74089943D01*
X143212500Y-74056250D01*
X143212500Y-72943750D01*
X143214155Y-72910057D01*
X143219105Y-72876688D01*
X143227302Y-72843965D01*
X143238666Y-72812203D01*
X143253090Y-72781707D01*
X143270432Y-72752773D01*
X143290528Y-72725677D01*
X143313182Y-72700682D01*
X143338177Y-72678028D01*
X143365273Y-72657932D01*
X143394207Y-72640590D01*
X143424703Y-72626166D01*
X143456465Y-72614802D01*
X143489188Y-72606605D01*
X143522557Y-72601655D01*
X143556250Y-72600000D01*
X144243750Y-72600000D01*
X144277443Y-72601655D01*
X144277443Y-72601655D01*
G37*
D16*
X143900000Y-73500000D03*
D11*
G36*
X180877443Y-97101655D02*
G01*
X180910812Y-97106605D01*
X180943535Y-97114802D01*
X180975297Y-97126166D01*
X181005793Y-97140590D01*
X181034727Y-97157932D01*
X181061823Y-97178028D01*
X181086818Y-97200682D01*
X181109472Y-97225677D01*
X181129568Y-97252773D01*
X181146910Y-97281707D01*
X181161334Y-97312203D01*
X181172698Y-97343965D01*
X181180895Y-97376688D01*
X181185845Y-97410057D01*
X181187500Y-97443750D01*
X181187500Y-98556250D01*
X181185845Y-98589943D01*
X181180895Y-98623312D01*
X181172698Y-98656035D01*
X181161334Y-98687797D01*
X181146910Y-98718293D01*
X181129568Y-98747227D01*
X181109472Y-98774323D01*
X181086818Y-98799318D01*
X181061823Y-98821972D01*
X181034727Y-98842068D01*
X181005793Y-98859410D01*
X180975297Y-98873834D01*
X180943535Y-98885198D01*
X180910812Y-98893395D01*
X180877443Y-98898345D01*
X180843750Y-98900000D01*
X180156250Y-98900000D01*
X180122557Y-98898345D01*
X180089188Y-98893395D01*
X180056465Y-98885198D01*
X180024703Y-98873834D01*
X179994207Y-98859410D01*
X179965273Y-98842068D01*
X179938177Y-98821972D01*
X179913182Y-98799318D01*
X179890528Y-98774323D01*
X179870432Y-98747227D01*
X179853090Y-98718293D01*
X179838666Y-98687797D01*
X179827302Y-98656035D01*
X179819105Y-98623312D01*
X179814155Y-98589943D01*
X179812500Y-98556250D01*
X179812500Y-97443750D01*
X179814155Y-97410057D01*
X179819105Y-97376688D01*
X179827302Y-97343965D01*
X179838666Y-97312203D01*
X179853090Y-97281707D01*
X179870432Y-97252773D01*
X179890528Y-97225677D01*
X179913182Y-97200682D01*
X179938177Y-97178028D01*
X179965273Y-97157932D01*
X179994207Y-97140590D01*
X180024703Y-97126166D01*
X180056465Y-97114802D01*
X180089188Y-97106605D01*
X180122557Y-97101655D01*
X180156250Y-97100000D01*
X180843750Y-97100000D01*
X180877443Y-97101655D01*
X180877443Y-97101655D01*
G37*
D16*
X180500000Y-98000000D03*
D11*
G36*
X178777443Y-97101655D02*
G01*
X178810812Y-97106605D01*
X178843535Y-97114802D01*
X178875297Y-97126166D01*
X178905793Y-97140590D01*
X178934727Y-97157932D01*
X178961823Y-97178028D01*
X178986818Y-97200682D01*
X179009472Y-97225677D01*
X179029568Y-97252773D01*
X179046910Y-97281707D01*
X179061334Y-97312203D01*
X179072698Y-97343965D01*
X179080895Y-97376688D01*
X179085845Y-97410057D01*
X179087500Y-97443750D01*
X179087500Y-98556250D01*
X179085845Y-98589943D01*
X179080895Y-98623312D01*
X179072698Y-98656035D01*
X179061334Y-98687797D01*
X179046910Y-98718293D01*
X179029568Y-98747227D01*
X179009472Y-98774323D01*
X178986818Y-98799318D01*
X178961823Y-98821972D01*
X178934727Y-98842068D01*
X178905793Y-98859410D01*
X178875297Y-98873834D01*
X178843535Y-98885198D01*
X178810812Y-98893395D01*
X178777443Y-98898345D01*
X178743750Y-98900000D01*
X178056250Y-98900000D01*
X178022557Y-98898345D01*
X177989188Y-98893395D01*
X177956465Y-98885198D01*
X177924703Y-98873834D01*
X177894207Y-98859410D01*
X177865273Y-98842068D01*
X177838177Y-98821972D01*
X177813182Y-98799318D01*
X177790528Y-98774323D01*
X177770432Y-98747227D01*
X177753090Y-98718293D01*
X177738666Y-98687797D01*
X177727302Y-98656035D01*
X177719105Y-98623312D01*
X177714155Y-98589943D01*
X177712500Y-98556250D01*
X177712500Y-97443750D01*
X177714155Y-97410057D01*
X177719105Y-97376688D01*
X177727302Y-97343965D01*
X177738666Y-97312203D01*
X177753090Y-97281707D01*
X177770432Y-97252773D01*
X177790528Y-97225677D01*
X177813182Y-97200682D01*
X177838177Y-97178028D01*
X177865273Y-97157932D01*
X177894207Y-97140590D01*
X177924703Y-97126166D01*
X177956465Y-97114802D01*
X177989188Y-97106605D01*
X178022557Y-97101655D01*
X178056250Y-97100000D01*
X178743750Y-97100000D01*
X178777443Y-97101655D01*
X178777443Y-97101655D01*
G37*
D16*
X178400000Y-98000000D03*
D17*
X147800000Y-90920000D03*
X142750000Y-90920000D03*
X147800000Y-93460000D03*
X142750000Y-93460000D03*
X147800000Y-96000000D03*
X142750000Y-96000000D03*
D18*
X155967551Y-125372825D03*
D11*
G36*
X155866395Y-124288611D02*
G01*
X155903657Y-124276413D01*
X155942582Y-124271720D01*
X155981674Y-124274712D01*
X156019432Y-124285271D01*
X156054405Y-124302994D01*
X156085247Y-124327200D01*
X156110775Y-124356957D01*
X156971140Y-125585686D01*
X156990372Y-125619851D01*
X157002569Y-125657113D01*
X157007262Y-125696038D01*
X157004270Y-125735130D01*
X156993711Y-125772889D01*
X156975988Y-125807861D01*
X156951782Y-125838703D01*
X156922025Y-125864231D01*
X156512449Y-126151019D01*
X156507097Y-126154032D01*
X156492006Y-126164598D01*
X156475394Y-126175055D01*
X156432635Y-126199123D01*
X156415084Y-126207898D01*
X156370172Y-126227660D01*
X156351837Y-126234675D01*
X156305204Y-126249940D01*
X156286277Y-126255122D01*
X156238372Y-126265743D01*
X156219019Y-126269046D01*
X156170304Y-126274918D01*
X156150734Y-126276309D01*
X156101678Y-126277380D01*
X156082053Y-126276845D01*
X156033129Y-126273101D01*
X156013658Y-126270645D01*
X155965334Y-126262124D01*
X155946198Y-126257773D01*
X155898944Y-126244558D01*
X155880319Y-126238348D01*
X155834588Y-126220563D01*
X155816674Y-126212564D01*
X155772905Y-126190384D01*
X155755849Y-126180661D01*
X155714466Y-126154296D01*
X155698452Y-126142953D01*
X155659852Y-126112660D01*
X155645022Y-126099796D01*
X155609578Y-126065865D01*
X155596087Y-126051617D01*
X155564138Y-126014376D01*
X155552104Y-125998868D01*
X155541538Y-125983778D01*
X155537539Y-125979117D01*
X155250750Y-125569540D01*
X155247738Y-125564189D01*
X155237171Y-125549098D01*
X155226715Y-125532485D01*
X155202647Y-125489727D01*
X155193872Y-125472176D01*
X155174110Y-125427264D01*
X155167095Y-125408929D01*
X155151830Y-125362296D01*
X155146648Y-125343369D01*
X155136027Y-125295464D01*
X155132724Y-125276110D01*
X155126851Y-125227396D01*
X155125461Y-125207826D01*
X155124390Y-125158770D01*
X155124925Y-125139145D01*
X155128669Y-125090221D01*
X155131125Y-125070750D01*
X155139645Y-125022426D01*
X155143997Y-125003289D01*
X155157212Y-124956036D01*
X155163422Y-124937411D01*
X155181206Y-124891680D01*
X155189206Y-124873765D01*
X155211386Y-124829997D01*
X155221109Y-124812941D01*
X155247474Y-124771557D01*
X155258817Y-124755544D01*
X155289110Y-124716944D01*
X155301974Y-124702114D01*
X155335905Y-124666670D01*
X155350153Y-124653179D01*
X155387394Y-124621230D01*
X155402902Y-124609196D01*
X155417992Y-124598629D01*
X155422653Y-124594631D01*
X155832229Y-124307842D01*
X155866395Y-124288611D01*
X155866395Y-124288611D01*
G37*
D18*
X157032449Y-124627175D03*
D11*
G36*
X156492903Y-123845968D02*
G01*
X156507994Y-123835402D01*
X156524606Y-123824945D01*
X156567365Y-123800877D01*
X156584916Y-123792102D01*
X156629828Y-123772340D01*
X156648163Y-123765325D01*
X156694796Y-123750060D01*
X156713723Y-123744878D01*
X156761628Y-123734257D01*
X156780981Y-123730954D01*
X156829696Y-123725082D01*
X156849266Y-123723691D01*
X156898322Y-123722620D01*
X156917947Y-123723155D01*
X156966871Y-123726899D01*
X156986342Y-123729355D01*
X157034666Y-123737876D01*
X157053802Y-123742227D01*
X157101056Y-123755442D01*
X157119681Y-123761652D01*
X157165412Y-123779437D01*
X157183326Y-123787436D01*
X157227095Y-123809616D01*
X157244151Y-123819339D01*
X157285534Y-123845704D01*
X157301548Y-123857047D01*
X157340148Y-123887340D01*
X157354978Y-123900204D01*
X157390422Y-123934135D01*
X157403913Y-123948383D01*
X157435862Y-123985624D01*
X157447896Y-124001132D01*
X157458462Y-124016222D01*
X157462461Y-124020883D01*
X157749250Y-124430460D01*
X157752262Y-124435811D01*
X157762829Y-124450902D01*
X157773285Y-124467515D01*
X157797353Y-124510273D01*
X157806128Y-124527824D01*
X157825890Y-124572736D01*
X157832905Y-124591071D01*
X157848170Y-124637704D01*
X157853352Y-124656631D01*
X157863973Y-124704536D01*
X157867276Y-124723890D01*
X157873149Y-124772604D01*
X157874539Y-124792174D01*
X157875610Y-124841230D01*
X157875075Y-124860855D01*
X157871331Y-124909779D01*
X157868875Y-124929250D01*
X157860355Y-124977574D01*
X157856003Y-124996711D01*
X157842788Y-125043964D01*
X157836578Y-125062589D01*
X157818794Y-125108320D01*
X157810794Y-125126235D01*
X157788614Y-125170003D01*
X157778891Y-125187059D01*
X157752526Y-125228443D01*
X157741183Y-125244456D01*
X157710890Y-125283056D01*
X157698026Y-125297886D01*
X157664095Y-125333330D01*
X157649847Y-125346821D01*
X157612606Y-125378770D01*
X157597098Y-125390804D01*
X157582008Y-125401371D01*
X157577347Y-125405369D01*
X157167771Y-125692158D01*
X157133605Y-125711389D01*
X157096343Y-125723587D01*
X157057418Y-125728280D01*
X157018326Y-125725288D01*
X156980568Y-125714729D01*
X156945595Y-125697006D01*
X156914753Y-125672800D01*
X156889225Y-125643043D01*
X156028860Y-124414314D01*
X156009628Y-124380149D01*
X155997431Y-124342887D01*
X155992738Y-124303962D01*
X155995730Y-124264870D01*
X156006289Y-124227111D01*
X156024012Y-124192139D01*
X156048218Y-124161297D01*
X156077975Y-124135769D01*
X156487551Y-123848981D01*
X156492903Y-123845968D01*
X156492903Y-123845968D01*
G37*
D18*
X123250000Y-104000000D03*
D11*
G36*
X123256112Y-103050602D02*
G01*
X123274534Y-103050602D01*
X123294140Y-103051565D01*
X123342971Y-103056375D01*
X123362380Y-103059254D01*
X123410505Y-103068826D01*
X123429548Y-103073596D01*
X123476503Y-103087840D01*
X123494980Y-103094451D01*
X123540313Y-103113228D01*
X123558061Y-103121623D01*
X123601334Y-103144754D01*
X123618162Y-103154840D01*
X123658961Y-103182100D01*
X123674730Y-103193795D01*
X123712659Y-103224923D01*
X123727200Y-103238103D01*
X123761897Y-103272800D01*
X123775077Y-103287341D01*
X123806205Y-103325270D01*
X123817900Y-103341039D01*
X123845160Y-103381838D01*
X123855246Y-103398666D01*
X123878377Y-103441939D01*
X123886772Y-103459687D01*
X123905549Y-103505020D01*
X123912160Y-103523497D01*
X123926404Y-103570452D01*
X123931174Y-103589495D01*
X123940746Y-103637620D01*
X123943625Y-103657029D01*
X123948435Y-103705860D01*
X123949398Y-103725466D01*
X123949398Y-103743888D01*
X123950000Y-103750000D01*
X123950000Y-104250000D01*
X123949398Y-104256112D01*
X123949398Y-104274534D01*
X123948435Y-104294140D01*
X123943625Y-104342971D01*
X123940746Y-104362380D01*
X123931174Y-104410505D01*
X123926404Y-104429548D01*
X123912160Y-104476503D01*
X123905549Y-104494980D01*
X123886772Y-104540313D01*
X123878377Y-104558061D01*
X123855246Y-104601334D01*
X123845160Y-104618162D01*
X123817900Y-104658961D01*
X123806205Y-104674730D01*
X123775077Y-104712659D01*
X123761897Y-104727200D01*
X123727200Y-104761897D01*
X123712659Y-104775077D01*
X123674730Y-104806205D01*
X123658961Y-104817900D01*
X123618162Y-104845160D01*
X123601334Y-104855246D01*
X123558061Y-104878377D01*
X123540313Y-104886772D01*
X123494980Y-104905549D01*
X123476503Y-104912160D01*
X123429548Y-104926404D01*
X123410505Y-104931174D01*
X123362380Y-104940746D01*
X123342971Y-104943625D01*
X123294140Y-104948435D01*
X123274534Y-104949398D01*
X123256112Y-104949398D01*
X123250000Y-104950000D01*
X122750000Y-104950000D01*
X122710982Y-104946157D01*
X122673463Y-104934776D01*
X122638886Y-104916294D01*
X122608579Y-104891421D01*
X122583706Y-104861114D01*
X122565224Y-104826537D01*
X122553843Y-104789018D01*
X122550000Y-104750000D01*
X122550000Y-103250000D01*
X122553843Y-103210982D01*
X122565224Y-103173463D01*
X122583706Y-103138886D01*
X122608579Y-103108579D01*
X122638886Y-103083706D01*
X122673463Y-103065224D01*
X122710982Y-103053843D01*
X122750000Y-103050000D01*
X123250000Y-103050000D01*
X123256112Y-103050602D01*
X123256112Y-103050602D01*
G37*
D18*
X121950000Y-104000000D03*
D11*
G36*
X122489018Y-103053843D02*
G01*
X122526537Y-103065224D01*
X122561114Y-103083706D01*
X122591421Y-103108579D01*
X122616294Y-103138886D01*
X122634776Y-103173463D01*
X122646157Y-103210982D01*
X122650000Y-103250000D01*
X122650000Y-104750000D01*
X122646157Y-104789018D01*
X122634776Y-104826537D01*
X122616294Y-104861114D01*
X122591421Y-104891421D01*
X122561114Y-104916294D01*
X122526537Y-104934776D01*
X122489018Y-104946157D01*
X122450000Y-104950000D01*
X121950000Y-104950000D01*
X121943888Y-104949398D01*
X121925466Y-104949398D01*
X121905860Y-104948435D01*
X121857029Y-104943625D01*
X121837620Y-104940746D01*
X121789495Y-104931174D01*
X121770452Y-104926404D01*
X121723497Y-104912160D01*
X121705020Y-104905549D01*
X121659687Y-104886772D01*
X121641939Y-104878377D01*
X121598666Y-104855246D01*
X121581838Y-104845160D01*
X121541039Y-104817900D01*
X121525270Y-104806205D01*
X121487341Y-104775077D01*
X121472800Y-104761897D01*
X121438103Y-104727200D01*
X121424923Y-104712659D01*
X121393795Y-104674730D01*
X121382100Y-104658961D01*
X121354840Y-104618162D01*
X121344754Y-104601334D01*
X121321623Y-104558061D01*
X121313228Y-104540313D01*
X121294451Y-104494980D01*
X121287840Y-104476503D01*
X121273596Y-104429548D01*
X121268826Y-104410505D01*
X121259254Y-104362380D01*
X121256375Y-104342971D01*
X121251565Y-104294140D01*
X121250602Y-104274534D01*
X121250602Y-104256112D01*
X121250000Y-104250000D01*
X121250000Y-103750000D01*
X121250602Y-103743888D01*
X121250602Y-103725466D01*
X121251565Y-103705860D01*
X121256375Y-103657029D01*
X121259254Y-103637620D01*
X121268826Y-103589495D01*
X121273596Y-103570452D01*
X121287840Y-103523497D01*
X121294451Y-103505020D01*
X121313228Y-103459687D01*
X121321623Y-103441939D01*
X121344754Y-103398666D01*
X121354840Y-103381838D01*
X121382100Y-103341039D01*
X121393795Y-103325270D01*
X121424923Y-103287341D01*
X121438103Y-103272800D01*
X121472800Y-103238103D01*
X121487341Y-103224923D01*
X121525270Y-103193795D01*
X121541039Y-103182100D01*
X121581838Y-103154840D01*
X121598666Y-103144754D01*
X121641939Y-103121623D01*
X121659687Y-103113228D01*
X121705020Y-103094451D01*
X121723497Y-103087840D01*
X121770452Y-103073596D01*
X121789495Y-103068826D01*
X121837620Y-103059254D01*
X121857029Y-103056375D01*
X121905860Y-103051565D01*
X121925466Y-103050602D01*
X121943888Y-103050602D01*
X121950000Y-103050000D01*
X122450000Y-103050000D01*
X122489018Y-103053843D01*
X122489018Y-103053843D01*
G37*
D19*
X158000000Y-102200000D03*
X158000000Y-100300000D03*
X160000000Y-101250000D03*
X168250000Y-101300000D03*
X166250000Y-100350000D03*
X166250000Y-102250000D03*
D20*
X127800000Y-108500000D03*
X129700000Y-108500000D03*
X128750000Y-110500000D03*
D11*
G36*
X126752443Y-97601655D02*
G01*
X126785812Y-97606605D01*
X126818535Y-97614802D01*
X126850297Y-97626166D01*
X126880793Y-97640590D01*
X126909727Y-97657932D01*
X126936823Y-97678028D01*
X126961818Y-97700682D01*
X126984472Y-97725677D01*
X127004568Y-97752773D01*
X127021910Y-97781707D01*
X127036334Y-97812203D01*
X127047698Y-97843965D01*
X127055895Y-97876688D01*
X127060845Y-97910057D01*
X127062500Y-97943750D01*
X127062500Y-99056250D01*
X127060845Y-99089943D01*
X127055895Y-99123312D01*
X127047698Y-99156035D01*
X127036334Y-99187797D01*
X127021910Y-99218293D01*
X127004568Y-99247227D01*
X126984472Y-99274323D01*
X126961818Y-99299318D01*
X126936823Y-99321972D01*
X126909727Y-99342068D01*
X126880793Y-99359410D01*
X126850297Y-99373834D01*
X126818535Y-99385198D01*
X126785812Y-99393395D01*
X126752443Y-99398345D01*
X126718750Y-99400000D01*
X126031250Y-99400000D01*
X125997557Y-99398345D01*
X125964188Y-99393395D01*
X125931465Y-99385198D01*
X125899703Y-99373834D01*
X125869207Y-99359410D01*
X125840273Y-99342068D01*
X125813177Y-99321972D01*
X125788182Y-99299318D01*
X125765528Y-99274323D01*
X125745432Y-99247227D01*
X125728090Y-99218293D01*
X125713666Y-99187797D01*
X125702302Y-99156035D01*
X125694105Y-99123312D01*
X125689155Y-99089943D01*
X125687500Y-99056250D01*
X125687500Y-97943750D01*
X125689155Y-97910057D01*
X125694105Y-97876688D01*
X125702302Y-97843965D01*
X125713666Y-97812203D01*
X125728090Y-97781707D01*
X125745432Y-97752773D01*
X125765528Y-97725677D01*
X125788182Y-97700682D01*
X125813177Y-97678028D01*
X125840273Y-97657932D01*
X125869207Y-97640590D01*
X125899703Y-97626166D01*
X125931465Y-97614802D01*
X125964188Y-97606605D01*
X125997557Y-97601655D01*
X126031250Y-97600000D01*
X126718750Y-97600000D01*
X126752443Y-97601655D01*
X126752443Y-97601655D01*
G37*
D16*
X126375000Y-98500000D03*
D11*
G36*
X124877443Y-97601655D02*
G01*
X124910812Y-97606605D01*
X124943535Y-97614802D01*
X124975297Y-97626166D01*
X125005793Y-97640590D01*
X125034727Y-97657932D01*
X125061823Y-97678028D01*
X125086818Y-97700682D01*
X125109472Y-97725677D01*
X125129568Y-97752773D01*
X125146910Y-97781707D01*
X125161334Y-97812203D01*
X125172698Y-97843965D01*
X125180895Y-97876688D01*
X125185845Y-97910057D01*
X125187500Y-97943750D01*
X125187500Y-99056250D01*
X125185845Y-99089943D01*
X125180895Y-99123312D01*
X125172698Y-99156035D01*
X125161334Y-99187797D01*
X125146910Y-99218293D01*
X125129568Y-99247227D01*
X125109472Y-99274323D01*
X125086818Y-99299318D01*
X125061823Y-99321972D01*
X125034727Y-99342068D01*
X125005793Y-99359410D01*
X124975297Y-99373834D01*
X124943535Y-99385198D01*
X124910812Y-99393395D01*
X124877443Y-99398345D01*
X124843750Y-99400000D01*
X124156250Y-99400000D01*
X124122557Y-99398345D01*
X124089188Y-99393395D01*
X124056465Y-99385198D01*
X124024703Y-99373834D01*
X123994207Y-99359410D01*
X123965273Y-99342068D01*
X123938177Y-99321972D01*
X123913182Y-99299318D01*
X123890528Y-99274323D01*
X123870432Y-99247227D01*
X123853090Y-99218293D01*
X123838666Y-99187797D01*
X123827302Y-99156035D01*
X123819105Y-99123312D01*
X123814155Y-99089943D01*
X123812500Y-99056250D01*
X123812500Y-97943750D01*
X123814155Y-97910057D01*
X123819105Y-97876688D01*
X123827302Y-97843965D01*
X123838666Y-97812203D01*
X123853090Y-97781707D01*
X123870432Y-97752773D01*
X123890528Y-97725677D01*
X123913182Y-97700682D01*
X123938177Y-97678028D01*
X123965273Y-97657932D01*
X123994207Y-97640590D01*
X124024703Y-97626166D01*
X124056465Y-97614802D01*
X124089188Y-97606605D01*
X124122557Y-97601655D01*
X124156250Y-97600000D01*
X124843750Y-97600000D01*
X124877443Y-97601655D01*
X124877443Y-97601655D01*
G37*
D16*
X124500000Y-98500000D03*
D11*
G36*
X153002443Y-95851655D02*
G01*
X153035812Y-95856605D01*
X153068535Y-95864802D01*
X153100297Y-95876166D01*
X153130793Y-95890590D01*
X153159727Y-95907932D01*
X153186823Y-95928028D01*
X153211818Y-95950682D01*
X153234472Y-95975677D01*
X153254568Y-96002773D01*
X153271910Y-96031707D01*
X153286334Y-96062203D01*
X153297698Y-96093965D01*
X153305895Y-96126688D01*
X153310845Y-96160057D01*
X153312500Y-96193750D01*
X153312500Y-97306250D01*
X153310845Y-97339943D01*
X153305895Y-97373312D01*
X153297698Y-97406035D01*
X153286334Y-97437797D01*
X153271910Y-97468293D01*
X153254568Y-97497227D01*
X153234472Y-97524323D01*
X153211818Y-97549318D01*
X153186823Y-97571972D01*
X153159727Y-97592068D01*
X153130793Y-97609410D01*
X153100297Y-97623834D01*
X153068535Y-97635198D01*
X153035812Y-97643395D01*
X153002443Y-97648345D01*
X152968750Y-97650000D01*
X152281250Y-97650000D01*
X152247557Y-97648345D01*
X152214188Y-97643395D01*
X152181465Y-97635198D01*
X152149703Y-97623834D01*
X152119207Y-97609410D01*
X152090273Y-97592068D01*
X152063177Y-97571972D01*
X152038182Y-97549318D01*
X152015528Y-97524323D01*
X151995432Y-97497227D01*
X151978090Y-97468293D01*
X151963666Y-97437797D01*
X151952302Y-97406035D01*
X151944105Y-97373312D01*
X151939155Y-97339943D01*
X151937500Y-97306250D01*
X151937500Y-96193750D01*
X151939155Y-96160057D01*
X151944105Y-96126688D01*
X151952302Y-96093965D01*
X151963666Y-96062203D01*
X151978090Y-96031707D01*
X151995432Y-96002773D01*
X152015528Y-95975677D01*
X152038182Y-95950682D01*
X152063177Y-95928028D01*
X152090273Y-95907932D01*
X152119207Y-95890590D01*
X152149703Y-95876166D01*
X152181465Y-95864802D01*
X152214188Y-95856605D01*
X152247557Y-95851655D01*
X152281250Y-95850000D01*
X152968750Y-95850000D01*
X153002443Y-95851655D01*
X153002443Y-95851655D01*
G37*
D16*
X152625000Y-96750000D03*
D11*
G36*
X154877443Y-95851655D02*
G01*
X154910812Y-95856605D01*
X154943535Y-95864802D01*
X154975297Y-95876166D01*
X155005793Y-95890590D01*
X155034727Y-95907932D01*
X155061823Y-95928028D01*
X155086818Y-95950682D01*
X155109472Y-95975677D01*
X155129568Y-96002773D01*
X155146910Y-96031707D01*
X155161334Y-96062203D01*
X155172698Y-96093965D01*
X155180895Y-96126688D01*
X155185845Y-96160057D01*
X155187500Y-96193750D01*
X155187500Y-97306250D01*
X155185845Y-97339943D01*
X155180895Y-97373312D01*
X155172698Y-97406035D01*
X155161334Y-97437797D01*
X155146910Y-97468293D01*
X155129568Y-97497227D01*
X155109472Y-97524323D01*
X155086818Y-97549318D01*
X155061823Y-97571972D01*
X155034727Y-97592068D01*
X155005793Y-97609410D01*
X154975297Y-97623834D01*
X154943535Y-97635198D01*
X154910812Y-97643395D01*
X154877443Y-97648345D01*
X154843750Y-97650000D01*
X154156250Y-97650000D01*
X154122557Y-97648345D01*
X154089188Y-97643395D01*
X154056465Y-97635198D01*
X154024703Y-97623834D01*
X153994207Y-97609410D01*
X153965273Y-97592068D01*
X153938177Y-97571972D01*
X153913182Y-97549318D01*
X153890528Y-97524323D01*
X153870432Y-97497227D01*
X153853090Y-97468293D01*
X153838666Y-97437797D01*
X153827302Y-97406035D01*
X153819105Y-97373312D01*
X153814155Y-97339943D01*
X153812500Y-97306250D01*
X153812500Y-96193750D01*
X153814155Y-96160057D01*
X153819105Y-96126688D01*
X153827302Y-96093965D01*
X153838666Y-96062203D01*
X153853090Y-96031707D01*
X153870432Y-96002773D01*
X153890528Y-95975677D01*
X153913182Y-95950682D01*
X153938177Y-95928028D01*
X153965273Y-95907932D01*
X153994207Y-95890590D01*
X154024703Y-95876166D01*
X154056465Y-95864802D01*
X154089188Y-95856605D01*
X154122557Y-95851655D01*
X154156250Y-95850000D01*
X154843750Y-95850000D01*
X154877443Y-95851655D01*
X154877443Y-95851655D01*
G37*
D16*
X154500000Y-96750000D03*
D11*
G36*
X155002443Y-102351655D02*
G01*
X155035812Y-102356605D01*
X155068535Y-102364802D01*
X155100297Y-102376166D01*
X155130793Y-102390590D01*
X155159727Y-102407932D01*
X155186823Y-102428028D01*
X155211818Y-102450682D01*
X155234472Y-102475677D01*
X155254568Y-102502773D01*
X155271910Y-102531707D01*
X155286334Y-102562203D01*
X155297698Y-102593965D01*
X155305895Y-102626688D01*
X155310845Y-102660057D01*
X155312500Y-102693750D01*
X155312500Y-103806250D01*
X155310845Y-103839943D01*
X155305895Y-103873312D01*
X155297698Y-103906035D01*
X155286334Y-103937797D01*
X155271910Y-103968293D01*
X155254568Y-103997227D01*
X155234472Y-104024323D01*
X155211818Y-104049318D01*
X155186823Y-104071972D01*
X155159727Y-104092068D01*
X155130793Y-104109410D01*
X155100297Y-104123834D01*
X155068535Y-104135198D01*
X155035812Y-104143395D01*
X155002443Y-104148345D01*
X154968750Y-104150000D01*
X154281250Y-104150000D01*
X154247557Y-104148345D01*
X154214188Y-104143395D01*
X154181465Y-104135198D01*
X154149703Y-104123834D01*
X154119207Y-104109410D01*
X154090273Y-104092068D01*
X154063177Y-104071972D01*
X154038182Y-104049318D01*
X154015528Y-104024323D01*
X153995432Y-103997227D01*
X153978090Y-103968293D01*
X153963666Y-103937797D01*
X153952302Y-103906035D01*
X153944105Y-103873312D01*
X153939155Y-103839943D01*
X153937500Y-103806250D01*
X153937500Y-102693750D01*
X153939155Y-102660057D01*
X153944105Y-102626688D01*
X153952302Y-102593965D01*
X153963666Y-102562203D01*
X153978090Y-102531707D01*
X153995432Y-102502773D01*
X154015528Y-102475677D01*
X154038182Y-102450682D01*
X154063177Y-102428028D01*
X154090273Y-102407932D01*
X154119207Y-102390590D01*
X154149703Y-102376166D01*
X154181465Y-102364802D01*
X154214188Y-102356605D01*
X154247557Y-102351655D01*
X154281250Y-102350000D01*
X154968750Y-102350000D01*
X155002443Y-102351655D01*
X155002443Y-102351655D01*
G37*
D16*
X154625000Y-103250000D03*
D11*
G36*
X153127443Y-102351655D02*
G01*
X153160812Y-102356605D01*
X153193535Y-102364802D01*
X153225297Y-102376166D01*
X153255793Y-102390590D01*
X153284727Y-102407932D01*
X153311823Y-102428028D01*
X153336818Y-102450682D01*
X153359472Y-102475677D01*
X153379568Y-102502773D01*
X153396910Y-102531707D01*
X153411334Y-102562203D01*
X153422698Y-102593965D01*
X153430895Y-102626688D01*
X153435845Y-102660057D01*
X153437500Y-102693750D01*
X153437500Y-103806250D01*
X153435845Y-103839943D01*
X153430895Y-103873312D01*
X153422698Y-103906035D01*
X153411334Y-103937797D01*
X153396910Y-103968293D01*
X153379568Y-103997227D01*
X153359472Y-104024323D01*
X153336818Y-104049318D01*
X153311823Y-104071972D01*
X153284727Y-104092068D01*
X153255793Y-104109410D01*
X153225297Y-104123834D01*
X153193535Y-104135198D01*
X153160812Y-104143395D01*
X153127443Y-104148345D01*
X153093750Y-104150000D01*
X152406250Y-104150000D01*
X152372557Y-104148345D01*
X152339188Y-104143395D01*
X152306465Y-104135198D01*
X152274703Y-104123834D01*
X152244207Y-104109410D01*
X152215273Y-104092068D01*
X152188177Y-104071972D01*
X152163182Y-104049318D01*
X152140528Y-104024323D01*
X152120432Y-103997227D01*
X152103090Y-103968293D01*
X152088666Y-103937797D01*
X152077302Y-103906035D01*
X152069105Y-103873312D01*
X152064155Y-103839943D01*
X152062500Y-103806250D01*
X152062500Y-102693750D01*
X152064155Y-102660057D01*
X152069105Y-102626688D01*
X152077302Y-102593965D01*
X152088666Y-102562203D01*
X152103090Y-102531707D01*
X152120432Y-102502773D01*
X152140528Y-102475677D01*
X152163182Y-102450682D01*
X152188177Y-102428028D01*
X152215273Y-102407932D01*
X152244207Y-102390590D01*
X152274703Y-102376166D01*
X152306465Y-102364802D01*
X152339188Y-102356605D01*
X152372557Y-102351655D01*
X152406250Y-102350000D01*
X153093750Y-102350000D01*
X153127443Y-102351655D01*
X153127443Y-102351655D01*
G37*
D16*
X152750000Y-103250000D03*
D11*
G36*
X153127443Y-99101655D02*
G01*
X153160812Y-99106605D01*
X153193535Y-99114802D01*
X153225297Y-99126166D01*
X153255793Y-99140590D01*
X153284727Y-99157932D01*
X153311823Y-99178028D01*
X153336818Y-99200682D01*
X153359472Y-99225677D01*
X153379568Y-99252773D01*
X153396910Y-99281707D01*
X153411334Y-99312203D01*
X153422698Y-99343965D01*
X153430895Y-99376688D01*
X153435845Y-99410057D01*
X153437500Y-99443750D01*
X153437500Y-100556250D01*
X153435845Y-100589943D01*
X153430895Y-100623312D01*
X153422698Y-100656035D01*
X153411334Y-100687797D01*
X153396910Y-100718293D01*
X153379568Y-100747227D01*
X153359472Y-100774323D01*
X153336818Y-100799318D01*
X153311823Y-100821972D01*
X153284727Y-100842068D01*
X153255793Y-100859410D01*
X153225297Y-100873834D01*
X153193535Y-100885198D01*
X153160812Y-100893395D01*
X153127443Y-100898345D01*
X153093750Y-100900000D01*
X152406250Y-100900000D01*
X152372557Y-100898345D01*
X152339188Y-100893395D01*
X152306465Y-100885198D01*
X152274703Y-100873834D01*
X152244207Y-100859410D01*
X152215273Y-100842068D01*
X152188177Y-100821972D01*
X152163182Y-100799318D01*
X152140528Y-100774323D01*
X152120432Y-100747227D01*
X152103090Y-100718293D01*
X152088666Y-100687797D01*
X152077302Y-100656035D01*
X152069105Y-100623312D01*
X152064155Y-100589943D01*
X152062500Y-100556250D01*
X152062500Y-99443750D01*
X152064155Y-99410057D01*
X152069105Y-99376688D01*
X152077302Y-99343965D01*
X152088666Y-99312203D01*
X152103090Y-99281707D01*
X152120432Y-99252773D01*
X152140528Y-99225677D01*
X152163182Y-99200682D01*
X152188177Y-99178028D01*
X152215273Y-99157932D01*
X152244207Y-99140590D01*
X152274703Y-99126166D01*
X152306465Y-99114802D01*
X152339188Y-99106605D01*
X152372557Y-99101655D01*
X152406250Y-99100000D01*
X153093750Y-99100000D01*
X153127443Y-99101655D01*
X153127443Y-99101655D01*
G37*
D16*
X152750000Y-100000000D03*
D11*
G36*
X155002443Y-99101655D02*
G01*
X155035812Y-99106605D01*
X155068535Y-99114802D01*
X155100297Y-99126166D01*
X155130793Y-99140590D01*
X155159727Y-99157932D01*
X155186823Y-99178028D01*
X155211818Y-99200682D01*
X155234472Y-99225677D01*
X155254568Y-99252773D01*
X155271910Y-99281707D01*
X155286334Y-99312203D01*
X155297698Y-99343965D01*
X155305895Y-99376688D01*
X155310845Y-99410057D01*
X155312500Y-99443750D01*
X155312500Y-100556250D01*
X155310845Y-100589943D01*
X155305895Y-100623312D01*
X155297698Y-100656035D01*
X155286334Y-100687797D01*
X155271910Y-100718293D01*
X155254568Y-100747227D01*
X155234472Y-100774323D01*
X155211818Y-100799318D01*
X155186823Y-100821972D01*
X155159727Y-100842068D01*
X155130793Y-100859410D01*
X155100297Y-100873834D01*
X155068535Y-100885198D01*
X155035812Y-100893395D01*
X155002443Y-100898345D01*
X154968750Y-100900000D01*
X154281250Y-100900000D01*
X154247557Y-100898345D01*
X154214188Y-100893395D01*
X154181465Y-100885198D01*
X154149703Y-100873834D01*
X154119207Y-100859410D01*
X154090273Y-100842068D01*
X154063177Y-100821972D01*
X154038182Y-100799318D01*
X154015528Y-100774323D01*
X153995432Y-100747227D01*
X153978090Y-100718293D01*
X153963666Y-100687797D01*
X153952302Y-100656035D01*
X153944105Y-100623312D01*
X153939155Y-100589943D01*
X153937500Y-100556250D01*
X153937500Y-99443750D01*
X153939155Y-99410057D01*
X153944105Y-99376688D01*
X153952302Y-99343965D01*
X153963666Y-99312203D01*
X153978090Y-99281707D01*
X153995432Y-99252773D01*
X154015528Y-99225677D01*
X154038182Y-99200682D01*
X154063177Y-99178028D01*
X154090273Y-99157932D01*
X154119207Y-99140590D01*
X154149703Y-99126166D01*
X154181465Y-99114802D01*
X154214188Y-99106605D01*
X154247557Y-99101655D01*
X154281250Y-99100000D01*
X154968750Y-99100000D01*
X155002443Y-99101655D01*
X155002443Y-99101655D01*
G37*
D16*
X154625000Y-100000000D03*
D11*
G36*
X131314943Y-104351655D02*
G01*
X131348312Y-104356605D01*
X131381035Y-104364802D01*
X131412797Y-104376166D01*
X131443293Y-104390590D01*
X131472227Y-104407932D01*
X131499323Y-104428028D01*
X131524318Y-104450682D01*
X131546972Y-104475677D01*
X131567068Y-104502773D01*
X131584410Y-104531707D01*
X131598834Y-104562203D01*
X131610198Y-104593965D01*
X131618395Y-104626688D01*
X131623345Y-104660057D01*
X131625000Y-104693750D01*
X131625000Y-105806250D01*
X131623345Y-105839943D01*
X131618395Y-105873312D01*
X131610198Y-105906035D01*
X131598834Y-105937797D01*
X131584410Y-105968293D01*
X131567068Y-105997227D01*
X131546972Y-106024323D01*
X131524318Y-106049318D01*
X131499323Y-106071972D01*
X131472227Y-106092068D01*
X131443293Y-106109410D01*
X131412797Y-106123834D01*
X131381035Y-106135198D01*
X131348312Y-106143395D01*
X131314943Y-106148345D01*
X131281250Y-106150000D01*
X130593750Y-106150000D01*
X130560057Y-106148345D01*
X130526688Y-106143395D01*
X130493965Y-106135198D01*
X130462203Y-106123834D01*
X130431707Y-106109410D01*
X130402773Y-106092068D01*
X130375677Y-106071972D01*
X130350682Y-106049318D01*
X130328028Y-106024323D01*
X130307932Y-105997227D01*
X130290590Y-105968293D01*
X130276166Y-105937797D01*
X130264802Y-105906035D01*
X130256605Y-105873312D01*
X130251655Y-105839943D01*
X130250000Y-105806250D01*
X130250000Y-104693750D01*
X130251655Y-104660057D01*
X130256605Y-104626688D01*
X130264802Y-104593965D01*
X130276166Y-104562203D01*
X130290590Y-104531707D01*
X130307932Y-104502773D01*
X130328028Y-104475677D01*
X130350682Y-104450682D01*
X130375677Y-104428028D01*
X130402773Y-104407932D01*
X130431707Y-104390590D01*
X130462203Y-104376166D01*
X130493965Y-104364802D01*
X130526688Y-104356605D01*
X130560057Y-104351655D01*
X130593750Y-104350000D01*
X131281250Y-104350000D01*
X131314943Y-104351655D01*
X131314943Y-104351655D01*
G37*
D16*
X130937500Y-105250000D03*
D11*
G36*
X129439943Y-104351655D02*
G01*
X129473312Y-104356605D01*
X129506035Y-104364802D01*
X129537797Y-104376166D01*
X129568293Y-104390590D01*
X129597227Y-104407932D01*
X129624323Y-104428028D01*
X129649318Y-104450682D01*
X129671972Y-104475677D01*
X129692068Y-104502773D01*
X129709410Y-104531707D01*
X129723834Y-104562203D01*
X129735198Y-104593965D01*
X129743395Y-104626688D01*
X129748345Y-104660057D01*
X129750000Y-104693750D01*
X129750000Y-105806250D01*
X129748345Y-105839943D01*
X129743395Y-105873312D01*
X129735198Y-105906035D01*
X129723834Y-105937797D01*
X129709410Y-105968293D01*
X129692068Y-105997227D01*
X129671972Y-106024323D01*
X129649318Y-106049318D01*
X129624323Y-106071972D01*
X129597227Y-106092068D01*
X129568293Y-106109410D01*
X129537797Y-106123834D01*
X129506035Y-106135198D01*
X129473312Y-106143395D01*
X129439943Y-106148345D01*
X129406250Y-106150000D01*
X128718750Y-106150000D01*
X128685057Y-106148345D01*
X128651688Y-106143395D01*
X128618965Y-106135198D01*
X128587203Y-106123834D01*
X128556707Y-106109410D01*
X128527773Y-106092068D01*
X128500677Y-106071972D01*
X128475682Y-106049318D01*
X128453028Y-106024323D01*
X128432932Y-105997227D01*
X128415590Y-105968293D01*
X128401166Y-105937797D01*
X128389802Y-105906035D01*
X128381605Y-105873312D01*
X128376655Y-105839943D01*
X128375000Y-105806250D01*
X128375000Y-104693750D01*
X128376655Y-104660057D01*
X128381605Y-104626688D01*
X128389802Y-104593965D01*
X128401166Y-104562203D01*
X128415590Y-104531707D01*
X128432932Y-104502773D01*
X128453028Y-104475677D01*
X128475682Y-104450682D01*
X128500677Y-104428028D01*
X128527773Y-104407932D01*
X128556707Y-104390590D01*
X128587203Y-104376166D01*
X128618965Y-104364802D01*
X128651688Y-104356605D01*
X128685057Y-104351655D01*
X128718750Y-104350000D01*
X129406250Y-104350000D01*
X129439943Y-104351655D01*
X129439943Y-104351655D01*
G37*
D16*
X129062500Y-105250000D03*
D21*
X128096203Y-117050386D03*
D11*
G36*
X127572631Y-116337384D02*
G01*
X128848746Y-116585436D01*
X128619775Y-117763388D01*
X127343660Y-117515336D01*
X127572631Y-116337384D01*
X127572631Y-116337384D01*
G37*
D21*
X126646055Y-124510753D03*
D11*
G36*
X126122483Y-123797751D02*
G01*
X127398598Y-124045803D01*
X127169627Y-125223755D01*
X125893512Y-124975703D01*
X126122483Y-123797751D01*
X126122483Y-123797751D01*
G37*
D21*
X128901889Y-124959430D03*
D11*
G36*
X128378317Y-124246428D02*
G01*
X129654432Y-124494480D01*
X129425461Y-125672432D01*
X128149346Y-125424380D01*
X128378317Y-124246428D01*
X128378317Y-124246428D01*
G37*
D21*
X130353945Y-117489247D03*
D11*
G36*
X129830373Y-116776245D02*
G01*
X131106488Y-117024297D01*
X130877517Y-118202249D01*
X129601402Y-117954197D01*
X129830373Y-116776245D01*
X129830373Y-116776245D01*
G37*
D22*
X131015278Y-119196808D03*
D11*
G36*
X130329461Y-118401333D02*
G01*
X131949146Y-118716168D01*
X131701095Y-119992283D01*
X130081410Y-119677448D01*
X130329461Y-118401333D01*
X130329461Y-118401333D01*
G37*
D22*
X130729065Y-120669249D03*
D11*
G36*
X130043248Y-119873774D02*
G01*
X131662933Y-120188609D01*
X131414882Y-121464724D01*
X129795197Y-121149889D01*
X130043248Y-119873774D01*
X130043248Y-119873774D01*
G37*
D22*
X130156638Y-123614130D03*
D11*
G36*
X129470821Y-122818655D02*
G01*
X131090506Y-123133490D01*
X130842455Y-124409605D01*
X129222770Y-124094770D01*
X129470821Y-122818655D01*
X129470821Y-122818655D01*
G37*
D22*
X128213787Y-122472441D03*
X128786213Y-119527559D03*
M02*
