G04 #@! TF.GenerationSoftware,KiCad,Pcbnew,5.1.2*
G04 #@! TF.CreationDate,2019-06-30T18:17:39-05:00*
G04 #@! TF.ProjectId,PartyStar,50617274-7953-4746-9172-2e6b69636164,rev?*
G04 #@! TF.SameCoordinates,Original*
G04 #@! TF.FileFunction,Soldermask,Bot*
G04 #@! TF.FilePolarity,Negative*
%FSLAX46Y46*%
G04 Gerber Fmt 4.6, Leading zero omitted, Abs format (unit mm)*
G04 Created by KiCad (PCBNEW 5.1.2) date 2019-06-30 18:17:39*
%MOMM*%
%LPD*%
G04 APERTURE LIST*
%ADD10C,0.100000*%
%ADD11C,3.400000*%
%ADD12R,8.400000X5.960000*%
%ADD13R,3.000000X5.960000*%
%ADD14C,1.650000*%
%ADD15C,1.375000*%
%ADD16R,1.400000X3.550000*%
%ADD17C,0.500000*%
%ADD18R,1.300000X1.200000*%
%ADD19R,1.200000X1.300000*%
%ADD20C,1.200000*%
%ADD21C,1.300000*%
G04 APERTURE END LIST*
D10*
G36*
X125800000Y-135950000D02*
G01*
X122100000Y-135950000D01*
X122100000Y-138050000D01*
X125800000Y-138050000D01*
X125800000Y-135950000D01*
G37*
X125800000Y-135950000D02*
X122100000Y-135950000D01*
X122100000Y-138050000D01*
X125800000Y-138050000D01*
X125800000Y-135950000D01*
G36*
X109350000Y-98800000D02*
G01*
X113050000Y-98800000D01*
X113050000Y-96700000D01*
X109350000Y-96700000D01*
X109350000Y-98800000D01*
G37*
X109350000Y-98800000D02*
X113050000Y-98800000D01*
X113050000Y-96700000D01*
X109350000Y-96700000D01*
X109350000Y-98800000D01*
G36*
X143100000Y-74550000D02*
G01*
X146800000Y-74550000D01*
X146800000Y-72450000D01*
X143100000Y-72450000D01*
X143100000Y-74550000D01*
G37*
X143100000Y-74550000D02*
X146800000Y-74550000D01*
X146800000Y-72450000D01*
X143100000Y-72450000D01*
X143100000Y-74550000D01*
G36*
X177600000Y-99050000D02*
G01*
X181300000Y-99050000D01*
X181300000Y-96950000D01*
X177600000Y-96950000D01*
X177600000Y-99050000D01*
G37*
X177600000Y-99050000D02*
X181300000Y-99050000D01*
X181300000Y-96950000D01*
X177600000Y-96950000D01*
X177600000Y-99050000D01*
D11*
X144900000Y-82125000D03*
D12*
X145000000Y-112500000D03*
D13*
X156905000Y-112500000D03*
X133095000Y-112500000D03*
D10*
G36*
X162027346Y-105676589D02*
G01*
X162059380Y-105681341D01*
X162090794Y-105689210D01*
X162121286Y-105700120D01*
X162150561Y-105713966D01*
X162178338Y-105730615D01*
X162204350Y-105749907D01*
X162228345Y-105771655D01*
X162250093Y-105795650D01*
X162269385Y-105821662D01*
X162286034Y-105849439D01*
X162299880Y-105878714D01*
X162310790Y-105909206D01*
X162318659Y-105940620D01*
X162323411Y-105972654D01*
X162325000Y-106005000D01*
X162325000Y-107495000D01*
X162323411Y-107527346D01*
X162318659Y-107559380D01*
X162310790Y-107590794D01*
X162299880Y-107621286D01*
X162286034Y-107650561D01*
X162269385Y-107678338D01*
X162250093Y-107704350D01*
X162228345Y-107728345D01*
X162204350Y-107750093D01*
X162178338Y-107769385D01*
X162150561Y-107786034D01*
X162121286Y-107799880D01*
X162090794Y-107810790D01*
X162059380Y-107818659D01*
X162027346Y-107823411D01*
X161995000Y-107825000D01*
X161005000Y-107825000D01*
X160972654Y-107823411D01*
X160940620Y-107818659D01*
X160909206Y-107810790D01*
X160878714Y-107799880D01*
X160849439Y-107786034D01*
X160821662Y-107769385D01*
X160795650Y-107750093D01*
X160771655Y-107728345D01*
X160749907Y-107704350D01*
X160730615Y-107678338D01*
X160713966Y-107650561D01*
X160700120Y-107621286D01*
X160689210Y-107590794D01*
X160681341Y-107559380D01*
X160676589Y-107527346D01*
X160675000Y-107495000D01*
X160675000Y-106005000D01*
X160676589Y-105972654D01*
X160681341Y-105940620D01*
X160689210Y-105909206D01*
X160700120Y-105878714D01*
X160713966Y-105849439D01*
X160730615Y-105821662D01*
X160749907Y-105795650D01*
X160771655Y-105771655D01*
X160795650Y-105749907D01*
X160821662Y-105730615D01*
X160849439Y-105713966D01*
X160878714Y-105700120D01*
X160909206Y-105689210D01*
X160940620Y-105681341D01*
X160972654Y-105676589D01*
X161005000Y-105675000D01*
X161995000Y-105675000D01*
X162027346Y-105676589D01*
X162027346Y-105676589D01*
G37*
D14*
X161500000Y-106750000D03*
D10*
G36*
X159227346Y-105676589D02*
G01*
X159259380Y-105681341D01*
X159290794Y-105689210D01*
X159321286Y-105700120D01*
X159350561Y-105713966D01*
X159378338Y-105730615D01*
X159404350Y-105749907D01*
X159428345Y-105771655D01*
X159450093Y-105795650D01*
X159469385Y-105821662D01*
X159486034Y-105849439D01*
X159499880Y-105878714D01*
X159510790Y-105909206D01*
X159518659Y-105940620D01*
X159523411Y-105972654D01*
X159525000Y-106005000D01*
X159525000Y-107495000D01*
X159523411Y-107527346D01*
X159518659Y-107559380D01*
X159510790Y-107590794D01*
X159499880Y-107621286D01*
X159486034Y-107650561D01*
X159469385Y-107678338D01*
X159450093Y-107704350D01*
X159428345Y-107728345D01*
X159404350Y-107750093D01*
X159378338Y-107769385D01*
X159350561Y-107786034D01*
X159321286Y-107799880D01*
X159290794Y-107810790D01*
X159259380Y-107818659D01*
X159227346Y-107823411D01*
X159195000Y-107825000D01*
X158205000Y-107825000D01*
X158172654Y-107823411D01*
X158140620Y-107818659D01*
X158109206Y-107810790D01*
X158078714Y-107799880D01*
X158049439Y-107786034D01*
X158021662Y-107769385D01*
X157995650Y-107750093D01*
X157971655Y-107728345D01*
X157949907Y-107704350D01*
X157930615Y-107678338D01*
X157913966Y-107650561D01*
X157900120Y-107621286D01*
X157889210Y-107590794D01*
X157881341Y-107559380D01*
X157876589Y-107527346D01*
X157875000Y-107495000D01*
X157875000Y-106005000D01*
X157876589Y-105972654D01*
X157881341Y-105940620D01*
X157889210Y-105909206D01*
X157900120Y-105878714D01*
X157913966Y-105849439D01*
X157930615Y-105821662D01*
X157949907Y-105795650D01*
X157971655Y-105771655D01*
X157995650Y-105749907D01*
X158021662Y-105730615D01*
X158049439Y-105713966D01*
X158078714Y-105700120D01*
X158109206Y-105689210D01*
X158140620Y-105681341D01*
X158172654Y-105676589D01*
X158205000Y-105675000D01*
X159195000Y-105675000D01*
X159227346Y-105676589D01*
X159227346Y-105676589D01*
G37*
D14*
X158700000Y-106750000D03*
D10*
G36*
X167277346Y-105676589D02*
G01*
X167309380Y-105681341D01*
X167340794Y-105689210D01*
X167371286Y-105700120D01*
X167400561Y-105713966D01*
X167428338Y-105730615D01*
X167454350Y-105749907D01*
X167478345Y-105771655D01*
X167500093Y-105795650D01*
X167519385Y-105821662D01*
X167536034Y-105849439D01*
X167549880Y-105878714D01*
X167560790Y-105909206D01*
X167568659Y-105940620D01*
X167573411Y-105972654D01*
X167575000Y-106005000D01*
X167575000Y-107495000D01*
X167573411Y-107527346D01*
X167568659Y-107559380D01*
X167560790Y-107590794D01*
X167549880Y-107621286D01*
X167536034Y-107650561D01*
X167519385Y-107678338D01*
X167500093Y-107704350D01*
X167478345Y-107728345D01*
X167454350Y-107750093D01*
X167428338Y-107769385D01*
X167400561Y-107786034D01*
X167371286Y-107799880D01*
X167340794Y-107810790D01*
X167309380Y-107818659D01*
X167277346Y-107823411D01*
X167245000Y-107825000D01*
X166255000Y-107825000D01*
X166222654Y-107823411D01*
X166190620Y-107818659D01*
X166159206Y-107810790D01*
X166128714Y-107799880D01*
X166099439Y-107786034D01*
X166071662Y-107769385D01*
X166045650Y-107750093D01*
X166021655Y-107728345D01*
X165999907Y-107704350D01*
X165980615Y-107678338D01*
X165963966Y-107650561D01*
X165950120Y-107621286D01*
X165939210Y-107590794D01*
X165931341Y-107559380D01*
X165926589Y-107527346D01*
X165925000Y-107495000D01*
X165925000Y-106005000D01*
X165926589Y-105972654D01*
X165931341Y-105940620D01*
X165939210Y-105909206D01*
X165950120Y-105878714D01*
X165963966Y-105849439D01*
X165980615Y-105821662D01*
X165999907Y-105795650D01*
X166021655Y-105771655D01*
X166045650Y-105749907D01*
X166071662Y-105730615D01*
X166099439Y-105713966D01*
X166128714Y-105700120D01*
X166159206Y-105689210D01*
X166190620Y-105681341D01*
X166222654Y-105676589D01*
X166255000Y-105675000D01*
X167245000Y-105675000D01*
X167277346Y-105676589D01*
X167277346Y-105676589D01*
G37*
D14*
X166750000Y-106750000D03*
D10*
G36*
X164477346Y-105676589D02*
G01*
X164509380Y-105681341D01*
X164540794Y-105689210D01*
X164571286Y-105700120D01*
X164600561Y-105713966D01*
X164628338Y-105730615D01*
X164654350Y-105749907D01*
X164678345Y-105771655D01*
X164700093Y-105795650D01*
X164719385Y-105821662D01*
X164736034Y-105849439D01*
X164749880Y-105878714D01*
X164760790Y-105909206D01*
X164768659Y-105940620D01*
X164773411Y-105972654D01*
X164775000Y-106005000D01*
X164775000Y-107495000D01*
X164773411Y-107527346D01*
X164768659Y-107559380D01*
X164760790Y-107590794D01*
X164749880Y-107621286D01*
X164736034Y-107650561D01*
X164719385Y-107678338D01*
X164700093Y-107704350D01*
X164678345Y-107728345D01*
X164654350Y-107750093D01*
X164628338Y-107769385D01*
X164600561Y-107786034D01*
X164571286Y-107799880D01*
X164540794Y-107810790D01*
X164509380Y-107818659D01*
X164477346Y-107823411D01*
X164445000Y-107825000D01*
X163455000Y-107825000D01*
X163422654Y-107823411D01*
X163390620Y-107818659D01*
X163359206Y-107810790D01*
X163328714Y-107799880D01*
X163299439Y-107786034D01*
X163271662Y-107769385D01*
X163245650Y-107750093D01*
X163221655Y-107728345D01*
X163199907Y-107704350D01*
X163180615Y-107678338D01*
X163163966Y-107650561D01*
X163150120Y-107621286D01*
X163139210Y-107590794D01*
X163131341Y-107559380D01*
X163126589Y-107527346D01*
X163125000Y-107495000D01*
X163125000Y-106005000D01*
X163126589Y-105972654D01*
X163131341Y-105940620D01*
X163139210Y-105909206D01*
X163150120Y-105878714D01*
X163163966Y-105849439D01*
X163180615Y-105821662D01*
X163199907Y-105795650D01*
X163221655Y-105771655D01*
X163245650Y-105749907D01*
X163271662Y-105730615D01*
X163299439Y-105713966D01*
X163328714Y-105700120D01*
X163359206Y-105689210D01*
X163390620Y-105681341D01*
X163422654Y-105676589D01*
X163455000Y-105675000D01*
X164445000Y-105675000D01*
X164477346Y-105676589D01*
X164477346Y-105676589D01*
G37*
D14*
X163950000Y-106750000D03*
D10*
G36*
X125377443Y-136101655D02*
G01*
X125410812Y-136106605D01*
X125443535Y-136114802D01*
X125475297Y-136126166D01*
X125505793Y-136140590D01*
X125534727Y-136157932D01*
X125561823Y-136178028D01*
X125586818Y-136200682D01*
X125609472Y-136225677D01*
X125629568Y-136252773D01*
X125646910Y-136281707D01*
X125661334Y-136312203D01*
X125672698Y-136343965D01*
X125680895Y-136376688D01*
X125685845Y-136410057D01*
X125687500Y-136443750D01*
X125687500Y-137556250D01*
X125685845Y-137589943D01*
X125680895Y-137623312D01*
X125672698Y-137656035D01*
X125661334Y-137687797D01*
X125646910Y-137718293D01*
X125629568Y-137747227D01*
X125609472Y-137774323D01*
X125586818Y-137799318D01*
X125561823Y-137821972D01*
X125534727Y-137842068D01*
X125505793Y-137859410D01*
X125475297Y-137873834D01*
X125443535Y-137885198D01*
X125410812Y-137893395D01*
X125377443Y-137898345D01*
X125343750Y-137900000D01*
X124656250Y-137900000D01*
X124622557Y-137898345D01*
X124589188Y-137893395D01*
X124556465Y-137885198D01*
X124524703Y-137873834D01*
X124494207Y-137859410D01*
X124465273Y-137842068D01*
X124438177Y-137821972D01*
X124413182Y-137799318D01*
X124390528Y-137774323D01*
X124370432Y-137747227D01*
X124353090Y-137718293D01*
X124338666Y-137687797D01*
X124327302Y-137656035D01*
X124319105Y-137623312D01*
X124314155Y-137589943D01*
X124312500Y-137556250D01*
X124312500Y-136443750D01*
X124314155Y-136410057D01*
X124319105Y-136376688D01*
X124327302Y-136343965D01*
X124338666Y-136312203D01*
X124353090Y-136281707D01*
X124370432Y-136252773D01*
X124390528Y-136225677D01*
X124413182Y-136200682D01*
X124438177Y-136178028D01*
X124465273Y-136157932D01*
X124494207Y-136140590D01*
X124524703Y-136126166D01*
X124556465Y-136114802D01*
X124589188Y-136106605D01*
X124622557Y-136101655D01*
X124656250Y-136100000D01*
X125343750Y-136100000D01*
X125377443Y-136101655D01*
X125377443Y-136101655D01*
G37*
D15*
X125000000Y-137000000D03*
D10*
G36*
X123277443Y-136101655D02*
G01*
X123310812Y-136106605D01*
X123343535Y-136114802D01*
X123375297Y-136126166D01*
X123405793Y-136140590D01*
X123434727Y-136157932D01*
X123461823Y-136178028D01*
X123486818Y-136200682D01*
X123509472Y-136225677D01*
X123529568Y-136252773D01*
X123546910Y-136281707D01*
X123561334Y-136312203D01*
X123572698Y-136343965D01*
X123580895Y-136376688D01*
X123585845Y-136410057D01*
X123587500Y-136443750D01*
X123587500Y-137556250D01*
X123585845Y-137589943D01*
X123580895Y-137623312D01*
X123572698Y-137656035D01*
X123561334Y-137687797D01*
X123546910Y-137718293D01*
X123529568Y-137747227D01*
X123509472Y-137774323D01*
X123486818Y-137799318D01*
X123461823Y-137821972D01*
X123434727Y-137842068D01*
X123405793Y-137859410D01*
X123375297Y-137873834D01*
X123343535Y-137885198D01*
X123310812Y-137893395D01*
X123277443Y-137898345D01*
X123243750Y-137900000D01*
X122556250Y-137900000D01*
X122522557Y-137898345D01*
X122489188Y-137893395D01*
X122456465Y-137885198D01*
X122424703Y-137873834D01*
X122394207Y-137859410D01*
X122365273Y-137842068D01*
X122338177Y-137821972D01*
X122313182Y-137799318D01*
X122290528Y-137774323D01*
X122270432Y-137747227D01*
X122253090Y-137718293D01*
X122238666Y-137687797D01*
X122227302Y-137656035D01*
X122219105Y-137623312D01*
X122214155Y-137589943D01*
X122212500Y-137556250D01*
X122212500Y-136443750D01*
X122214155Y-136410057D01*
X122219105Y-136376688D01*
X122227302Y-136343965D01*
X122238666Y-136312203D01*
X122253090Y-136281707D01*
X122270432Y-136252773D01*
X122290528Y-136225677D01*
X122313182Y-136200682D01*
X122338177Y-136178028D01*
X122365273Y-136157932D01*
X122394207Y-136140590D01*
X122424703Y-136126166D01*
X122456465Y-136114802D01*
X122489188Y-136106605D01*
X122522557Y-136101655D01*
X122556250Y-136100000D01*
X123243750Y-136100000D01*
X123277443Y-136101655D01*
X123277443Y-136101655D01*
G37*
D15*
X122900000Y-137000000D03*
D10*
G36*
X110527443Y-96851655D02*
G01*
X110560812Y-96856605D01*
X110593535Y-96864802D01*
X110625297Y-96876166D01*
X110655793Y-96890590D01*
X110684727Y-96907932D01*
X110711823Y-96928028D01*
X110736818Y-96950682D01*
X110759472Y-96975677D01*
X110779568Y-97002773D01*
X110796910Y-97031707D01*
X110811334Y-97062203D01*
X110822698Y-97093965D01*
X110830895Y-97126688D01*
X110835845Y-97160057D01*
X110837500Y-97193750D01*
X110837500Y-98306250D01*
X110835845Y-98339943D01*
X110830895Y-98373312D01*
X110822698Y-98406035D01*
X110811334Y-98437797D01*
X110796910Y-98468293D01*
X110779568Y-98497227D01*
X110759472Y-98524323D01*
X110736818Y-98549318D01*
X110711823Y-98571972D01*
X110684727Y-98592068D01*
X110655793Y-98609410D01*
X110625297Y-98623834D01*
X110593535Y-98635198D01*
X110560812Y-98643395D01*
X110527443Y-98648345D01*
X110493750Y-98650000D01*
X109806250Y-98650000D01*
X109772557Y-98648345D01*
X109739188Y-98643395D01*
X109706465Y-98635198D01*
X109674703Y-98623834D01*
X109644207Y-98609410D01*
X109615273Y-98592068D01*
X109588177Y-98571972D01*
X109563182Y-98549318D01*
X109540528Y-98524323D01*
X109520432Y-98497227D01*
X109503090Y-98468293D01*
X109488666Y-98437797D01*
X109477302Y-98406035D01*
X109469105Y-98373312D01*
X109464155Y-98339943D01*
X109462500Y-98306250D01*
X109462500Y-97193750D01*
X109464155Y-97160057D01*
X109469105Y-97126688D01*
X109477302Y-97093965D01*
X109488666Y-97062203D01*
X109503090Y-97031707D01*
X109520432Y-97002773D01*
X109540528Y-96975677D01*
X109563182Y-96950682D01*
X109588177Y-96928028D01*
X109615273Y-96907932D01*
X109644207Y-96890590D01*
X109674703Y-96876166D01*
X109706465Y-96864802D01*
X109739188Y-96856605D01*
X109772557Y-96851655D01*
X109806250Y-96850000D01*
X110493750Y-96850000D01*
X110527443Y-96851655D01*
X110527443Y-96851655D01*
G37*
D15*
X110150000Y-97750000D03*
D10*
G36*
X112627443Y-96851655D02*
G01*
X112660812Y-96856605D01*
X112693535Y-96864802D01*
X112725297Y-96876166D01*
X112755793Y-96890590D01*
X112784727Y-96907932D01*
X112811823Y-96928028D01*
X112836818Y-96950682D01*
X112859472Y-96975677D01*
X112879568Y-97002773D01*
X112896910Y-97031707D01*
X112911334Y-97062203D01*
X112922698Y-97093965D01*
X112930895Y-97126688D01*
X112935845Y-97160057D01*
X112937500Y-97193750D01*
X112937500Y-98306250D01*
X112935845Y-98339943D01*
X112930895Y-98373312D01*
X112922698Y-98406035D01*
X112911334Y-98437797D01*
X112896910Y-98468293D01*
X112879568Y-98497227D01*
X112859472Y-98524323D01*
X112836818Y-98549318D01*
X112811823Y-98571972D01*
X112784727Y-98592068D01*
X112755793Y-98609410D01*
X112725297Y-98623834D01*
X112693535Y-98635198D01*
X112660812Y-98643395D01*
X112627443Y-98648345D01*
X112593750Y-98650000D01*
X111906250Y-98650000D01*
X111872557Y-98648345D01*
X111839188Y-98643395D01*
X111806465Y-98635198D01*
X111774703Y-98623834D01*
X111744207Y-98609410D01*
X111715273Y-98592068D01*
X111688177Y-98571972D01*
X111663182Y-98549318D01*
X111640528Y-98524323D01*
X111620432Y-98497227D01*
X111603090Y-98468293D01*
X111588666Y-98437797D01*
X111577302Y-98406035D01*
X111569105Y-98373312D01*
X111564155Y-98339943D01*
X111562500Y-98306250D01*
X111562500Y-97193750D01*
X111564155Y-97160057D01*
X111569105Y-97126688D01*
X111577302Y-97093965D01*
X111588666Y-97062203D01*
X111603090Y-97031707D01*
X111620432Y-97002773D01*
X111640528Y-96975677D01*
X111663182Y-96950682D01*
X111688177Y-96928028D01*
X111715273Y-96907932D01*
X111744207Y-96890590D01*
X111774703Y-96876166D01*
X111806465Y-96864802D01*
X111839188Y-96856605D01*
X111872557Y-96851655D01*
X111906250Y-96850000D01*
X112593750Y-96850000D01*
X112627443Y-96851655D01*
X112627443Y-96851655D01*
G37*
D15*
X112250000Y-97750000D03*
D10*
G36*
X146377443Y-72601655D02*
G01*
X146410812Y-72606605D01*
X146443535Y-72614802D01*
X146475297Y-72626166D01*
X146505793Y-72640590D01*
X146534727Y-72657932D01*
X146561823Y-72678028D01*
X146586818Y-72700682D01*
X146609472Y-72725677D01*
X146629568Y-72752773D01*
X146646910Y-72781707D01*
X146661334Y-72812203D01*
X146672698Y-72843965D01*
X146680895Y-72876688D01*
X146685845Y-72910057D01*
X146687500Y-72943750D01*
X146687500Y-74056250D01*
X146685845Y-74089943D01*
X146680895Y-74123312D01*
X146672698Y-74156035D01*
X146661334Y-74187797D01*
X146646910Y-74218293D01*
X146629568Y-74247227D01*
X146609472Y-74274323D01*
X146586818Y-74299318D01*
X146561823Y-74321972D01*
X146534727Y-74342068D01*
X146505793Y-74359410D01*
X146475297Y-74373834D01*
X146443535Y-74385198D01*
X146410812Y-74393395D01*
X146377443Y-74398345D01*
X146343750Y-74400000D01*
X145656250Y-74400000D01*
X145622557Y-74398345D01*
X145589188Y-74393395D01*
X145556465Y-74385198D01*
X145524703Y-74373834D01*
X145494207Y-74359410D01*
X145465273Y-74342068D01*
X145438177Y-74321972D01*
X145413182Y-74299318D01*
X145390528Y-74274323D01*
X145370432Y-74247227D01*
X145353090Y-74218293D01*
X145338666Y-74187797D01*
X145327302Y-74156035D01*
X145319105Y-74123312D01*
X145314155Y-74089943D01*
X145312500Y-74056250D01*
X145312500Y-72943750D01*
X145314155Y-72910057D01*
X145319105Y-72876688D01*
X145327302Y-72843965D01*
X145338666Y-72812203D01*
X145353090Y-72781707D01*
X145370432Y-72752773D01*
X145390528Y-72725677D01*
X145413182Y-72700682D01*
X145438177Y-72678028D01*
X145465273Y-72657932D01*
X145494207Y-72640590D01*
X145524703Y-72626166D01*
X145556465Y-72614802D01*
X145589188Y-72606605D01*
X145622557Y-72601655D01*
X145656250Y-72600000D01*
X146343750Y-72600000D01*
X146377443Y-72601655D01*
X146377443Y-72601655D01*
G37*
D15*
X146000000Y-73500000D03*
D10*
G36*
X144277443Y-72601655D02*
G01*
X144310812Y-72606605D01*
X144343535Y-72614802D01*
X144375297Y-72626166D01*
X144405793Y-72640590D01*
X144434727Y-72657932D01*
X144461823Y-72678028D01*
X144486818Y-72700682D01*
X144509472Y-72725677D01*
X144529568Y-72752773D01*
X144546910Y-72781707D01*
X144561334Y-72812203D01*
X144572698Y-72843965D01*
X144580895Y-72876688D01*
X144585845Y-72910057D01*
X144587500Y-72943750D01*
X144587500Y-74056250D01*
X144585845Y-74089943D01*
X144580895Y-74123312D01*
X144572698Y-74156035D01*
X144561334Y-74187797D01*
X144546910Y-74218293D01*
X144529568Y-74247227D01*
X144509472Y-74274323D01*
X144486818Y-74299318D01*
X144461823Y-74321972D01*
X144434727Y-74342068D01*
X144405793Y-74359410D01*
X144375297Y-74373834D01*
X144343535Y-74385198D01*
X144310812Y-74393395D01*
X144277443Y-74398345D01*
X144243750Y-74400000D01*
X143556250Y-74400000D01*
X143522557Y-74398345D01*
X143489188Y-74393395D01*
X143456465Y-74385198D01*
X143424703Y-74373834D01*
X143394207Y-74359410D01*
X143365273Y-74342068D01*
X143338177Y-74321972D01*
X143313182Y-74299318D01*
X143290528Y-74274323D01*
X143270432Y-74247227D01*
X143253090Y-74218293D01*
X143238666Y-74187797D01*
X143227302Y-74156035D01*
X143219105Y-74123312D01*
X143214155Y-74089943D01*
X143212500Y-74056250D01*
X143212500Y-72943750D01*
X143214155Y-72910057D01*
X143219105Y-72876688D01*
X143227302Y-72843965D01*
X143238666Y-72812203D01*
X143253090Y-72781707D01*
X143270432Y-72752773D01*
X143290528Y-72725677D01*
X143313182Y-72700682D01*
X143338177Y-72678028D01*
X143365273Y-72657932D01*
X143394207Y-72640590D01*
X143424703Y-72626166D01*
X143456465Y-72614802D01*
X143489188Y-72606605D01*
X143522557Y-72601655D01*
X143556250Y-72600000D01*
X144243750Y-72600000D01*
X144277443Y-72601655D01*
X144277443Y-72601655D01*
G37*
D15*
X143900000Y-73500000D03*
D10*
G36*
X180877443Y-97101655D02*
G01*
X180910812Y-97106605D01*
X180943535Y-97114802D01*
X180975297Y-97126166D01*
X181005793Y-97140590D01*
X181034727Y-97157932D01*
X181061823Y-97178028D01*
X181086818Y-97200682D01*
X181109472Y-97225677D01*
X181129568Y-97252773D01*
X181146910Y-97281707D01*
X181161334Y-97312203D01*
X181172698Y-97343965D01*
X181180895Y-97376688D01*
X181185845Y-97410057D01*
X181187500Y-97443750D01*
X181187500Y-98556250D01*
X181185845Y-98589943D01*
X181180895Y-98623312D01*
X181172698Y-98656035D01*
X181161334Y-98687797D01*
X181146910Y-98718293D01*
X181129568Y-98747227D01*
X181109472Y-98774323D01*
X181086818Y-98799318D01*
X181061823Y-98821972D01*
X181034727Y-98842068D01*
X181005793Y-98859410D01*
X180975297Y-98873834D01*
X180943535Y-98885198D01*
X180910812Y-98893395D01*
X180877443Y-98898345D01*
X180843750Y-98900000D01*
X180156250Y-98900000D01*
X180122557Y-98898345D01*
X180089188Y-98893395D01*
X180056465Y-98885198D01*
X180024703Y-98873834D01*
X179994207Y-98859410D01*
X179965273Y-98842068D01*
X179938177Y-98821972D01*
X179913182Y-98799318D01*
X179890528Y-98774323D01*
X179870432Y-98747227D01*
X179853090Y-98718293D01*
X179838666Y-98687797D01*
X179827302Y-98656035D01*
X179819105Y-98623312D01*
X179814155Y-98589943D01*
X179812500Y-98556250D01*
X179812500Y-97443750D01*
X179814155Y-97410057D01*
X179819105Y-97376688D01*
X179827302Y-97343965D01*
X179838666Y-97312203D01*
X179853090Y-97281707D01*
X179870432Y-97252773D01*
X179890528Y-97225677D01*
X179913182Y-97200682D01*
X179938177Y-97178028D01*
X179965273Y-97157932D01*
X179994207Y-97140590D01*
X180024703Y-97126166D01*
X180056465Y-97114802D01*
X180089188Y-97106605D01*
X180122557Y-97101655D01*
X180156250Y-97100000D01*
X180843750Y-97100000D01*
X180877443Y-97101655D01*
X180877443Y-97101655D01*
G37*
D15*
X180500000Y-98000000D03*
D10*
G36*
X178777443Y-97101655D02*
G01*
X178810812Y-97106605D01*
X178843535Y-97114802D01*
X178875297Y-97126166D01*
X178905793Y-97140590D01*
X178934727Y-97157932D01*
X178961823Y-97178028D01*
X178986818Y-97200682D01*
X179009472Y-97225677D01*
X179029568Y-97252773D01*
X179046910Y-97281707D01*
X179061334Y-97312203D01*
X179072698Y-97343965D01*
X179080895Y-97376688D01*
X179085845Y-97410057D01*
X179087500Y-97443750D01*
X179087500Y-98556250D01*
X179085845Y-98589943D01*
X179080895Y-98623312D01*
X179072698Y-98656035D01*
X179061334Y-98687797D01*
X179046910Y-98718293D01*
X179029568Y-98747227D01*
X179009472Y-98774323D01*
X178986818Y-98799318D01*
X178961823Y-98821972D01*
X178934727Y-98842068D01*
X178905793Y-98859410D01*
X178875297Y-98873834D01*
X178843535Y-98885198D01*
X178810812Y-98893395D01*
X178777443Y-98898345D01*
X178743750Y-98900000D01*
X178056250Y-98900000D01*
X178022557Y-98898345D01*
X177989188Y-98893395D01*
X177956465Y-98885198D01*
X177924703Y-98873834D01*
X177894207Y-98859410D01*
X177865273Y-98842068D01*
X177838177Y-98821972D01*
X177813182Y-98799318D01*
X177790528Y-98774323D01*
X177770432Y-98747227D01*
X177753090Y-98718293D01*
X177738666Y-98687797D01*
X177727302Y-98656035D01*
X177719105Y-98623312D01*
X177714155Y-98589943D01*
X177712500Y-98556250D01*
X177712500Y-97443750D01*
X177714155Y-97410057D01*
X177719105Y-97376688D01*
X177727302Y-97343965D01*
X177738666Y-97312203D01*
X177753090Y-97281707D01*
X177770432Y-97252773D01*
X177790528Y-97225677D01*
X177813182Y-97200682D01*
X177838177Y-97178028D01*
X177865273Y-97157932D01*
X177894207Y-97140590D01*
X177924703Y-97126166D01*
X177956465Y-97114802D01*
X177989188Y-97106605D01*
X178022557Y-97101655D01*
X178056250Y-97100000D01*
X178743750Y-97100000D01*
X178777443Y-97101655D01*
X178777443Y-97101655D01*
G37*
D15*
X178400000Y-98000000D03*
D16*
X142360000Y-90375000D03*
X142360000Y-95425000D03*
X144900000Y-90375000D03*
X144900000Y-95425000D03*
X147440000Y-90375000D03*
X147440000Y-95425000D03*
D17*
X155967551Y-125372825D03*
D10*
G36*
X155866395Y-124288611D02*
G01*
X155903657Y-124276413D01*
X155942582Y-124271720D01*
X155981674Y-124274712D01*
X156019432Y-124285271D01*
X156054405Y-124302994D01*
X156085247Y-124327200D01*
X156110775Y-124356957D01*
X156971140Y-125585686D01*
X156990372Y-125619851D01*
X157002569Y-125657113D01*
X157007262Y-125696038D01*
X157004270Y-125735130D01*
X156993711Y-125772889D01*
X156975988Y-125807861D01*
X156951782Y-125838703D01*
X156922025Y-125864231D01*
X156512449Y-126151019D01*
X156507097Y-126154032D01*
X156492006Y-126164598D01*
X156475394Y-126175055D01*
X156432635Y-126199123D01*
X156415084Y-126207898D01*
X156370172Y-126227660D01*
X156351837Y-126234675D01*
X156305204Y-126249940D01*
X156286277Y-126255122D01*
X156238372Y-126265743D01*
X156219019Y-126269046D01*
X156170304Y-126274918D01*
X156150734Y-126276309D01*
X156101678Y-126277380D01*
X156082053Y-126276845D01*
X156033129Y-126273101D01*
X156013658Y-126270645D01*
X155965334Y-126262124D01*
X155946198Y-126257773D01*
X155898944Y-126244558D01*
X155880319Y-126238348D01*
X155834588Y-126220563D01*
X155816674Y-126212564D01*
X155772905Y-126190384D01*
X155755849Y-126180661D01*
X155714466Y-126154296D01*
X155698452Y-126142953D01*
X155659852Y-126112660D01*
X155645022Y-126099796D01*
X155609578Y-126065865D01*
X155596087Y-126051617D01*
X155564138Y-126014376D01*
X155552104Y-125998868D01*
X155541538Y-125983778D01*
X155537539Y-125979117D01*
X155250750Y-125569540D01*
X155247738Y-125564189D01*
X155237171Y-125549098D01*
X155226715Y-125532485D01*
X155202647Y-125489727D01*
X155193872Y-125472176D01*
X155174110Y-125427264D01*
X155167095Y-125408929D01*
X155151830Y-125362296D01*
X155146648Y-125343369D01*
X155136027Y-125295464D01*
X155132724Y-125276110D01*
X155126851Y-125227396D01*
X155125461Y-125207826D01*
X155124390Y-125158770D01*
X155124925Y-125139145D01*
X155128669Y-125090221D01*
X155131125Y-125070750D01*
X155139645Y-125022426D01*
X155143997Y-125003289D01*
X155157212Y-124956036D01*
X155163422Y-124937411D01*
X155181206Y-124891680D01*
X155189206Y-124873765D01*
X155211386Y-124829997D01*
X155221109Y-124812941D01*
X155247474Y-124771557D01*
X155258817Y-124755544D01*
X155289110Y-124716944D01*
X155301974Y-124702114D01*
X155335905Y-124666670D01*
X155350153Y-124653179D01*
X155387394Y-124621230D01*
X155402902Y-124609196D01*
X155417992Y-124598629D01*
X155422653Y-124594631D01*
X155832229Y-124307842D01*
X155866395Y-124288611D01*
X155866395Y-124288611D01*
G37*
D17*
X157032449Y-124627175D03*
D10*
G36*
X156492903Y-123845968D02*
G01*
X156507994Y-123835402D01*
X156524606Y-123824945D01*
X156567365Y-123800877D01*
X156584916Y-123792102D01*
X156629828Y-123772340D01*
X156648163Y-123765325D01*
X156694796Y-123750060D01*
X156713723Y-123744878D01*
X156761628Y-123734257D01*
X156780981Y-123730954D01*
X156829696Y-123725082D01*
X156849266Y-123723691D01*
X156898322Y-123722620D01*
X156917947Y-123723155D01*
X156966871Y-123726899D01*
X156986342Y-123729355D01*
X157034666Y-123737876D01*
X157053802Y-123742227D01*
X157101056Y-123755442D01*
X157119681Y-123761652D01*
X157165412Y-123779437D01*
X157183326Y-123787436D01*
X157227095Y-123809616D01*
X157244151Y-123819339D01*
X157285534Y-123845704D01*
X157301548Y-123857047D01*
X157340148Y-123887340D01*
X157354978Y-123900204D01*
X157390422Y-123934135D01*
X157403913Y-123948383D01*
X157435862Y-123985624D01*
X157447896Y-124001132D01*
X157458462Y-124016222D01*
X157462461Y-124020883D01*
X157749250Y-124430460D01*
X157752262Y-124435811D01*
X157762829Y-124450902D01*
X157773285Y-124467515D01*
X157797353Y-124510273D01*
X157806128Y-124527824D01*
X157825890Y-124572736D01*
X157832905Y-124591071D01*
X157848170Y-124637704D01*
X157853352Y-124656631D01*
X157863973Y-124704536D01*
X157867276Y-124723890D01*
X157873149Y-124772604D01*
X157874539Y-124792174D01*
X157875610Y-124841230D01*
X157875075Y-124860855D01*
X157871331Y-124909779D01*
X157868875Y-124929250D01*
X157860355Y-124977574D01*
X157856003Y-124996711D01*
X157842788Y-125043964D01*
X157836578Y-125062589D01*
X157818794Y-125108320D01*
X157810794Y-125126235D01*
X157788614Y-125170003D01*
X157778891Y-125187059D01*
X157752526Y-125228443D01*
X157741183Y-125244456D01*
X157710890Y-125283056D01*
X157698026Y-125297886D01*
X157664095Y-125333330D01*
X157649847Y-125346821D01*
X157612606Y-125378770D01*
X157597098Y-125390804D01*
X157582008Y-125401371D01*
X157577347Y-125405369D01*
X157167771Y-125692158D01*
X157133605Y-125711389D01*
X157096343Y-125723587D01*
X157057418Y-125728280D01*
X157018326Y-125725288D01*
X156980568Y-125714729D01*
X156945595Y-125697006D01*
X156914753Y-125672800D01*
X156889225Y-125643043D01*
X156028860Y-124414314D01*
X156009628Y-124380149D01*
X155997431Y-124342887D01*
X155992738Y-124303962D01*
X155995730Y-124264870D01*
X156006289Y-124227111D01*
X156024012Y-124192139D01*
X156048218Y-124161297D01*
X156077975Y-124135769D01*
X156487551Y-123848981D01*
X156492903Y-123845968D01*
X156492903Y-123845968D01*
G37*
D17*
X123250000Y-104000000D03*
D10*
G36*
X123256112Y-103050602D02*
G01*
X123274534Y-103050602D01*
X123294140Y-103051565D01*
X123342971Y-103056375D01*
X123362380Y-103059254D01*
X123410505Y-103068826D01*
X123429548Y-103073596D01*
X123476503Y-103087840D01*
X123494980Y-103094451D01*
X123540313Y-103113228D01*
X123558061Y-103121623D01*
X123601334Y-103144754D01*
X123618162Y-103154840D01*
X123658961Y-103182100D01*
X123674730Y-103193795D01*
X123712659Y-103224923D01*
X123727200Y-103238103D01*
X123761897Y-103272800D01*
X123775077Y-103287341D01*
X123806205Y-103325270D01*
X123817900Y-103341039D01*
X123845160Y-103381838D01*
X123855246Y-103398666D01*
X123878377Y-103441939D01*
X123886772Y-103459687D01*
X123905549Y-103505020D01*
X123912160Y-103523497D01*
X123926404Y-103570452D01*
X123931174Y-103589495D01*
X123940746Y-103637620D01*
X123943625Y-103657029D01*
X123948435Y-103705860D01*
X123949398Y-103725466D01*
X123949398Y-103743888D01*
X123950000Y-103750000D01*
X123950000Y-104250000D01*
X123949398Y-104256112D01*
X123949398Y-104274534D01*
X123948435Y-104294140D01*
X123943625Y-104342971D01*
X123940746Y-104362380D01*
X123931174Y-104410505D01*
X123926404Y-104429548D01*
X123912160Y-104476503D01*
X123905549Y-104494980D01*
X123886772Y-104540313D01*
X123878377Y-104558061D01*
X123855246Y-104601334D01*
X123845160Y-104618162D01*
X123817900Y-104658961D01*
X123806205Y-104674730D01*
X123775077Y-104712659D01*
X123761897Y-104727200D01*
X123727200Y-104761897D01*
X123712659Y-104775077D01*
X123674730Y-104806205D01*
X123658961Y-104817900D01*
X123618162Y-104845160D01*
X123601334Y-104855246D01*
X123558061Y-104878377D01*
X123540313Y-104886772D01*
X123494980Y-104905549D01*
X123476503Y-104912160D01*
X123429548Y-104926404D01*
X123410505Y-104931174D01*
X123362380Y-104940746D01*
X123342971Y-104943625D01*
X123294140Y-104948435D01*
X123274534Y-104949398D01*
X123256112Y-104949398D01*
X123250000Y-104950000D01*
X122750000Y-104950000D01*
X122710982Y-104946157D01*
X122673463Y-104934776D01*
X122638886Y-104916294D01*
X122608579Y-104891421D01*
X122583706Y-104861114D01*
X122565224Y-104826537D01*
X122553843Y-104789018D01*
X122550000Y-104750000D01*
X122550000Y-103250000D01*
X122553843Y-103210982D01*
X122565224Y-103173463D01*
X122583706Y-103138886D01*
X122608579Y-103108579D01*
X122638886Y-103083706D01*
X122673463Y-103065224D01*
X122710982Y-103053843D01*
X122750000Y-103050000D01*
X123250000Y-103050000D01*
X123256112Y-103050602D01*
X123256112Y-103050602D01*
G37*
D17*
X121950000Y-104000000D03*
D10*
G36*
X122489018Y-103053843D02*
G01*
X122526537Y-103065224D01*
X122561114Y-103083706D01*
X122591421Y-103108579D01*
X122616294Y-103138886D01*
X122634776Y-103173463D01*
X122646157Y-103210982D01*
X122650000Y-103250000D01*
X122650000Y-104750000D01*
X122646157Y-104789018D01*
X122634776Y-104826537D01*
X122616294Y-104861114D01*
X122591421Y-104891421D01*
X122561114Y-104916294D01*
X122526537Y-104934776D01*
X122489018Y-104946157D01*
X122450000Y-104950000D01*
X121950000Y-104950000D01*
X121943888Y-104949398D01*
X121925466Y-104949398D01*
X121905860Y-104948435D01*
X121857029Y-104943625D01*
X121837620Y-104940746D01*
X121789495Y-104931174D01*
X121770452Y-104926404D01*
X121723497Y-104912160D01*
X121705020Y-104905549D01*
X121659687Y-104886772D01*
X121641939Y-104878377D01*
X121598666Y-104855246D01*
X121581838Y-104845160D01*
X121541039Y-104817900D01*
X121525270Y-104806205D01*
X121487341Y-104775077D01*
X121472800Y-104761897D01*
X121438103Y-104727200D01*
X121424923Y-104712659D01*
X121393795Y-104674730D01*
X121382100Y-104658961D01*
X121354840Y-104618162D01*
X121344754Y-104601334D01*
X121321623Y-104558061D01*
X121313228Y-104540313D01*
X121294451Y-104494980D01*
X121287840Y-104476503D01*
X121273596Y-104429548D01*
X121268826Y-104410505D01*
X121259254Y-104362380D01*
X121256375Y-104342971D01*
X121251565Y-104294140D01*
X121250602Y-104274534D01*
X121250602Y-104256112D01*
X121250000Y-104250000D01*
X121250000Y-103750000D01*
X121250602Y-103743888D01*
X121250602Y-103725466D01*
X121251565Y-103705860D01*
X121256375Y-103657029D01*
X121259254Y-103637620D01*
X121268826Y-103589495D01*
X121273596Y-103570452D01*
X121287840Y-103523497D01*
X121294451Y-103505020D01*
X121313228Y-103459687D01*
X121321623Y-103441939D01*
X121344754Y-103398666D01*
X121354840Y-103381838D01*
X121382100Y-103341039D01*
X121393795Y-103325270D01*
X121424923Y-103287341D01*
X121438103Y-103272800D01*
X121472800Y-103238103D01*
X121487341Y-103224923D01*
X121525270Y-103193795D01*
X121541039Y-103182100D01*
X121581838Y-103154840D01*
X121598666Y-103144754D01*
X121641939Y-103121623D01*
X121659687Y-103113228D01*
X121705020Y-103094451D01*
X121723497Y-103087840D01*
X121770452Y-103073596D01*
X121789495Y-103068826D01*
X121837620Y-103059254D01*
X121857029Y-103056375D01*
X121905860Y-103051565D01*
X121925466Y-103050602D01*
X121943888Y-103050602D01*
X121950000Y-103050000D01*
X122450000Y-103050000D01*
X122489018Y-103053843D01*
X122489018Y-103053843D01*
G37*
D18*
X158000000Y-102200000D03*
X158000000Y-100300000D03*
X160000000Y-101250000D03*
X168250000Y-101300000D03*
X166250000Y-100350000D03*
X166250000Y-102250000D03*
D19*
X127800000Y-108500000D03*
X129700000Y-108500000D03*
X128750000Y-110500000D03*
D10*
G36*
X126752443Y-97601655D02*
G01*
X126785812Y-97606605D01*
X126818535Y-97614802D01*
X126850297Y-97626166D01*
X126880793Y-97640590D01*
X126909727Y-97657932D01*
X126936823Y-97678028D01*
X126961818Y-97700682D01*
X126984472Y-97725677D01*
X127004568Y-97752773D01*
X127021910Y-97781707D01*
X127036334Y-97812203D01*
X127047698Y-97843965D01*
X127055895Y-97876688D01*
X127060845Y-97910057D01*
X127062500Y-97943750D01*
X127062500Y-99056250D01*
X127060845Y-99089943D01*
X127055895Y-99123312D01*
X127047698Y-99156035D01*
X127036334Y-99187797D01*
X127021910Y-99218293D01*
X127004568Y-99247227D01*
X126984472Y-99274323D01*
X126961818Y-99299318D01*
X126936823Y-99321972D01*
X126909727Y-99342068D01*
X126880793Y-99359410D01*
X126850297Y-99373834D01*
X126818535Y-99385198D01*
X126785812Y-99393395D01*
X126752443Y-99398345D01*
X126718750Y-99400000D01*
X126031250Y-99400000D01*
X125997557Y-99398345D01*
X125964188Y-99393395D01*
X125931465Y-99385198D01*
X125899703Y-99373834D01*
X125869207Y-99359410D01*
X125840273Y-99342068D01*
X125813177Y-99321972D01*
X125788182Y-99299318D01*
X125765528Y-99274323D01*
X125745432Y-99247227D01*
X125728090Y-99218293D01*
X125713666Y-99187797D01*
X125702302Y-99156035D01*
X125694105Y-99123312D01*
X125689155Y-99089943D01*
X125687500Y-99056250D01*
X125687500Y-97943750D01*
X125689155Y-97910057D01*
X125694105Y-97876688D01*
X125702302Y-97843965D01*
X125713666Y-97812203D01*
X125728090Y-97781707D01*
X125745432Y-97752773D01*
X125765528Y-97725677D01*
X125788182Y-97700682D01*
X125813177Y-97678028D01*
X125840273Y-97657932D01*
X125869207Y-97640590D01*
X125899703Y-97626166D01*
X125931465Y-97614802D01*
X125964188Y-97606605D01*
X125997557Y-97601655D01*
X126031250Y-97600000D01*
X126718750Y-97600000D01*
X126752443Y-97601655D01*
X126752443Y-97601655D01*
G37*
D15*
X126375000Y-98500000D03*
D10*
G36*
X124877443Y-97601655D02*
G01*
X124910812Y-97606605D01*
X124943535Y-97614802D01*
X124975297Y-97626166D01*
X125005793Y-97640590D01*
X125034727Y-97657932D01*
X125061823Y-97678028D01*
X125086818Y-97700682D01*
X125109472Y-97725677D01*
X125129568Y-97752773D01*
X125146910Y-97781707D01*
X125161334Y-97812203D01*
X125172698Y-97843965D01*
X125180895Y-97876688D01*
X125185845Y-97910057D01*
X125187500Y-97943750D01*
X125187500Y-99056250D01*
X125185845Y-99089943D01*
X125180895Y-99123312D01*
X125172698Y-99156035D01*
X125161334Y-99187797D01*
X125146910Y-99218293D01*
X125129568Y-99247227D01*
X125109472Y-99274323D01*
X125086818Y-99299318D01*
X125061823Y-99321972D01*
X125034727Y-99342068D01*
X125005793Y-99359410D01*
X124975297Y-99373834D01*
X124943535Y-99385198D01*
X124910812Y-99393395D01*
X124877443Y-99398345D01*
X124843750Y-99400000D01*
X124156250Y-99400000D01*
X124122557Y-99398345D01*
X124089188Y-99393395D01*
X124056465Y-99385198D01*
X124024703Y-99373834D01*
X123994207Y-99359410D01*
X123965273Y-99342068D01*
X123938177Y-99321972D01*
X123913182Y-99299318D01*
X123890528Y-99274323D01*
X123870432Y-99247227D01*
X123853090Y-99218293D01*
X123838666Y-99187797D01*
X123827302Y-99156035D01*
X123819105Y-99123312D01*
X123814155Y-99089943D01*
X123812500Y-99056250D01*
X123812500Y-97943750D01*
X123814155Y-97910057D01*
X123819105Y-97876688D01*
X123827302Y-97843965D01*
X123838666Y-97812203D01*
X123853090Y-97781707D01*
X123870432Y-97752773D01*
X123890528Y-97725677D01*
X123913182Y-97700682D01*
X123938177Y-97678028D01*
X123965273Y-97657932D01*
X123994207Y-97640590D01*
X124024703Y-97626166D01*
X124056465Y-97614802D01*
X124089188Y-97606605D01*
X124122557Y-97601655D01*
X124156250Y-97600000D01*
X124843750Y-97600000D01*
X124877443Y-97601655D01*
X124877443Y-97601655D01*
G37*
D15*
X124500000Y-98500000D03*
D10*
G36*
X153002443Y-95851655D02*
G01*
X153035812Y-95856605D01*
X153068535Y-95864802D01*
X153100297Y-95876166D01*
X153130793Y-95890590D01*
X153159727Y-95907932D01*
X153186823Y-95928028D01*
X153211818Y-95950682D01*
X153234472Y-95975677D01*
X153254568Y-96002773D01*
X153271910Y-96031707D01*
X153286334Y-96062203D01*
X153297698Y-96093965D01*
X153305895Y-96126688D01*
X153310845Y-96160057D01*
X153312500Y-96193750D01*
X153312500Y-97306250D01*
X153310845Y-97339943D01*
X153305895Y-97373312D01*
X153297698Y-97406035D01*
X153286334Y-97437797D01*
X153271910Y-97468293D01*
X153254568Y-97497227D01*
X153234472Y-97524323D01*
X153211818Y-97549318D01*
X153186823Y-97571972D01*
X153159727Y-97592068D01*
X153130793Y-97609410D01*
X153100297Y-97623834D01*
X153068535Y-97635198D01*
X153035812Y-97643395D01*
X153002443Y-97648345D01*
X152968750Y-97650000D01*
X152281250Y-97650000D01*
X152247557Y-97648345D01*
X152214188Y-97643395D01*
X152181465Y-97635198D01*
X152149703Y-97623834D01*
X152119207Y-97609410D01*
X152090273Y-97592068D01*
X152063177Y-97571972D01*
X152038182Y-97549318D01*
X152015528Y-97524323D01*
X151995432Y-97497227D01*
X151978090Y-97468293D01*
X151963666Y-97437797D01*
X151952302Y-97406035D01*
X151944105Y-97373312D01*
X151939155Y-97339943D01*
X151937500Y-97306250D01*
X151937500Y-96193750D01*
X151939155Y-96160057D01*
X151944105Y-96126688D01*
X151952302Y-96093965D01*
X151963666Y-96062203D01*
X151978090Y-96031707D01*
X151995432Y-96002773D01*
X152015528Y-95975677D01*
X152038182Y-95950682D01*
X152063177Y-95928028D01*
X152090273Y-95907932D01*
X152119207Y-95890590D01*
X152149703Y-95876166D01*
X152181465Y-95864802D01*
X152214188Y-95856605D01*
X152247557Y-95851655D01*
X152281250Y-95850000D01*
X152968750Y-95850000D01*
X153002443Y-95851655D01*
X153002443Y-95851655D01*
G37*
D15*
X152625000Y-96750000D03*
D10*
G36*
X154877443Y-95851655D02*
G01*
X154910812Y-95856605D01*
X154943535Y-95864802D01*
X154975297Y-95876166D01*
X155005793Y-95890590D01*
X155034727Y-95907932D01*
X155061823Y-95928028D01*
X155086818Y-95950682D01*
X155109472Y-95975677D01*
X155129568Y-96002773D01*
X155146910Y-96031707D01*
X155161334Y-96062203D01*
X155172698Y-96093965D01*
X155180895Y-96126688D01*
X155185845Y-96160057D01*
X155187500Y-96193750D01*
X155187500Y-97306250D01*
X155185845Y-97339943D01*
X155180895Y-97373312D01*
X155172698Y-97406035D01*
X155161334Y-97437797D01*
X155146910Y-97468293D01*
X155129568Y-97497227D01*
X155109472Y-97524323D01*
X155086818Y-97549318D01*
X155061823Y-97571972D01*
X155034727Y-97592068D01*
X155005793Y-97609410D01*
X154975297Y-97623834D01*
X154943535Y-97635198D01*
X154910812Y-97643395D01*
X154877443Y-97648345D01*
X154843750Y-97650000D01*
X154156250Y-97650000D01*
X154122557Y-97648345D01*
X154089188Y-97643395D01*
X154056465Y-97635198D01*
X154024703Y-97623834D01*
X153994207Y-97609410D01*
X153965273Y-97592068D01*
X153938177Y-97571972D01*
X153913182Y-97549318D01*
X153890528Y-97524323D01*
X153870432Y-97497227D01*
X153853090Y-97468293D01*
X153838666Y-97437797D01*
X153827302Y-97406035D01*
X153819105Y-97373312D01*
X153814155Y-97339943D01*
X153812500Y-97306250D01*
X153812500Y-96193750D01*
X153814155Y-96160057D01*
X153819105Y-96126688D01*
X153827302Y-96093965D01*
X153838666Y-96062203D01*
X153853090Y-96031707D01*
X153870432Y-96002773D01*
X153890528Y-95975677D01*
X153913182Y-95950682D01*
X153938177Y-95928028D01*
X153965273Y-95907932D01*
X153994207Y-95890590D01*
X154024703Y-95876166D01*
X154056465Y-95864802D01*
X154089188Y-95856605D01*
X154122557Y-95851655D01*
X154156250Y-95850000D01*
X154843750Y-95850000D01*
X154877443Y-95851655D01*
X154877443Y-95851655D01*
G37*
D15*
X154500000Y-96750000D03*
D10*
G36*
X155002443Y-102351655D02*
G01*
X155035812Y-102356605D01*
X155068535Y-102364802D01*
X155100297Y-102376166D01*
X155130793Y-102390590D01*
X155159727Y-102407932D01*
X155186823Y-102428028D01*
X155211818Y-102450682D01*
X155234472Y-102475677D01*
X155254568Y-102502773D01*
X155271910Y-102531707D01*
X155286334Y-102562203D01*
X155297698Y-102593965D01*
X155305895Y-102626688D01*
X155310845Y-102660057D01*
X155312500Y-102693750D01*
X155312500Y-103806250D01*
X155310845Y-103839943D01*
X155305895Y-103873312D01*
X155297698Y-103906035D01*
X155286334Y-103937797D01*
X155271910Y-103968293D01*
X155254568Y-103997227D01*
X155234472Y-104024323D01*
X155211818Y-104049318D01*
X155186823Y-104071972D01*
X155159727Y-104092068D01*
X155130793Y-104109410D01*
X155100297Y-104123834D01*
X155068535Y-104135198D01*
X155035812Y-104143395D01*
X155002443Y-104148345D01*
X154968750Y-104150000D01*
X154281250Y-104150000D01*
X154247557Y-104148345D01*
X154214188Y-104143395D01*
X154181465Y-104135198D01*
X154149703Y-104123834D01*
X154119207Y-104109410D01*
X154090273Y-104092068D01*
X154063177Y-104071972D01*
X154038182Y-104049318D01*
X154015528Y-104024323D01*
X153995432Y-103997227D01*
X153978090Y-103968293D01*
X153963666Y-103937797D01*
X153952302Y-103906035D01*
X153944105Y-103873312D01*
X153939155Y-103839943D01*
X153937500Y-103806250D01*
X153937500Y-102693750D01*
X153939155Y-102660057D01*
X153944105Y-102626688D01*
X153952302Y-102593965D01*
X153963666Y-102562203D01*
X153978090Y-102531707D01*
X153995432Y-102502773D01*
X154015528Y-102475677D01*
X154038182Y-102450682D01*
X154063177Y-102428028D01*
X154090273Y-102407932D01*
X154119207Y-102390590D01*
X154149703Y-102376166D01*
X154181465Y-102364802D01*
X154214188Y-102356605D01*
X154247557Y-102351655D01*
X154281250Y-102350000D01*
X154968750Y-102350000D01*
X155002443Y-102351655D01*
X155002443Y-102351655D01*
G37*
D15*
X154625000Y-103250000D03*
D10*
G36*
X153127443Y-102351655D02*
G01*
X153160812Y-102356605D01*
X153193535Y-102364802D01*
X153225297Y-102376166D01*
X153255793Y-102390590D01*
X153284727Y-102407932D01*
X153311823Y-102428028D01*
X153336818Y-102450682D01*
X153359472Y-102475677D01*
X153379568Y-102502773D01*
X153396910Y-102531707D01*
X153411334Y-102562203D01*
X153422698Y-102593965D01*
X153430895Y-102626688D01*
X153435845Y-102660057D01*
X153437500Y-102693750D01*
X153437500Y-103806250D01*
X153435845Y-103839943D01*
X153430895Y-103873312D01*
X153422698Y-103906035D01*
X153411334Y-103937797D01*
X153396910Y-103968293D01*
X153379568Y-103997227D01*
X153359472Y-104024323D01*
X153336818Y-104049318D01*
X153311823Y-104071972D01*
X153284727Y-104092068D01*
X153255793Y-104109410D01*
X153225297Y-104123834D01*
X153193535Y-104135198D01*
X153160812Y-104143395D01*
X153127443Y-104148345D01*
X153093750Y-104150000D01*
X152406250Y-104150000D01*
X152372557Y-104148345D01*
X152339188Y-104143395D01*
X152306465Y-104135198D01*
X152274703Y-104123834D01*
X152244207Y-104109410D01*
X152215273Y-104092068D01*
X152188177Y-104071972D01*
X152163182Y-104049318D01*
X152140528Y-104024323D01*
X152120432Y-103997227D01*
X152103090Y-103968293D01*
X152088666Y-103937797D01*
X152077302Y-103906035D01*
X152069105Y-103873312D01*
X152064155Y-103839943D01*
X152062500Y-103806250D01*
X152062500Y-102693750D01*
X152064155Y-102660057D01*
X152069105Y-102626688D01*
X152077302Y-102593965D01*
X152088666Y-102562203D01*
X152103090Y-102531707D01*
X152120432Y-102502773D01*
X152140528Y-102475677D01*
X152163182Y-102450682D01*
X152188177Y-102428028D01*
X152215273Y-102407932D01*
X152244207Y-102390590D01*
X152274703Y-102376166D01*
X152306465Y-102364802D01*
X152339188Y-102356605D01*
X152372557Y-102351655D01*
X152406250Y-102350000D01*
X153093750Y-102350000D01*
X153127443Y-102351655D01*
X153127443Y-102351655D01*
G37*
D15*
X152750000Y-103250000D03*
D10*
G36*
X153127443Y-99101655D02*
G01*
X153160812Y-99106605D01*
X153193535Y-99114802D01*
X153225297Y-99126166D01*
X153255793Y-99140590D01*
X153284727Y-99157932D01*
X153311823Y-99178028D01*
X153336818Y-99200682D01*
X153359472Y-99225677D01*
X153379568Y-99252773D01*
X153396910Y-99281707D01*
X153411334Y-99312203D01*
X153422698Y-99343965D01*
X153430895Y-99376688D01*
X153435845Y-99410057D01*
X153437500Y-99443750D01*
X153437500Y-100556250D01*
X153435845Y-100589943D01*
X153430895Y-100623312D01*
X153422698Y-100656035D01*
X153411334Y-100687797D01*
X153396910Y-100718293D01*
X153379568Y-100747227D01*
X153359472Y-100774323D01*
X153336818Y-100799318D01*
X153311823Y-100821972D01*
X153284727Y-100842068D01*
X153255793Y-100859410D01*
X153225297Y-100873834D01*
X153193535Y-100885198D01*
X153160812Y-100893395D01*
X153127443Y-100898345D01*
X153093750Y-100900000D01*
X152406250Y-100900000D01*
X152372557Y-100898345D01*
X152339188Y-100893395D01*
X152306465Y-100885198D01*
X152274703Y-100873834D01*
X152244207Y-100859410D01*
X152215273Y-100842068D01*
X152188177Y-100821972D01*
X152163182Y-100799318D01*
X152140528Y-100774323D01*
X152120432Y-100747227D01*
X152103090Y-100718293D01*
X152088666Y-100687797D01*
X152077302Y-100656035D01*
X152069105Y-100623312D01*
X152064155Y-100589943D01*
X152062500Y-100556250D01*
X152062500Y-99443750D01*
X152064155Y-99410057D01*
X152069105Y-99376688D01*
X152077302Y-99343965D01*
X152088666Y-99312203D01*
X152103090Y-99281707D01*
X152120432Y-99252773D01*
X152140528Y-99225677D01*
X152163182Y-99200682D01*
X152188177Y-99178028D01*
X152215273Y-99157932D01*
X152244207Y-99140590D01*
X152274703Y-99126166D01*
X152306465Y-99114802D01*
X152339188Y-99106605D01*
X152372557Y-99101655D01*
X152406250Y-99100000D01*
X153093750Y-99100000D01*
X153127443Y-99101655D01*
X153127443Y-99101655D01*
G37*
D15*
X152750000Y-100000000D03*
D10*
G36*
X155002443Y-99101655D02*
G01*
X155035812Y-99106605D01*
X155068535Y-99114802D01*
X155100297Y-99126166D01*
X155130793Y-99140590D01*
X155159727Y-99157932D01*
X155186823Y-99178028D01*
X155211818Y-99200682D01*
X155234472Y-99225677D01*
X155254568Y-99252773D01*
X155271910Y-99281707D01*
X155286334Y-99312203D01*
X155297698Y-99343965D01*
X155305895Y-99376688D01*
X155310845Y-99410057D01*
X155312500Y-99443750D01*
X155312500Y-100556250D01*
X155310845Y-100589943D01*
X155305895Y-100623312D01*
X155297698Y-100656035D01*
X155286334Y-100687797D01*
X155271910Y-100718293D01*
X155254568Y-100747227D01*
X155234472Y-100774323D01*
X155211818Y-100799318D01*
X155186823Y-100821972D01*
X155159727Y-100842068D01*
X155130793Y-100859410D01*
X155100297Y-100873834D01*
X155068535Y-100885198D01*
X155035812Y-100893395D01*
X155002443Y-100898345D01*
X154968750Y-100900000D01*
X154281250Y-100900000D01*
X154247557Y-100898345D01*
X154214188Y-100893395D01*
X154181465Y-100885198D01*
X154149703Y-100873834D01*
X154119207Y-100859410D01*
X154090273Y-100842068D01*
X154063177Y-100821972D01*
X154038182Y-100799318D01*
X154015528Y-100774323D01*
X153995432Y-100747227D01*
X153978090Y-100718293D01*
X153963666Y-100687797D01*
X153952302Y-100656035D01*
X153944105Y-100623312D01*
X153939155Y-100589943D01*
X153937500Y-100556250D01*
X153937500Y-99443750D01*
X153939155Y-99410057D01*
X153944105Y-99376688D01*
X153952302Y-99343965D01*
X153963666Y-99312203D01*
X153978090Y-99281707D01*
X153995432Y-99252773D01*
X154015528Y-99225677D01*
X154038182Y-99200682D01*
X154063177Y-99178028D01*
X154090273Y-99157932D01*
X154119207Y-99140590D01*
X154149703Y-99126166D01*
X154181465Y-99114802D01*
X154214188Y-99106605D01*
X154247557Y-99101655D01*
X154281250Y-99100000D01*
X154968750Y-99100000D01*
X155002443Y-99101655D01*
X155002443Y-99101655D01*
G37*
D15*
X154625000Y-100000000D03*
D10*
G36*
X131314943Y-104351655D02*
G01*
X131348312Y-104356605D01*
X131381035Y-104364802D01*
X131412797Y-104376166D01*
X131443293Y-104390590D01*
X131472227Y-104407932D01*
X131499323Y-104428028D01*
X131524318Y-104450682D01*
X131546972Y-104475677D01*
X131567068Y-104502773D01*
X131584410Y-104531707D01*
X131598834Y-104562203D01*
X131610198Y-104593965D01*
X131618395Y-104626688D01*
X131623345Y-104660057D01*
X131625000Y-104693750D01*
X131625000Y-105806250D01*
X131623345Y-105839943D01*
X131618395Y-105873312D01*
X131610198Y-105906035D01*
X131598834Y-105937797D01*
X131584410Y-105968293D01*
X131567068Y-105997227D01*
X131546972Y-106024323D01*
X131524318Y-106049318D01*
X131499323Y-106071972D01*
X131472227Y-106092068D01*
X131443293Y-106109410D01*
X131412797Y-106123834D01*
X131381035Y-106135198D01*
X131348312Y-106143395D01*
X131314943Y-106148345D01*
X131281250Y-106150000D01*
X130593750Y-106150000D01*
X130560057Y-106148345D01*
X130526688Y-106143395D01*
X130493965Y-106135198D01*
X130462203Y-106123834D01*
X130431707Y-106109410D01*
X130402773Y-106092068D01*
X130375677Y-106071972D01*
X130350682Y-106049318D01*
X130328028Y-106024323D01*
X130307932Y-105997227D01*
X130290590Y-105968293D01*
X130276166Y-105937797D01*
X130264802Y-105906035D01*
X130256605Y-105873312D01*
X130251655Y-105839943D01*
X130250000Y-105806250D01*
X130250000Y-104693750D01*
X130251655Y-104660057D01*
X130256605Y-104626688D01*
X130264802Y-104593965D01*
X130276166Y-104562203D01*
X130290590Y-104531707D01*
X130307932Y-104502773D01*
X130328028Y-104475677D01*
X130350682Y-104450682D01*
X130375677Y-104428028D01*
X130402773Y-104407932D01*
X130431707Y-104390590D01*
X130462203Y-104376166D01*
X130493965Y-104364802D01*
X130526688Y-104356605D01*
X130560057Y-104351655D01*
X130593750Y-104350000D01*
X131281250Y-104350000D01*
X131314943Y-104351655D01*
X131314943Y-104351655D01*
G37*
D15*
X130937500Y-105250000D03*
D10*
G36*
X129439943Y-104351655D02*
G01*
X129473312Y-104356605D01*
X129506035Y-104364802D01*
X129537797Y-104376166D01*
X129568293Y-104390590D01*
X129597227Y-104407932D01*
X129624323Y-104428028D01*
X129649318Y-104450682D01*
X129671972Y-104475677D01*
X129692068Y-104502773D01*
X129709410Y-104531707D01*
X129723834Y-104562203D01*
X129735198Y-104593965D01*
X129743395Y-104626688D01*
X129748345Y-104660057D01*
X129750000Y-104693750D01*
X129750000Y-105806250D01*
X129748345Y-105839943D01*
X129743395Y-105873312D01*
X129735198Y-105906035D01*
X129723834Y-105937797D01*
X129709410Y-105968293D01*
X129692068Y-105997227D01*
X129671972Y-106024323D01*
X129649318Y-106049318D01*
X129624323Y-106071972D01*
X129597227Y-106092068D01*
X129568293Y-106109410D01*
X129537797Y-106123834D01*
X129506035Y-106135198D01*
X129473312Y-106143395D01*
X129439943Y-106148345D01*
X129406250Y-106150000D01*
X128718750Y-106150000D01*
X128685057Y-106148345D01*
X128651688Y-106143395D01*
X128618965Y-106135198D01*
X128587203Y-106123834D01*
X128556707Y-106109410D01*
X128527773Y-106092068D01*
X128500677Y-106071972D01*
X128475682Y-106049318D01*
X128453028Y-106024323D01*
X128432932Y-105997227D01*
X128415590Y-105968293D01*
X128401166Y-105937797D01*
X128389802Y-105906035D01*
X128381605Y-105873312D01*
X128376655Y-105839943D01*
X128375000Y-105806250D01*
X128375000Y-104693750D01*
X128376655Y-104660057D01*
X128381605Y-104626688D01*
X128389802Y-104593965D01*
X128401166Y-104562203D01*
X128415590Y-104531707D01*
X128432932Y-104502773D01*
X128453028Y-104475677D01*
X128475682Y-104450682D01*
X128500677Y-104428028D01*
X128527773Y-104407932D01*
X128556707Y-104390590D01*
X128587203Y-104376166D01*
X128618965Y-104364802D01*
X128651688Y-104356605D01*
X128685057Y-104351655D01*
X128718750Y-104350000D01*
X129406250Y-104350000D01*
X129439943Y-104351655D01*
X129439943Y-104351655D01*
G37*
D15*
X129062500Y-105250000D03*
D20*
X128096203Y-117050386D03*
D10*
G36*
X127572631Y-116337384D02*
G01*
X128848746Y-116585436D01*
X128619775Y-117763388D01*
X127343660Y-117515336D01*
X127572631Y-116337384D01*
X127572631Y-116337384D01*
G37*
D20*
X126646055Y-124510753D03*
D10*
G36*
X126122483Y-123797751D02*
G01*
X127398598Y-124045803D01*
X127169627Y-125223755D01*
X125893512Y-124975703D01*
X126122483Y-123797751D01*
X126122483Y-123797751D01*
G37*
D20*
X128901889Y-124959430D03*
D10*
G36*
X128378317Y-124246428D02*
G01*
X129654432Y-124494480D01*
X129425461Y-125672432D01*
X128149346Y-125424380D01*
X128378317Y-124246428D01*
X128378317Y-124246428D01*
G37*
D20*
X130353945Y-117489247D03*
D10*
G36*
X129830373Y-116776245D02*
G01*
X131106488Y-117024297D01*
X130877517Y-118202249D01*
X129601402Y-117954197D01*
X129830373Y-116776245D01*
X129830373Y-116776245D01*
G37*
D21*
X131015278Y-119196808D03*
D10*
G36*
X130329461Y-118401333D02*
G01*
X131949146Y-118716168D01*
X131701095Y-119992283D01*
X130081410Y-119677448D01*
X130329461Y-118401333D01*
X130329461Y-118401333D01*
G37*
D21*
X130729065Y-120669249D03*
D10*
G36*
X130043248Y-119873774D02*
G01*
X131662933Y-120188609D01*
X131414882Y-121464724D01*
X129795197Y-121149889D01*
X130043248Y-119873774D01*
X130043248Y-119873774D01*
G37*
D21*
X130156638Y-123614130D03*
D10*
G36*
X129470821Y-122818655D02*
G01*
X131090506Y-123133490D01*
X130842455Y-124409605D01*
X129222770Y-124094770D01*
X129470821Y-122818655D01*
X129470821Y-122818655D01*
G37*
D21*
X128213787Y-122472441D03*
X128786213Y-119527559D03*
M02*
